M48
; DRILL file {KiCad 9.0.2} date 2025-07-04T12:52:10+0530
; FORMAT={-:-/ absolute / metric / decimal}
; #@! TF.CreationDate,2025-07-04T12:52:10+05:30
; #@! TF.GenerationSoftware,Kicad,Pcbnew,9.0.2
; #@! TF.FileFunction,Plated,1,2,PTH
FMAT,2
METRIC
; #@! TA.AperFunction,Plated,PTH,ComponentDrill
T1C0.800
; #@! TA.AperFunction,Plated,PTH,ComponentDrill
T2C0.900
; #@! TA.AperFunction,Plated,PTH,ComponentDrill
T3C1.000
; #@! TA.AperFunction,Plated,PTH,ComponentDrill
T4C1.020
; #@! TA.AperFunction,Plated,PTH,ComponentDrill
T5C1.200
%
G90
G05
T1
X106.0Y-88.0
X113.62Y-88.0
X117.0Y-71.0
X117.0Y-78.62
X117.38Y-82.654
X117.38Y-88.0
X124.38Y-69.38
X124.38Y-71.92
X124.38Y-74.46
X124.38Y-77.0
X125.0Y-82.654
X125.0Y-88.0
X132.0Y-69.38
X132.0Y-71.92
X132.0Y-74.46
X132.0Y-77.0
T2
X109.46Y-72.0
X109.46Y-80.0
X112.0Y-72.0
X112.0Y-80.0
T3
X125.0Y-56.118
X125.0Y-63.618
X138.0Y-67.0
X138.0Y-82.0
T4
X44.835Y-70.01
X44.835Y-85.0
T5
X105.25Y-58.35
X105.25Y-63.65
M30
