%TF.GenerationSoftware,KiCad,Pcbnew,9.0.2*%
%TF.CreationDate,2025-07-04T12:52:13+05:30*%
%TF.ProjectId,qn2,716e322e-6b69-4636-9164-5f7063625858,rev?*%
%TF.SameCoordinates,Original*%
%TF.FileFunction,Copper,L2,Bot*%
%TF.FilePolarity,Positive*%
%FSLAX46Y46*%
G04 Gerber Fmt 4.6, Leading zero omitted, Abs format (unit mm)*
G04 Created by KiCad (PCBNEW 9.0.2) date 2025-07-04 12:52:13*
%MOMM*%
%LPD*%
G01*
G04 APERTURE LIST*
G04 Aperture macros list*
%AMRoundRect*
0 Rectangle with rounded corners*
0 $1 Rounding radius*
0 $2 $3 $4 $5 $6 $7 $8 $9 X,Y pos of 4 corners*
0 Add a 4 corners polygon primitive as box body*
4,1,4,$2,$3,$4,$5,$6,$7,$8,$9,$2,$3,0*
0 Add four circle primitives for the rounded corners*
1,1,$1+$1,$2,$3*
1,1,$1+$1,$4,$5*
1,1,$1+$1,$6,$7*
1,1,$1+$1,$8,$9*
0 Add four rect primitives between the rounded corners*
20,1,$1+$1,$2,$3,$4,$5,0*
20,1,$1+$1,$4,$5,$6,$7,0*
20,1,$1+$1,$6,$7,$8,$9,0*
20,1,$1+$1,$8,$9,$2,$3,0*%
G04 Aperture macros list end*
%TA.AperFunction,ComponentPad*%
%ADD10RoundRect,0.250000X0.750000X-0.750000X0.750000X0.750000X-0.750000X0.750000X-0.750000X-0.750000X0*%
%TD*%
%TA.AperFunction,ComponentPad*%
%ADD11C,2.000000*%
%TD*%
%TA.AperFunction,ComponentPad*%
%ADD12RoundRect,0.250000X-0.550000X-0.550000X0.550000X-0.550000X0.550000X0.550000X-0.550000X0.550000X0*%
%TD*%
%TA.AperFunction,ComponentPad*%
%ADD13C,1.600000*%
%TD*%
%TA.AperFunction,ComponentPad*%
%ADD14C,2.400000*%
%TD*%
%TA.AperFunction,ComponentPad*%
%ADD15R,1.800000X1.800000*%
%TD*%
%TA.AperFunction,ComponentPad*%
%ADD16C,1.800000*%
%TD*%
%TA.AperFunction,ComponentPad*%
%ADD17R,2.000000X2.000000*%
%TD*%
%TA.AperFunction,Conductor*%
%ADD18C,0.200000*%
%TD*%
G04 APERTURE END LIST*
D10*
%TO.P,C1,1*%
%TO.N,Net-(U1-THR)*%
X125000000Y-63617677D03*
D11*
%TO.P,C1,2*%
%TO.N,GND*%
X125000000Y-56117677D03*
%TD*%
D10*
%TO.P,C2,1*%
%TO.N,Net-(U1-CV)*%
X138000000Y-82000000D03*
D11*
%TO.P,C2,2*%
%TO.N,GND*%
X138000000Y-67000000D03*
%TD*%
D12*
%TO.P,U1,1,GND*%
%TO.N,GND*%
X124380000Y-69380000D03*
D13*
%TO.P,U1,2,TR*%
%TO.N,Net-(U1-THR)*%
X124380000Y-71920000D03*
%TO.P,U1,3,Q*%
%TO.N,Net-(D1-K)*%
X124380000Y-74460000D03*
%TO.P,U1,4,R*%
%TO.N,Net-(SW1-B)*%
X124380000Y-77000000D03*
%TO.P,U1,5,CV*%
%TO.N,Net-(U1-CV)*%
X132000000Y-77000000D03*
%TO.P,U1,6,THR*%
%TO.N,Net-(U1-THR)*%
X132000000Y-74460000D03*
%TO.P,U1,7,DIS*%
%TO.N,Net-(U1-DIS)*%
X132000000Y-71920000D03*
%TO.P,U1,8,VCC*%
%TO.N,Net-(SW1-B)*%
X132000000Y-69380000D03*
%TD*%
D14*
%TO.P,SW1,1,A*%
%TO.N,+9V*%
X105250000Y-58350000D03*
%TO.P,SW1,2,B*%
%TO.N,Net-(SW1-B)*%
X105250000Y-63650000D03*
%TD*%
D13*
%TO.P,R4,1*%
%TO.N,Net-(D2-K)*%
X113620000Y-88000000D03*
%TO.P,R4,2*%
%TO.N,GND*%
X106000000Y-88000000D03*
%TD*%
%TO.P,R3,1*%
%TO.N,Net-(SW1-B)*%
X117000000Y-78620000D03*
%TO.P,R3,2*%
%TO.N,Net-(D1-A)*%
X117000000Y-71000000D03*
%TD*%
%TO.P,R2,1*%
%TO.N,Net-(SW1-B)*%
X117380000Y-82653986D03*
%TO.P,R2,2*%
%TO.N,Net-(U1-DIS)*%
X125000000Y-82653986D03*
%TD*%
%TO.P,R1,1*%
%TO.N,Net-(U1-DIS)*%
X117380000Y-88000000D03*
%TO.P,R1,2*%
%TO.N,Net-(U1-THR)*%
X125000000Y-88000000D03*
%TD*%
D15*
%TO.P,D2,1,K*%
%TO.N,Net-(D2-K)*%
X109460000Y-80000000D03*
D16*
%TO.P,D2,2,A*%
%TO.N,Net-(D1-K)*%
X112000000Y-80000000D03*
%TD*%
D15*
%TO.P,D1,1,K*%
%TO.N,Net-(D1-K)*%
X109460000Y-72000000D03*
D16*
%TO.P,D1,2,A*%
%TO.N,Net-(D1-A)*%
X112000000Y-72000000D03*
%TD*%
D17*
%TO.P,BT1,1,+*%
%TO.N,+9V*%
X44835000Y-70010000D03*
D11*
%TO.P,BT1,2,-*%
%TO.N,GND*%
X44835000Y-85000000D03*
%TD*%
D18*
%TO.N,Net-(D1-K)*%
X112000000Y-77000000D02*
X112000000Y-80000000D01*
X109460000Y-74460000D02*
X112000000Y-77000000D01*
X109460000Y-72000000D02*
X109460000Y-74460000D01*
%TO.N,Net-(U1-CV)*%
X132000000Y-79000000D02*
X135000000Y-82000000D01*
X132000000Y-77000000D02*
X132000000Y-79000000D01*
X135000000Y-82000000D02*
X138000000Y-82000000D01*
%TO.N,Net-(SW1-B)*%
X119620000Y-78620000D02*
X117000000Y-78620000D01*
X121240000Y-77000000D02*
X119620000Y-78620000D01*
X124380000Y-77000000D02*
X121240000Y-77000000D01*
%TO.N,Net-(U1-THR)*%
X129000000Y-84000000D02*
X125000000Y-88000000D01*
X129000000Y-77460000D02*
X129000000Y-84000000D01*
X132000000Y-74460000D02*
X129000000Y-77460000D01*
%TO.N,Net-(SW1-B)*%
X117000000Y-82273986D02*
X117000000Y-78620000D01*
X117380000Y-82653986D02*
X117000000Y-82273986D01*
%TO.N,Net-(U1-THR)*%
X128460000Y-74460000D02*
X132000000Y-74460000D01*
X125920000Y-71920000D02*
X128460000Y-74460000D01*
X124380000Y-71920000D02*
X125920000Y-71920000D01*
%TO.N,GND*%
X138000000Y-65000000D02*
X138000000Y-67000000D01*
X136000000Y-63000000D02*
X138000000Y-65000000D01*
X131882323Y-63000000D02*
X136000000Y-63000000D01*
X125000000Y-56117677D02*
X131882323Y-63000000D01*
X126760000Y-67000000D02*
X138000000Y-67000000D01*
X124380000Y-69380000D02*
X126760000Y-67000000D01*
X124380000Y-69620000D02*
X124380000Y-69380000D01*
X106000000Y-88000000D02*
X124380000Y-69620000D01*
X47835000Y-88000000D02*
X106000000Y-88000000D01*
X44835000Y-85000000D02*
X47835000Y-88000000D01*
%TO.N,+9V*%
X51650000Y-58350000D02*
X44835000Y-65165000D01*
X44835000Y-65165000D02*
X44835000Y-70010000D01*
X105250000Y-58350000D02*
X51650000Y-58350000D01*
%TD*%
M02*
