%TF.GenerationSoftware,KiCad,Pcbnew,9.0.2*%
%TF.CreationDate,2025-07-04T12:52:13+05:30*%
%TF.ProjectId,qn2,716e322e-6b69-4636-9164-5f7063625858,rev?*%
%TF.SameCoordinates,Original*%
%TF.FileFunction,Legend,Top*%
%TF.FilePolarity,Positive*%
%FSLAX46Y46*%
G04 Gerber Fmt 4.6, Leading zero omitted, Abs format (unit mm)*
G04 Created by KiCad (PCBNEW 9.0.2) date 2025-07-04 12:52:13*
%MOMM*%
%LPD*%
G01*
G04 APERTURE LIST*
%ADD10C,0.150000*%
%ADD11C,0.120000*%
G04 APERTURE END LIST*
D10*
X119109580Y-60034343D02*
X119157200Y-60081962D01*
X119157200Y-60081962D02*
X119204819Y-60224819D01*
X119204819Y-60224819D02*
X119204819Y-60320057D01*
X119204819Y-60320057D02*
X119157200Y-60462914D01*
X119157200Y-60462914D02*
X119061961Y-60558152D01*
X119061961Y-60558152D02*
X118966723Y-60605771D01*
X118966723Y-60605771D02*
X118776247Y-60653390D01*
X118776247Y-60653390D02*
X118633390Y-60653390D01*
X118633390Y-60653390D02*
X118442914Y-60605771D01*
X118442914Y-60605771D02*
X118347676Y-60558152D01*
X118347676Y-60558152D02*
X118252438Y-60462914D01*
X118252438Y-60462914D02*
X118204819Y-60320057D01*
X118204819Y-60320057D02*
X118204819Y-60224819D01*
X118204819Y-60224819D02*
X118252438Y-60081962D01*
X118252438Y-60081962D02*
X118300057Y-60034343D01*
X119204819Y-59081962D02*
X119204819Y-59653390D01*
X119204819Y-59367676D02*
X118204819Y-59367676D01*
X118204819Y-59367676D02*
X118347676Y-59462914D01*
X118347676Y-59462914D02*
X118442914Y-59558152D01*
X118442914Y-59558152D02*
X118490533Y-59653390D01*
X134989580Y-74666666D02*
X135037200Y-74714285D01*
X135037200Y-74714285D02*
X135084819Y-74857142D01*
X135084819Y-74857142D02*
X135084819Y-74952380D01*
X135084819Y-74952380D02*
X135037200Y-75095237D01*
X135037200Y-75095237D02*
X134941961Y-75190475D01*
X134941961Y-75190475D02*
X134846723Y-75238094D01*
X134846723Y-75238094D02*
X134656247Y-75285713D01*
X134656247Y-75285713D02*
X134513390Y-75285713D01*
X134513390Y-75285713D02*
X134322914Y-75238094D01*
X134322914Y-75238094D02*
X134227676Y-75190475D01*
X134227676Y-75190475D02*
X134132438Y-75095237D01*
X134132438Y-75095237D02*
X134084819Y-74952380D01*
X134084819Y-74952380D02*
X134084819Y-74857142D01*
X134084819Y-74857142D02*
X134132438Y-74714285D01*
X134132438Y-74714285D02*
X134180057Y-74666666D01*
X134180057Y-74285713D02*
X134132438Y-74238094D01*
X134132438Y-74238094D02*
X134084819Y-74142856D01*
X134084819Y-74142856D02*
X134084819Y-73904761D01*
X134084819Y-73904761D02*
X134132438Y-73809523D01*
X134132438Y-73809523D02*
X134180057Y-73761904D01*
X134180057Y-73761904D02*
X134275295Y-73714285D01*
X134275295Y-73714285D02*
X134370533Y-73714285D01*
X134370533Y-73714285D02*
X134513390Y-73761904D01*
X134513390Y-73761904D02*
X135084819Y-74333332D01*
X135084819Y-74333332D02*
X135084819Y-73714285D01*
X127428095Y-66504819D02*
X127428095Y-67314342D01*
X127428095Y-67314342D02*
X127475714Y-67409580D01*
X127475714Y-67409580D02*
X127523333Y-67457200D01*
X127523333Y-67457200D02*
X127618571Y-67504819D01*
X127618571Y-67504819D02*
X127809047Y-67504819D01*
X127809047Y-67504819D02*
X127904285Y-67457200D01*
X127904285Y-67457200D02*
X127951904Y-67409580D01*
X127951904Y-67409580D02*
X127999523Y-67314342D01*
X127999523Y-67314342D02*
X127999523Y-66504819D01*
X128999523Y-67504819D02*
X128428095Y-67504819D01*
X128713809Y-67504819D02*
X128713809Y-66504819D01*
X128713809Y-66504819D02*
X128618571Y-66647676D01*
X128618571Y-66647676D02*
X128523333Y-66742914D01*
X128523333Y-66742914D02*
X128428095Y-66790533D01*
X110616667Y-54407200D02*
X110759524Y-54454819D01*
X110759524Y-54454819D02*
X110997619Y-54454819D01*
X110997619Y-54454819D02*
X111092857Y-54407200D01*
X111092857Y-54407200D02*
X111140476Y-54359580D01*
X111140476Y-54359580D02*
X111188095Y-54264342D01*
X111188095Y-54264342D02*
X111188095Y-54169104D01*
X111188095Y-54169104D02*
X111140476Y-54073866D01*
X111140476Y-54073866D02*
X111092857Y-54026247D01*
X111092857Y-54026247D02*
X110997619Y-53978628D01*
X110997619Y-53978628D02*
X110807143Y-53931009D01*
X110807143Y-53931009D02*
X110711905Y-53883390D01*
X110711905Y-53883390D02*
X110664286Y-53835771D01*
X110664286Y-53835771D02*
X110616667Y-53740533D01*
X110616667Y-53740533D02*
X110616667Y-53645295D01*
X110616667Y-53645295D02*
X110664286Y-53550057D01*
X110664286Y-53550057D02*
X110711905Y-53502438D01*
X110711905Y-53502438D02*
X110807143Y-53454819D01*
X110807143Y-53454819D02*
X111045238Y-53454819D01*
X111045238Y-53454819D02*
X111188095Y-53502438D01*
X111521429Y-53454819D02*
X111759524Y-54454819D01*
X111759524Y-54454819D02*
X111950000Y-53740533D01*
X111950000Y-53740533D02*
X112140476Y-54454819D01*
X112140476Y-54454819D02*
X112378572Y-53454819D01*
X113283333Y-54454819D02*
X112711905Y-54454819D01*
X112997619Y-54454819D02*
X112997619Y-53454819D01*
X112997619Y-53454819D02*
X112902381Y-53597676D01*
X112902381Y-53597676D02*
X112807143Y-53692914D01*
X112807143Y-53692914D02*
X112711905Y-53740533D01*
X109643333Y-90824819D02*
X109310000Y-90348628D01*
X109071905Y-90824819D02*
X109071905Y-89824819D01*
X109071905Y-89824819D02*
X109452857Y-89824819D01*
X109452857Y-89824819D02*
X109548095Y-89872438D01*
X109548095Y-89872438D02*
X109595714Y-89920057D01*
X109595714Y-89920057D02*
X109643333Y-90015295D01*
X109643333Y-90015295D02*
X109643333Y-90158152D01*
X109643333Y-90158152D02*
X109595714Y-90253390D01*
X109595714Y-90253390D02*
X109548095Y-90301009D01*
X109548095Y-90301009D02*
X109452857Y-90348628D01*
X109452857Y-90348628D02*
X109071905Y-90348628D01*
X110500476Y-90158152D02*
X110500476Y-90824819D01*
X110262381Y-89777200D02*
X110024286Y-90491485D01*
X110024286Y-90491485D02*
X110643333Y-90491485D01*
X115084819Y-74976666D02*
X114608628Y-75309999D01*
X115084819Y-75548094D02*
X114084819Y-75548094D01*
X114084819Y-75548094D02*
X114084819Y-75167142D01*
X114084819Y-75167142D02*
X114132438Y-75071904D01*
X114132438Y-75071904D02*
X114180057Y-75024285D01*
X114180057Y-75024285D02*
X114275295Y-74976666D01*
X114275295Y-74976666D02*
X114418152Y-74976666D01*
X114418152Y-74976666D02*
X114513390Y-75024285D01*
X114513390Y-75024285D02*
X114561009Y-75071904D01*
X114561009Y-75071904D02*
X114608628Y-75167142D01*
X114608628Y-75167142D02*
X114608628Y-75548094D01*
X114084819Y-74643332D02*
X114084819Y-74024285D01*
X114084819Y-74024285D02*
X114465771Y-74357618D01*
X114465771Y-74357618D02*
X114465771Y-74214761D01*
X114465771Y-74214761D02*
X114513390Y-74119523D01*
X114513390Y-74119523D02*
X114561009Y-74071904D01*
X114561009Y-74071904D02*
X114656247Y-74024285D01*
X114656247Y-74024285D02*
X114894342Y-74024285D01*
X114894342Y-74024285D02*
X114989580Y-74071904D01*
X114989580Y-74071904D02*
X115037200Y-74119523D01*
X115037200Y-74119523D02*
X115084819Y-74214761D01*
X115084819Y-74214761D02*
X115084819Y-74500475D01*
X115084819Y-74500475D02*
X115037200Y-74595713D01*
X115037200Y-74595713D02*
X114989580Y-74643332D01*
X120833333Y-80454819D02*
X120500000Y-79978628D01*
X120261905Y-80454819D02*
X120261905Y-79454819D01*
X120261905Y-79454819D02*
X120642857Y-79454819D01*
X120642857Y-79454819D02*
X120738095Y-79502438D01*
X120738095Y-79502438D02*
X120785714Y-79550057D01*
X120785714Y-79550057D02*
X120833333Y-79645295D01*
X120833333Y-79645295D02*
X120833333Y-79788152D01*
X120833333Y-79788152D02*
X120785714Y-79883390D01*
X120785714Y-79883390D02*
X120738095Y-79931009D01*
X120738095Y-79931009D02*
X120642857Y-79978628D01*
X120642857Y-79978628D02*
X120261905Y-79978628D01*
X121214286Y-79550057D02*
X121261905Y-79502438D01*
X121261905Y-79502438D02*
X121357143Y-79454819D01*
X121357143Y-79454819D02*
X121595238Y-79454819D01*
X121595238Y-79454819D02*
X121690476Y-79502438D01*
X121690476Y-79502438D02*
X121738095Y-79550057D01*
X121738095Y-79550057D02*
X121785714Y-79645295D01*
X121785714Y-79645295D02*
X121785714Y-79740533D01*
X121785714Y-79740533D02*
X121738095Y-79883390D01*
X121738095Y-79883390D02*
X121166667Y-80454819D01*
X121166667Y-80454819D02*
X121785714Y-80454819D01*
X121023333Y-86084819D02*
X120690000Y-85608628D01*
X120451905Y-86084819D02*
X120451905Y-85084819D01*
X120451905Y-85084819D02*
X120832857Y-85084819D01*
X120832857Y-85084819D02*
X120928095Y-85132438D01*
X120928095Y-85132438D02*
X120975714Y-85180057D01*
X120975714Y-85180057D02*
X121023333Y-85275295D01*
X121023333Y-85275295D02*
X121023333Y-85418152D01*
X121023333Y-85418152D02*
X120975714Y-85513390D01*
X120975714Y-85513390D02*
X120928095Y-85561009D01*
X120928095Y-85561009D02*
X120832857Y-85608628D01*
X120832857Y-85608628D02*
X120451905Y-85608628D01*
X121975714Y-86084819D02*
X121404286Y-86084819D01*
X121690000Y-86084819D02*
X121690000Y-85084819D01*
X121690000Y-85084819D02*
X121594762Y-85227676D01*
X121594762Y-85227676D02*
X121499524Y-85322914D01*
X121499524Y-85322914D02*
X121404286Y-85370533D01*
X109991905Y-77494819D02*
X109991905Y-76494819D01*
X109991905Y-76494819D02*
X110230000Y-76494819D01*
X110230000Y-76494819D02*
X110372857Y-76542438D01*
X110372857Y-76542438D02*
X110468095Y-76637676D01*
X110468095Y-76637676D02*
X110515714Y-76732914D01*
X110515714Y-76732914D02*
X110563333Y-76923390D01*
X110563333Y-76923390D02*
X110563333Y-77066247D01*
X110563333Y-77066247D02*
X110515714Y-77256723D01*
X110515714Y-77256723D02*
X110468095Y-77351961D01*
X110468095Y-77351961D02*
X110372857Y-77447200D01*
X110372857Y-77447200D02*
X110230000Y-77494819D01*
X110230000Y-77494819D02*
X109991905Y-77494819D01*
X110944286Y-76590057D02*
X110991905Y-76542438D01*
X110991905Y-76542438D02*
X111087143Y-76494819D01*
X111087143Y-76494819D02*
X111325238Y-76494819D01*
X111325238Y-76494819D02*
X111420476Y-76542438D01*
X111420476Y-76542438D02*
X111468095Y-76590057D01*
X111468095Y-76590057D02*
X111515714Y-76685295D01*
X111515714Y-76685295D02*
X111515714Y-76780533D01*
X111515714Y-76780533D02*
X111468095Y-76923390D01*
X111468095Y-76923390D02*
X110896667Y-77494819D01*
X110896667Y-77494819D02*
X111515714Y-77494819D01*
X109991905Y-69494819D02*
X109991905Y-68494819D01*
X109991905Y-68494819D02*
X110230000Y-68494819D01*
X110230000Y-68494819D02*
X110372857Y-68542438D01*
X110372857Y-68542438D02*
X110468095Y-68637676D01*
X110468095Y-68637676D02*
X110515714Y-68732914D01*
X110515714Y-68732914D02*
X110563333Y-68923390D01*
X110563333Y-68923390D02*
X110563333Y-69066247D01*
X110563333Y-69066247D02*
X110515714Y-69256723D01*
X110515714Y-69256723D02*
X110468095Y-69351961D01*
X110468095Y-69351961D02*
X110372857Y-69447200D01*
X110372857Y-69447200D02*
X110230000Y-69494819D01*
X110230000Y-69494819D02*
X109991905Y-69494819D01*
X111515714Y-69494819D02*
X110944286Y-69494819D01*
X111230000Y-69494819D02*
X111230000Y-68494819D01*
X111230000Y-68494819D02*
X111134762Y-68637676D01*
X111134762Y-68637676D02*
X111039524Y-68732914D01*
X111039524Y-68732914D02*
X110944286Y-68780533D01*
X44049285Y-59781009D02*
X44192142Y-59828628D01*
X44192142Y-59828628D02*
X44239761Y-59876247D01*
X44239761Y-59876247D02*
X44287380Y-59971485D01*
X44287380Y-59971485D02*
X44287380Y-60114342D01*
X44287380Y-60114342D02*
X44239761Y-60209580D01*
X44239761Y-60209580D02*
X44192142Y-60257200D01*
X44192142Y-60257200D02*
X44096904Y-60304819D01*
X44096904Y-60304819D02*
X43715952Y-60304819D01*
X43715952Y-60304819D02*
X43715952Y-59304819D01*
X43715952Y-59304819D02*
X44049285Y-59304819D01*
X44049285Y-59304819D02*
X44144523Y-59352438D01*
X44144523Y-59352438D02*
X44192142Y-59400057D01*
X44192142Y-59400057D02*
X44239761Y-59495295D01*
X44239761Y-59495295D02*
X44239761Y-59590533D01*
X44239761Y-59590533D02*
X44192142Y-59685771D01*
X44192142Y-59685771D02*
X44144523Y-59733390D01*
X44144523Y-59733390D02*
X44049285Y-59781009D01*
X44049285Y-59781009D02*
X43715952Y-59781009D01*
X44573095Y-59304819D02*
X45144523Y-59304819D01*
X44858809Y-60304819D02*
X44858809Y-59304819D01*
X46001666Y-60304819D02*
X45430238Y-60304819D01*
X45715952Y-60304819D02*
X45715952Y-59304819D01*
X45715952Y-59304819D02*
X45620714Y-59447676D01*
X45620714Y-59447676D02*
X45525476Y-59542914D01*
X45525476Y-59542914D02*
X45430238Y-59590533D01*
X60618571Y-70124700D02*
X61761429Y-70124700D01*
X61190000Y-70696128D02*
X61190000Y-69553271D01*
X40453571Y-70124700D02*
X41596429Y-70124700D01*
X41025000Y-70696128D02*
X41025000Y-69553271D01*
X82208571Y-85114700D02*
X83351429Y-85114700D01*
X82780000Y-85686128D02*
X82780000Y-84543271D01*
X40453571Y-85114700D02*
X41596429Y-85114700D01*
X82208571Y-70124700D02*
X83351429Y-70124700D01*
X60618571Y-85114700D02*
X61761429Y-85114700D01*
D11*
%TO.C,C1*%
X122125000Y-65347323D02*
X122125000Y-64347323D01*
X121625000Y-64847323D02*
X122625000Y-64847323D01*
X119920000Y-59867677D02*
X130080000Y-59867677D01*
X119920000Y-59827677D02*
X130080000Y-59827677D01*
X119921000Y-59787677D02*
X130079000Y-59787677D01*
X119921000Y-59747677D02*
X130079000Y-59747677D01*
X119923000Y-59707677D02*
X130077000Y-59707677D01*
X119924000Y-59667677D02*
X130076000Y-59667677D01*
X119926000Y-59627677D02*
X130074000Y-59627677D01*
X119928000Y-59587677D02*
X130072000Y-59587677D01*
X119930000Y-59547677D02*
X130070000Y-59547677D01*
X119933000Y-59507677D02*
X130067000Y-59507677D01*
X119936000Y-59467677D02*
X130064000Y-59467677D01*
X119939000Y-59427677D02*
X130061000Y-59427677D01*
X119943000Y-59387677D02*
X130057000Y-59387677D01*
X119946000Y-59347677D02*
X130054000Y-59347677D01*
X119951000Y-59307677D02*
X130049000Y-59307677D01*
X119955000Y-59267677D02*
X130045000Y-59267677D01*
X119960000Y-59227677D02*
X130040000Y-59227677D01*
X119965000Y-59187677D02*
X130035000Y-59187677D01*
X119971000Y-59147677D02*
X130029000Y-59147677D01*
X119977000Y-59107677D02*
X130023000Y-59107677D01*
X119983000Y-59067677D02*
X130017000Y-59067677D01*
X119989000Y-59027677D02*
X130011000Y-59027677D01*
X119996000Y-58987677D02*
X130004000Y-58987677D01*
X120003000Y-58947677D02*
X129997000Y-58947677D01*
X120011000Y-58907677D02*
X129989000Y-58907677D01*
X120019000Y-58867677D02*
X129981000Y-58867677D01*
X120027000Y-58827677D02*
X129973000Y-58827677D01*
X120035000Y-58787677D02*
X129965000Y-58787677D01*
X120044000Y-58747677D02*
X129956000Y-58747677D01*
X120053000Y-58707677D02*
X129947000Y-58707677D01*
X120063000Y-58667677D02*
X129937000Y-58667677D01*
X120072000Y-58627677D02*
X129928000Y-58627677D01*
X120083000Y-58587677D02*
X129917000Y-58587677D01*
X120093000Y-58547677D02*
X129907000Y-58547677D01*
X120104000Y-58507677D02*
X129896000Y-58507677D01*
X120115000Y-58467677D02*
X129885000Y-58467677D01*
X120127000Y-58427677D02*
X129873000Y-58427677D01*
X120139000Y-58387677D02*
X129861000Y-58387677D01*
X120151000Y-58347677D02*
X129849000Y-58347677D01*
X120163000Y-58307677D02*
X129837000Y-58307677D01*
X120176000Y-58267677D02*
X129824000Y-58267677D01*
X120190000Y-58227677D02*
X129810000Y-58227677D01*
X120203000Y-58187677D02*
X129797000Y-58187677D01*
X120218000Y-58147677D02*
X129782000Y-58147677D01*
X120232000Y-58107677D02*
X129768000Y-58107677D01*
X120247000Y-58067677D02*
X129753000Y-58067677D01*
X120262000Y-58027677D02*
X129738000Y-58027677D01*
X120278000Y-57987677D02*
X129722000Y-57987677D01*
X120294000Y-57947677D02*
X129706000Y-57947677D01*
X120310000Y-57907677D02*
X129690000Y-57907677D01*
X120327000Y-57867677D02*
X129673000Y-57867677D01*
X120344000Y-57827677D02*
X129656000Y-57827677D01*
X120362000Y-57787677D02*
X129638000Y-57787677D01*
X120380000Y-57747677D02*
X129620000Y-57747677D01*
X120398000Y-57707677D02*
X129602000Y-57707677D01*
X120417000Y-57667677D02*
X129583000Y-57667677D01*
X120436000Y-57627677D02*
X129564000Y-57627677D01*
X120456000Y-57587677D02*
X129544000Y-57587677D01*
X120476000Y-57547677D02*
X129524000Y-57547677D01*
X120496000Y-57507677D02*
X129504000Y-57507677D01*
X120517000Y-57467677D02*
X129483000Y-57467677D01*
X120539000Y-57427677D02*
X129461000Y-57427677D01*
X120561000Y-57387677D02*
X129439000Y-57387677D01*
X120583000Y-57347677D02*
X123760000Y-57347677D01*
X126240000Y-57347677D02*
X129417000Y-57347677D01*
X120606000Y-57307677D02*
X123760000Y-57307677D01*
X126240000Y-57307677D02*
X129394000Y-57307677D01*
X120629000Y-57267677D02*
X123760000Y-57267677D01*
X126240000Y-57267677D02*
X129371000Y-57267677D01*
X120653000Y-57227677D02*
X123760000Y-57227677D01*
X126240000Y-57227677D02*
X129347000Y-57227677D01*
X120677000Y-57187677D02*
X123760000Y-57187677D01*
X126240000Y-57187677D02*
X129323000Y-57187677D01*
X120702000Y-57147677D02*
X123760000Y-57147677D01*
X126240000Y-57147677D02*
X129298000Y-57147677D01*
X120728000Y-57107677D02*
X123760000Y-57107677D01*
X126240000Y-57107677D02*
X129272000Y-57107677D01*
X120753000Y-57067677D02*
X123760000Y-57067677D01*
X126240000Y-57067677D02*
X129247000Y-57067677D01*
X120780000Y-57027677D02*
X123760000Y-57027677D01*
X126240000Y-57027677D02*
X129220000Y-57027677D01*
X120807000Y-56987677D02*
X123760000Y-56987677D01*
X126240000Y-56987677D02*
X129193000Y-56987677D01*
X120834000Y-56947677D02*
X123760000Y-56947677D01*
X126240000Y-56947677D02*
X129166000Y-56947677D01*
X120862000Y-56907677D02*
X123760000Y-56907677D01*
X126240000Y-56907677D02*
X129138000Y-56907677D01*
X120891000Y-56867677D02*
X123760000Y-56867677D01*
X126240000Y-56867677D02*
X129109000Y-56867677D01*
X120920000Y-56827677D02*
X123760000Y-56827677D01*
X126240000Y-56827677D02*
X129080000Y-56827677D01*
X120950000Y-56787677D02*
X123760000Y-56787677D01*
X126240000Y-56787677D02*
X129050000Y-56787677D01*
X120980000Y-56747677D02*
X123760000Y-56747677D01*
X126240000Y-56747677D02*
X129020000Y-56747677D01*
X121012000Y-56707677D02*
X123760000Y-56707677D01*
X126240000Y-56707677D02*
X128988000Y-56707677D01*
X121043000Y-56667677D02*
X123760000Y-56667677D01*
X126240000Y-56667677D02*
X128957000Y-56667677D01*
X121076000Y-56627677D02*
X123760000Y-56627677D01*
X126240000Y-56627677D02*
X128924000Y-56627677D01*
X121109000Y-56587677D02*
X123760000Y-56587677D01*
X126240000Y-56587677D02*
X128891000Y-56587677D01*
X121142000Y-56547677D02*
X123760000Y-56547677D01*
X126240000Y-56547677D02*
X128858000Y-56547677D01*
X121177000Y-56507677D02*
X123760000Y-56507677D01*
X126240000Y-56507677D02*
X128823000Y-56507677D01*
X121212000Y-56467677D02*
X123760000Y-56467677D01*
X126240000Y-56467677D02*
X128788000Y-56467677D01*
X121248000Y-56427677D02*
X123760000Y-56427677D01*
X126240000Y-56427677D02*
X128752000Y-56427677D01*
X121284000Y-56387677D02*
X123760000Y-56387677D01*
X126240000Y-56387677D02*
X128716000Y-56387677D01*
X121322000Y-56347677D02*
X123760000Y-56347677D01*
X126240000Y-56347677D02*
X128678000Y-56347677D01*
X121360000Y-56307677D02*
X123760000Y-56307677D01*
X126240000Y-56307677D02*
X128640000Y-56307677D01*
X121399000Y-56267677D02*
X123760000Y-56267677D01*
X126240000Y-56267677D02*
X128601000Y-56267677D01*
X121439000Y-56227677D02*
X123760000Y-56227677D01*
X126240000Y-56227677D02*
X128561000Y-56227677D01*
X121480000Y-56187677D02*
X123760000Y-56187677D01*
X126240000Y-56187677D02*
X128520000Y-56187677D01*
X121522000Y-56147677D02*
X123760000Y-56147677D01*
X126240000Y-56147677D02*
X128478000Y-56147677D01*
X121565000Y-56107677D02*
X123760000Y-56107677D01*
X126240000Y-56107677D02*
X128435000Y-56107677D01*
X121609000Y-56067677D02*
X123760000Y-56067677D01*
X126240000Y-56067677D02*
X128391000Y-56067677D01*
X121653000Y-56027677D02*
X123760000Y-56027677D01*
X126240000Y-56027677D02*
X128347000Y-56027677D01*
X121699000Y-55987677D02*
X123760000Y-55987677D01*
X126240000Y-55987677D02*
X128301000Y-55987677D01*
X121746000Y-55947677D02*
X123760000Y-55947677D01*
X126240000Y-55947677D02*
X128254000Y-55947677D01*
X121795000Y-55907677D02*
X123760000Y-55907677D01*
X126240000Y-55907677D02*
X128205000Y-55907677D01*
X121844000Y-55867677D02*
X123760000Y-55867677D01*
X126240000Y-55867677D02*
X128156000Y-55867677D01*
X121895000Y-55827677D02*
X123760000Y-55827677D01*
X126240000Y-55827677D02*
X128105000Y-55827677D01*
X121947000Y-55787677D02*
X123760000Y-55787677D01*
X126240000Y-55787677D02*
X128053000Y-55787677D01*
X122000000Y-55747677D02*
X123760000Y-55747677D01*
X126240000Y-55747677D02*
X128000000Y-55747677D01*
X122055000Y-55707677D02*
X123760000Y-55707677D01*
X126240000Y-55707677D02*
X127945000Y-55707677D01*
X122112000Y-55667677D02*
X123760000Y-55667677D01*
X126240000Y-55667677D02*
X127888000Y-55667677D01*
X122170000Y-55627677D02*
X123760000Y-55627677D01*
X126240000Y-55627677D02*
X127830000Y-55627677D01*
X122230000Y-55587677D02*
X123760000Y-55587677D01*
X126240000Y-55587677D02*
X127770000Y-55587677D01*
X122292000Y-55547677D02*
X123760000Y-55547677D01*
X126240000Y-55547677D02*
X127708000Y-55547677D01*
X122356000Y-55507677D02*
X123760000Y-55507677D01*
X126240000Y-55507677D02*
X127644000Y-55507677D01*
X122422000Y-55467677D02*
X123760000Y-55467677D01*
X126240000Y-55467677D02*
X127578000Y-55467677D01*
X122490000Y-55427677D02*
X123760000Y-55427677D01*
X126240000Y-55427677D02*
X127510000Y-55427677D01*
X122561000Y-55387677D02*
X123760000Y-55387677D01*
X126240000Y-55387677D02*
X127439000Y-55387677D01*
X122635000Y-55347677D02*
X123760000Y-55347677D01*
X126240000Y-55347677D02*
X127365000Y-55347677D01*
X122712000Y-55307677D02*
X123760000Y-55307677D01*
X126240000Y-55307677D02*
X127288000Y-55307677D01*
X122792000Y-55267677D02*
X123760000Y-55267677D01*
X126240000Y-55267677D02*
X127208000Y-55267677D01*
X122876000Y-55227677D02*
X123760000Y-55227677D01*
X126240000Y-55227677D02*
X127124000Y-55227677D01*
X122963000Y-55187677D02*
X123760000Y-55187677D01*
X126240000Y-55187677D02*
X127037000Y-55187677D01*
X123056000Y-55147677D02*
X123760000Y-55147677D01*
X126240000Y-55147677D02*
X126944000Y-55147677D01*
X123154000Y-55107677D02*
X123760000Y-55107677D01*
X126240000Y-55107677D02*
X126846000Y-55107677D01*
X123258000Y-55067677D02*
X123760000Y-55067677D01*
X126240000Y-55067677D02*
X126742000Y-55067677D01*
X123370000Y-55027677D02*
X123760000Y-55027677D01*
X126240000Y-55027677D02*
X126630000Y-55027677D01*
X123491000Y-54987677D02*
X123760000Y-54987677D01*
X126240000Y-54987677D02*
X126509000Y-54987677D01*
X123623000Y-54947677D02*
X123760000Y-54947677D01*
X126240000Y-54947677D02*
X126377000Y-54947677D01*
X123938000Y-54867677D02*
X126062000Y-54867677D01*
X124138000Y-54827677D02*
X125862000Y-54827677D01*
X124401000Y-54787677D02*
X125599000Y-54787677D01*
X123740000Y-64830217D02*
G75*
G02*
X126260000Y-64830217I1260000J4962540D01*
G01*
%TO.C,C2*%
X135800000Y-81370000D02*
X135800000Y-79870000D01*
X138000000Y-80760000D02*
X138000000Y-79620000D01*
X135050000Y-80620000D02*
X136550000Y-80620000D01*
X135630000Y-79620000D02*
X140370000Y-79620000D01*
X135630000Y-79620000D02*
X135630000Y-78120000D01*
X140370000Y-79620000D02*
X140370000Y-78120000D01*
X135630000Y-78120000D02*
X136380000Y-77370000D01*
X140370000Y-78120000D02*
X139620000Y-77370000D01*
X136380000Y-77370000D02*
X135630000Y-76620000D01*
X139620000Y-77370000D02*
X140370000Y-76620000D01*
X135630000Y-76620000D02*
X135630000Y-69380000D01*
X140370000Y-76620000D02*
X140370000Y-69380000D01*
X135630000Y-69380000D02*
X140370000Y-69380000D01*
X138000000Y-68240000D02*
X138000000Y-69380000D01*
%TO.C,U1*%
X125540000Y-68050000D02*
X125540000Y-78330000D01*
X125540000Y-78330000D02*
X130840000Y-78330000D01*
X127190000Y-68050000D02*
X125540000Y-68050000D01*
X130840000Y-68050000D02*
X129190000Y-68050000D01*
X130840000Y-78330000D02*
X130840000Y-68050000D01*
X129190000Y-68050000D02*
G75*
G02*
X127190000Y-68050000I-1000000J0D01*
G01*
%TO.C,SW1*%
X105850000Y-54900000D02*
X118050000Y-54900000D01*
X105850000Y-56890000D02*
X105850000Y-54900000D01*
X105850000Y-59810000D02*
X105850000Y-62190000D01*
X105850000Y-67100000D02*
X105850000Y-65110000D01*
X118050000Y-54900000D02*
X118050000Y-67100000D01*
X118050000Y-67100000D02*
X105850000Y-67100000D01*
X114600000Y-61000000D02*
G75*
G02*
X109300000Y-61000000I-2650000J0D01*
G01*
X109300000Y-61000000D02*
G75*
G02*
X114600000Y-61000000I2650000J0D01*
G01*
%TO.C,R4*%
X113080000Y-89370000D02*
X106540000Y-89370000D01*
X113080000Y-89040000D02*
X113080000Y-89370000D01*
X113080000Y-86960000D02*
X113080000Y-86630000D01*
X113080000Y-86630000D02*
X106540000Y-86630000D01*
X106540000Y-89370000D02*
X106540000Y-89040000D01*
X106540000Y-86630000D02*
X106540000Y-86960000D01*
%TO.C,R3*%
X115630000Y-78080000D02*
X115630000Y-71540000D01*
X115960000Y-78080000D02*
X115630000Y-78080000D01*
X118040000Y-78080000D02*
X118370000Y-78080000D01*
X118370000Y-78080000D02*
X118370000Y-71540000D01*
X115630000Y-71540000D02*
X115960000Y-71540000D01*
X118370000Y-71540000D02*
X118040000Y-71540000D01*
%TO.C,R2*%
X117920000Y-81283986D02*
X124460000Y-81283986D01*
X117920000Y-81613986D02*
X117920000Y-81283986D01*
X117920000Y-83693986D02*
X117920000Y-84023986D01*
X117920000Y-84023986D02*
X124460000Y-84023986D01*
X124460000Y-81283986D02*
X124460000Y-81613986D01*
X124460000Y-84023986D02*
X124460000Y-83693986D01*
%TO.C,R1*%
X117920000Y-86630000D02*
X124460000Y-86630000D01*
X117920000Y-86960000D02*
X117920000Y-86630000D01*
X117920000Y-89040000D02*
X117920000Y-89370000D01*
X117920000Y-89370000D02*
X124460000Y-89370000D01*
X124460000Y-86630000D02*
X124460000Y-86960000D01*
X124460000Y-89370000D02*
X124460000Y-89040000D01*
%TO.C,D2*%
X109170000Y-78764000D02*
X109170000Y-78920000D01*
X109170000Y-81080000D02*
X109170000Y-81236000D01*
X109170000Y-78764484D02*
G75*
G02*
X112401437Y-78920000I1560000J-1235516D01*
G01*
X109689039Y-78920000D02*
G75*
G02*
X111770961Y-78920000I1040961J-1080000D01*
G01*
X111770961Y-81080000D02*
G75*
G02*
X109689039Y-81080000I-1040961J1080000D01*
G01*
X112401437Y-81080000D02*
G75*
G02*
X109170000Y-81235516I-1671437J1080000D01*
G01*
%TO.C,D1*%
X109170000Y-70764000D02*
X109170000Y-70920000D01*
X109170000Y-73080000D02*
X109170000Y-73236000D01*
X109170000Y-70764484D02*
G75*
G02*
X112401437Y-70920000I1560000J-1235516D01*
G01*
X109689039Y-70920000D02*
G75*
G02*
X111770961Y-70920000I1040961J-1080000D01*
G01*
X111770961Y-73080000D02*
G75*
G02*
X109689039Y-73080000I-1040961J1080000D01*
G01*
X112401437Y-73080000D02*
G75*
G02*
X109170000Y-73235516I-1671437J1080000D01*
G01*
%TO.C,BT1*%
X42145000Y-60945000D02*
X42145000Y-94065000D01*
X42145000Y-94065000D02*
X101855000Y-94065000D01*
X43415000Y-62215000D02*
X43415000Y-92795000D01*
X43415000Y-77251000D02*
X100585000Y-77251000D01*
X43415000Y-92795000D02*
X49760000Y-92795000D01*
X49760000Y-62215000D02*
X43415000Y-62215000D01*
X49760000Y-64755000D02*
X49760000Y-62215000D01*
X49760000Y-64755000D02*
X62460000Y-64755000D01*
X49760000Y-90255000D02*
X62460000Y-90255000D01*
X49760000Y-92795000D02*
X49760000Y-90255000D01*
X62460000Y-62215000D02*
X62460000Y-64755000D01*
X62460000Y-68740000D02*
X63730000Y-68740000D01*
X62460000Y-71280000D02*
X62460000Y-68740000D01*
X62460000Y-82460000D02*
X80240000Y-82460000D01*
X62460000Y-87540000D02*
X62460000Y-82460000D01*
X62460000Y-90255000D02*
X62460000Y-92795000D01*
X62460000Y-92795000D02*
X81510000Y-92795000D01*
X63730000Y-67470000D02*
X81510000Y-67470000D01*
X63730000Y-68740000D02*
X63730000Y-67470000D01*
X63730000Y-71280000D02*
X62460000Y-71280000D01*
X63730000Y-72550000D02*
X63730000Y-71280000D01*
X80240000Y-82460000D02*
X80240000Y-83730000D01*
X80240000Y-83730000D02*
X81510000Y-83730000D01*
X80240000Y-86270000D02*
X80240000Y-87540000D01*
X80240000Y-87540000D02*
X62460000Y-87540000D01*
X81510000Y-62215000D02*
X62460000Y-62215000D01*
X81510000Y-64755000D02*
X81510000Y-62215000D01*
X81510000Y-67470000D02*
X81510000Y-68740000D01*
X81510000Y-68740000D02*
X81510000Y-72550000D01*
X81510000Y-72550000D02*
X63730000Y-72550000D01*
X81510000Y-83730000D02*
X81510000Y-86270000D01*
X81510000Y-86270000D02*
X80240000Y-86270000D01*
X81510000Y-92795000D02*
X81510000Y-90255000D01*
X94210000Y-62215000D02*
X94210000Y-64755000D01*
X94210000Y-64755000D02*
X81510000Y-64755000D01*
X94210000Y-90255000D02*
X81510000Y-90255000D01*
X94210000Y-92795000D02*
X94210000Y-90255000D01*
X100585000Y-62215000D02*
X94210000Y-62215000D01*
X100585000Y-62215000D02*
X100585000Y-92795000D01*
X100585000Y-77759000D02*
X43415000Y-77759000D01*
X100585000Y-92795000D02*
X94210000Y-92795000D01*
X101855000Y-60945000D02*
X42145000Y-60945000D01*
X101855000Y-94065000D02*
X101855000Y-60945000D01*
%TD*%
M02*
