%TF.GenerationSoftware,KiCad,Pcbnew,9.0.2*%
%TF.CreationDate,2025-07-10T19:46:15+05:30*%
%TF.ProjectId,STM32 ESC PCB Design,53544d33-3220-4455-9343-205043422044,rev?*%
%TF.SameCoordinates,Original*%
%TF.FileFunction,Paste,Top*%
%TF.FilePolarity,Positive*%
%FSLAX46Y46*%
G04 Gerber Fmt 4.6, Leading zero omitted, Abs format (unit mm)*
G04 Created by KiCad (PCBNEW 9.0.2) date 2025-07-10 19:46:15*
%MOMM*%
%LPD*%
G01*
G04 APERTURE LIST*
G04 Aperture macros list*
%AMRoundRect*
0 Rectangle with rounded corners*
0 $1 Rounding radius*
0 $2 $3 $4 $5 $6 $7 $8 $9 X,Y pos of 4 corners*
0 Add a 4 corners polygon primitive as box body*
4,1,4,$2,$3,$4,$5,$6,$7,$8,$9,$2,$3,0*
0 Add four circle primitives for the rounded corners*
1,1,$1+$1,$2,$3*
1,1,$1+$1,$4,$5*
1,1,$1+$1,$6,$7*
1,1,$1+$1,$8,$9*
0 Add four rect primitives between the rounded corners*
20,1,$1+$1,$2,$3,$4,$5,0*
20,1,$1+$1,$4,$5,$6,$7,0*
20,1,$1+$1,$6,$7,$8,$9,0*
20,1,$1+$1,$8,$9,$2,$3,0*%
G04 Aperture macros list end*
%ADD10C,0.010000*%
%ADD11RoundRect,0.250001X0.924999X0.499999X-0.924999X0.499999X-0.924999X-0.499999X0.924999X-0.499999X0*%
%ADD12RoundRect,0.250000X-0.262500X-0.450000X0.262500X-0.450000X0.262500X0.450000X-0.262500X0.450000X0*%
%ADD13RoundRect,0.250001X-0.924999X-0.499999X0.924999X-0.499999X0.924999X0.499999X-0.924999X0.499999X0*%
%ADD14RoundRect,0.250000X0.262500X0.450000X-0.262500X0.450000X-0.262500X-0.450000X0.262500X-0.450000X0*%
%ADD15RoundRect,0.250000X-0.450000X0.262500X-0.450000X-0.262500X0.450000X-0.262500X0.450000X0.262500X0*%
%ADD16RoundRect,0.250000X0.450000X-0.262500X0.450000X0.262500X-0.450000X0.262500X-0.450000X-0.262500X0*%
%ADD17RoundRect,0.225000X-0.225000X-0.375000X0.225000X-0.375000X0.225000X0.375000X-0.225000X0.375000X0*%
%ADD18RoundRect,0.127000X1.143000X-1.208000X1.143000X1.208000X-1.143000X1.208000X-1.143000X-1.208000X0*%
%ADD19RoundRect,0.076200X0.558800X-0.304800X0.558800X0.304800X-0.558800X0.304800X-0.558800X-0.304800X0*%
%ADD20R,0.500000X0.600000*%
%ADD21R,3.180000X2.250000*%
%ADD22RoundRect,0.200000X0.275000X-0.200000X0.275000X0.200000X-0.275000X0.200000X-0.275000X-0.200000X0*%
%ADD23RoundRect,0.070000X-0.715000X-0.070000X0.715000X-0.070000X0.715000X0.070000X-0.715000X0.070000X0*%
%ADD24RoundRect,0.075000X-0.910000X-0.225000X0.910000X-0.225000X0.910000X0.225000X-0.910000X0.225000X0*%
%ADD25RoundRect,0.250000X0.315000X0.315000X-0.315000X0.315000X-0.315000X-0.315000X0.315000X-0.315000X0*%
%ADD26RoundRect,0.062500X0.375000X0.062500X-0.375000X0.062500X-0.375000X-0.062500X0.375000X-0.062500X0*%
%ADD27RoundRect,0.062500X0.062500X0.375000X-0.062500X0.375000X-0.062500X-0.375000X0.062500X-0.375000X0*%
%ADD28RoundRect,0.250000X0.450000X-0.325000X0.450000X0.325000X-0.450000X0.325000X-0.450000X-0.325000X0*%
%ADD29R,2.180000X1.600000*%
%ADD30RoundRect,0.250000X-0.325000X-0.450000X0.325000X-0.450000X0.325000X0.450000X-0.325000X0.450000X0*%
G04 APERTURE END LIST*
D10*
%TO.C,U1*%
X75980000Y-48650000D02*
X74960000Y-48650000D01*
X74960000Y-46340000D01*
X75980000Y-46340000D01*
X75980000Y-48650000D01*
G36*
X75980000Y-48650000D02*
G01*
X74960000Y-48650000D01*
X74960000Y-46340000D01*
X75980000Y-46340000D01*
X75980000Y-48650000D01*
G37*
X75980000Y-51360000D02*
X74960000Y-51360000D01*
X74960000Y-49050000D01*
X75980000Y-49050000D01*
X75980000Y-51360000D01*
G36*
X75980000Y-51360000D02*
G01*
X74960000Y-51360000D01*
X74960000Y-49050000D01*
X75980000Y-49050000D01*
X75980000Y-51360000D01*
G37*
X77400000Y-48650000D02*
X76380000Y-48650000D01*
X76380000Y-46340000D01*
X77400000Y-46340000D01*
X77400000Y-48650000D01*
G36*
X77400000Y-48650000D02*
G01*
X76380000Y-48650000D01*
X76380000Y-46340000D01*
X77400000Y-46340000D01*
X77400000Y-48650000D01*
G37*
X77400000Y-51360000D02*
X76380000Y-51360000D01*
X76380000Y-49050000D01*
X77400000Y-49050000D01*
X77400000Y-51360000D01*
G36*
X77400000Y-51360000D02*
G01*
X76380000Y-51360000D01*
X76380000Y-49050000D01*
X77400000Y-49050000D01*
X77400000Y-51360000D01*
G37*
%TD*%
D11*
%TO.C,C8*%
X126400000Y-63300000D03*
X123750000Y-63300000D03*
%TD*%
D12*
%TO.C,R3*%
X63975000Y-48000000D03*
X65800000Y-48000000D03*
%TD*%
D13*
%TO.C,C18*%
X159475000Y-55300000D03*
X162125000Y-55300000D03*
%TD*%
D14*
%TO.C,R4*%
X65700000Y-50400000D03*
X63875000Y-50400000D03*
%TD*%
D15*
%TO.C,R10*%
X166100000Y-55575000D03*
X166100000Y-57400000D03*
%TD*%
D11*
%TO.C,C13*%
X126200000Y-43650000D03*
X123550000Y-43650000D03*
%TD*%
D16*
%TO.C,R20*%
X97000000Y-40825000D03*
X97000000Y-39000000D03*
%TD*%
%TO.C,R32*%
X110400000Y-40825000D03*
X110400000Y-39000000D03*
%TD*%
%TO.C,R33*%
X110400000Y-70212500D03*
X110400000Y-68387500D03*
%TD*%
%TO.C,R16*%
X154100000Y-59612500D03*
X154100000Y-57787500D03*
%TD*%
D13*
%TO.C,C24*%
X159550000Y-65850000D03*
X162200000Y-65850000D03*
%TD*%
D12*
%TO.C,R2*%
X63975000Y-41200000D03*
X65800000Y-41200000D03*
%TD*%
D13*
%TO.C,C19*%
X170250000Y-40900000D03*
X172900000Y-40900000D03*
%TD*%
%TO.C,C37*%
X100850000Y-56850000D03*
X103500000Y-56850000D03*
%TD*%
D11*
%TO.C,C12*%
X126200000Y-48500000D03*
X123550000Y-48500000D03*
%TD*%
D13*
%TO.C,C34*%
X115750000Y-63050000D03*
X118400000Y-63050000D03*
%TD*%
D17*
%TO.C,Z5*%
X147700000Y-65250000D03*
X151000000Y-65250000D03*
%TD*%
D12*
%TO.C,R5*%
X63900000Y-52700000D03*
X65725000Y-52700000D03*
%TD*%
%TO.C,R1*%
X63975000Y-44500000D03*
X65800000Y-44500000D03*
%TD*%
%TO.C,R6*%
X63900000Y-55100000D03*
X65725000Y-55100000D03*
%TD*%
D16*
%TO.C,R35*%
X110500000Y-63225000D03*
X110500000Y-61400000D03*
%TD*%
D13*
%TO.C,C29*%
X115750000Y-43650000D03*
X118400000Y-43650000D03*
%TD*%
D18*
%TO.C,D10*%
X149400000Y-42851000D03*
D19*
X149400000Y-40500000D03*
%TD*%
D16*
%TO.C,R28*%
X110400000Y-44825000D03*
X110400000Y-43000000D03*
%TD*%
D17*
%TO.C,Z6*%
X147700000Y-68600000D03*
X151000000Y-68600000D03*
%TD*%
D13*
%TO.C,C16*%
X159475000Y-45600000D03*
X162125000Y-45600000D03*
%TD*%
%TO.C,C2*%
X58050000Y-46000000D03*
X60700000Y-46000000D03*
%TD*%
D20*
%TO.C,Y1*%
X110200000Y-65000000D03*
X110200000Y-66100000D03*
X111000000Y-66100000D03*
X111000000Y-65000000D03*
%TD*%
D15*
%TO.C,R18*%
X64000000Y-59400000D03*
X64000000Y-61225000D03*
%TD*%
D13*
%TO.C,C28*%
X115750000Y-38800000D03*
X118400000Y-38800000D03*
%TD*%
D21*
%TO.C,D7*%
X136000000Y-38590000D03*
X136000000Y-45500000D03*
%TD*%
D22*
%TO.C,FB1*%
X110600000Y-48550000D03*
X110600000Y-46900000D03*
%TD*%
D16*
%TO.C,R19*%
X93600000Y-40725000D03*
X93600000Y-38900000D03*
%TD*%
%TO.C,R27*%
X100300000Y-40725000D03*
X100300000Y-38900000D03*
%TD*%
%TO.C,R8*%
X63900000Y-68325000D03*
X63900000Y-66500000D03*
%TD*%
D22*
%TO.C,FB2*%
X110600000Y-51900000D03*
X110600000Y-50250000D03*
%TD*%
D15*
%TO.C,R11*%
X166100000Y-59275000D03*
X166100000Y-61100000D03*
%TD*%
D16*
%TO.C,R14*%
X166100000Y-68525000D03*
X166100000Y-66700000D03*
%TD*%
D13*
%TO.C,C14*%
X51450000Y-50700000D03*
X54100000Y-50700000D03*
%TD*%
D15*
%TO.C,R17*%
X64000000Y-62887500D03*
X64000000Y-64712500D03*
%TD*%
D13*
%TO.C,C31*%
X115750000Y-53350000D03*
X118400000Y-53350000D03*
%TD*%
D11*
%TO.C,C9*%
X126400000Y-58450000D03*
X123750000Y-58450000D03*
%TD*%
D23*
%TO.C,U1*%
X72460000Y-42100000D03*
X72460000Y-42600000D03*
X72460000Y-43100000D03*
X72460000Y-43600000D03*
X72460000Y-44100000D03*
X72460000Y-44600000D03*
X72460000Y-45100000D03*
X72460000Y-45600000D03*
X72460000Y-46100000D03*
X72460000Y-46600000D03*
X72460000Y-47100000D03*
X72460000Y-47600000D03*
X72460000Y-48100000D03*
X72460000Y-48600000D03*
X72460000Y-49100000D03*
X72460000Y-49600000D03*
X72460000Y-50100000D03*
X72460000Y-50600000D03*
X72460000Y-51100000D03*
X72460000Y-51600000D03*
X72460000Y-52100000D03*
X72460000Y-52600000D03*
X72460000Y-53100000D03*
X72460000Y-53600000D03*
X72460000Y-54100000D03*
X72460000Y-54600000D03*
X72460000Y-55100000D03*
X72460000Y-55600000D03*
X79900000Y-55600000D03*
X79900000Y-55100000D03*
X79900000Y-54600000D03*
X79900000Y-54100000D03*
X79900000Y-53600000D03*
X79900000Y-53100000D03*
X79900000Y-52600000D03*
X79900000Y-52100000D03*
X79900000Y-51600000D03*
X79900000Y-51100000D03*
X79900000Y-50600000D03*
X79900000Y-50100000D03*
X79900000Y-49600000D03*
X79900000Y-49100000D03*
X79900000Y-48600000D03*
X79900000Y-48100000D03*
X79900000Y-47600000D03*
X79900000Y-47100000D03*
X79900000Y-46600000D03*
X79900000Y-46100000D03*
X79900000Y-45600000D03*
X79900000Y-45100000D03*
X79900000Y-44600000D03*
X79900000Y-44100000D03*
X79900000Y-43600000D03*
X79900000Y-43100000D03*
X79900000Y-42600000D03*
X79900000Y-42100000D03*
%TD*%
D13*
%TO.C,C17*%
X159475000Y-50450000D03*
X162125000Y-50450000D03*
%TD*%
D12*
%TO.C,R30*%
X69375000Y-70490000D03*
X71200000Y-70490000D03*
%TD*%
D13*
%TO.C,C20*%
X170250000Y-45750000D03*
X172900000Y-45750000D03*
%TD*%
D16*
%TO.C,R29*%
X96000000Y-71025000D03*
X96000000Y-69200000D03*
%TD*%
D13*
%TO.C,C39*%
X100850000Y-66550000D03*
X103500000Y-66550000D03*
%TD*%
D24*
%TO.C,U2*%
X149000000Y-51790000D03*
X149000000Y-53060000D03*
X149000000Y-54330000D03*
X149000000Y-55600000D03*
X153940000Y-55600000D03*
X153940000Y-54330000D03*
X153940000Y-53060000D03*
X153940000Y-51790000D03*
%TD*%
D13*
%TO.C,C5*%
X58050000Y-60550000D03*
X60700000Y-60550000D03*
%TD*%
%TO.C,C7*%
X58050000Y-70250000D03*
X60700000Y-70250000D03*
%TD*%
D16*
%TO.C,R15*%
X166100000Y-64825000D03*
X166100000Y-63000000D03*
%TD*%
D12*
%TO.C,R7*%
X63875000Y-57500000D03*
X65700000Y-57500000D03*
%TD*%
D13*
%TO.C,C22*%
X170250000Y-55450000D03*
X172900000Y-55450000D03*
%TD*%
%TO.C,C38*%
X100850000Y-61700000D03*
X103500000Y-61700000D03*
%TD*%
D16*
%TO.C,R22*%
X106900000Y-40625000D03*
X106900000Y-38800000D03*
%TD*%
%TO.C,R23*%
X93700000Y-45725000D03*
X93700000Y-43900000D03*
%TD*%
D25*
%TO.C,U3*%
X89362500Y-66150000D03*
X89362500Y-64750000D03*
X89362500Y-63350000D03*
X89362500Y-61950000D03*
X87962500Y-66150000D03*
X87962500Y-64750000D03*
X87962500Y-63350000D03*
X87962500Y-61950000D03*
X86562500Y-66150000D03*
X86562500Y-64750000D03*
X86562500Y-63350000D03*
X86562500Y-61950000D03*
X85162500Y-66150000D03*
X85162500Y-64750000D03*
X85162500Y-63350000D03*
X85162500Y-61950000D03*
D26*
X90700000Y-66800000D03*
X90700000Y-66300000D03*
X90700000Y-65800000D03*
X90700000Y-65300000D03*
X90700000Y-64800000D03*
X90700000Y-64300000D03*
X90700000Y-63800000D03*
X90700000Y-63300000D03*
X90700000Y-62800000D03*
X90700000Y-62300000D03*
X90700000Y-61800000D03*
X90700000Y-61300000D03*
D27*
X90012500Y-60612500D03*
X89512500Y-60612500D03*
X89012500Y-60612500D03*
X88512500Y-60612500D03*
X88012500Y-60612500D03*
X87512500Y-60612500D03*
X87012500Y-60612500D03*
X86512500Y-60612500D03*
X86012500Y-60612500D03*
X85512500Y-60612500D03*
X85012500Y-60612500D03*
X84512500Y-60612500D03*
D26*
X83825000Y-61300000D03*
X83825000Y-61800000D03*
X83825000Y-62300000D03*
X83825000Y-62800000D03*
X83825000Y-63300000D03*
X83825000Y-63800000D03*
X83825000Y-64300000D03*
X83825000Y-64800000D03*
X83825000Y-65300000D03*
X83825000Y-65800000D03*
X83825000Y-66300000D03*
X83825000Y-66800000D03*
D27*
X84512500Y-67487500D03*
X85012500Y-67487500D03*
X85512500Y-67487500D03*
X86012500Y-67487500D03*
X86512500Y-67487500D03*
X87012500Y-67487500D03*
X87512500Y-67487500D03*
X88012500Y-67487500D03*
X88512500Y-67487500D03*
X89012500Y-67487500D03*
X89512500Y-67487500D03*
X90012500Y-67487500D03*
%TD*%
D13*
%TO.C,C4*%
X58050000Y-55700000D03*
X60700000Y-55700000D03*
%TD*%
%TO.C,C21*%
X170250000Y-50600000D03*
X172900000Y-50600000D03*
%TD*%
D16*
%TO.C,R9*%
X144600000Y-68825000D03*
X144600000Y-67000000D03*
%TD*%
D17*
%TO.C,Z4*%
X147700000Y-61900000D03*
X151000000Y-61900000D03*
%TD*%
D11*
%TO.C,C11*%
X97225000Y-52200000D03*
X94575000Y-52200000D03*
%TD*%
D13*
%TO.C,C33*%
X100850000Y-47150000D03*
X103500000Y-47150000D03*
%TD*%
D16*
%TO.C,R31*%
X110500000Y-55650000D03*
X110500000Y-53825000D03*
%TD*%
%TO.C,R13*%
X146500000Y-42525000D03*
X146500000Y-40700000D03*
%TD*%
D13*
%TO.C,C15*%
X159475000Y-40750000D03*
X162125000Y-40750000D03*
%TD*%
%TO.C,C3*%
X58050000Y-50850000D03*
X60700000Y-50850000D03*
%TD*%
D28*
%TO.C,L3*%
X142000000Y-42750000D03*
X142000000Y-40700000D03*
%TD*%
D13*
%TO.C,C32*%
X115750000Y-58200000D03*
X118400000Y-58200000D03*
%TD*%
D16*
%TO.C,R34*%
X110500000Y-59400000D03*
X110500000Y-57575000D03*
%TD*%
D13*
%TO.C,C30*%
X115750000Y-48500000D03*
X118400000Y-48500000D03*
%TD*%
D15*
%TO.C,R12*%
X144300000Y-40700000D03*
X144300000Y-42525000D03*
%TD*%
D29*
%TO.C,SW1*%
X130420000Y-66400000D03*
X139600000Y-66400000D03*
%TD*%
D13*
%TO.C,C6*%
X58050000Y-65400000D03*
X60700000Y-65400000D03*
%TD*%
D16*
%TO.C,R21*%
X103600000Y-40625000D03*
X103600000Y-38800000D03*
%TD*%
D11*
%TO.C,C10*%
X126400000Y-53600000D03*
X123750000Y-53600000D03*
%TD*%
D13*
%TO.C,C35*%
X115750000Y-67900000D03*
X118400000Y-67900000D03*
%TD*%
D21*
%TO.C,D9*%
X136200000Y-48790000D03*
X136200000Y-55700000D03*
%TD*%
D11*
%TO.C,C27*%
X126200000Y-38800000D03*
X123550000Y-38800000D03*
%TD*%
D16*
%TO.C,R24*%
X97100000Y-45625000D03*
X97100000Y-43800000D03*
%TD*%
D13*
%TO.C,C23*%
X170250000Y-60300000D03*
X172900000Y-60300000D03*
%TD*%
D16*
%TO.C,R25*%
X90100000Y-40725000D03*
X90100000Y-38900000D03*
%TD*%
D13*
%TO.C,C25*%
X159550000Y-70700000D03*
X162200000Y-70700000D03*
%TD*%
%TO.C,C1*%
X58050000Y-41150000D03*
X60700000Y-41150000D03*
%TD*%
D16*
%TO.C,R26*%
X90200000Y-45725000D03*
X90200000Y-43900000D03*
%TD*%
D13*
%TO.C,C36*%
X100850000Y-52000000D03*
X103500000Y-52000000D03*
%TD*%
D30*
%TO.C,L4*%
X137650000Y-61500000D03*
X139700000Y-61500000D03*
%TD*%
D13*
%TO.C,C26*%
X159550000Y-60400000D03*
X162200000Y-60400000D03*
%TD*%
M02*
