%TF.GenerationSoftware,KiCad,Pcbnew,9.0.2*%
%TF.CreationDate,2025-07-10T19:46:15+05:30*%
%TF.ProjectId,STM32 ESC PCB Design,53544d33-3220-4455-9343-205043422044,rev?*%
%TF.SameCoordinates,Original*%
%TF.FileFunction,Copper,L1,Top*%
%TF.FilePolarity,Positive*%
%FSLAX46Y46*%
G04 Gerber Fmt 4.6, Leading zero omitted, Abs format (unit mm)*
G04 Created by KiCad (PCBNEW 9.0.2) date 2025-07-10 19:46:15*
%MOMM*%
%LPD*%
G01*
G04 APERTURE LIST*
G04 Aperture macros list*
%AMRoundRect*
0 Rectangle with rounded corners*
0 $1 Rounding radius*
0 $2 $3 $4 $5 $6 $7 $8 $9 X,Y pos of 4 corners*
0 Add a 4 corners polygon primitive as box body*
4,1,4,$2,$3,$4,$5,$6,$7,$8,$9,$2,$3,0*
0 Add four circle primitives for the rounded corners*
1,1,$1+$1,$2,$3*
1,1,$1+$1,$4,$5*
1,1,$1+$1,$6,$7*
1,1,$1+$1,$8,$9*
0 Add four rect primitives between the rounded corners*
20,1,$1+$1,$2,$3,$4,$5,0*
20,1,$1+$1,$4,$5,$6,$7,0*
20,1,$1+$1,$6,$7,$8,$9,0*
20,1,$1+$1,$8,$9,$2,$3,0*%
G04 Aperture macros list end*
%TA.AperFunction,SMDPad,CuDef*%
%ADD10RoundRect,0.250001X0.924999X0.499999X-0.924999X0.499999X-0.924999X-0.499999X0.924999X-0.499999X0*%
%TD*%
%TA.AperFunction,SMDPad,CuDef*%
%ADD11RoundRect,0.250000X-0.262500X-0.450000X0.262500X-0.450000X0.262500X0.450000X-0.262500X0.450000X0*%
%TD*%
%TA.AperFunction,SMDPad,CuDef*%
%ADD12RoundRect,0.250001X-0.924999X-0.499999X0.924999X-0.499999X0.924999X0.499999X-0.924999X0.499999X0*%
%TD*%
%TA.AperFunction,SMDPad,CuDef*%
%ADD13RoundRect,0.250000X0.262500X0.450000X-0.262500X0.450000X-0.262500X-0.450000X0.262500X-0.450000X0*%
%TD*%
%TA.AperFunction,SMDPad,CuDef*%
%ADD14RoundRect,0.250000X-0.450000X0.262500X-0.450000X-0.262500X0.450000X-0.262500X0.450000X0.262500X0*%
%TD*%
%TA.AperFunction,ComponentPad*%
%ADD15C,2.600000*%
%TD*%
%TA.AperFunction,ConnectorPad*%
%ADD16C,3.800000*%
%TD*%
%TA.AperFunction,SMDPad,CuDef*%
%ADD17RoundRect,0.250000X0.450000X-0.262500X0.450000X0.262500X-0.450000X0.262500X-0.450000X-0.262500X0*%
%TD*%
%TA.AperFunction,ComponentPad*%
%ADD18R,1.700000X1.700000*%
%TD*%
%TA.AperFunction,ComponentPad*%
%ADD19C,1.700000*%
%TD*%
%TA.AperFunction,SMDPad,CuDef*%
%ADD20RoundRect,0.225000X-0.225000X-0.375000X0.225000X-0.375000X0.225000X0.375000X-0.225000X0.375000X0*%
%TD*%
%TA.AperFunction,SMDPad,CuDef*%
%ADD21RoundRect,0.127000X1.143000X-1.208000X1.143000X1.208000X-1.143000X1.208000X-1.143000X-1.208000X0*%
%TD*%
%TA.AperFunction,SMDPad,CuDef*%
%ADD22RoundRect,0.076200X0.558800X-0.304800X0.558800X0.304800X-0.558800X0.304800X-0.558800X-0.304800X0*%
%TD*%
%TA.AperFunction,ComponentPad*%
%ADD23R,1.905000X2.000000*%
%TD*%
%TA.AperFunction,ComponentPad*%
%ADD24O,1.905000X2.000000*%
%TD*%
%TA.AperFunction,SMDPad,CuDef*%
%ADD25R,0.500000X0.600000*%
%TD*%
%TA.AperFunction,ComponentPad*%
%ADD26RoundRect,0.250000X0.750000X-0.750000X0.750000X0.750000X-0.750000X0.750000X-0.750000X-0.750000X0*%
%TD*%
%TA.AperFunction,ComponentPad*%
%ADD27C,2.000000*%
%TD*%
%TA.AperFunction,SMDPad,CuDef*%
%ADD28R,3.180000X2.250000*%
%TD*%
%TA.AperFunction,SMDPad,CuDef*%
%ADD29RoundRect,0.200000X0.275000X-0.200000X0.275000X0.200000X-0.275000X0.200000X-0.275000X-0.200000X0*%
%TD*%
%TA.AperFunction,SMDPad,CuDef*%
%ADD30RoundRect,0.070000X-0.715000X-0.070000X0.715000X-0.070000X0.715000X0.070000X-0.715000X0.070000X0*%
%TD*%
%TA.AperFunction,SMDPad,CuDef*%
%ADD31R,3.235000X5.820000*%
%TD*%
%TA.AperFunction,SMDPad,CuDef*%
%ADD32RoundRect,0.075000X-0.910000X-0.225000X0.910000X-0.225000X0.910000X0.225000X-0.910000X0.225000X0*%
%TD*%
%TA.AperFunction,SMDPad,CuDef*%
%ADD33RoundRect,0.062500X0.375000X0.062500X-0.375000X0.062500X-0.375000X-0.062500X0.375000X-0.062500X0*%
%TD*%
%TA.AperFunction,SMDPad,CuDef*%
%ADD34RoundRect,0.062500X0.062500X0.375000X-0.062500X0.375000X-0.062500X-0.375000X0.062500X-0.375000X0*%
%TD*%
%TA.AperFunction,HeatsinkPad*%
%ADD35R,5.600000X5.600000*%
%TD*%
%TA.AperFunction,SMDPad,CuDef*%
%ADD36RoundRect,0.250000X0.450000X-0.325000X0.450000X0.325000X-0.450000X0.325000X-0.450000X-0.325000X0*%
%TD*%
%TA.AperFunction,SMDPad,CuDef*%
%ADD37R,2.180000X1.600000*%
%TD*%
%TA.AperFunction,SMDPad,CuDef*%
%ADD38RoundRect,0.250000X-0.325000X-0.450000X0.325000X-0.450000X0.325000X0.450000X-0.325000X0.450000X0*%
%TD*%
%TA.AperFunction,ViaPad*%
%ADD39C,0.600000*%
%TD*%
%TA.AperFunction,ViaPad*%
%ADD40C,0.400000*%
%TD*%
%TA.AperFunction,Conductor*%
%ADD41C,0.200000*%
%TD*%
G04 APERTURE END LIST*
D10*
%TO.P,C8,1*%
%TO.N,R_SHUNT1_N*%
X126400000Y-63300000D03*
%TO.P,C8,2*%
%TO.N,PHCM_V*%
X123750000Y-63300000D03*
%TD*%
D11*
%TO.P,R3,1*%
%TO.N,VDD_3V3*%
X63975000Y-48000000D03*
%TO.P,R3,2*%
%TO.N,Net-(U1-OC_ADJ)*%
X65800000Y-48000000D03*
%TD*%
D12*
%TO.P,C18,1*%
%TO.N,BUCK_COMP*%
X159475000Y-55300000D03*
%TO.P,C18,2*%
%TO.N,Net-(C18-Pad2)*%
X162125000Y-55300000D03*
%TD*%
D13*
%TO.P,R4,1*%
%TO.N,Net-(U1-OC_ADJ)*%
X65700000Y-50400000D03*
%TO.P,R4,2*%
%TO.N,R_SHUNT1_N*%
X63875000Y-50400000D03*
%TD*%
D14*
%TO.P,R10,1*%
%TO.N,Net-(C18-Pad2)*%
X166100000Y-55575000D03*
%TO.P,R10,2*%
%TO.N,Net-(R10-Pad2)*%
X166100000Y-57400000D03*
%TD*%
D15*
%TO.P,REF\u002A\u002A,1*%
%TO.N,N/C*%
X171900000Y-77100000D03*
D16*
X171900000Y-77100000D03*
%TD*%
D10*
%TO.P,C13,1*%
%TO.N,Net-(U1-BIAS)*%
X126200000Y-43650000D03*
%TO.P,C13,2*%
%TO.N,R_SHUNT1_N*%
X123550000Y-43650000D03*
%TD*%
D17*
%TO.P,R20,1*%
%TO.N,Net-(C27-Pad1)*%
X97000000Y-40825000D03*
%TO.P,R20,2*%
%TO.N,V_Bridge*%
X97000000Y-39000000D03*
%TD*%
%TO.P,R32,1*%
%TO.N,Net-(C34-Pad1)*%
X110400000Y-40825000D03*
%TO.P,R32,2*%
%TO.N,V_Bridge*%
X110400000Y-39000000D03*
%TD*%
%TO.P,R33,1*%
%TO.N,Net-(C35-Pad1)*%
X110400000Y-70212500D03*
%TO.P,R33,2*%
%TO.N,MOTOR_W*%
X110400000Y-68387500D03*
%TD*%
%TO.P,R16,1*%
%TO.N,BUCK_FB*%
X154100000Y-59612500D03*
%TO.P,R16,2*%
%TO.N,R_SHUNT1_N*%
X154100000Y-57787500D03*
%TD*%
D12*
%TO.P,C24,1*%
%TO.N,Net-(U2-SS)*%
X159550000Y-65850000D03*
%TO.P,C24,2*%
%TO.N,R_SHUNT1_N*%
X162200000Y-65850000D03*
%TD*%
D11*
%TO.P,R2,1*%
%TO.N,VDD_3V3*%
X63975000Y-41200000D03*
%TO.P,R2,2*%
%TO.N,nOCTW*%
X65800000Y-41200000D03*
%TD*%
D18*
%TO.P,J4,1,Pin_1*%
%TO.N,POWER_GND*%
X46300000Y-59660000D03*
D19*
%TO.P,J4,2,Pin_2*%
X46300000Y-62200000D03*
%TD*%
D12*
%TO.P,C19,1*%
%TO.N,Net-(U2-VIN)*%
X170250000Y-40900000D03*
%TO.P,C19,2*%
%TO.N,R_SHUNT1_N*%
X172900000Y-40900000D03*
%TD*%
%TO.P,C37,1*%
%TO.N,AVDD_3V3*%
X100850000Y-56850000D03*
%TO.P,C37,2*%
%TO.N,R_SHUNT1_N*%
X103500000Y-56850000D03*
%TD*%
D10*
%TO.P,C12,1*%
%TO.N,Net-(U1-BST_A)*%
X126200000Y-48500000D03*
%TO.P,C12,2*%
%TO.N,MOTOR_U*%
X123550000Y-48500000D03*
%TD*%
D12*
%TO.P,C34,1*%
%TO.N,Net-(C34-Pad1)*%
X115750000Y-63050000D03*
%TO.P,C34,2*%
%TO.N,MOTOR_W*%
X118400000Y-63050000D03*
%TD*%
D20*
%TO.P,Z5,1,K*%
%TO.N,Net-(Z5-K)*%
X147700000Y-65250000D03*
%TO.P,Z5,2,A*%
%TO.N,Net-(Z4-K)*%
X151000000Y-65250000D03*
%TD*%
D11*
%TO.P,R5,1*%
%TO.N,R_SHUNT1_N*%
X63900000Y-52700000D03*
%TO.P,R5,2*%
%TO.N,Net-(U1-DTC)*%
X65725000Y-52700000D03*
%TD*%
%TO.P,R1,1*%
%TO.N,VDD_3V3*%
X63975000Y-44500000D03*
%TO.P,R1,2*%
%TO.N,nFAULT*%
X65800000Y-44500000D03*
%TD*%
%TO.P,R6,1*%
%TO.N,R_SHUNT1_N*%
X63900000Y-55100000D03*
%TO.P,R6,2*%
%TO.N,Net-(U1-M_PWM)*%
X65725000Y-55100000D03*
%TD*%
D17*
%TO.P,R35,1*%
%TO.N,Net-(C39-Pad1)*%
X110500000Y-63225000D03*
%TO.P,R35,2*%
%TO.N,HSE_OUT*%
X110500000Y-61400000D03*
%TD*%
D12*
%TO.P,C29,1*%
%TO.N,R_SHUNT1_P*%
X115750000Y-43650000D03*
%TO.P,C29,2*%
%TO.N,R_SHUNT1_N*%
X118400000Y-43650000D03*
%TD*%
D21*
%TO.P,D10,1,K*%
%TO.N,Net-(D10-K)*%
X149400000Y-42851000D03*
D22*
%TO.P,D10,2,A*%
%TO.N,R_SHUNT1_N*%
X149400000Y-40500000D03*
%TD*%
D17*
%TO.P,R28,1*%
%TO.N,Net-(C32-Pad1)*%
X110400000Y-44825000D03*
%TO.P,R28,2*%
%TO.N,MOTOR_V*%
X110400000Y-43000000D03*
%TD*%
D20*
%TO.P,Z6,1,K*%
%TO.N,Net-(Q2-G)*%
X147700000Y-68600000D03*
%TO.P,Z6,2,A*%
%TO.N,Net-(Z5-K)*%
X151000000Y-68600000D03*
%TD*%
D12*
%TO.P,C16,1*%
%TO.N,V_Bridge*%
X159475000Y-45600000D03*
%TO.P,C16,2*%
%TO.N,R_SHUNT1_N*%
X162125000Y-45600000D03*
%TD*%
D23*
%TO.P,Q7,1,G*%
%TO.N,Net-(Q7-G)*%
X61300000Y-78000000D03*
D24*
%TO.P,Q7,2,D*%
%TO.N,MOTOR_W*%
X63840000Y-78000000D03*
%TO.P,Q7,3,S*%
%TO.N,R_SHUNT1_N*%
X66380000Y-78000000D03*
%TD*%
D12*
%TO.P,C2,1*%
%TO.N,Net-(U1-CP2)*%
X58050000Y-46000000D03*
%TO.P,C2,2*%
%TO.N,Net-(U1-CP1)*%
X60700000Y-46000000D03*
%TD*%
D25*
%TO.P,Y1,1,1*%
%TO.N,HSE_IN*%
X110200000Y-65000000D03*
%TO.P,Y1,2,2*%
%TO.N,R_SHUNT1_N*%
X110200000Y-66100000D03*
%TO.P,Y1,3,3*%
%TO.N,Net-(C39-Pad1)*%
X111000000Y-66100000D03*
%TO.P,Y1,4,4*%
%TO.N,R_SHUNT1_N*%
X111000000Y-65000000D03*
%TD*%
D14*
%TO.P,R18,1*%
%TO.N,SO2*%
X64000000Y-59400000D03*
%TO.P,R18,2*%
%TO.N,PHCM_V*%
X64000000Y-61225000D03*
%TD*%
D26*
%TO.P,D6,1,A1*%
%TO.N,POWER_GND*%
X46400000Y-55180000D03*
D27*
%TO.P,D6,2,A2*%
%TO.N,+12POWER*%
X46400000Y-50100000D03*
%TD*%
D12*
%TO.P,C28,1*%
%TO.N,Net-(C28-Pad1)*%
X115750000Y-38800000D03*
%TO.P,C28,2*%
%TO.N,R_SHUNT1_P*%
X118400000Y-38800000D03*
%TD*%
D28*
%TO.P,D7,A*%
%TO.N,V_Bridge*%
X136000000Y-38590000D03*
%TO.P,D7,C*%
%TO.N,Net-(U2-VIN)*%
X136000000Y-45500000D03*
%TD*%
D29*
%TO.P,FB1,1*%
%TO.N,VDD_3V3*%
X110600000Y-48550000D03*
%TO.P,FB1,2*%
%TO.N,Net-(U1-REF)*%
X110600000Y-46900000D03*
%TD*%
D17*
%TO.P,R19,1*%
%TO.N,GH_A*%
X93600000Y-40725000D03*
%TO.P,R19,2*%
%TO.N,Net-(Q1-G)*%
X93600000Y-38900000D03*
%TD*%
D23*
%TO.P,Q4,1,G*%
%TO.N,Net-(Q4-G)*%
X87920000Y-31200000D03*
D24*
%TO.P,Q4,2,D*%
%TO.N,V_Bridge*%
X90460000Y-31200000D03*
%TO.P,Q4,3,S*%
%TO.N,MOTOR_V*%
X93000000Y-31200000D03*
%TD*%
D23*
%TO.P,Q3,1,G*%
%TO.N,Net-(Q3-G)*%
X110120000Y-31200000D03*
D24*
%TO.P,Q3,2,D*%
%TO.N,MOTOR_U*%
X112660000Y-31200000D03*
%TO.P,Q3,3,S*%
%TO.N,R_SHUNT1_P*%
X115200000Y-31200000D03*
%TD*%
D17*
%TO.P,R27,1*%
%TO.N,Net-(C31-Pad1)*%
X100300000Y-40725000D03*
%TO.P,R27,2*%
%TO.N,V_Bridge*%
X100300000Y-38900000D03*
%TD*%
%TO.P,R8,1*%
%TO.N,VDD_3V3*%
X63900000Y-68325000D03*
%TO.P,R8,2*%
%TO.N,Net-(U1-GAIN)*%
X63900000Y-66500000D03*
%TD*%
D18*
%TO.P,J3,1,Pin_1*%
%TO.N,+12POWER*%
X46400000Y-44160000D03*
D19*
%TO.P,J3,2,Pin_2*%
X46400000Y-46700000D03*
%TD*%
D29*
%TO.P,FB2,1*%
%TO.N,AVDD_3V3*%
X110600000Y-51900000D03*
%TO.P,FB2,2*%
%TO.N,VDD_3V3*%
X110600000Y-50250000D03*
%TD*%
D23*
%TO.P,Q1,1,G*%
%TO.N,Net-(Q1-G)*%
X99120000Y-31200000D03*
D24*
%TO.P,Q1,2,D*%
%TO.N,V_Bridge*%
X101660000Y-31200000D03*
%TO.P,Q1,3,S*%
%TO.N,MOTOR_U*%
X104200000Y-31200000D03*
%TD*%
D14*
%TO.P,R11,1*%
%TO.N,Net-(R10-Pad2)*%
X166100000Y-59275000D03*
%TO.P,R11,2*%
%TO.N,R_SHUNT1_N*%
X166100000Y-61100000D03*
%TD*%
D15*
%TO.P,REF\u002A\u002A,1*%
%TO.N,N/C*%
X46500000Y-76900000D03*
D16*
X46500000Y-76900000D03*
%TD*%
D17*
%TO.P,R14,1*%
%TO.N,VDD_3V3*%
X166100000Y-68525000D03*
%TO.P,R14,2*%
%TO.N,Net-(R14-Pad2)*%
X166100000Y-66700000D03*
%TD*%
D12*
%TO.P,C14,1*%
%TO.N,+12POWER*%
X51450000Y-50700000D03*
%TO.P,C14,2*%
%TO.N,R_SHUNT1_N*%
X54100000Y-50700000D03*
%TD*%
D14*
%TO.P,R17,1*%
%TO.N,SO1*%
X64000000Y-62887500D03*
%TO.P,R17,2*%
%TO.N,PHCM_U*%
X64000000Y-64712500D03*
%TD*%
D12*
%TO.P,C31,1*%
%TO.N,Net-(C31-Pad1)*%
X115750000Y-53350000D03*
%TO.P,C31,2*%
%TO.N,MOTOR_V*%
X118400000Y-53350000D03*
%TD*%
D10*
%TO.P,C9,1*%
%TO.N,R_SHUNT1_N*%
X126400000Y-58450000D03*
%TO.P,C9,2*%
%TO.N,PHCM_U*%
X123750000Y-58450000D03*
%TD*%
D30*
%TO.P,U1,1,RT_CLK*%
%TO.N,unconnected-(U1-RT_CLK-Pad1)*%
X72460000Y-42100000D03*
%TO.P,U1,2,COMP*%
%TO.N,unconnected-(U1-COMP-Pad2)*%
X72460000Y-42600000D03*
%TO.P,U1,3,VSENSE*%
%TO.N,unconnected-(U1-VSENSE-Pad3)*%
X72460000Y-43100000D03*
%TO.P,U1,4,PWRGD*%
%TO.N,unconnected-(U1-PWRGD-Pad4)*%
X72460000Y-43600000D03*
%TO.P,U1,5,NOCTW*%
%TO.N,nOCTW*%
X72460000Y-44100000D03*
%TO.P,U1,6,NFAULT*%
%TO.N,nFAULT*%
X72460000Y-44600000D03*
%TO.P,U1,7,DTC*%
%TO.N,Net-(U1-DTC)*%
X72460000Y-45100000D03*
%TO.P,U1,8,M_PWM*%
%TO.N,Net-(U1-M_PWM)*%
X72460000Y-45600000D03*
%TO.P,U1,9,M_OC*%
%TO.N,Net-(U1-M_OC)*%
X72460000Y-46100000D03*
%TO.P,U1,10,GAIN*%
%TO.N,Net-(U1-GAIN)*%
X72460000Y-46600000D03*
%TO.P,U1,11,OC_ADJ*%
%TO.N,Net-(U1-OC_ADJ)*%
X72460000Y-47100000D03*
%TO.P,U1,12,DC_CAL*%
%TO.N,DC_CAL*%
X72460000Y-47600000D03*
%TO.P,U1,13,GVDD*%
%TO.N,Net-(U1-GVDD)*%
X72460000Y-48100000D03*
%TO.P,U1,14,CP1*%
%TO.N,Net-(U1-CP1)*%
X72460000Y-48600000D03*
%TO.P,U1,15,CP2*%
%TO.N,Net-(U1-CP2)*%
X72460000Y-49100000D03*
%TO.P,U1,16,EN_GATE*%
%TO.N,GDR_EN*%
X72460000Y-49600000D03*
%TO.P,U1,17,INH_A*%
%TO.N,PWM1_H*%
X72460000Y-50100000D03*
%TO.P,U1,18,INL_A*%
%TO.N,PWM1_L*%
X72460000Y-50600000D03*
%TO.P,U1,19,INH_B*%
%TO.N,PWM2_H*%
X72460000Y-51100000D03*
%TO.P,U1,20,INL_B*%
%TO.N,PWM2_L*%
X72460000Y-51600000D03*
%TO.P,U1,21,INH_C*%
%TO.N,PWM3_H*%
X72460000Y-52100000D03*
%TO.P,U1,22,INL_C*%
%TO.N,PWM3_L*%
X72460000Y-52600000D03*
%TO.P,U1,23,DVDD*%
%TO.N,Net-(U1-DVDD)*%
X72460000Y-53100000D03*
%TO.P,U1,24,REF*%
%TO.N,Net-(U1-REF)*%
X72460000Y-53600000D03*
%TO.P,U1,25,SO1*%
%TO.N,SO1*%
X72460000Y-54100000D03*
%TO.P,U1,26,SO2*%
%TO.N,SO2*%
X72460000Y-54600000D03*
%TO.P,U1,27,AVDD*%
%TO.N,Net-(U1-AVDD)*%
X72460000Y-55100000D03*
%TO.P,U1,28,AGND*%
%TO.N,R_SHUNT1_N*%
X72460000Y-55600000D03*
%TO.P,U1,29,PVDD1*%
%TO.N,V_Bridge*%
X79900000Y-55600000D03*
%TO.P,U1,30,SP2*%
%TO.N,R_SHUNT1_N*%
X79900000Y-55100000D03*
%TO.P,U1,31,SN2*%
%TO.N,R_SHUNT2_P*%
X79900000Y-54600000D03*
%TO.P,U1,32,SP1*%
%TO.N,R_SHUNT1_N*%
X79900000Y-54100000D03*
%TO.P,U1,33,SN1*%
%TO.N,R_SHUNT1_P*%
X79900000Y-53600000D03*
%TO.P,U1,34,SL_C*%
%TO.N,R_SHUNT1_N*%
X79900000Y-53100000D03*
%TO.P,U1,35,GL_C*%
%TO.N,GL_C*%
X79900000Y-52600000D03*
%TO.P,U1,36,SH_C*%
%TO.N,MOTOR_W*%
X79900000Y-52100000D03*
%TO.P,U1,37,GH_C*%
%TO.N,GH_C*%
X79900000Y-51600000D03*
%TO.P,U1,38,BST_C*%
%TO.N,Net-(U1-BST_C)*%
X79900000Y-51100000D03*
%TO.P,U1,39,SL_B*%
%TO.N,R_SHUNT2_P*%
X79900000Y-50600000D03*
%TO.P,U1,40,GL_B*%
%TO.N,GL_B*%
X79900000Y-50100000D03*
%TO.P,U1,41,SH_B*%
%TO.N,MOTOR_V*%
X79900000Y-49600000D03*
%TO.P,U1,42,GH_B*%
%TO.N,GH_B*%
X79900000Y-49100000D03*
%TO.P,U1,43,BST_B*%
%TO.N,Net-(U1-BST_B)*%
X79900000Y-48600000D03*
%TO.P,U1,44,SL_A*%
%TO.N,R_SHUNT1_P*%
X79900000Y-48100000D03*
%TO.P,U1,45,GL_A*%
%TO.N,GL_A*%
X79900000Y-47600000D03*
%TO.P,U1,46,SH_A*%
%TO.N,MOTOR_U*%
X79900000Y-47100000D03*
%TO.P,U1,47,GH_A*%
%TO.N,GH_A*%
X79900000Y-46600000D03*
%TO.P,U1,48,BST_A*%
%TO.N,Net-(U1-BST_A)*%
X79900000Y-46100000D03*
%TO.P,U1,49,BIAS*%
%TO.N,Net-(U1-BIAS)*%
X79900000Y-45600000D03*
%TO.P,U1,50,PH*%
%TO.N,unconnected-(U1-PH-Pad50)*%
X79900000Y-45100000D03*
%TO.P,U1,51,PH*%
%TO.N,unconnected-(U1-PH-Pad51)*%
X79900000Y-44600000D03*
%TO.P,U1,52,BST_BK*%
%TO.N,unconnected-(U1-BST_BK-Pad52)*%
X79900000Y-44100000D03*
%TO.P,U1,53,PVDD2*%
%TO.N,unconnected-(U1-PVDD2-Pad53)*%
X79900000Y-43600000D03*
%TO.P,U1,54,PVDD2*%
%TO.N,unconnected-(U1-PVDD2-Pad54)*%
X79900000Y-43100000D03*
%TO.P,U1,55,EN_BUCK*%
%TO.N,unconnected-(U1-EN_BUCK-Pad55)*%
X79900000Y-42600000D03*
%TO.P,U1,56,SS_TR*%
%TO.N,unconnected-(U1-SS_TR-Pad56)*%
X79900000Y-42100000D03*
D31*
%TO.P,U1,57,PWR_PAD*%
%TO.N,R_SHUNT1_N*%
X76180000Y-48850000D03*
%TD*%
D12*
%TO.P,C17,1*%
%TO.N,V_Bridge*%
X159475000Y-50450000D03*
%TO.P,C17,2*%
%TO.N,R_SHUNT1_N*%
X162125000Y-50450000D03*
%TD*%
D11*
%TO.P,R30,1*%
%TO.N,GL_C*%
X69375000Y-70490000D03*
%TO.P,R30,2*%
%TO.N,Net-(Q7-G)*%
X71200000Y-70490000D03*
%TD*%
D12*
%TO.P,C20,1*%
%TO.N,BUCK_COMP*%
X170250000Y-45750000D03*
%TO.P,C20,2*%
%TO.N,R_SHUNT1_N*%
X172900000Y-45750000D03*
%TD*%
D17*
%TO.P,R29,1*%
%TO.N,GH_C*%
X96000000Y-71025000D03*
%TO.P,R29,2*%
%TO.N,Net-(Q6-G)*%
X96000000Y-69200000D03*
%TD*%
D12*
%TO.P,C39,1*%
%TO.N,Net-(C39-Pad1)*%
X100850000Y-66550000D03*
%TO.P,C39,2*%
%TO.N,R_SHUNT1_N*%
X103500000Y-66550000D03*
%TD*%
D32*
%TO.P,U2,1,BOOT*%
%TO.N,BUCK_BOOT*%
X149000000Y-51790000D03*
%TO.P,U2,2,VIN*%
%TO.N,Net-(U2-VIN)*%
X149000000Y-53060000D03*
%TO.P,U2,3,EN*%
%TO.N,Net-(D10-K)*%
X149000000Y-54330000D03*
%TO.P,U2,4,SS*%
%TO.N,Net-(U2-SS)*%
X149000000Y-55600000D03*
%TO.P,U2,5,FB*%
%TO.N,BUCK_FB*%
X153940000Y-55600000D03*
%TO.P,U2,6,COMP*%
%TO.N,BUCK_COMP*%
X153940000Y-54330000D03*
%TO.P,U2,7,GND*%
%TO.N,R_SHUNT1_N*%
X153940000Y-53060000D03*
%TO.P,U2,8,PH*%
%TO.N,BUCK_PH*%
X153940000Y-51790000D03*
%TD*%
D12*
%TO.P,C5,1*%
%TO.N,R_SHUNT1_N*%
X58050000Y-60550000D03*
%TO.P,C5,2*%
%TO.N,V_Bridge*%
X60700000Y-60550000D03*
%TD*%
%TO.P,C7,1*%
%TO.N,R_SHUNT1_N*%
X58050000Y-70250000D03*
%TO.P,C7,2*%
%TO.N,Net-(U1-AVDD)*%
X60700000Y-70250000D03*
%TD*%
D17*
%TO.P,R15,1*%
%TO.N,Net-(R14-Pad2)*%
X166100000Y-64825000D03*
%TO.P,R15,2*%
%TO.N,BUCK_FB*%
X166100000Y-63000000D03*
%TD*%
D11*
%TO.P,R7,1*%
%TO.N,R_SHUNT1_N*%
X63875000Y-57500000D03*
%TO.P,R7,2*%
%TO.N,Net-(U1-M_OC)*%
X65700000Y-57500000D03*
%TD*%
D12*
%TO.P,C22,1*%
%TO.N,Net-(U2-VIN)*%
X170250000Y-55450000D03*
%TO.P,C22,2*%
%TO.N,R_SHUNT1_N*%
X172900000Y-55450000D03*
%TD*%
%TO.P,C38,1*%
%TO.N,HSE_IN*%
X100850000Y-61700000D03*
%TO.P,C38,2*%
%TO.N,R_SHUNT1_N*%
X103500000Y-61700000D03*
%TD*%
D17*
%TO.P,R22,1*%
%TO.N,Net-(C28-Pad1)*%
X106900000Y-40625000D03*
%TO.P,R22,2*%
%TO.N,MOTOR_U*%
X106900000Y-38800000D03*
%TD*%
%TO.P,R23,1*%
%TO.N,R_SHUNT1_N*%
X93700000Y-45725000D03*
%TO.P,R23,2*%
%TO.N,R_SHUNT1_P*%
X93700000Y-43900000D03*
%TD*%
D33*
%TO.P,U3,1,VBAT*%
%TO.N,VDD_3V3*%
X90700000Y-66800000D03*
%TO.P,U3,2,PC13*%
%TO.N,PWM1_L*%
X90700000Y-66300000D03*
%TO.P,U3,3,PC14*%
%TO.N,nFAULT*%
X90700000Y-65800000D03*
%TO.P,U3,4,PC15*%
%TO.N,nOCTW*%
X90700000Y-65300000D03*
%TO.P,U3,5,PF0*%
%TO.N,HSE_IN*%
X90700000Y-64800000D03*
%TO.P,U3,6,PF1*%
%TO.N,HSE_OUT*%
X90700000Y-64300000D03*
%TO.P,U3,7,PG10*%
%TO.N,NRST*%
X90700000Y-63800000D03*
%TO.P,U3,8,PA0*%
%TO.N,PHCM_U*%
X90700000Y-63300000D03*
%TO.P,U3,9,PA1*%
%TO.N,PHCM_V*%
X90700000Y-62800000D03*
%TO.P,U3,10,PA2*%
%TO.N,unconnected-(U3-PA2-Pad10)*%
X90700000Y-62300000D03*
%TO.P,U3,11,PA3*%
%TO.N,unconnected-(U3-PA3-Pad11)*%
X90700000Y-61800000D03*
%TO.P,U3,12,PA4*%
%TO.N,DC_CAL*%
X90700000Y-61300000D03*
D34*
%TO.P,U3,13,PA5*%
%TO.N,unconnected-(U3-PA5-Pad13)*%
X90012500Y-60612500D03*
%TO.P,U3,14,PA6*%
%TO.N,unconnected-(U3-PA6-Pad14)*%
X89512500Y-60612500D03*
%TO.P,U3,15,PA7*%
%TO.N,GDR_EN*%
X89012500Y-60612500D03*
%TO.P,U3,16,PC4*%
%TO.N,unconnected-(U3-PC4-Pad16)*%
X88512500Y-60612500D03*
%TO.P,U3,17,PB0*%
%TO.N,unconnected-(U3-PB0-Pad17)*%
X88012500Y-60612500D03*
%TO.P,U3,18,PB1*%
%TO.N,unconnected-(U3-PB1-Pad18)*%
X87512500Y-60612500D03*
%TO.P,U3,19,PB2*%
%TO.N,unconnected-(U3-PB2-Pad19)*%
X87012500Y-60612500D03*
%TO.P,U3,20,VREF+*%
%TO.N,AVDD_3V3*%
X86512500Y-60612500D03*
%TO.P,U3,21,VDDA*%
X86012500Y-60612500D03*
%TO.P,U3,22,PB10*%
%TO.N,unconnected-(U3-PB10-Pad22)*%
X85512500Y-60612500D03*
%TO.P,U3,23,VDD*%
%TO.N,VDD_3V3*%
X85012500Y-60612500D03*
%TO.P,U3,24,PB11*%
%TO.N,unconnected-(U3-PB11-Pad24)*%
X84512500Y-60612500D03*
D33*
%TO.P,U3,25,PB12*%
%TO.N,unconnected-(U3-PB12-Pad25)*%
X83825000Y-61300000D03*
%TO.P,U3,26,PB13*%
%TO.N,unconnected-(U3-PB13-Pad26)*%
X83825000Y-61800000D03*
%TO.P,U3,27,PB14*%
%TO.N,PWM2_L*%
X83825000Y-62300000D03*
%TO.P,U3,28,PB15*%
%TO.N,unconnected-(U3-PB15-Pad28)*%
X83825000Y-62800000D03*
%TO.P,U3,29,PC6*%
%TO.N,unconnected-(U3-PC6-Pad29)*%
X83825000Y-63300000D03*
%TO.P,U3,30,PA8*%
%TO.N,PWM1_H*%
X83825000Y-63800000D03*
%TO.P,U3,31,PA9*%
%TO.N,PWM2_H*%
X83825000Y-64300000D03*
%TO.P,U3,32,PA10*%
%TO.N,PWM3_H*%
X83825000Y-64800000D03*
%TO.P,U3,33,PA11*%
%TO.N,unconnected-(U3-PA11-Pad33)*%
X83825000Y-65300000D03*
%TO.P,U3,34,PA12*%
%TO.N,unconnected-(U3-PA12-Pad34)*%
X83825000Y-65800000D03*
%TO.P,U3,35,VDD*%
%TO.N,VDD_3V3*%
X83825000Y-66300000D03*
%TO.P,U3,36,PA13*%
%TO.N,SWDIO*%
X83825000Y-66800000D03*
D34*
%TO.P,U3,37,PA14*%
%TO.N,SWDCLK*%
X84512500Y-67487500D03*
%TO.P,U3,38,PA15*%
%TO.N,unconnected-(U3-PA15-Pad38)*%
X85012500Y-67487500D03*
%TO.P,U3,39,PC10*%
%TO.N,unconnected-(U3-PC10-Pad39)*%
X85512500Y-67487500D03*
%TO.P,U3,40,PC11*%
%TO.N,unconnected-(U3-PC11-Pad40)*%
X86012500Y-67487500D03*
%TO.P,U3,41,PB3*%
%TO.N,unconnected-(U3-PB3-Pad41)*%
X86512500Y-67487500D03*
%TO.P,U3,42,PB4*%
%TO.N,unconnected-(U3-PB4-Pad42)*%
X87012500Y-67487500D03*
%TO.P,U3,43,PB5*%
%TO.N,unconnected-(U3-PB5-Pad43)*%
X87512500Y-67487500D03*
%TO.P,U3,44,PB6*%
%TO.N,unconnected-(U3-PB6-Pad44)*%
X88012500Y-67487500D03*
%TO.P,U3,45,PB7*%
%TO.N,unconnected-(U3-PB7-Pad45)*%
X88512500Y-67487500D03*
%TO.P,U3,46,PB8*%
%TO.N,BOOT0*%
X89012500Y-67487500D03*
%TO.P,U3,47,PB9*%
%TO.N,PWM3_L*%
X89512500Y-67487500D03*
%TO.P,U3,48,VDD*%
%TO.N,VDD_3V3*%
X90012500Y-67487500D03*
D35*
%TO.P,U3,49,VSS*%
%TO.N,R_SHUNT1_N*%
X87262500Y-64050000D03*
%TD*%
D12*
%TO.P,C4,1*%
%TO.N,R_SHUNT1_N*%
X58050000Y-55700000D03*
%TO.P,C4,2*%
%TO.N,Net-(U1-REF)*%
X60700000Y-55700000D03*
%TD*%
%TO.P,C21,1*%
%TO.N,Net-(U2-VIN)*%
X170250000Y-50600000D03*
%TO.P,C21,2*%
%TO.N,R_SHUNT1_N*%
X172900000Y-50600000D03*
%TD*%
D17*
%TO.P,R9,1*%
%TO.N,Net-(Q2-G)*%
X144600000Y-68825000D03*
%TO.P,R9,2*%
%TO.N,+12POWER*%
X144600000Y-67000000D03*
%TD*%
D20*
%TO.P,Z4,1,K*%
%TO.N,Net-(Z4-K)*%
X147700000Y-61900000D03*
%TO.P,Z4,2,A*%
%TO.N,R_SHUNT1_N*%
X151000000Y-61900000D03*
%TD*%
D10*
%TO.P,C11,1*%
%TO.N,Net-(U1-BST_B)*%
X97225000Y-52200000D03*
%TO.P,C11,2*%
%TO.N,MOTOR_V*%
X94575000Y-52200000D03*
%TD*%
D12*
%TO.P,C33,1*%
%TO.N,NRST*%
X100850000Y-47150000D03*
%TO.P,C33,2*%
%TO.N,R_SHUNT1_N*%
X103500000Y-47150000D03*
%TD*%
D17*
%TO.P,R31,1*%
%TO.N,VDD_3V3*%
X110500000Y-55650000D03*
%TO.P,R31,2*%
%TO.N,NRST*%
X110500000Y-53825000D03*
%TD*%
%TO.P,R13,1*%
%TO.N,Net-(D10-K)*%
X146500000Y-42525000D03*
%TO.P,R13,2*%
%TO.N,R_SHUNT1_N*%
X146500000Y-40700000D03*
%TD*%
D23*
%TO.P,Q2,1,G*%
%TO.N,Net-(Q2-G)*%
X132420000Y-77300000D03*
D24*
%TO.P,Q2,2,D*%
%TO.N,POWER_GND*%
X134960000Y-77300000D03*
%TO.P,Q2,3,S*%
%TO.N,R_SHUNT1_N*%
X137500000Y-77300000D03*
%TD*%
D12*
%TO.P,C15,1*%
%TO.N,V_Bridge*%
X159475000Y-40750000D03*
%TO.P,C15,2*%
%TO.N,R_SHUNT1_N*%
X162125000Y-40750000D03*
%TD*%
%TO.P,C3,1*%
%TO.N,R_SHUNT1_N*%
X58050000Y-50850000D03*
%TO.P,C3,2*%
%TO.N,Net-(U1-DVDD)*%
X60700000Y-50850000D03*
%TD*%
D36*
%TO.P,L3,1,1*%
%TO.N,+12POWER*%
X142000000Y-42750000D03*
%TO.P,L3,2,2*%
%TO.N,V_Bridge*%
X142000000Y-40700000D03*
%TD*%
D12*
%TO.P,C32,1*%
%TO.N,Net-(C32-Pad1)*%
X115750000Y-58200000D03*
%TO.P,C32,2*%
%TO.N,R_SHUNT2_P*%
X118400000Y-58200000D03*
%TD*%
D17*
%TO.P,R34,1*%
%TO.N,R_SHUNT1_N*%
X110500000Y-59400000D03*
%TO.P,R34,2*%
%TO.N,BOOT0*%
X110500000Y-57575000D03*
%TD*%
D12*
%TO.P,C30,1*%
%TO.N,R_SHUNT2_P*%
X115750000Y-48500000D03*
%TO.P,C30,2*%
%TO.N,R_SHUNT1_N*%
X118400000Y-48500000D03*
%TD*%
D14*
%TO.P,R12,1*%
%TO.N,Net-(U2-VIN)*%
X144300000Y-40700000D03*
%TO.P,R12,2*%
%TO.N,Net-(D10-K)*%
X144300000Y-42525000D03*
%TD*%
D37*
%TO.P,SW1,1,1A*%
%TO.N,NRST*%
X130420000Y-66400000D03*
%TO.P,SW1,2,A*%
X139600000Y-66400000D03*
%TD*%
D12*
%TO.P,C6,1*%
%TO.N,R_SHUNT1_N*%
X58050000Y-65400000D03*
%TO.P,C6,2*%
%TO.N,V_Bridge*%
X60700000Y-65400000D03*
%TD*%
D18*
%TO.P,J1,1,Pin_1*%
%TO.N,VDD_3V3*%
X93900000Y-78000000D03*
D19*
%TO.P,J1,2,Pin_2*%
%TO.N,R_SHUNT1_N*%
X91360000Y-78000000D03*
%TO.P,J1,3,Pin_3*%
%TO.N,SWDIO*%
X88820000Y-78000000D03*
%TO.P,J1,4,Pin_4*%
%TO.N,SWDCLK*%
X86280000Y-78000000D03*
%TO.P,J1,5,Pin_5*%
%TO.N,unconnected-(J1-Pin_5-Pad5)*%
X83740000Y-78000000D03*
%TD*%
D17*
%TO.P,R21,1*%
%TO.N,GL_A*%
X103600000Y-40625000D03*
%TO.P,R21,2*%
%TO.N,Net-(Q3-G)*%
X103600000Y-38800000D03*
%TD*%
D15*
%TO.P,REF\u002A\u002A,1*%
%TO.N,N/C*%
X46600000Y-31600000D03*
D16*
X46600000Y-31600000D03*
%TD*%
D10*
%TO.P,C10,1*%
%TO.N,Net-(U1-BST_C)*%
X126400000Y-53600000D03*
%TO.P,C10,2*%
%TO.N,MOTOR_W*%
X123750000Y-53600000D03*
%TD*%
D12*
%TO.P,C35,1*%
%TO.N,Net-(C35-Pad1)*%
X115750000Y-67900000D03*
%TO.P,C35,2*%
%TO.N,R_SHUNT1_N*%
X118400000Y-67900000D03*
%TD*%
D28*
%TO.P,D9,A*%
%TO.N,R_SHUNT1_N*%
X136200000Y-48790000D03*
%TO.P,D9,C*%
%TO.N,BUCK_PH*%
X136200000Y-55700000D03*
%TD*%
D10*
%TO.P,C27,1*%
%TO.N,Net-(C27-Pad1)*%
X126200000Y-38800000D03*
%TO.P,C27,2*%
%TO.N,MOTOR_U*%
X123550000Y-38800000D03*
%TD*%
D17*
%TO.P,R24,1*%
%TO.N,GH_B*%
X97100000Y-45625000D03*
%TO.P,R24,2*%
%TO.N,Net-(Q4-G)*%
X97100000Y-43800000D03*
%TD*%
D12*
%TO.P,C23,1*%
%TO.N,BUCK_PH*%
X170250000Y-60300000D03*
%TO.P,C23,2*%
%TO.N,BUCK_BOOT*%
X172900000Y-60300000D03*
%TD*%
D17*
%TO.P,R25,1*%
%TO.N,GL_B*%
X90100000Y-40725000D03*
%TO.P,R25,2*%
%TO.N,Net-(Q5-G)*%
X90100000Y-38900000D03*
%TD*%
D12*
%TO.P,C25,1*%
%TO.N,VDD_3V3*%
X159550000Y-70700000D03*
%TO.P,C25,2*%
%TO.N,R_SHUNT1_N*%
X162200000Y-70700000D03*
%TD*%
%TO.P,C1,1*%
%TO.N,Net-(U1-GVDD)*%
X58050000Y-41150000D03*
%TO.P,C1,2*%
%TO.N,R_SHUNT1_N*%
X60700000Y-41150000D03*
%TD*%
D17*
%TO.P,R26,1*%
%TO.N,R_SHUNT1_N*%
X90200000Y-45725000D03*
%TO.P,R26,2*%
%TO.N,R_SHUNT2_P*%
X90200000Y-43900000D03*
%TD*%
D15*
%TO.P,REF\u002A\u002A,1*%
%TO.N,N/C*%
X172000000Y-31800000D03*
D16*
X172000000Y-31800000D03*
%TD*%
D12*
%TO.P,C36,1*%
%TO.N,AVDD_3V3*%
X100850000Y-52000000D03*
%TO.P,C36,2*%
%TO.N,R_SHUNT1_N*%
X103500000Y-52000000D03*
%TD*%
D38*
%TO.P,L4,1,1*%
%TO.N,BUCK_PH*%
X137650000Y-61500000D03*
%TO.P,L4,2,2*%
%TO.N,VDD_3V3*%
X139700000Y-61500000D03*
%TD*%
D12*
%TO.P,C26,1*%
%TO.N,VDD_3V3*%
X159550000Y-60400000D03*
%TO.P,C26,2*%
%TO.N,R_SHUNT1_N*%
X162200000Y-60400000D03*
%TD*%
D23*
%TO.P,Q6,1,G*%
%TO.N,Net-(Q6-G)*%
X73000000Y-77200000D03*
D24*
%TO.P,Q6,2,D*%
%TO.N,V_Bridge*%
X75540000Y-77200000D03*
%TO.P,Q6,3,S*%
%TO.N,MOTOR_W*%
X78080000Y-77200000D03*
%TD*%
D23*
%TO.P,Q5,1,G*%
%TO.N,Net-(Q5-G)*%
X76700000Y-31200000D03*
D24*
%TO.P,Q5,2,D*%
%TO.N,MOTOR_V*%
X79240000Y-31200000D03*
%TO.P,Q5,3,S*%
%TO.N,R_SHUNT2_P*%
X81780000Y-31200000D03*
%TD*%
D39*
%TO.N,PHCM_U*%
X62500000Y-63700000D03*
%TO.N,Net-(U1-REF)*%
X95600000Y-44800000D03*
%TO.N,MOTOR_V*%
X93100000Y-50200000D03*
%TO.N,Net-(U1-BST_A)*%
X127200000Y-50300000D03*
D40*
X83000000Y-45900000D03*
D39*
%TO.N,MOTOR_U*%
X121300000Y-40200000D03*
X122400000Y-46600000D03*
%TO.N,+12POWER*%
X142000000Y-44300000D03*
%TO.N,VDD_3V3*%
X62500000Y-48400000D03*
%TO.N,Net-(C27-Pad1)*%
X127600000Y-37100000D03*
X101000000Y-34700000D03*
%TO.N,BUCK_FB*%
X155500000Y-59500000D03*
X155900000Y-56000000D03*
%TO.N,MOTOR_V*%
X112200000Y-43300000D03*
%TO.N,nOCTW*%
X70150000Y-43950000D03*
%TO.N,nFAULT*%
X68854260Y-44545740D03*
%TO.N,nOCTW*%
X93800000Y-65700000D03*
%TO.N,nFAULT*%
X93000000Y-66400000D03*
%TO.N,PHCM_V*%
X66900000Y-61000000D03*
D40*
%TO.N,Net-(U1-GVDD)*%
X70600000Y-48100000D03*
D39*
X58300000Y-43100000D03*
%TO.N,R_SHUNT1_N*%
X90200000Y-47100000D03*
X87400000Y-52200000D03*
D40*
%TO.N,Net-(U1-CP2)*%
X69990478Y-49515080D03*
D39*
%TO.N,Net-(U1-CP1)*%
X63200000Y-46100000D03*
D40*
X70000000Y-48700000D03*
D39*
%TO.N,Net-(U1-DVDD)*%
X62550000Y-52050000D03*
X69100000Y-53200000D03*
%TO.N,Net-(U1-REF)*%
X69200000Y-54000000D03*
X62400000Y-54000000D03*
%TO.N,V_Bridge*%
X96900000Y-36800000D03*
X61600000Y-67600000D03*
X142000000Y-38800000D03*
D40*
X62100000Y-58800000D03*
D39*
X142100000Y-37000000D03*
X115400000Y-36400000D03*
X152600000Y-38800000D03*
X83800000Y-56400000D03*
X153800000Y-39900000D03*
X123300000Y-36400000D03*
%TO.N,Net-(U1-AVDD)*%
X70900000Y-58300000D03*
X70300000Y-56200000D03*
%TO.N,PHCM_V*%
X122100000Y-61600000D03*
X93400000Y-62200000D03*
D40*
%TO.N,PHCM_U*%
X93900000Y-62900000D03*
D39*
X121000000Y-61600000D03*
D40*
%TO.N,Net-(U1-BST_C)*%
X83400000Y-51100000D03*
D39*
X128600000Y-52600000D03*
%TO.N,MOTOR_W*%
X121100000Y-56100000D03*
X85100000Y-52000000D03*
X87100000Y-53700000D03*
X112900000Y-67200000D03*
X121700000Y-54300000D03*
X113500000Y-65800000D03*
%TO.N,MOTOR_V*%
X115000000Y-50400000D03*
X85000000Y-48900000D03*
%TO.N,MOTOR_U*%
X105300000Y-37900000D03*
D40*
X81900000Y-47100000D03*
D39*
%TO.N,Net-(U1-BIAS)*%
X114900000Y-41300000D03*
X84300000Y-44300000D03*
X92600000Y-42500000D03*
X118100000Y-41200000D03*
%TO.N,BUCK_COMP*%
X156270000Y-54330000D03*
X158100000Y-53900000D03*
X167900000Y-49800000D03*
X169400000Y-48400000D03*
%TO.N,Net-(U2-VIN)*%
X149799000Y-49399000D03*
X139900000Y-38500000D03*
X162800000Y-48000000D03*
X144400000Y-38600000D03*
%TO.N,BUCK_PH*%
X148600000Y-57400000D03*
X141200000Y-57400000D03*
X163700000Y-64000000D03*
%TO.N,BUCK_BOOT*%
X146600000Y-51800000D03*
X169300000Y-62400000D03*
%TO.N,VDD_3V3*%
X140100000Y-59900000D03*
X157000000Y-60900000D03*
X76200000Y-66300000D03*
X165600000Y-72200000D03*
X91100000Y-69200000D03*
X108700000Y-54500000D03*
D40*
%TO.N,R_SHUNT1_P*%
X81700000Y-53600000D03*
X83650000Y-47950000D03*
D39*
%TO.N,R_SHUNT2_P*%
X86900000Y-45600000D03*
X91900000Y-43700000D03*
X85000000Y-50800000D03*
X114800000Y-46800000D03*
D40*
X84350000Y-54050000D03*
D39*
%TO.N,Net-(C31-Pad1)*%
X101700000Y-41600000D03*
X114500000Y-51900000D03*
%TO.N,NRST*%
X115550000Y-64750000D03*
X128100000Y-66400000D03*
D40*
X94400000Y-63400000D03*
D39*
X98800000Y-48400000D03*
%TO.N,Net-(C34-Pad1)*%
X108900000Y-41400000D03*
X108600000Y-45000000D03*
%TO.N,AVDD_3V3*%
X108000000Y-50400000D03*
X85500000Y-57600000D03*
X91800000Y-56900000D03*
X99600000Y-50300000D03*
%TO.N,HSE_IN*%
X95600000Y-64600000D03*
X102600000Y-64000000D03*
X109200000Y-65200000D03*
%TO.N,Net-(C39-Pad1)*%
X112224265Y-64575735D03*
X112000000Y-66100000D03*
%TO.N,SWDCLK*%
X82900000Y-71100000D03*
%TO.N,SWDIO*%
X81900000Y-70800000D03*
%TO.N,Net-(Q3-G)*%
X103700000Y-36900000D03*
%TO.N,Net-(Q4-G)*%
X98500000Y-43500000D03*
%TO.N,Net-(Q6-G)*%
X93600000Y-69500000D03*
%TO.N,Net-(U1-OC_ADJ)*%
X66700000Y-49300000D03*
X69300000Y-49400000D03*
%TO.N,Net-(U1-GAIN)*%
X68500000Y-65700000D03*
X68500000Y-57700000D03*
%TO.N,BUCK_FB*%
X163000000Y-63100000D03*
X161600000Y-63100000D03*
%TO.N,SO1*%
X66600000Y-62700000D03*
X69850000Y-57050000D03*
%TO.N,SO2*%
X66700000Y-59400000D03*
X70100000Y-55000000D03*
%TO.N,GH_A*%
X86900000Y-41100000D03*
X84400000Y-45800000D03*
D40*
%TO.N,GL_A*%
X83300000Y-47300000D03*
X88900000Y-43100000D03*
D39*
%TO.N,GH_B*%
X97100000Y-47300000D03*
X90800000Y-48300000D03*
%TO.N,GL_B*%
X90200000Y-41900000D03*
X85000000Y-50000000D03*
%TO.N,GH_C*%
X86150000Y-54050000D03*
X84300000Y-51500000D03*
%TO.N,GL_C*%
X86600000Y-51900000D03*
X70450000Y-67150000D03*
%TO.N,BOOT0*%
X108000000Y-58500000D03*
X89300000Y-69400000D03*
%TO.N,HSE_OUT*%
X104700000Y-63300000D03*
X95000000Y-63800000D03*
D40*
%TO.N,DC_CAL*%
X71200000Y-47600000D03*
X92450000Y-61250000D03*
%TO.N,PWM2_H*%
X69900000Y-51300000D03*
X79400000Y-60800000D03*
%TO.N,PWM3_L*%
X70300000Y-52600000D03*
D39*
X90200000Y-69500000D03*
D40*
%TO.N,PWM1_L*%
X69200000Y-50700003D03*
D39*
X92800000Y-67400000D03*
D40*
%TO.N,GDR_EN*%
X70800000Y-49600000D03*
D39*
X86600000Y-57700000D03*
D40*
%TO.N,PWM3_H*%
X69000000Y-52100000D03*
D39*
X78800000Y-62300000D03*
D40*
%TO.N,PWM1_H*%
X82700000Y-63200000D03*
X69200000Y-50100000D03*
%TO.N,PWM2_L*%
X70800000Y-51600000D03*
X79900000Y-60400000D03*
D39*
%TO.N,Net-(U1-CP2)*%
X62200000Y-49200000D03*
%TD*%
D41*
%TO.N,+12POWER*%
X144600000Y-65100000D02*
X142900000Y-63400000D01*
X144600000Y-67000000D02*
X144600000Y-65100000D01*
X142900000Y-49567100D02*
X142900000Y-63400000D01*
X142898000Y-49565100D02*
X142900000Y-49567100D01*
X142898000Y-45198000D02*
X142898000Y-49565100D01*
X142000000Y-44300000D02*
X142898000Y-45198000D01*
%TO.N,PHCM_U*%
X63512500Y-64712500D02*
X62500000Y-63700000D01*
X64000000Y-64712500D02*
X63512500Y-64712500D01*
%TO.N,Net-(U1-REF)*%
X103928260Y-44800000D02*
X95600000Y-44800000D01*
X106028260Y-46900000D02*
X103928260Y-44800000D01*
X110600000Y-46900000D02*
X106028260Y-46900000D01*
%TO.N,MOTOR_V*%
X93800000Y-50200000D02*
X93100000Y-50200000D01*
X94575000Y-50975000D02*
X93800000Y-50200000D01*
X94575000Y-52200000D02*
X94575000Y-50975000D01*
%TO.N,Net-(U1-BST_A)*%
X127200000Y-49500000D02*
X127200000Y-50300000D01*
X126200000Y-48500000D02*
X127200000Y-49500000D01*
X82800000Y-46100000D02*
X83000000Y-45900000D01*
X79900000Y-46100000D02*
X82800000Y-46100000D01*
%TO.N,Net-(U1-BIAS)*%
X83600000Y-44300000D02*
X84300000Y-44300000D01*
X82300000Y-45600000D02*
X83600000Y-44300000D01*
X79900000Y-45600000D02*
X82300000Y-45600000D01*
%TO.N,MOTOR_U*%
X123051057Y-37101057D02*
X123051057Y-38301057D01*
X114160000Y-29700000D02*
X115650000Y-29700000D01*
X115650000Y-29700000D02*
X123051057Y-37101057D01*
X112660000Y-31200000D02*
X114160000Y-29700000D01*
X123051057Y-38301057D02*
X123550000Y-38800000D01*
X122000000Y-38800000D02*
X121300000Y-39500000D01*
X123550000Y-38800000D02*
X122000000Y-38800000D01*
X121300000Y-39500000D02*
X121300000Y-40200000D01*
X122400000Y-47350000D02*
X122400000Y-46600000D01*
X123550000Y-48500000D02*
X122400000Y-47350000D01*
%TO.N,Net-(U1-CP2)*%
X61250000Y-49200000D02*
X62200000Y-49200000D01*
X58050000Y-46000000D02*
X61250000Y-49200000D01*
%TO.N,VDD_3V3*%
X62900000Y-48000000D02*
X62500000Y-48400000D01*
X63975000Y-48000000D02*
X62900000Y-48000000D01*
%TO.N,+12POWER*%
X46500000Y-50200000D02*
X46400000Y-50100000D01*
X51450000Y-50700000D02*
X50950000Y-50200000D01*
%TO.N,VDD_3V3*%
X64300000Y-44825000D02*
X63975000Y-44500000D01*
X64300000Y-47675000D02*
X64300000Y-44825000D01*
X63975000Y-48000000D02*
X64300000Y-47675000D01*
%TO.N,R_SHUNT1_P*%
X92688500Y-44911500D02*
X93700000Y-43900000D01*
X89514840Y-44911500D02*
X92688500Y-44911500D01*
X87626340Y-46800000D02*
X89514840Y-44911500D01*
X84800000Y-46800000D02*
X87626340Y-46800000D01*
X83650000Y-47950000D02*
X84800000Y-46800000D01*
%TO.N,Net-(C27-Pad1)*%
X127600000Y-38200000D02*
X127600000Y-37100000D01*
X126200000Y-38800000D02*
X127000000Y-38800000D01*
X127000000Y-38800000D02*
X127600000Y-38200000D01*
X95999000Y-39824000D02*
X97000000Y-40825000D01*
X97500000Y-34700000D02*
X95999000Y-36201000D01*
X101000000Y-34700000D02*
X97500000Y-34700000D01*
X95999000Y-36201000D02*
X95999000Y-39824000D01*
%TO.N,BUCK_FB*%
X155387500Y-59612500D02*
X155500000Y-59500000D01*
X154100000Y-59612500D02*
X155387500Y-59612500D01*
X155500000Y-55600000D02*
X155900000Y-56000000D01*
X153940000Y-55600000D02*
X155500000Y-55600000D01*
%TO.N,MOTOR_V*%
X111900000Y-43000000D02*
X112200000Y-43300000D01*
X110400000Y-43000000D02*
X111900000Y-43000000D01*
%TO.N,nOCTW*%
X70150000Y-43950000D02*
X67400000Y-41200000D01*
X93400000Y-65300000D02*
X93800000Y-65700000D01*
X90700000Y-65300000D02*
X93400000Y-65300000D01*
%TO.N,nFAULT*%
X92400000Y-65800000D02*
X93000000Y-66400000D01*
X90700000Y-65800000D02*
X92400000Y-65800000D01*
%TO.N,PHCM_V*%
X66675000Y-61225000D02*
X66900000Y-61000000D01*
X64000000Y-61225000D02*
X66675000Y-61225000D01*
%TO.N,Net-(U1-GVDD)*%
X72460000Y-48100000D02*
X70600000Y-48100000D01*
X58050000Y-41150000D02*
X58050000Y-42850000D01*
X58050000Y-42850000D02*
X58300000Y-43100000D01*
%TO.N,R_SHUNT1_N*%
X60700000Y-41150000D02*
X60700000Y-42600000D01*
X137500000Y-73800000D02*
X135100000Y-71400000D01*
X153400000Y-39000000D02*
X160375000Y-39000000D01*
X58050000Y-78450000D02*
X58000000Y-78500000D01*
X90200000Y-45725000D02*
X90200000Y-47100000D01*
X120300000Y-54400000D02*
X120300000Y-49000000D01*
X58050000Y-58750000D02*
X58050000Y-60550000D01*
X124050000Y-56100000D02*
X122000000Y-56100000D01*
X124600000Y-67900000D02*
X126500000Y-66000000D01*
X162200000Y-60400000D02*
X162200000Y-65850000D01*
X78600000Y-54611612D02*
X77611612Y-55600000D01*
X78600000Y-53611612D02*
X78600000Y-54611612D01*
X139900000Y-39400000D02*
X141400000Y-37900000D01*
X54100000Y-44900000D02*
X54100000Y-50700000D01*
X113400000Y-66600000D02*
X117100000Y-66600000D01*
X162125000Y-40750000D02*
X162125000Y-45600000D01*
X63875000Y-57500000D02*
X63875000Y-55125000D01*
X152000000Y-40400000D02*
X153400000Y-39000000D01*
X59250000Y-57550000D02*
X58650000Y-57550000D01*
X162200000Y-59000000D02*
X162200000Y-60400000D01*
X172900000Y-55450000D02*
X172900000Y-50600000D01*
X78600000Y-53100000D02*
X78600000Y-53611612D01*
X160375000Y-39000000D02*
X162125000Y-40750000D01*
X59400000Y-43900000D02*
X55100000Y-43900000D01*
X137500000Y-77300000D02*
X137500000Y-73800000D01*
X117100000Y-66600000D02*
X118400000Y-67900000D01*
X103500000Y-61700000D02*
X103500000Y-66550000D01*
X165900000Y-61300000D02*
X166100000Y-61100000D01*
X108500000Y-64800000D02*
X109100000Y-64200000D01*
X126500000Y-66000000D02*
X126400000Y-65900000D01*
X162200000Y-65850000D02*
X162200000Y-70700000D01*
X128100000Y-71400000D02*
X124600000Y-67900000D01*
X172900000Y-50600000D02*
X172900000Y-40900000D01*
X78600000Y-53100000D02*
X79900000Y-53100000D01*
X58050000Y-65400000D02*
X58050000Y-70250000D01*
X54250000Y-50850000D02*
X54100000Y-50700000D01*
X141400000Y-37900000D02*
X144700000Y-37900000D01*
X60700000Y-42600000D02*
X59400000Y-43900000D01*
X109000000Y-66100000D02*
X108500000Y-65600000D01*
X162125000Y-45600000D02*
X162125000Y-50450000D01*
X78600000Y-54611612D02*
X79088388Y-55100000D01*
X98450057Y-49500000D02*
X103000000Y-49500000D01*
X64876000Y-58501000D02*
X63875000Y-57500000D01*
X151000000Y-58900000D02*
X151000000Y-61900000D01*
X126400000Y-65900000D02*
X126400000Y-63300000D01*
X76180000Y-51960000D02*
X77320000Y-53100000D01*
X58050000Y-70250000D02*
X58050000Y-78450000D01*
X157200000Y-53060000D02*
X153940000Y-53060000D01*
X58050000Y-50850000D02*
X54250000Y-50850000D01*
X87400000Y-52200000D02*
X86500000Y-53100000D01*
X126000000Y-46100000D02*
X130200000Y-46100000D01*
X63875000Y-57500000D02*
X59300000Y-57500000D01*
X78600000Y-53611612D02*
X79088388Y-54100000D01*
X118400000Y-67900000D02*
X124600000Y-67900000D01*
X162200000Y-60400000D02*
X163100000Y-61300000D01*
X118400000Y-43650000D02*
X123550000Y-43650000D01*
X159000000Y-58100000D02*
X161300000Y-58100000D01*
X111000000Y-64648000D02*
X111000000Y-65000000D01*
X59250000Y-57550000D02*
X58050000Y-58750000D01*
X172900000Y-56900000D02*
X172900000Y-55450000D01*
X146500000Y-40700000D02*
X149200000Y-40700000D01*
X119800000Y-48500000D02*
X118400000Y-48500000D01*
X161300000Y-58100000D02*
X162200000Y-59000000D01*
X146500000Y-39700000D02*
X146500000Y-40700000D01*
X63900000Y-52700000D02*
X63900000Y-50425000D01*
X59300000Y-57500000D02*
X59250000Y-57550000D01*
X149400000Y-40500000D02*
X151900000Y-40500000D01*
X157200000Y-56300000D02*
X159000000Y-58100000D01*
X120300000Y-49000000D02*
X119800000Y-48500000D01*
X123550000Y-43650000D02*
X126000000Y-46100000D01*
X144700000Y-37900000D02*
X146500000Y-39700000D01*
X162125000Y-50450000D02*
X159515000Y-53060000D01*
X166100000Y-61100000D02*
X169500000Y-57700000D01*
X122000000Y-56100000D02*
X120300000Y-54400000D01*
X111000000Y-65000000D02*
X111800000Y-65000000D01*
X76180000Y-48850000D02*
X76180000Y-51960000D01*
X63900000Y-55100000D02*
X63900000Y-52700000D01*
X77320000Y-53100000D02*
X78600000Y-53100000D01*
X126400000Y-63300000D02*
X126400000Y-58450000D01*
X58050000Y-60550000D02*
X58050000Y-65400000D01*
X126400000Y-58450000D02*
X124050000Y-56100000D01*
X103000000Y-49500000D02*
X103500000Y-49000000D01*
X103500000Y-52000000D02*
X103500000Y-56850000D01*
X79088388Y-54100000D02*
X79900000Y-54100000D01*
X169500000Y-57700000D02*
X172100000Y-57700000D01*
X103500000Y-56850000D02*
X106050000Y-59400000D01*
X159515000Y-53060000D02*
X157200000Y-53060000D01*
X58050000Y-55700000D02*
X58050000Y-50850000D01*
X58050000Y-56950000D02*
X58050000Y-55700000D01*
X109100000Y-64200000D02*
X110552000Y-64200000D01*
X86500000Y-53100000D02*
X79900000Y-53100000D01*
X152112500Y-57787500D02*
X151000000Y-58900000D01*
X110552000Y-64200000D02*
X111000000Y-64648000D01*
X55100000Y-43900000D02*
X54100000Y-44900000D01*
X77611612Y-55600000D02*
X72460000Y-55600000D01*
X136200000Y-48790000D02*
X139900000Y-45090000D01*
X63875000Y-55125000D02*
X63900000Y-55100000D01*
X58000000Y-78500000D02*
X59199000Y-79699000D01*
X157200000Y-53060000D02*
X157200000Y-56300000D01*
X108500000Y-65600000D02*
X108500000Y-64800000D01*
X110200000Y-66100000D02*
X109000000Y-66100000D01*
X63900000Y-50425000D02*
X63875000Y-50400000D01*
X157200000Y-56300000D02*
X155712500Y-57787500D01*
X90200000Y-45725000D02*
X93700000Y-45725000D01*
X135100000Y-71400000D02*
X128100000Y-71400000D01*
X72460000Y-55600000D02*
X69559000Y-58501000D01*
X103500000Y-56850000D02*
X103500000Y-61700000D01*
X93700000Y-45725000D02*
X94675057Y-45725000D01*
X172100000Y-57700000D02*
X172900000Y-56900000D01*
X59199000Y-79699000D02*
X64681000Y-79699000D01*
X172900000Y-50600000D02*
X172900000Y-45750000D01*
X103500000Y-66550000D02*
X109750000Y-66550000D01*
X132890000Y-48790000D02*
X136200000Y-48790000D01*
X111800000Y-65000000D02*
X113400000Y-66600000D01*
X103500000Y-49000000D02*
X103500000Y-52000000D01*
X130200000Y-46100000D02*
X132890000Y-48790000D01*
X118400000Y-48500000D02*
X118400000Y-43650000D01*
X154100000Y-57787500D02*
X152112500Y-57787500D01*
X163100000Y-61300000D02*
X165900000Y-61300000D01*
X139900000Y-45090000D02*
X139900000Y-39400000D01*
X69559000Y-58501000D02*
X64876000Y-58501000D01*
X94675057Y-45725000D02*
X98450057Y-49500000D01*
X64681000Y-79699000D02*
X66380000Y-78000000D01*
X109750000Y-66550000D02*
X110200000Y-66100000D01*
X106050000Y-59400000D02*
X110500000Y-59400000D01*
X103500000Y-47150000D02*
X103500000Y-49000000D01*
X155712500Y-57787500D02*
X154100000Y-57787500D01*
X58650000Y-57550000D02*
X58050000Y-56950000D01*
X149200000Y-40700000D02*
X149400000Y-40500000D01*
X151900000Y-40500000D02*
X152000000Y-40400000D01*
X79088388Y-55100000D02*
X79900000Y-55100000D01*
%TO.N,Net-(U1-CP2)*%
X70400000Y-49100000D02*
X72460000Y-49100000D01*
X69990478Y-49515080D02*
X69990478Y-49509522D01*
X69990478Y-49509522D02*
X70400000Y-49100000D01*
%TO.N,Net-(U1-CP1)*%
X72460000Y-48600000D02*
X70100000Y-48600000D01*
X63100000Y-46000000D02*
X63200000Y-46100000D01*
X70100000Y-48600000D02*
X70000000Y-48700000D01*
X60700000Y-46000000D02*
X63100000Y-46000000D01*
%TO.N,Net-(U1-DVDD)*%
X69300000Y-53200000D02*
X69400000Y-53300000D01*
X71589388Y-53159000D02*
X72401000Y-53159000D01*
X60700000Y-50850000D02*
X60700000Y-51700000D01*
X69532900Y-53300000D02*
X69633900Y-53199000D01*
X71549388Y-53199000D02*
X71589388Y-53159000D01*
X61050000Y-52050000D02*
X62550000Y-52050000D01*
X69633900Y-53199000D02*
X71549388Y-53199000D01*
X60700000Y-51700000D02*
X61050000Y-52050000D01*
X69400000Y-53300000D02*
X69532900Y-53300000D01*
X72401000Y-53159000D02*
X72460000Y-53100000D01*
X69100000Y-53200000D02*
X69300000Y-53200000D01*
%TO.N,Net-(U1-REF)*%
X60700000Y-55700000D02*
X60700000Y-54700000D01*
X69800000Y-53600000D02*
X72460000Y-53600000D01*
X69200000Y-54000000D02*
X69400000Y-54000000D01*
X60700000Y-54700000D02*
X61400000Y-54000000D01*
X61400000Y-54000000D02*
X62400000Y-54000000D01*
X69400000Y-54000000D02*
X69800000Y-53600000D01*
%TO.N,V_Bridge*%
X101300000Y-37100000D02*
X101200000Y-37100000D01*
X83000000Y-55600000D02*
X83800000Y-56400000D01*
X103000000Y-35400000D02*
X101300000Y-37100000D01*
X110400000Y-39000000D02*
X111700000Y-39000000D01*
X110400000Y-39000000D02*
X110400000Y-38200000D01*
X107600000Y-35400000D02*
X103000000Y-35400000D01*
X111700000Y-39000000D02*
X114300000Y-36400000D01*
X100200000Y-39000000D02*
X100300000Y-38900000D01*
X97000000Y-36900000D02*
X96900000Y-36800000D01*
X60800000Y-66800000D02*
X61600000Y-67600000D01*
X79900000Y-55600000D02*
X83000000Y-55600000D01*
X101300000Y-37100000D02*
X101660000Y-36740000D01*
X137590000Y-37000000D02*
X142100000Y-37000000D01*
X159475000Y-40750000D02*
X159475000Y-45600000D01*
X110400000Y-38200000D02*
X107600000Y-35400000D01*
X136000000Y-38590000D02*
X137590000Y-37000000D01*
X154650000Y-40750000D02*
X153800000Y-39900000D01*
X159475000Y-40750000D02*
X159475000Y-50450000D01*
X101660000Y-36740000D02*
X101660000Y-31200000D01*
X101200000Y-37100000D02*
X100300000Y-38000000D01*
X135500000Y-36500000D02*
X123400000Y-36500000D01*
X159475000Y-40750000D02*
X154650000Y-40750000D01*
X136000000Y-37000000D02*
X135500000Y-36500000D01*
X60800000Y-65500000D02*
X60800000Y-66800000D01*
X100300000Y-38000000D02*
X100300000Y-38900000D01*
X152600000Y-38800000D02*
X150800000Y-37000000D01*
X114300000Y-36400000D02*
X115400000Y-36400000D01*
X136000000Y-38590000D02*
X136000000Y-37000000D01*
X62100000Y-59150000D02*
X62100000Y-58800000D01*
X123400000Y-36500000D02*
X123300000Y-36400000D01*
X97000000Y-39000000D02*
X100200000Y-39000000D01*
X97000000Y-39000000D02*
X97000000Y-36900000D01*
X150800000Y-37000000D02*
X142100000Y-37000000D01*
X142000000Y-40700000D02*
X142000000Y-38800000D01*
X60700000Y-65400000D02*
X60800000Y-65500000D01*
X60700000Y-60550000D02*
X62100000Y-59150000D01*
X60700000Y-60550000D02*
X60700000Y-65400000D01*
%TO.N,Net-(U1-AVDD)*%
X64524660Y-65686500D02*
X70900000Y-59311160D01*
X62899000Y-66002340D02*
X63214840Y-65686500D01*
X63214840Y-65686500D02*
X64524660Y-65686500D01*
X60700000Y-70250000D02*
X62899000Y-68051000D01*
X70900000Y-59311160D02*
X70900000Y-58300000D01*
X70300000Y-55649943D02*
X70300000Y-56200000D01*
X70849943Y-55100000D02*
X70300000Y-55649943D01*
X62899000Y-68051000D02*
X62899000Y-66002340D01*
X72460000Y-55100000D02*
X70849943Y-55100000D01*
%TO.N,PHCM_V*%
X90700000Y-62800000D02*
X92800000Y-62800000D01*
X123600000Y-61900000D02*
X123300000Y-61600000D01*
X123300000Y-61600000D02*
X122100000Y-61600000D01*
X123600000Y-63150000D02*
X123600000Y-61900000D01*
X123750000Y-63300000D02*
X123600000Y-63150000D01*
X92800000Y-62800000D02*
X93400000Y-62200000D01*
%TO.N,PHCM_U*%
X93500000Y-63300000D02*
X93900000Y-62900000D01*
X121000000Y-61200000D02*
X121000000Y-61600000D01*
X90700000Y-63300000D02*
X93500000Y-63300000D01*
X123750000Y-58450000D02*
X121000000Y-61200000D01*
%TO.N,Net-(U1-BST_C)*%
X79900000Y-51100000D02*
X83400000Y-51100000D01*
X127600000Y-53600000D02*
X128600000Y-52600000D01*
X126400000Y-53600000D02*
X127600000Y-53600000D01*
%TO.N,MOTOR_W*%
X107300000Y-68400000D02*
X103300000Y-72400000D01*
X115650000Y-65800000D02*
X113500000Y-65800000D01*
X99600000Y-72400000D02*
X98500000Y-71300000D01*
X110387500Y-68400000D02*
X107300000Y-68400000D01*
X84200000Y-72400000D02*
X84100000Y-72400000D01*
X99600000Y-72400000D02*
X84200000Y-72400000D01*
X103300000Y-72400000D02*
X99600000Y-72400000D01*
X63660000Y-75440000D02*
X63660000Y-77820000D01*
X118400000Y-63050000D02*
X115650000Y-65800000D01*
X79300000Y-77200000D02*
X78080000Y-77200000D01*
X63660000Y-77820000D02*
X63840000Y-78000000D01*
X98500000Y-71300000D02*
X98500000Y-65100000D01*
X84200000Y-72400000D02*
X66700000Y-72400000D01*
X79900000Y-52100000D02*
X85000000Y-52100000D01*
X110487500Y-68300000D02*
X110400000Y-68387500D01*
X66700000Y-72400000D02*
X63660000Y-75440000D01*
X123750000Y-53600000D02*
X122400000Y-53600000D01*
X122400000Y-53600000D02*
X121700000Y-54300000D01*
X118400000Y-63050000D02*
X121100000Y-60350000D01*
X84100000Y-72400000D02*
X79300000Y-77200000D01*
X121100000Y-60350000D02*
X121100000Y-56100000D01*
X111800000Y-68300000D02*
X110487500Y-68300000D01*
X98500000Y-65100000D02*
X87100000Y-53700000D01*
X110400000Y-68387500D02*
X110387500Y-68400000D01*
X85000000Y-52100000D02*
X85100000Y-52000000D01*
X112900000Y-67200000D02*
X111800000Y-68300000D01*
%TO.N,MOTOR_V*%
X84300000Y-49600000D02*
X79900000Y-49600000D01*
X88300000Y-52200000D02*
X94575000Y-52200000D01*
X118400000Y-53350000D02*
X115450000Y-50400000D01*
X115450000Y-50400000D02*
X115000000Y-50400000D01*
X85000000Y-48900000D02*
X84300000Y-49600000D01*
X85000000Y-48900000D02*
X88300000Y-52200000D01*
%TO.N,Net-(U1-BST_B)*%
X84633900Y-47699000D02*
X89949057Y-47699000D01*
X83732900Y-48600000D02*
X84633900Y-47699000D01*
X89949057Y-47699000D02*
X89951057Y-47701000D01*
X90450943Y-47699000D02*
X94299000Y-47699000D01*
X90448943Y-47701000D02*
X90450943Y-47699000D01*
X79900000Y-48600000D02*
X83732900Y-48600000D01*
X97225000Y-50625000D02*
X97225000Y-52200000D01*
X94299000Y-47699000D02*
X97225000Y-50625000D01*
X89951057Y-47701000D02*
X90448943Y-47701000D01*
%TO.N,MOTOR_U*%
X106900000Y-38800000D02*
X106900000Y-38200000D01*
X106600000Y-37900000D02*
X105300000Y-37900000D01*
X106900000Y-38200000D02*
X106600000Y-37900000D01*
X79900000Y-47100000D02*
X81900000Y-47100000D01*
%TO.N,Net-(U1-BIAS)*%
X109714840Y-42186500D02*
X111085160Y-42186500D01*
X111085160Y-42186500D02*
X111198660Y-42300000D01*
X123750000Y-41200000D02*
X118100000Y-41200000D01*
X92800000Y-42300000D02*
X109601340Y-42300000D01*
X126200000Y-43650000D02*
X123750000Y-41200000D01*
X92600000Y-42500000D02*
X92800000Y-42300000D01*
X111198660Y-42300000D02*
X113900000Y-42300000D01*
X109601340Y-42300000D02*
X109714840Y-42186500D01*
X113900000Y-42300000D02*
X114900000Y-41300000D01*
%TO.N,+12POWER*%
X142000000Y-42750000D02*
X142000000Y-44300000D01*
%TO.N,Net-(C18-Pad2)*%
X165825000Y-55300000D02*
X166100000Y-55575000D01*
X162125000Y-55300000D02*
X165825000Y-55300000D01*
%TO.N,BUCK_COMP*%
X158150000Y-53950000D02*
X158100000Y-53900000D01*
X159475000Y-54225000D02*
X159750000Y-53950000D01*
X165200000Y-52500000D02*
X167900000Y-49800000D01*
X159750000Y-53950000D02*
X161200000Y-52500000D01*
X169900000Y-47900000D02*
X169400000Y-48400000D01*
X159475000Y-55300000D02*
X159475000Y-54225000D01*
X161200000Y-52500000D02*
X165200000Y-52500000D01*
X159750000Y-53950000D02*
X158150000Y-53950000D01*
X170250000Y-47550000D02*
X169900000Y-47900000D01*
X153940000Y-54330000D02*
X156270000Y-54330000D01*
X170250000Y-45750000D02*
X170250000Y-47550000D01*
%TO.N,Net-(U2-VIN)*%
X144300000Y-40700000D02*
X143299000Y-41701000D01*
X143299000Y-41701000D02*
X143299000Y-49399000D01*
X167200000Y-42100000D02*
X168400000Y-40900000D01*
X144300000Y-38700000D02*
X144400000Y-38600000D01*
X144300000Y-40700000D02*
X144300000Y-38700000D01*
X147000000Y-53100000D02*
X147040000Y-53060000D01*
X167200000Y-47550000D02*
X163250000Y-47550000D01*
X167200000Y-47550000D02*
X167200000Y-42100000D01*
X143299000Y-49399000D02*
X149799000Y-49399000D01*
X136000000Y-45500000D02*
X136000000Y-42400000D01*
X139900000Y-38500000D02*
X140000000Y-38400000D01*
X170250000Y-50600000D02*
X167200000Y-47550000D01*
X143299000Y-49399000D02*
X147000000Y-53100000D01*
X170250000Y-55450000D02*
X170250000Y-50600000D01*
X136000000Y-42400000D02*
X139900000Y-38500000D01*
X163250000Y-47550000D02*
X162800000Y-48000000D01*
X168400000Y-40900000D02*
X170250000Y-40900000D01*
X147040000Y-53060000D02*
X149000000Y-53060000D01*
%TO.N,BUCK_PH*%
X150000000Y-57400000D02*
X151400000Y-56000000D01*
X136200000Y-61000000D02*
X136700000Y-61500000D01*
X139500000Y-55700000D02*
X141200000Y-57400000D01*
X136700000Y-61500000D02*
X137650000Y-61500000D01*
X148600000Y-57400000D02*
X150000000Y-57400000D01*
X136200000Y-55700000D02*
X136200000Y-61000000D01*
X166598660Y-64000000D02*
X163700000Y-64000000D01*
X170250000Y-60300000D02*
X170250000Y-60348660D01*
X170250000Y-60348660D02*
X166598660Y-64000000D01*
X151400000Y-53931176D02*
X153541176Y-51790000D01*
X153541176Y-51790000D02*
X153940000Y-51790000D01*
X136200000Y-55700000D02*
X139500000Y-55700000D01*
X151400000Y-56000000D02*
X151400000Y-53931176D01*
%TO.N,BUCK_BOOT*%
X169300000Y-62400000D02*
X169200000Y-62400000D01*
X172900000Y-60300000D02*
X172900000Y-61300000D01*
X146610000Y-51790000D02*
X146600000Y-51800000D01*
X149000000Y-51790000D02*
X146610000Y-51790000D01*
X172900000Y-61300000D02*
X171800000Y-62400000D01*
X171800000Y-62400000D02*
X169300000Y-62400000D01*
%TO.N,Net-(U2-SS)*%
X147400000Y-59650110D02*
X153599890Y-65850000D01*
X153599890Y-65850000D02*
X159550000Y-65850000D01*
X147400000Y-57200000D02*
X147400000Y-59650110D01*
X149000000Y-55600000D02*
X147400000Y-57200000D01*
%TO.N,VDD_3V3*%
X63975000Y-44500000D02*
X63975000Y-41200000D01*
X90700000Y-66800000D02*
X91400000Y-66800000D01*
X139700000Y-60300000D02*
X140100000Y-59900000D01*
X91400000Y-66800000D02*
X91900000Y-67300000D01*
X91400000Y-69200000D02*
X91100000Y-69200000D01*
X76200000Y-66300000D02*
X83825000Y-66300000D01*
X166100000Y-71700000D02*
X166100000Y-68525000D01*
X91900000Y-68700000D02*
X91400000Y-69200000D01*
X139700000Y-61500000D02*
X139700000Y-60300000D01*
X67367100Y-66300000D02*
X75900000Y-66300000D01*
X65324000Y-66901000D02*
X66766100Y-66901000D01*
X79900000Y-59200000D02*
X76200000Y-62900000D01*
X160000000Y-72700000D02*
X165100000Y-72700000D01*
X90012500Y-67487500D02*
X90012500Y-68462557D01*
X90012500Y-68462557D02*
X90749943Y-69200000D01*
X85012500Y-60612500D02*
X85012500Y-60159202D01*
X111501000Y-54649000D02*
X111501000Y-51151000D01*
X110500000Y-55650000D02*
X109850000Y-55650000D01*
X109850000Y-55650000D02*
X108700000Y-54500000D01*
X85012500Y-60159202D02*
X84053298Y-59200000D01*
X76200000Y-62900000D02*
X76200000Y-66300000D01*
X91900000Y-67300000D02*
X91900000Y-68700000D01*
X165600000Y-72200000D02*
X166100000Y-71700000D01*
X63900000Y-68325000D02*
X65324000Y-66901000D01*
X110600000Y-50250000D02*
X110600000Y-48550000D01*
X111501000Y-51151000D02*
X110600000Y-50250000D01*
X90749943Y-69200000D02*
X91100000Y-69200000D01*
X66766100Y-66901000D02*
X67367100Y-66300000D01*
X157500000Y-60400000D02*
X157000000Y-60900000D01*
X159550000Y-70700000D02*
X159550000Y-72250000D01*
X84053298Y-59200000D02*
X79900000Y-59200000D01*
X165100000Y-72700000D02*
X165600000Y-72200000D01*
X75900000Y-66300000D02*
X76200000Y-66300000D01*
X159550000Y-60400000D02*
X157500000Y-60400000D01*
X159550000Y-72250000D02*
X160000000Y-72700000D01*
X110500000Y-55650000D02*
X111501000Y-54649000D01*
%TO.N,Net-(C28-Pad1)*%
X114538500Y-40011500D02*
X109088500Y-40011500D01*
X108475000Y-40625000D02*
X106900000Y-40625000D01*
X109088500Y-40011500D02*
X108475000Y-40625000D01*
X115750000Y-38800000D02*
X114538500Y-40011500D01*
%TO.N,R_SHUNT1_P*%
X118400000Y-38800000D02*
X118400000Y-37000000D01*
X83400000Y-48000000D02*
X83067100Y-48000000D01*
X94300000Y-42700000D02*
X93700000Y-43300000D01*
X115200000Y-33800000D02*
X115200000Y-31200000D01*
X93700000Y-43300000D02*
X93700000Y-43900000D01*
X83067100Y-48000000D02*
X83066100Y-48001000D01*
X79900000Y-53600000D02*
X81700000Y-53600000D01*
X83450000Y-47950000D02*
X83400000Y-48000000D01*
X80810612Y-48001000D02*
X80770612Y-48041000D01*
X83066100Y-48001000D02*
X80810612Y-48001000D01*
X80770612Y-48041000D02*
X79959000Y-48041000D01*
X118400000Y-37000000D02*
X115200000Y-33800000D01*
X115750000Y-41450000D02*
X115750000Y-43650000D01*
X79959000Y-48041000D02*
X79900000Y-48100000D01*
X115750000Y-43650000D02*
X115388500Y-44011500D01*
X98600000Y-42700000D02*
X94300000Y-42700000D01*
X99911500Y-44011500D02*
X98600000Y-42700000D01*
X115388500Y-44011500D02*
X99911500Y-44011500D01*
X118400000Y-38800000D02*
X115750000Y-41450000D01*
X83650000Y-47950000D02*
X83450000Y-47950000D01*
%TO.N,R_SHUNT2_P*%
X117900000Y-56500000D02*
X115367099Y-56500000D01*
X88500000Y-43900000D02*
X90200000Y-43900000D01*
X90200000Y-43900000D02*
X91700000Y-43900000D01*
X113401000Y-54533901D02*
X113401000Y-50849000D01*
X83800000Y-54600000D02*
X84350000Y-54050000D01*
X85000000Y-50800000D02*
X84800000Y-50800000D01*
X118400000Y-58200000D02*
X118000000Y-58200000D01*
X115750000Y-48500000D02*
X115750000Y-47750000D01*
X86900000Y-45600000D02*
X88650000Y-43850000D01*
X115750000Y-47750000D02*
X114800000Y-46800000D01*
X88650000Y-43850000D02*
X90150000Y-43850000D01*
X91700000Y-43900000D02*
X91900000Y-43700000D01*
X84800000Y-50800000D02*
X84600000Y-50600000D01*
X90150000Y-43850000D02*
X90200000Y-43900000D01*
X118400000Y-58200000D02*
X118400000Y-57000000D01*
X118400000Y-57000000D02*
X117900000Y-56500000D01*
X115367099Y-56500000D02*
X113401000Y-54533901D01*
X84600000Y-50600000D02*
X79900000Y-50600000D01*
X81780000Y-37180000D02*
X88500000Y-43900000D01*
X79900000Y-54600000D02*
X83800000Y-54600000D01*
X113401000Y-50849000D02*
X115750000Y-48500000D01*
X81780000Y-31200000D02*
X81780000Y-37180000D01*
%TO.N,Net-(C31-Pad1)*%
X100300000Y-40725000D02*
X100300000Y-40800000D01*
X115750000Y-52950000D02*
X114700000Y-51900000D01*
X115750000Y-53350000D02*
X115750000Y-52950000D01*
X101100000Y-41600000D02*
X101700000Y-41600000D01*
X100300000Y-40800000D02*
X101100000Y-41600000D01*
X114700000Y-51900000D02*
X114500000Y-51900000D01*
%TO.N,Net-(C32-Pad1)*%
X115750000Y-57450001D02*
X113000000Y-54700001D01*
X113000000Y-47425000D02*
X110400000Y-44825000D01*
X115750000Y-58200000D02*
X115750000Y-57450001D01*
X113000000Y-54700001D02*
X113000000Y-47425000D01*
%TO.N,NRST*%
X110500000Y-53825000D02*
X109287500Y-52612500D01*
X114300000Y-64400000D02*
X115200000Y-64400000D01*
X109287500Y-52612500D02*
X108099000Y-53801000D01*
X111501000Y-61601000D02*
X114300000Y-64400000D01*
X108099000Y-55299000D02*
X109561500Y-56761500D01*
X132100000Y-69400000D02*
X137800000Y-69400000D01*
X105900000Y-47338840D02*
X104660160Y-46099000D01*
X93800000Y-63800000D02*
X94000000Y-63800000D01*
X100050000Y-47150000D02*
X98800000Y-48400000D01*
X109287500Y-52612500D02*
X105900000Y-49225000D01*
X115200000Y-64400000D02*
X115550000Y-64750000D01*
X108099000Y-53801000D02*
X108099000Y-55299000D01*
X139600000Y-67600000D02*
X139600000Y-66400000D01*
X111501000Y-57077340D02*
X111501000Y-61601000D01*
X101901000Y-46099000D02*
X100850000Y-47150000D01*
X90700000Y-63800000D02*
X93800000Y-63800000D01*
X130420000Y-66400000D02*
X130420000Y-67720000D01*
X100850000Y-47150000D02*
X100050000Y-47150000D01*
X130420000Y-66400000D02*
X128100000Y-66400000D01*
X130420000Y-67720000D02*
X132100000Y-69400000D01*
X94000000Y-63800000D02*
X94400000Y-63400000D01*
X104660160Y-46099000D02*
X101901000Y-46099000D01*
X111185160Y-56761500D02*
X111501000Y-57077340D01*
X137800000Y-69400000D02*
X139600000Y-67600000D01*
X105900000Y-49225000D02*
X105900000Y-47338840D01*
X109561500Y-56761500D02*
X111185160Y-56761500D01*
X115550000Y-64750000D02*
X115700000Y-64900000D01*
%TO.N,Net-(C34-Pad1)*%
X110400000Y-40825000D02*
X109475000Y-40825000D01*
X115750000Y-63050000D02*
X111902000Y-59202000D01*
X109238500Y-45638500D02*
X108600000Y-45000000D01*
X111902000Y-47012936D02*
X110527564Y-45638500D01*
X111902000Y-59202000D02*
X111902000Y-47012936D01*
X110527564Y-45638500D02*
X109238500Y-45638500D01*
X109475000Y-40825000D02*
X108900000Y-41400000D01*
%TO.N,Net-(C35-Pad1)*%
X111100000Y-69512500D02*
X110400000Y-70212500D01*
X115750000Y-67900000D02*
X114137500Y-69512500D01*
X114137500Y-69512500D02*
X111100000Y-69512500D01*
%TO.N,AVDD_3V3*%
X100850000Y-52000000D02*
X100850000Y-56850000D01*
X86512500Y-59606250D02*
X86206250Y-59300000D01*
X100850000Y-52000000D02*
X100850000Y-50950000D01*
X100850000Y-50950000D02*
X100200000Y-50300000D01*
X86512500Y-60612500D02*
X86512500Y-59606250D01*
X109500000Y-51900000D02*
X108000000Y-50400000D01*
X86012500Y-60612500D02*
X86012500Y-59300000D01*
X86012500Y-59300000D02*
X86012500Y-58112500D01*
X100200000Y-50300000D02*
X99600000Y-50300000D01*
X86012500Y-58112500D02*
X85500000Y-57600000D01*
X110600000Y-51900000D02*
X109500000Y-51900000D01*
X91850000Y-56850000D02*
X91800000Y-56900000D01*
X100850000Y-56850000D02*
X91850000Y-56850000D01*
X86206250Y-59300000D02*
X86012500Y-59300000D01*
%TO.N,HSE_IN*%
X110200000Y-65000000D02*
X109400000Y-65000000D01*
X95400000Y-64800000D02*
X95600000Y-64600000D01*
X102600000Y-63450000D02*
X102600000Y-64000000D01*
X100850000Y-61700000D02*
X102600000Y-63450000D01*
X90700000Y-64800000D02*
X95400000Y-64800000D01*
X109400000Y-65000000D02*
X109200000Y-65200000D01*
%TO.N,Net-(C39-Pad1)*%
X110500000Y-63225000D02*
X111625000Y-63225000D01*
X111625000Y-63225000D02*
X112200000Y-63800000D01*
X101901000Y-67601000D02*
X105165450Y-67601000D01*
X112200000Y-63800000D02*
X112200000Y-64551470D01*
X112200000Y-64551470D02*
X112224265Y-64575735D01*
X100850000Y-66550000D02*
X101901000Y-67601000D01*
X111000000Y-66100000D02*
X112000000Y-66100000D01*
X105815450Y-66951000D02*
X110649000Y-66951000D01*
X105165450Y-67601000D02*
X105815450Y-66951000D01*
X111000000Y-66600000D02*
X111000000Y-66100000D01*
X110649000Y-66951000D02*
X111000000Y-66600000D01*
%TO.N,Net-(D10-K)*%
X150800000Y-44251000D02*
X150800000Y-53514999D01*
X146500000Y-42525000D02*
X149074000Y-42525000D01*
X150800000Y-53514999D02*
X149984999Y-54330000D01*
X144300000Y-42525000D02*
X146500000Y-42525000D01*
X149984999Y-54330000D02*
X149000000Y-54330000D01*
X149400000Y-42851000D02*
X150800000Y-44251000D01*
X149074000Y-42525000D02*
X149400000Y-42851000D01*
%TO.N,SWDCLK*%
X84512500Y-69487500D02*
X82900000Y-71100000D01*
X84512500Y-67487500D02*
X84512500Y-69487500D01*
%TO.N,SWDIO*%
X83300000Y-66800000D02*
X82500000Y-67600000D01*
X82500000Y-70200000D02*
X81900000Y-70800000D01*
X82500000Y-67600000D02*
X82500000Y-70200000D01*
X83825000Y-66800000D02*
X83300000Y-66800000D01*
%TO.N,Net-(Q1-G)*%
X93600000Y-36720000D02*
X93600000Y-38900000D01*
X99120000Y-31200000D02*
X93600000Y-36720000D01*
%TO.N,Net-(Q2-G)*%
X144600000Y-74600000D02*
X139900000Y-79300000D01*
X139900000Y-79300000D02*
X133200000Y-79300000D01*
X147475000Y-68825000D02*
X147700000Y-68600000D01*
X132420000Y-78520000D02*
X132420000Y-77300000D01*
X144600000Y-68825000D02*
X147475000Y-68825000D01*
X133200000Y-79300000D02*
X132420000Y-78520000D01*
X144600000Y-68825000D02*
X144600000Y-74600000D01*
%TO.N,Net-(Q3-G)*%
X103600000Y-38800000D02*
X103600000Y-37000000D01*
X103600000Y-37000000D02*
X103700000Y-36900000D01*
%TO.N,Net-(Q4-G)*%
X97100000Y-43800000D02*
X98200000Y-43800000D01*
X98200000Y-43800000D02*
X98500000Y-43500000D01*
%TO.N,Net-(Q5-G)*%
X78001000Y-29899000D02*
X82299217Y-29899000D01*
X82299217Y-29899000D02*
X90100000Y-37699783D01*
X76700000Y-31200000D02*
X78001000Y-29899000D01*
X90100000Y-37699783D02*
X90100000Y-38900000D01*
%TO.N,Net-(Q6-G)*%
X93900000Y-69200000D02*
X93600000Y-69500000D01*
X96000000Y-69200000D02*
X93900000Y-69200000D01*
%TO.N,Net-(Q7-G)*%
X61300000Y-76800000D02*
X61300000Y-78000000D01*
X71200000Y-70490000D02*
X69790000Y-71900000D01*
X66200000Y-71900000D02*
X61300000Y-76800000D01*
X69790000Y-71900000D02*
X66200000Y-71900000D01*
%TO.N,nFAULT*%
X65900000Y-44600000D02*
X65800000Y-44500000D01*
X72460000Y-44600000D02*
X65900000Y-44600000D01*
%TO.N,nOCTW*%
X67400000Y-41200000D02*
X65800000Y-41200000D01*
X70300000Y-44100000D02*
X70150000Y-43950000D01*
X72460000Y-44100000D02*
X70300000Y-44100000D01*
%TO.N,Net-(U1-OC_ADJ)*%
X65800000Y-48900000D02*
X66200000Y-49300000D01*
X69300000Y-48667100D02*
X69300000Y-49400000D01*
X72460000Y-47100000D02*
X70867100Y-47100000D01*
X66200000Y-49300000D02*
X66700000Y-49300000D01*
X70867100Y-47100000D02*
X69300000Y-48667100D01*
X65800000Y-48000000D02*
X65800000Y-48900000D01*
X66000000Y-49300000D02*
X66700000Y-49300000D01*
X65700000Y-50400000D02*
X65700000Y-49600000D01*
X65700000Y-49600000D02*
X66000000Y-49300000D01*
%TO.N,Net-(U1-DTC)*%
X70400000Y-45100000D02*
X67300000Y-48200000D01*
X72460000Y-45100000D02*
X70400000Y-45100000D01*
X67300000Y-48200000D02*
X67300000Y-52300000D01*
X67300000Y-52300000D02*
X66900000Y-52700000D01*
X66900000Y-52700000D02*
X65725000Y-52700000D01*
%TO.N,Net-(U1-M_PWM)*%
X70500000Y-45600000D02*
X67700000Y-48400000D01*
X66025000Y-55400000D02*
X65725000Y-55100000D01*
X72460000Y-45600000D02*
X70500000Y-45600000D01*
X66500000Y-55400000D02*
X66025000Y-55400000D01*
X67700000Y-54200000D02*
X66500000Y-55400000D01*
X67700000Y-48400000D02*
X67700000Y-54200000D01*
%TO.N,Net-(U1-M_OC)*%
X70600000Y-46100000D02*
X68100000Y-48600000D01*
X68100000Y-56100000D02*
X66700000Y-57500000D01*
X72460000Y-46100000D02*
X70600000Y-46100000D01*
X68100000Y-48600000D02*
X68100000Y-56100000D01*
X66700000Y-57500000D02*
X65700000Y-57500000D01*
%TO.N,Net-(U1-GAIN)*%
X67400000Y-65700000D02*
X66600000Y-66500000D01*
X68500000Y-57700000D02*
X68500000Y-48900000D01*
X68500000Y-65700000D02*
X67400000Y-65700000D01*
X70800000Y-46600000D02*
X72460000Y-46600000D01*
X68500000Y-48900000D02*
X70800000Y-46600000D01*
X66600000Y-66500000D02*
X63900000Y-66500000D01*
%TO.N,Net-(R10-Pad2)*%
X166100000Y-57400000D02*
X166100000Y-59275000D01*
%TO.N,Net-(R14-Pad2)*%
X166100000Y-66700000D02*
X166100000Y-64825000D01*
%TO.N,BUCK_FB*%
X163100000Y-63000000D02*
X163000000Y-63100000D01*
X154100000Y-59612500D02*
X154100000Y-60500000D01*
X154100000Y-60500000D02*
X156693747Y-63093747D01*
X166100000Y-63000000D02*
X163100000Y-63000000D01*
X156693747Y-63093747D02*
X161593747Y-63093747D01*
X161593747Y-63093747D02*
X161600000Y-63100000D01*
%TO.N,SO1*%
X69499000Y-56699000D02*
X69850000Y-57050000D01*
X64212500Y-63100000D02*
X66200000Y-63100000D01*
X69499000Y-54751057D02*
X69499000Y-56699000D01*
X69850000Y-57050000D02*
X69900000Y-57100000D01*
X66200000Y-63100000D02*
X66600000Y-62700000D01*
X70150057Y-54100000D02*
X69499000Y-54751057D01*
X64000000Y-62887500D02*
X64212500Y-63100000D01*
X72460000Y-54100000D02*
X70150057Y-54100000D01*
%TO.N,SO2*%
X70100000Y-55000000D02*
X70500000Y-54600000D01*
X64000000Y-59400000D02*
X66700000Y-59400000D01*
X70500000Y-54600000D02*
X72460000Y-54600000D01*
%TO.N,GH_A*%
X84300000Y-46300000D02*
X84000000Y-46600000D01*
X84000000Y-46600000D02*
X79900000Y-46600000D01*
X92786500Y-39911500D02*
X88088500Y-39911500D01*
X88088500Y-39911500D02*
X86900000Y-41100000D01*
X84300000Y-45900000D02*
X84300000Y-46300000D01*
X93600000Y-40725000D02*
X92786500Y-39911500D01*
X84400000Y-45800000D02*
X84300000Y-45900000D01*
%TO.N,GL_A*%
X103600000Y-40625000D02*
X102886500Y-39911500D01*
X79900000Y-47600000D02*
X82900000Y-47600000D01*
X83100000Y-47400000D02*
X83200000Y-47300000D01*
X97627340Y-41899000D02*
X91050943Y-41899000D01*
X102886500Y-39911500D02*
X99614840Y-39911500D01*
X82900000Y-47600000D02*
X83100000Y-47400000D01*
X83200000Y-47300000D02*
X83300000Y-47300000D01*
X91050943Y-41899000D02*
X89863443Y-43086500D01*
X99614840Y-39911500D02*
X97627340Y-41899000D01*
X88913500Y-43086500D02*
X88900000Y-43100000D01*
X89863443Y-43086500D02*
X88913500Y-43086500D01*
%TO.N,GH_B*%
X97100000Y-47300000D02*
X97100000Y-45625000D01*
X84601000Y-48299000D02*
X83800000Y-49100000D01*
X85900000Y-48300000D02*
X85899000Y-48299000D01*
X85899000Y-48299000D02*
X84601000Y-48299000D01*
X83800000Y-49100000D02*
X79900000Y-49100000D01*
X90800000Y-48300000D02*
X85900000Y-48300000D01*
%TO.N,GL_B*%
X79900000Y-50100000D02*
X84900000Y-50100000D01*
X84900000Y-50100000D02*
X85000000Y-50000000D01*
X90200000Y-40825000D02*
X90100000Y-40725000D01*
X90200000Y-41900000D02*
X90200000Y-40825000D01*
%TO.N,GH_C*%
X86150000Y-54050000D02*
X86100000Y-54000000D01*
X96000000Y-71025000D02*
X97001000Y-70024000D01*
X97001000Y-70024000D02*
X97001000Y-64901000D01*
X79900000Y-51600000D02*
X84200000Y-51600000D01*
X84200000Y-51600000D02*
X84300000Y-51500000D01*
X97001000Y-64901000D02*
X86150000Y-54050000D01*
%TO.N,GL_C*%
X79900000Y-52600000D02*
X85900000Y-52600000D01*
X85900000Y-52600000D02*
X86600000Y-51900000D01*
X69375000Y-70490000D02*
X69375000Y-68225000D01*
X69375000Y-68225000D02*
X70450000Y-67150000D01*
X70450000Y-67150000D02*
X70500000Y-67100000D01*
%TO.N,BOOT0*%
X89012500Y-67487500D02*
X89012500Y-69112500D01*
X108925000Y-57575000D02*
X108000000Y-58500000D01*
X110500000Y-57575000D02*
X108925000Y-57575000D01*
X89012500Y-69112500D02*
X89300000Y-69400000D01*
%TO.N,HSE_OUT*%
X110500000Y-61400000D02*
X107600000Y-61400000D01*
X105700000Y-63300000D02*
X104700000Y-63300000D01*
X107600000Y-61400000D02*
X106300000Y-62700000D01*
X106300000Y-62700000D02*
X105700000Y-63300000D01*
X95000000Y-63800000D02*
X94500000Y-64300000D01*
X94500000Y-64300000D02*
X90700000Y-64300000D01*
%TO.N,DC_CAL*%
X72460000Y-47600000D02*
X71200000Y-47600000D01*
X90700000Y-61300000D02*
X92400000Y-61300000D01*
X92400000Y-61300000D02*
X92450000Y-61250000D01*
%TO.N,PWM2_H*%
X72460000Y-51100000D02*
X70100000Y-51100000D01*
X70100000Y-51100000D02*
X69900000Y-51300000D01*
X83825000Y-64300000D02*
X82900000Y-64300000D01*
X82900000Y-64300000D02*
X79400000Y-60800000D01*
%TO.N,PWM3_L*%
X90200000Y-69450057D02*
X90200000Y-69500000D01*
X89512500Y-68762557D02*
X90200000Y-69450057D01*
X70798000Y-52798000D02*
X70600000Y-52600000D01*
X70600000Y-52600000D02*
X70300000Y-52600000D01*
X71423288Y-52758000D02*
X71383288Y-52798000D01*
X71589388Y-52659000D02*
X71490388Y-52758000D01*
X71383288Y-52798000D02*
X70798000Y-52798000D01*
X72460000Y-52600000D02*
X72401000Y-52659000D01*
X71490388Y-52758000D02*
X71423288Y-52758000D01*
X89512500Y-67487500D02*
X89512500Y-68762557D01*
X72401000Y-52659000D02*
X71589388Y-52659000D01*
%TO.N,PWM1_L*%
X69200000Y-50700003D02*
X69300003Y-50600000D01*
X90700000Y-66300000D02*
X91700000Y-66300000D01*
X69300003Y-50600000D02*
X72460000Y-50600000D01*
X91700000Y-66300000D02*
X92800000Y-67400000D01*
%TO.N,GDR_EN*%
X89012500Y-60612500D02*
X89012500Y-60112500D01*
X72460000Y-49600000D02*
X70800000Y-49600000D01*
X89012500Y-60112500D02*
X86600000Y-57700000D01*
%TO.N,PWM3_H*%
X81400000Y-64800000D02*
X83825000Y-64800000D01*
X78900000Y-62300000D02*
X81400000Y-64800000D01*
X78800000Y-62300000D02*
X78900000Y-62300000D01*
X69000000Y-52100000D02*
X72460000Y-52100000D01*
%TO.N,PWM1_H*%
X83300000Y-63800000D02*
X82700000Y-63200000D01*
X72460000Y-50100000D02*
X69200000Y-50100000D01*
X83825000Y-63800000D02*
X83300000Y-63800000D01*
%TO.N,PWM2_L*%
X72460000Y-51600000D02*
X70800000Y-51600000D01*
X83825000Y-62300000D02*
X81800000Y-62300000D01*
X81800000Y-62300000D02*
X79900000Y-60400000D01*
%TO.N,Net-(Z4-K)*%
X151000000Y-65200000D02*
X151000000Y-65250000D01*
X147700000Y-61900000D02*
X151000000Y-65200000D01*
%TO.N,Net-(Z5-K)*%
X147700000Y-65300000D02*
X151000000Y-68600000D01*
X147700000Y-65250000D02*
X147700000Y-65300000D01*
%TO.N,+12POWER*%
X50950000Y-50200000D02*
X46500000Y-50200000D01*
%TD*%
M02*
