%TF.GenerationSoftware,KiCad,Pcbnew,9.0.2*%
%TF.CreationDate,2025-07-10T19:46:15+05:30*%
%TF.ProjectId,STM32 ESC PCB Design,53544d33-3220-4455-9343-205043422044,rev?*%
%TF.SameCoordinates,Original*%
%TF.FileFunction,Copper,L5,Inr*%
%TF.FilePolarity,Positive*%
%FSLAX46Y46*%
G04 Gerber Fmt 4.6, Leading zero omitted, Abs format (unit mm)*
G04 Created by KiCad (PCBNEW 9.0.2) date 2025-07-10 19:46:15*
%MOMM*%
%LPD*%
G01*
G04 APERTURE LIST*
G04 Aperture macros list*
%AMRoundRect*
0 Rectangle with rounded corners*
0 $1 Rounding radius*
0 $2 $3 $4 $5 $6 $7 $8 $9 X,Y pos of 4 corners*
0 Add a 4 corners polygon primitive as box body*
4,1,4,$2,$3,$4,$5,$6,$7,$8,$9,$2,$3,0*
0 Add four circle primitives for the rounded corners*
1,1,$1+$1,$2,$3*
1,1,$1+$1,$4,$5*
1,1,$1+$1,$6,$7*
1,1,$1+$1,$8,$9*
0 Add four rect primitives between the rounded corners*
20,1,$1+$1,$2,$3,$4,$5,0*
20,1,$1+$1,$4,$5,$6,$7,0*
20,1,$1+$1,$6,$7,$8,$9,0*
20,1,$1+$1,$8,$9,$2,$3,0*%
G04 Aperture macros list end*
%TA.AperFunction,ComponentPad*%
%ADD10C,2.600000*%
%TD*%
%TA.AperFunction,ComponentPad*%
%ADD11R,1.700000X1.700000*%
%TD*%
%TA.AperFunction,ComponentPad*%
%ADD12C,1.700000*%
%TD*%
%TA.AperFunction,ComponentPad*%
%ADD13R,1.905000X2.000000*%
%TD*%
%TA.AperFunction,ComponentPad*%
%ADD14O,1.905000X2.000000*%
%TD*%
%TA.AperFunction,ComponentPad*%
%ADD15RoundRect,0.250000X0.750000X-0.750000X0.750000X0.750000X-0.750000X0.750000X-0.750000X-0.750000X0*%
%TD*%
%TA.AperFunction,ComponentPad*%
%ADD16C,2.000000*%
%TD*%
%TA.AperFunction,ViaPad*%
%ADD17C,0.600000*%
%TD*%
%TA.AperFunction,ViaPad*%
%ADD18C,0.400000*%
%TD*%
%TA.AperFunction,Conductor*%
%ADD19C,0.200000*%
%TD*%
G04 APERTURE END LIST*
D10*
%TO.N,N/C*%
%TO.C,REF\u002A\u002A*%
X171900000Y-77100000D03*
%TD*%
D11*
%TO.N,POWER_GND*%
%TO.C,J4*%
X46300000Y-59660000D03*
D12*
X46300000Y-62200000D03*
%TD*%
D13*
%TO.N,Net-(Q7-G)*%
%TO.C,Q7*%
X61300000Y-78000000D03*
D14*
%TO.N,MOTOR_W*%
X63840000Y-78000000D03*
%TO.N,R_SHUNT1_N*%
X66380000Y-78000000D03*
%TD*%
D15*
%TO.N,POWER_GND*%
%TO.C,D6*%
X46400000Y-55180000D03*
D16*
%TO.N,+12POWER*%
X46400000Y-50100000D03*
%TD*%
D13*
%TO.N,Net-(Q4-G)*%
%TO.C,Q4*%
X87920000Y-31200000D03*
D14*
%TO.N,V_Bridge*%
X90460000Y-31200000D03*
%TO.N,MOTOR_V*%
X93000000Y-31200000D03*
%TD*%
D13*
%TO.N,Net-(Q3-G)*%
%TO.C,Q3*%
X110120000Y-31200000D03*
D14*
%TO.N,MOTOR_U*%
X112660000Y-31200000D03*
%TO.N,R_SHUNT1_P*%
X115200000Y-31200000D03*
%TD*%
D11*
%TO.N,+12POWER*%
%TO.C,J3*%
X46400000Y-44160000D03*
D12*
X46400000Y-46700000D03*
%TD*%
D13*
%TO.N,Net-(Q1-G)*%
%TO.C,Q1*%
X99120000Y-31200000D03*
D14*
%TO.N,V_Bridge*%
X101660000Y-31200000D03*
%TO.N,MOTOR_U*%
X104200000Y-31200000D03*
%TD*%
D10*
%TO.N,N/C*%
%TO.C,REF\u002A\u002A*%
X46500000Y-76900000D03*
%TD*%
D13*
%TO.N,Net-(Q2-G)*%
%TO.C,Q2*%
X132420000Y-77300000D03*
D14*
%TO.N,POWER_GND*%
X134960000Y-77300000D03*
%TO.N,R_SHUNT1_N*%
X137500000Y-77300000D03*
%TD*%
D11*
%TO.N,VDD_3V3*%
%TO.C,J1*%
X93900000Y-78000000D03*
D12*
%TO.N,R_SHUNT1_N*%
X91360000Y-78000000D03*
%TO.N,SWDIO*%
X88820000Y-78000000D03*
%TO.N,SWDCLK*%
X86280000Y-78000000D03*
%TO.N,unconnected-(J1-Pin_5-Pad5)*%
X83740000Y-78000000D03*
%TD*%
D10*
%TO.N,N/C*%
%TO.C,REF\u002A\u002A*%
X46600000Y-31600000D03*
%TD*%
%TO.N,N/C*%
%TO.C,REF\u002A\u002A*%
X172000000Y-31800000D03*
%TD*%
D13*
%TO.N,Net-(Q6-G)*%
%TO.C,Q6*%
X73000000Y-77200000D03*
D14*
%TO.N,V_Bridge*%
X75540000Y-77200000D03*
%TO.N,MOTOR_W*%
X78080000Y-77200000D03*
%TD*%
D13*
%TO.N,Net-(Q5-G)*%
%TO.C,Q5*%
X76700000Y-31200000D03*
D14*
%TO.N,MOTOR_V*%
X79240000Y-31200000D03*
%TO.N,R_SHUNT2_P*%
X81780000Y-31200000D03*
%TD*%
D17*
%TO.N,PHCM_U*%
X62500000Y-63700000D03*
%TO.N,Net-(U1-REF)*%
X95600000Y-44800000D03*
%TO.N,MOTOR_V*%
X93100000Y-50200000D03*
%TO.N,Net-(U1-BST_A)*%
X127200000Y-50300000D03*
D18*
X83000000Y-45900000D03*
D17*
%TO.N,MOTOR_U*%
X121300000Y-40200000D03*
X122400000Y-46600000D03*
%TO.N,+12POWER*%
X142000000Y-44300000D03*
%TO.N,VDD_3V3*%
X62500000Y-48400000D03*
%TO.N,Net-(C27-Pad1)*%
X127600000Y-37100000D03*
X101000000Y-34700000D03*
%TO.N,BUCK_FB*%
X155500000Y-59500000D03*
X155900000Y-56000000D03*
%TO.N,MOTOR_V*%
X112200000Y-43300000D03*
%TO.N,nOCTW*%
X70150000Y-43950000D03*
%TO.N,nFAULT*%
X68854260Y-44545740D03*
%TO.N,nOCTW*%
X93800000Y-65700000D03*
%TO.N,nFAULT*%
X93000000Y-66400000D03*
%TO.N,PHCM_V*%
X66900000Y-61000000D03*
D18*
%TO.N,Net-(U1-GVDD)*%
X70600000Y-48100000D03*
D17*
X58300000Y-43100000D03*
%TO.N,R_SHUNT1_N*%
X90200000Y-47100000D03*
X87400000Y-52200000D03*
D18*
%TO.N,Net-(U1-CP2)*%
X69990478Y-49515080D03*
D17*
%TO.N,Net-(U1-CP1)*%
X63200000Y-46100000D03*
D18*
X70000000Y-48700000D03*
D17*
%TO.N,Net-(U1-DVDD)*%
X62550000Y-52050000D03*
X69100000Y-53200000D03*
%TO.N,Net-(U1-REF)*%
X69200000Y-54000000D03*
X62400000Y-54000000D03*
%TO.N,V_Bridge*%
X96900000Y-36800000D03*
X61600000Y-67600000D03*
X142000000Y-38800000D03*
D18*
X62100000Y-58800000D03*
D17*
X142100000Y-37000000D03*
X115400000Y-36400000D03*
X152600000Y-38800000D03*
X83800000Y-56400000D03*
X153800000Y-39900000D03*
X123300000Y-36400000D03*
%TO.N,Net-(U1-AVDD)*%
X70900000Y-58300000D03*
X70300000Y-56200000D03*
%TO.N,PHCM_V*%
X122100000Y-61600000D03*
X93400000Y-62200000D03*
D18*
%TO.N,PHCM_U*%
X93900000Y-62900000D03*
D17*
X121000000Y-61600000D03*
D18*
%TO.N,Net-(U1-BST_C)*%
X83400000Y-51100000D03*
D17*
X128600000Y-52600000D03*
%TO.N,MOTOR_W*%
X121100000Y-56100000D03*
X85100000Y-52000000D03*
X87100000Y-53700000D03*
X112900000Y-67200000D03*
X121700000Y-54300000D03*
X113500000Y-65800000D03*
%TO.N,MOTOR_V*%
X115000000Y-50400000D03*
X85000000Y-48900000D03*
%TO.N,MOTOR_U*%
X105300000Y-37900000D03*
D18*
X81900000Y-47100000D03*
D17*
%TO.N,Net-(U1-BIAS)*%
X114900000Y-41300000D03*
X84300000Y-44300000D03*
X92600000Y-42500000D03*
X118100000Y-41200000D03*
%TO.N,BUCK_COMP*%
X156270000Y-54330000D03*
X158100000Y-53900000D03*
X167900000Y-49800000D03*
X169400000Y-48400000D03*
%TO.N,Net-(U2-VIN)*%
X149799000Y-49399000D03*
X139900000Y-38500000D03*
X162800000Y-48000000D03*
X144400000Y-38600000D03*
%TO.N,BUCK_PH*%
X148600000Y-57400000D03*
X141200000Y-57400000D03*
X163700000Y-64000000D03*
%TO.N,BUCK_BOOT*%
X146600000Y-51800000D03*
X169300000Y-62400000D03*
%TO.N,VDD_3V3*%
X140100000Y-59900000D03*
X157000000Y-60900000D03*
X76200000Y-66300000D03*
X165600000Y-72200000D03*
X91100000Y-69200000D03*
X108700000Y-54500000D03*
D18*
%TO.N,R_SHUNT1_P*%
X81700000Y-53600000D03*
X83650000Y-47950000D03*
D17*
%TO.N,R_SHUNT2_P*%
X86900000Y-45600000D03*
X91900000Y-43700000D03*
X85000000Y-50800000D03*
X114800000Y-46800000D03*
D18*
X84350000Y-54050000D03*
D17*
%TO.N,Net-(C31-Pad1)*%
X101700000Y-41600000D03*
X114500000Y-51900000D03*
%TO.N,NRST*%
X115550000Y-64750000D03*
X128100000Y-66400000D03*
D18*
X94400000Y-63400000D03*
D17*
X98800000Y-48400000D03*
%TO.N,Net-(C34-Pad1)*%
X108900000Y-41400000D03*
X108600000Y-45000000D03*
%TO.N,AVDD_3V3*%
X108000000Y-50400000D03*
X85500000Y-57600000D03*
X91800000Y-56900000D03*
X99600000Y-50300000D03*
%TO.N,HSE_IN*%
X95600000Y-64600000D03*
X102600000Y-64000000D03*
X109200000Y-65200000D03*
%TO.N,Net-(C39-Pad1)*%
X112224265Y-64575735D03*
X112000000Y-66100000D03*
%TO.N,SWDCLK*%
X82900000Y-71100000D03*
%TO.N,SWDIO*%
X81900000Y-70800000D03*
%TO.N,Net-(Q3-G)*%
X103700000Y-36900000D03*
%TO.N,Net-(Q4-G)*%
X98500000Y-43500000D03*
%TO.N,Net-(Q6-G)*%
X93600000Y-69500000D03*
%TO.N,Net-(U1-OC_ADJ)*%
X66700000Y-49300000D03*
X69300000Y-49400000D03*
%TO.N,Net-(U1-GAIN)*%
X68500000Y-65700000D03*
X68500000Y-57700000D03*
%TO.N,BUCK_FB*%
X163000000Y-63100000D03*
X161600000Y-63100000D03*
%TO.N,SO1*%
X66600000Y-62700000D03*
X69850000Y-57050000D03*
%TO.N,SO2*%
X66700000Y-59400000D03*
X70100000Y-55000000D03*
%TO.N,GH_A*%
X86900000Y-41100000D03*
X84400000Y-45800000D03*
D18*
%TO.N,GL_A*%
X83300000Y-47300000D03*
X88900000Y-43100000D03*
D17*
%TO.N,GH_B*%
X97100000Y-47300000D03*
X90800000Y-48300000D03*
%TO.N,GL_B*%
X90200000Y-41900000D03*
X85000000Y-50000000D03*
%TO.N,GH_C*%
X86150000Y-54050000D03*
X84300000Y-51500000D03*
%TO.N,GL_C*%
X86600000Y-51900000D03*
X70450000Y-67150000D03*
%TO.N,BOOT0*%
X108000000Y-58500000D03*
X89300000Y-69400000D03*
%TO.N,HSE_OUT*%
X104700000Y-63300000D03*
X95000000Y-63800000D03*
D18*
%TO.N,DC_CAL*%
X71200000Y-47600000D03*
X92450000Y-61250000D03*
%TO.N,PWM2_H*%
X69900000Y-51300000D03*
X79400000Y-60800000D03*
%TO.N,PWM3_L*%
X70300000Y-52600000D03*
D17*
X90200000Y-69500000D03*
D18*
%TO.N,PWM1_L*%
X69200000Y-50700003D03*
D17*
X92800000Y-67400000D03*
D18*
%TO.N,GDR_EN*%
X70800000Y-49600000D03*
D17*
X86600000Y-57700000D03*
D18*
%TO.N,PWM3_H*%
X69000000Y-52100000D03*
D17*
X78800000Y-62300000D03*
D18*
%TO.N,PWM1_H*%
X82700000Y-63200000D03*
X69200000Y-50100000D03*
%TO.N,PWM2_L*%
X70800000Y-51600000D03*
X79900000Y-60400000D03*
D17*
%TO.N,Net-(U1-CP2)*%
X62200000Y-49200000D03*
%TD*%
D19*
%TO.N,PHCM_U*%
X92199000Y-64601000D02*
X93900000Y-62900000D01*
X92199000Y-68950943D02*
X92199000Y-64601000D01*
X89971000Y-78476760D02*
X89971000Y-71178943D01*
X88646760Y-79801000D02*
X89971000Y-78476760D01*
X89971000Y-71178943D02*
X92199000Y-68950943D01*
X73046500Y-79801000D02*
X88646760Y-79801000D01*
X62500000Y-69254500D02*
X73046500Y-79801000D01*
X62500000Y-63700000D02*
X62500000Y-69254500D01*
%TO.N,Net-(U1-CP2)*%
X71301000Y-50825602D02*
X69990478Y-49515080D01*
X71301000Y-51807521D02*
X71301000Y-50825602D01*
X71007521Y-52101000D02*
X71301000Y-51807521D01*
X70592479Y-52101000D02*
X71007521Y-52101000D01*
X70299000Y-51807521D02*
X70592479Y-52101000D01*
X69699000Y-51807521D02*
X70299000Y-51807521D01*
X69399000Y-51507521D02*
X69699000Y-51807521D01*
X64507521Y-51507521D02*
X69399000Y-51507521D01*
X62200000Y-49200000D02*
X64507521Y-51507521D01*
%TO.N,Net-(C27-Pad1)*%
X125200000Y-34700000D02*
X127600000Y-37100000D01*
X101000000Y-34700000D02*
X125200000Y-34700000D01*
%TO.N,V_Bridge*%
X75440000Y-62960000D02*
X82000000Y-56400000D01*
X75440000Y-77100000D02*
X75440000Y-62960000D01*
X82000000Y-56400000D02*
X83800000Y-56400000D01*
X75540000Y-77200000D02*
X75440000Y-77100000D01*
%TO.N,Net-(U1-BST_C)*%
X85499000Y-52601000D02*
X85999000Y-52101000D01*
X85999000Y-52101000D02*
X85999000Y-51651057D01*
X85999000Y-51651057D02*
X86551057Y-51099000D01*
X86551057Y-51099000D02*
X127099000Y-51099000D01*
X84501000Y-52601000D02*
X85499000Y-52601000D01*
X83400000Y-51100000D02*
X83400000Y-51500000D01*
X127099000Y-51099000D02*
X128600000Y-52600000D01*
X83400000Y-51500000D02*
X84501000Y-52601000D01*
%TO.N,Net-(U1-BIAS)*%
X115000000Y-41200000D02*
X114900000Y-41300000D01*
X86100000Y-42500000D02*
X84300000Y-44300000D01*
X92600000Y-42500000D02*
X86100000Y-42500000D01*
X118100000Y-41200000D02*
X115000000Y-41200000D01*
%TO.N,NRST*%
X117200000Y-66400000D02*
X128100000Y-66400000D01*
X115550000Y-64750000D02*
X117200000Y-66400000D01*
%TO.N,SWDCLK*%
X82900000Y-74620000D02*
X82900000Y-71100000D01*
X86280000Y-78000000D02*
X82900000Y-74620000D01*
%TO.N,SWDIO*%
X83200000Y-79400000D02*
X87420000Y-79400000D01*
X81900000Y-78100000D02*
X83200000Y-79400000D01*
X87420000Y-79400000D02*
X88820000Y-78000000D01*
X81900000Y-70800000D02*
X81900000Y-78100000D01*
%TO.N,Net-(Q4-G)*%
X91700000Y-38000000D02*
X91700000Y-41400000D01*
X98500000Y-42300000D02*
X98500000Y-43500000D01*
X87920000Y-34220000D02*
X91700000Y-38000000D01*
X87920000Y-31200000D02*
X87920000Y-34220000D01*
X98100000Y-41900000D02*
X98500000Y-42300000D01*
X92200000Y-41900000D02*
X98100000Y-41900000D01*
X91700000Y-41400000D02*
X92200000Y-41900000D01*
%TO.N,SO1*%
X69850000Y-57050000D02*
X69850000Y-59450000D01*
X69850000Y-59450000D02*
X66600000Y-62700000D01*
%TO.N,GH_A*%
X85900000Y-41100000D02*
X86900000Y-41100000D01*
X84400000Y-45800000D02*
X84400000Y-45300000D01*
X83699000Y-44599000D02*
X83699000Y-43301000D01*
X83699000Y-43301000D02*
X85900000Y-41100000D01*
X84400000Y-45300000D02*
X83699000Y-44599000D01*
%TO.N,GL_C*%
X88300000Y-51800000D02*
X88000000Y-51500000D01*
X70450000Y-67150000D02*
X82949000Y-54651000D01*
X88000000Y-51500000D02*
X87000000Y-51500000D01*
X87000000Y-51500000D02*
X86600000Y-51900000D01*
X87049000Y-54651000D02*
X88300000Y-53400000D01*
X82949000Y-54651000D02*
X87049000Y-54651000D01*
X88300000Y-53400000D02*
X88300000Y-51800000D01*
%TO.N,HSE_OUT*%
X95500000Y-63300000D02*
X104700000Y-63300000D01*
X95000000Y-63800000D02*
X95500000Y-63300000D01*
%TO.N,PWM3_L*%
X75020783Y-78501000D02*
X74286500Y-77766717D01*
X76793500Y-73958443D02*
X76793500Y-77766717D01*
X74286500Y-77766717D02*
X74286500Y-71836443D01*
X74286500Y-71836443D02*
X69849000Y-67398943D01*
X76059217Y-78501000D02*
X75020783Y-78501000D01*
X65999000Y-62948943D02*
X65999000Y-58101000D01*
X80750943Y-70001000D02*
X76793500Y-73958443D01*
X76793500Y-77766717D02*
X76059217Y-78501000D01*
X65999000Y-58101000D02*
X70300000Y-53800000D01*
X90200000Y-69500000D02*
X89699000Y-70001000D01*
X89699000Y-70001000D02*
X80750943Y-70001000D01*
X70300000Y-53800000D02*
X70300000Y-52600000D01*
X69849000Y-63424000D02*
X66474057Y-63424000D01*
X66474057Y-63424000D02*
X65999000Y-62948943D01*
X69849000Y-67398943D02*
X69849000Y-63424000D01*
%TD*%
M02*
