%TF.GenerationSoftware,KiCad,Pcbnew,9.0.2*%
%TF.CreationDate,2025-07-03T13:44:50+05:30*%
%TF.ProjectId,Battery Charger and Protection,42617474-6572-4792-9043-686172676572,rev?*%
%TF.SameCoordinates,Original*%
%TF.FileFunction,Paste,Top*%
%TF.FilePolarity,Positive*%
%FSLAX46Y46*%
G04 Gerber Fmt 4.6, Leading zero omitted, Abs format (unit mm)*
G04 Created by KiCad (PCBNEW 9.0.2) date 2025-07-03 13:44:50*
%MOMM*%
%LPD*%
G01*
G04 APERTURE LIST*
G04 Aperture macros list*
%AMRoundRect*
0 Rectangle with rounded corners*
0 $1 Rounding radius*
0 $2 $3 $4 $5 $6 $7 $8 $9 X,Y pos of 4 corners*
0 Add a 4 corners polygon primitive as box body*
4,1,4,$2,$3,$4,$5,$6,$7,$8,$9,$2,$3,0*
0 Add four circle primitives for the rounded corners*
1,1,$1+$1,$2,$3*
1,1,$1+$1,$4,$5*
1,1,$1+$1,$6,$7*
1,1,$1+$1,$8,$9*
0 Add four rect primitives between the rounded corners*
20,1,$1+$1,$2,$3,$4,$5,0*
20,1,$1+$1,$4,$5,$6,$7,0*
20,1,$1+$1,$6,$7,$8,$9,0*
20,1,$1+$1,$8,$9,$2,$3,0*%
G04 Aperture macros list end*
%ADD10C,0.010000*%
%ADD11RoundRect,0.225000X0.250000X-0.225000X0.250000X0.225000X-0.250000X0.225000X-0.250000X-0.225000X0*%
%ADD12RoundRect,0.200000X0.275000X-0.200000X0.275000X0.200000X-0.275000X0.200000X-0.275000X-0.200000X0*%
%ADD13RoundRect,0.225000X-0.225000X-0.250000X0.225000X-0.250000X0.225000X0.250000X-0.225000X0.250000X0*%
%ADD14RoundRect,0.200000X-0.200000X-0.275000X0.200000X-0.275000X0.200000X0.275000X-0.200000X0.275000X0*%
%ADD15RoundRect,0.200000X-0.275000X0.200000X-0.275000X-0.200000X0.275000X-0.200000X0.275000X0.200000X0*%
%ADD16RoundRect,0.225000X0.225000X0.250000X-0.225000X0.250000X-0.225000X-0.250000X0.225000X-0.250000X0*%
%ADD17RoundRect,0.032500X-0.412500X-0.097500X0.412500X-0.097500X0.412500X0.097500X-0.412500X0.097500X0*%
%ADD18RoundRect,0.032500X-0.097500X-0.412500X0.097500X-0.412500X0.097500X0.412500X-0.097500X0.412500X0*%
%ADD19RoundRect,0.225000X-0.250000X0.225000X-0.250000X-0.225000X0.250000X-0.225000X0.250000X0.225000X0*%
%ADD20RoundRect,0.033750X-0.476250X-0.101250X0.476250X-0.101250X0.476250X0.101250X-0.476250X0.101250X0*%
%ADD21RoundRect,0.033750X-0.436250X-0.101250X0.436250X-0.101250X0.436250X0.101250X-0.436250X0.101250X0*%
%ADD22RoundRect,0.218750X-0.218750X-0.256250X0.218750X-0.256250X0.218750X0.256250X-0.218750X0.256250X0*%
%ADD23RoundRect,0.200000X0.200000X0.275000X-0.200000X0.275000X-0.200000X-0.275000X0.200000X-0.275000X0*%
%ADD24R,5.400000X2.900000*%
G04 APERTURE END LIST*
D10*
%TO.C,U200*%
X61104000Y-59799000D02*
X59396000Y-59799000D01*
X59396000Y-58091000D01*
X61104000Y-58091000D01*
X61104000Y-59799000D01*
G36*
X61104000Y-59799000D02*
G01*
X59396000Y-59799000D01*
X59396000Y-58091000D01*
X61104000Y-58091000D01*
X61104000Y-59799000D01*
G37*
%TO.C,Q2*%
X82650000Y-55765000D02*
X82310000Y-55765000D01*
X82310000Y-55315000D01*
X82650000Y-55315000D01*
X82650000Y-55765000D01*
G36*
X82650000Y-55765000D02*
G01*
X82310000Y-55765000D01*
X82310000Y-55315000D01*
X82650000Y-55315000D01*
X82650000Y-55765000D01*
G37*
X82650000Y-58635000D02*
X82310000Y-58635000D01*
X82310000Y-58185000D01*
X82650000Y-58185000D01*
X82650000Y-58635000D01*
G36*
X82650000Y-58635000D02*
G01*
X82310000Y-58635000D01*
X82310000Y-58185000D01*
X82650000Y-58185000D01*
X82650000Y-58635000D01*
G37*
X83300000Y-55765000D02*
X82960000Y-55765000D01*
X82960000Y-55315000D01*
X83300000Y-55315000D01*
X83300000Y-55765000D01*
G36*
X83300000Y-55765000D02*
G01*
X82960000Y-55765000D01*
X82960000Y-55315000D01*
X83300000Y-55315000D01*
X83300000Y-55765000D01*
G37*
X83300000Y-58635000D02*
X82960000Y-58635000D01*
X82960000Y-58185000D01*
X83300000Y-58185000D01*
X83300000Y-58635000D01*
G36*
X83300000Y-58635000D02*
G01*
X82960000Y-58635000D01*
X82960000Y-58185000D01*
X83300000Y-58185000D01*
X83300000Y-58635000D01*
G37*
X83330000Y-57960000D02*
X82310000Y-57960000D01*
X82310000Y-56515000D01*
X83330000Y-56515000D01*
X83330000Y-57960000D01*
G36*
X83330000Y-57960000D02*
G01*
X82310000Y-57960000D01*
X82310000Y-56515000D01*
X83330000Y-56515000D01*
X83330000Y-57960000D01*
G37*
X83950000Y-55765000D02*
X83610000Y-55765000D01*
X83610000Y-55315000D01*
X83950000Y-55315000D01*
X83950000Y-55765000D01*
G36*
X83950000Y-55765000D02*
G01*
X83610000Y-55765000D01*
X83610000Y-55315000D01*
X83950000Y-55315000D01*
X83950000Y-55765000D01*
G37*
X83950000Y-58635000D02*
X83610000Y-58635000D01*
X83610000Y-58185000D01*
X83950000Y-58185000D01*
X83950000Y-58635000D01*
G36*
X83950000Y-58635000D02*
G01*
X83610000Y-58635000D01*
X83610000Y-58185000D01*
X83950000Y-58185000D01*
X83950000Y-58635000D01*
G37*
X84600000Y-55765000D02*
X84260000Y-55765000D01*
X84260000Y-55315000D01*
X84600000Y-55315000D01*
X84600000Y-55765000D01*
G36*
X84600000Y-55765000D02*
G01*
X84260000Y-55765000D01*
X84260000Y-55315000D01*
X84600000Y-55315000D01*
X84600000Y-55765000D01*
G37*
X84600000Y-57960000D02*
X83580000Y-57960000D01*
X83580000Y-56515000D01*
X84600000Y-56515000D01*
X84600000Y-57960000D01*
G36*
X84600000Y-57960000D02*
G01*
X83580000Y-57960000D01*
X83580000Y-56515000D01*
X84600000Y-56515000D01*
X84600000Y-57960000D01*
G37*
X84600000Y-58635000D02*
X84260000Y-58635000D01*
X84260000Y-58185000D01*
X84600000Y-58185000D01*
X84600000Y-58635000D01*
G36*
X84600000Y-58635000D02*
G01*
X84260000Y-58635000D01*
X84260000Y-58185000D01*
X84600000Y-58185000D01*
X84600000Y-58635000D01*
G37*
%TO.C,Q1*%
X82245000Y-51220000D02*
X81795000Y-51220000D01*
X81795000Y-50880000D01*
X82245000Y-50880000D01*
X82245000Y-51220000D01*
G36*
X82245000Y-51220000D02*
G01*
X81795000Y-51220000D01*
X81795000Y-50880000D01*
X82245000Y-50880000D01*
X82245000Y-51220000D01*
G37*
X82245000Y-51870000D02*
X81795000Y-51870000D01*
X81795000Y-51530000D01*
X82245000Y-51530000D01*
X82245000Y-51870000D01*
G36*
X82245000Y-51870000D02*
G01*
X81795000Y-51870000D01*
X81795000Y-51530000D01*
X82245000Y-51530000D01*
X82245000Y-51870000D01*
G37*
X82245000Y-52520000D02*
X81795000Y-52520000D01*
X81795000Y-52180000D01*
X82245000Y-52180000D01*
X82245000Y-52520000D01*
G36*
X82245000Y-52520000D02*
G01*
X81795000Y-52520000D01*
X81795000Y-52180000D01*
X82245000Y-52180000D01*
X82245000Y-52520000D01*
G37*
X82245000Y-53170000D02*
X81795000Y-53170000D01*
X81795000Y-52830000D01*
X82245000Y-52830000D01*
X82245000Y-53170000D01*
G36*
X82245000Y-53170000D02*
G01*
X81795000Y-53170000D01*
X81795000Y-52830000D01*
X82245000Y-52830000D01*
X82245000Y-53170000D01*
G37*
X84440000Y-51900000D02*
X82995000Y-51900000D01*
X82995000Y-50880000D01*
X84440000Y-50880000D01*
X84440000Y-51900000D01*
G36*
X84440000Y-51900000D02*
G01*
X82995000Y-51900000D01*
X82995000Y-50880000D01*
X84440000Y-50880000D01*
X84440000Y-51900000D01*
G37*
X84440000Y-53170000D02*
X82995000Y-53170000D01*
X82995000Y-52150000D01*
X84440000Y-52150000D01*
X84440000Y-53170000D01*
G36*
X84440000Y-53170000D02*
G01*
X82995000Y-53170000D01*
X82995000Y-52150000D01*
X84440000Y-52150000D01*
X84440000Y-53170000D01*
G37*
X85115000Y-51220000D02*
X84665000Y-51220000D01*
X84665000Y-50880000D01*
X85115000Y-50880000D01*
X85115000Y-51220000D01*
G36*
X85115000Y-51220000D02*
G01*
X84665000Y-51220000D01*
X84665000Y-50880000D01*
X85115000Y-50880000D01*
X85115000Y-51220000D01*
G37*
X85115000Y-51870000D02*
X84665000Y-51870000D01*
X84665000Y-51530000D01*
X85115000Y-51530000D01*
X85115000Y-51870000D01*
G36*
X85115000Y-51870000D02*
G01*
X84665000Y-51870000D01*
X84665000Y-51530000D01*
X85115000Y-51530000D01*
X85115000Y-51870000D01*
G37*
X85115000Y-52520000D02*
X84665000Y-52520000D01*
X84665000Y-52180000D01*
X85115000Y-52180000D01*
X85115000Y-52520000D01*
G36*
X85115000Y-52520000D02*
G01*
X84665000Y-52520000D01*
X84665000Y-52180000D01*
X85115000Y-52180000D01*
X85115000Y-52520000D01*
G37*
X85115000Y-53170000D02*
X84665000Y-53170000D01*
X84665000Y-52830000D01*
X85115000Y-52830000D01*
X85115000Y-53170000D01*
G36*
X85115000Y-53170000D02*
G01*
X84665000Y-53170000D01*
X84665000Y-52830000D01*
X85115000Y-52830000D01*
X85115000Y-53170000D01*
G37*
%TD*%
D11*
%TO.C,C206*%
X70000000Y-66775000D03*
X70000000Y-65225000D03*
%TD*%
D12*
%TO.C,R204*%
X62860000Y-65035000D03*
X62860000Y-63385000D03*
%TD*%
%TO.C,R202*%
X61000000Y-68650000D03*
X61000000Y-67000000D03*
%TD*%
D13*
%TO.C,C207*%
X57389278Y-51464141D03*
X58939278Y-51464141D03*
%TD*%
D14*
%TO.C,R203*%
X49434116Y-51838595D03*
X51084116Y-51838595D03*
%TD*%
D15*
%TO.C,R209*%
X89000000Y-47350000D03*
X89000000Y-49000000D03*
%TD*%
D11*
%TO.C,C205*%
X66225000Y-66775000D03*
X66225000Y-65225000D03*
%TD*%
%TO.C,C209*%
X67000000Y-70550000D03*
X67000000Y-69000000D03*
%TD*%
D15*
%TO.C,R211*%
X89000000Y-55000000D03*
X89000000Y-56650000D03*
%TD*%
D16*
%TO.C,C208*%
X58996887Y-52985536D03*
X57446887Y-52985536D03*
%TD*%
D14*
%TO.C,R201*%
X49434116Y-53838595D03*
X51084116Y-53838595D03*
%TD*%
%TO.C,R206*%
X49384010Y-57905946D03*
X51034010Y-57905946D03*
%TD*%
D17*
%TO.C,U200*%
X58305000Y-57695000D03*
X58305000Y-58195000D03*
X58305000Y-58695000D03*
X58305000Y-59195000D03*
X58305000Y-59695000D03*
X58305000Y-60195000D03*
D18*
X59000000Y-60890000D03*
X59500000Y-60890000D03*
X60000000Y-60890000D03*
X60500000Y-60890000D03*
X61000000Y-60890000D03*
X61500000Y-60890000D03*
D17*
X62195000Y-60195000D03*
X62195000Y-59695000D03*
X62195000Y-59195000D03*
X62195000Y-58695000D03*
X62195000Y-58195000D03*
X62195000Y-57695000D03*
D18*
X61500000Y-57000000D03*
X61000000Y-57000000D03*
X60500000Y-57000000D03*
X60000000Y-57000000D03*
X59500000Y-57000000D03*
X59000000Y-57000000D03*
%TD*%
D12*
%TO.C,R210*%
X89000000Y-52650000D03*
X89000000Y-51000000D03*
%TD*%
D11*
%TO.C,C201*%
X62980000Y-48000000D03*
X62980000Y-46450000D03*
%TD*%
D19*
%TO.C,C210*%
X78000000Y-46450000D03*
X78000000Y-48000000D03*
%TD*%
D11*
%TO.C,C203*%
X68000000Y-48000000D03*
X68000000Y-46450000D03*
%TD*%
D20*
%TO.C,U2*%
X81780000Y-47500000D03*
D21*
X81740000Y-48000000D03*
X81740000Y-48500000D03*
X83000000Y-48500000D03*
X83000000Y-48000000D03*
X83000000Y-47500000D03*
%TD*%
D14*
%TO.C,R208*%
X49342089Y-61754104D03*
X50992089Y-61754104D03*
%TD*%
D22*
%TO.C,D202*%
X55212500Y-69000000D03*
X56787500Y-69000000D03*
%TD*%
D14*
%TO.C,R207*%
X49353315Y-59832228D03*
X51003315Y-59832228D03*
%TD*%
D11*
%TO.C,C200*%
X60470000Y-48000000D03*
X60470000Y-46450000D03*
%TD*%
%TO.C,C202*%
X66000000Y-48000000D03*
X66000000Y-46450000D03*
%TD*%
D14*
%TO.C,R200*%
X49457161Y-55838595D03*
X51107161Y-55838595D03*
%TD*%
D23*
%TO.C,R205*%
X60989051Y-70556827D03*
X59339051Y-70556827D03*
%TD*%
D11*
%TO.C,C204*%
X71000000Y-48000000D03*
X71000000Y-46450000D03*
%TD*%
D24*
%TO.C,L200*%
X71760000Y-51970000D03*
X71760000Y-61870000D03*
%TD*%
D22*
%TO.C,D201*%
X55425000Y-65000000D03*
X57000000Y-65000000D03*
%TD*%
%TO.C,D200*%
X61000000Y-53000000D03*
X62575000Y-53000000D03*
%TD*%
M02*
