M48
; DRILL file {KiCad 9.0.2} date 2025-07-04T12:24:27+0530
; FORMAT={-:-/ absolute / metric / decimal}
; #@! TF.CreationDate,2025-07-04T12:24:27+05:30
; #@! TF.GenerationSoftware,Kicad,Pcbnew,9.0.2
; #@! TF.FileFunction,Plated,1,2,PTH
FMAT,2
METRIC
; #@! TA.AperFunction,Plated,PTH,ComponentDrill
T1C0.800
; #@! TA.AperFunction,Plated,PTH,ComponentDrill
T2C1.000
; #@! TA.AperFunction,Plated,PTH,ComponentDrill
T3C1.010
; #@! TA.AperFunction,Plated,PTH,ComponentDrill
T4C1.100
; #@! TA.AperFunction,Plated,PTH,ComponentDrill
T5C1.200
; #@! TA.AperFunction,Plated,PTH,ComponentDrill
T6C1.500
%
G90
G05
T1
X141.74Y-77.77
X141.74Y-85.39
X144.28Y-77.77
X144.28Y-85.39
X152.09Y-60.86
X159.71Y-60.86
X165.06Y-60.77
X171.76Y-100.17
X172.68Y-60.77
X176.76Y-100.17
X177.39Y-60.75
X185.01Y-60.75
X185.62Y-97.71
X187.62Y-97.71
T2
X74.73Y-81.945
X74.73Y-84.485
X152.53Y-94.99
X160.03Y-94.99
X199.27Y-81.92
X199.27Y-84.46
T3
X177.81Y-86.34
X177.88Y-78.13
X188.01Y-88.24
X188.08Y-80.03
T4
X159.98Y-81.65
X162.52Y-81.65
X165.06Y-81.65
T5
X92.83Y-70.33
X92.83Y-75.33
X92.83Y-80.33
X92.83Y-85.33
X92.83Y-90.33
X92.83Y-95.33
X92.83Y-100.33
X122.83Y-70.33
X122.83Y-75.33
X122.83Y-80.33
X122.83Y-85.33
X122.83Y-90.33
X122.83Y-95.33
X122.83Y-100.33
T6
X159.68Y-70.57
X165.155Y-70.57
X170.63Y-70.57
X177.67Y-70.68
X183.145Y-70.68
X188.62Y-70.68
M30
