%TF.GenerationSoftware,KiCad,Pcbnew,9.0.2*%
%TF.CreationDate,2025-07-04T12:24:24+05:30*%
%TF.ProjectId,qn1,716e312e-6b69-4636-9164-5f7063625858,rev?*%
%TF.SameCoordinates,Original*%
%TF.FileFunction,Copper,L2,Bot*%
%TF.FilePolarity,Positive*%
%FSLAX46Y46*%
G04 Gerber Fmt 4.6, Leading zero omitted, Abs format (unit mm)*
G04 Created by KiCad (PCBNEW 9.0.2) date 2025-07-04 12:24:24*
%MOMM*%
%LPD*%
G01*
G04 APERTURE LIST*
G04 Aperture macros list*
%AMRoundRect*
0 Rectangle with rounded corners*
0 $1 Rounding radius*
0 $2 $3 $4 $5 $6 $7 $8 $9 X,Y pos of 4 corners*
0 Add a 4 corners polygon primitive as box body*
4,1,4,$2,$3,$4,$5,$6,$7,$8,$9,$2,$3,0*
0 Add four circle primitives for the rounded corners*
1,1,$1+$1,$2,$3*
1,1,$1+$1,$4,$5*
1,1,$1+$1,$6,$7*
1,1,$1+$1,$8,$9*
0 Add four rect primitives between the rounded corners*
20,1,$1+$1,$2,$3,$4,$5,0*
20,1,$1+$1,$4,$5,$6,$7,0*
20,1,$1+$1,$6,$7,$8,$9,0*
20,1,$1+$1,$8,$9,$2,$3,0*%
G04 Aperture macros list end*
%TA.AperFunction,ComponentPad*%
%ADD10C,1.600000*%
%TD*%
%TA.AperFunction,ComponentPad*%
%ADD11C,1.560000*%
%TD*%
%TA.AperFunction,ComponentPad*%
%ADD12R,1.700000X1.700000*%
%TD*%
%TA.AperFunction,ComponentPad*%
%ADD13C,1.700000*%
%TD*%
%TA.AperFunction,ComponentPad*%
%ADD14R,2.500000X3.500000*%
%TD*%
%TA.AperFunction,ComponentPad*%
%ADD15O,2.500000X3.500000*%
%TD*%
%TA.AperFunction,ComponentPad*%
%ADD16RoundRect,0.250000X-0.550000X0.550000X-0.550000X-0.550000X0.550000X-0.550000X0.550000X0.550000X0*%
%TD*%
%TA.AperFunction,ComponentPad*%
%ADD17C,2.000000*%
%TD*%
%TA.AperFunction,ComponentPad*%
%ADD18R,1.905000X2.000000*%
%TD*%
%TA.AperFunction,ComponentPad*%
%ADD19O,1.905000X2.000000*%
%TD*%
%TA.AperFunction,ComponentPad*%
%ADD20C,3.000000*%
%TD*%
%TA.AperFunction,Conductor*%
%ADD21C,0.200000*%
%TD*%
G04 APERTURE END LIST*
D10*
%TO.P,C3,1*%
%TO.N,Net-(Q1-C)*%
X185620000Y-97710000D03*
%TO.P,C3,2*%
%TO.N,GND*%
X187620000Y-97710000D03*
%TD*%
D11*
%TO.P,F2,1*%
%TO.N,Net-(Q1-C)*%
X177810000Y-86340000D03*
%TO.P,F2,2*%
%TO.N,Net-(J1-Pin_1)*%
X188010000Y-88240000D03*
%TD*%
D12*
%TO.P,J1,1,Pin_1*%
%TO.N,Net-(J1-Pin_1)*%
X199270000Y-81920000D03*
D13*
%TO.P,J1,2,Pin_2*%
%TO.N,GND*%
X199270000Y-84460000D03*
%TD*%
D11*
%TO.P,F1,1*%
%TO.N,Net-(U1-VO)*%
X177880000Y-78130000D03*
%TO.P,F1,2*%
%TO.N,Net-(Q1-C)*%
X188080000Y-80030000D03*
%TD*%
D14*
%TO.P,Q2,1,B*%
%TO.N,Net-(Q1-B)*%
X159680000Y-70570000D03*
D15*
%TO.P,Q2,2,C*%
%TO.N,Net-(Q1-C)*%
X165155000Y-70570000D03*
%TO.P,Q2,3,E*%
%TO.N,Net-(Q2-E)*%
X170630000Y-70570000D03*
%TD*%
D10*
%TO.P,R2,1*%
%TO.N,Net-(D1-+)*%
X165060000Y-60770000D03*
%TO.P,R2,2*%
%TO.N,Net-(Q2-E)*%
X172680000Y-60770000D03*
%TD*%
%TO.P,R1,1*%
%TO.N,Net-(D1-+)*%
X152090000Y-60860000D03*
%TO.P,R1,2*%
%TO.N,Net-(Q1-B)*%
X159710000Y-60860000D03*
%TD*%
D16*
%TO.P,D1,1,+*%
%TO.N,Net-(D1-+)*%
X144280000Y-77770000D03*
D10*
%TO.P,D1,2,-*%
%TO.N,GND*%
X141740000Y-77770000D03*
%TO.P,D1,3*%
%TO.N,Net-(T1-SB)*%
X141740000Y-85390000D03*
%TO.P,D1,4*%
%TO.N,Net-(T1-SA)*%
X144280000Y-85390000D03*
%TD*%
D17*
%TO.P,C1,1*%
%TO.N,Net-(D1-+)*%
X152530000Y-94990000D03*
%TO.P,C1,2*%
%TO.N,GND*%
X160030000Y-94990000D03*
%TD*%
D10*
%TO.P,C2,1*%
%TO.N,Net-(Q1-B)*%
X171760000Y-100170000D03*
%TO.P,C2,2*%
%TO.N,GND*%
X176760000Y-100170000D03*
%TD*%
D12*
%TO.P,J2,1,Pin_1*%
%TO.N,Net-(J2-Pin_1)*%
X74730000Y-81945000D03*
D13*
%TO.P,J2,2,Pin_2*%
%TO.N,Net-(J2-Pin_2)*%
X74730000Y-84485000D03*
%TD*%
D10*
%TO.P,R3,1*%
%TO.N,Net-(D1-+)*%
X177390000Y-60750000D03*
%TO.P,R3,2*%
%TO.N,Net-(Q1-E)*%
X185010000Y-60750000D03*
%TD*%
D18*
%TO.P,U1,1,GND*%
%TO.N,GND*%
X159980000Y-81650000D03*
D19*
%TO.P,U1,2,VO*%
%TO.N,Net-(U1-VO)*%
X162520000Y-81650000D03*
%TO.P,U1,3,VI*%
%TO.N,Net-(Q1-B)*%
X165060000Y-81650000D03*
%TD*%
D20*
%TO.P,T1,1,AA*%
%TO.N,Net-(J2-Pin_1)*%
X92830000Y-75330000D03*
%TO.P,T1,2,AB*%
%TO.N,Net-(J2-Pin_2)*%
X92830000Y-85330000D03*
%TO.P,T1,3,SA*%
%TO.N,Net-(T1-SA)*%
X122830000Y-80330000D03*
%TO.P,T1,4,SB*%
%TO.N,Net-(T1-SB)*%
X122830000Y-85330000D03*
%TO.P,T1,5*%
%TO.N,N/C*%
X92830000Y-80330000D03*
%TO.P,T1,6*%
X92830000Y-100330000D03*
%TO.P,T1,7*%
X92830000Y-70330000D03*
%TO.P,T1,8*%
X122830000Y-70330000D03*
%TO.P,T1,9*%
X122830000Y-75330000D03*
%TO.P,T1,10*%
X92830000Y-90330000D03*
%TO.P,T1,11*%
X92830000Y-95330000D03*
%TO.P,T1,12*%
X122830000Y-90330000D03*
%TO.P,T1,13*%
X122830000Y-95330000D03*
%TO.P,T1,14*%
X122830000Y-100330000D03*
%TD*%
D14*
%TO.P,Q1,1,B*%
%TO.N,Net-(Q1-B)*%
X177670000Y-70680000D03*
D15*
%TO.P,Q1,2,C*%
%TO.N,Net-(Q1-C)*%
X183145000Y-70680000D03*
%TO.P,Q1,3,E*%
%TO.N,Net-(Q1-E)*%
X188620000Y-70680000D03*
%TD*%
D21*
%TO.N,Net-(U1-VO)*%
X162520000Y-79480000D02*
X164760000Y-77240000D01*
X176990000Y-77240000D02*
X177880000Y-78130000D01*
X162520000Y-81650000D02*
X162520000Y-79480000D01*
X164760000Y-77240000D02*
X176990000Y-77240000D01*
%TD*%
M02*
