%TF.GenerationSoftware,KiCad,Pcbnew,9.0.2*%
%TF.CreationDate,2025-07-04T12:24:24+05:30*%
%TF.ProjectId,qn1,716e312e-6b69-4636-9164-5f7063625858,rev?*%
%TF.SameCoordinates,Original*%
%TF.FileFunction,Legend,Top*%
%TF.FilePolarity,Positive*%
%FSLAX46Y46*%
G04 Gerber Fmt 4.6, Leading zero omitted, Abs format (unit mm)*
G04 Created by KiCad (PCBNEW 9.0.2) date 2025-07-04 12:24:24*
%MOMM*%
%LPD*%
G01*
G04 APERTURE LIST*
%ADD10C,0.150000*%
%ADD11C,0.120000*%
G04 APERTURE END LIST*
D10*
X186453333Y-94319580D02*
X186405714Y-94367200D01*
X186405714Y-94367200D02*
X186262857Y-94414819D01*
X186262857Y-94414819D02*
X186167619Y-94414819D01*
X186167619Y-94414819D02*
X186024762Y-94367200D01*
X186024762Y-94367200D02*
X185929524Y-94271961D01*
X185929524Y-94271961D02*
X185881905Y-94176723D01*
X185881905Y-94176723D02*
X185834286Y-93986247D01*
X185834286Y-93986247D02*
X185834286Y-93843390D01*
X185834286Y-93843390D02*
X185881905Y-93652914D01*
X185881905Y-93652914D02*
X185929524Y-93557676D01*
X185929524Y-93557676D02*
X186024762Y-93462438D01*
X186024762Y-93462438D02*
X186167619Y-93414819D01*
X186167619Y-93414819D02*
X186262857Y-93414819D01*
X186262857Y-93414819D02*
X186405714Y-93462438D01*
X186405714Y-93462438D02*
X186453333Y-93510057D01*
X186786667Y-93414819D02*
X187405714Y-93414819D01*
X187405714Y-93414819D02*
X187072381Y-93795771D01*
X187072381Y-93795771D02*
X187215238Y-93795771D01*
X187215238Y-93795771D02*
X187310476Y-93843390D01*
X187310476Y-93843390D02*
X187358095Y-93891009D01*
X187358095Y-93891009D02*
X187405714Y-93986247D01*
X187405714Y-93986247D02*
X187405714Y-94224342D01*
X187405714Y-94224342D02*
X187358095Y-94319580D01*
X187358095Y-94319580D02*
X187310476Y-94367200D01*
X187310476Y-94367200D02*
X187215238Y-94414819D01*
X187215238Y-94414819D02*
X186929524Y-94414819D01*
X186929524Y-94414819D02*
X186834286Y-94367200D01*
X186834286Y-94367200D02*
X186786667Y-94319580D01*
X183476666Y-83371009D02*
X183143333Y-83371009D01*
X183143333Y-83894819D02*
X183143333Y-82894819D01*
X183143333Y-82894819D02*
X183619523Y-82894819D01*
X183952857Y-82990057D02*
X184000476Y-82942438D01*
X184000476Y-82942438D02*
X184095714Y-82894819D01*
X184095714Y-82894819D02*
X184333809Y-82894819D01*
X184333809Y-82894819D02*
X184429047Y-82942438D01*
X184429047Y-82942438D02*
X184476666Y-82990057D01*
X184476666Y-82990057D02*
X184524285Y-83085295D01*
X184524285Y-83085295D02*
X184524285Y-83180533D01*
X184524285Y-83180533D02*
X184476666Y-83323390D01*
X184476666Y-83323390D02*
X183905238Y-83894819D01*
X183905238Y-83894819D02*
X184524285Y-83894819D01*
X198936666Y-78994819D02*
X198936666Y-79709104D01*
X198936666Y-79709104D02*
X198889047Y-79851961D01*
X198889047Y-79851961D02*
X198793809Y-79947200D01*
X198793809Y-79947200D02*
X198650952Y-79994819D01*
X198650952Y-79994819D02*
X198555714Y-79994819D01*
X199936666Y-79994819D02*
X199365238Y-79994819D01*
X199650952Y-79994819D02*
X199650952Y-78994819D01*
X199650952Y-78994819D02*
X199555714Y-79137676D01*
X199555714Y-79137676D02*
X199460476Y-79232914D01*
X199460476Y-79232914D02*
X199365238Y-79280533D01*
X183546666Y-75161009D02*
X183213333Y-75161009D01*
X183213333Y-75684819D02*
X183213333Y-74684819D01*
X183213333Y-74684819D02*
X183689523Y-74684819D01*
X184594285Y-75684819D02*
X184022857Y-75684819D01*
X184308571Y-75684819D02*
X184308571Y-74684819D01*
X184308571Y-74684819D02*
X184213333Y-74827676D01*
X184213333Y-74827676D02*
X184118095Y-74922914D01*
X184118095Y-74922914D02*
X184022857Y-74970533D01*
X165064761Y-67000057D02*
X164969523Y-66952438D01*
X164969523Y-66952438D02*
X164874285Y-66857200D01*
X164874285Y-66857200D02*
X164731428Y-66714342D01*
X164731428Y-66714342D02*
X164636190Y-66666723D01*
X164636190Y-66666723D02*
X164540952Y-66666723D01*
X164588571Y-66904819D02*
X164493333Y-66857200D01*
X164493333Y-66857200D02*
X164398095Y-66761961D01*
X164398095Y-66761961D02*
X164350476Y-66571485D01*
X164350476Y-66571485D02*
X164350476Y-66238152D01*
X164350476Y-66238152D02*
X164398095Y-66047676D01*
X164398095Y-66047676D02*
X164493333Y-65952438D01*
X164493333Y-65952438D02*
X164588571Y-65904819D01*
X164588571Y-65904819D02*
X164779047Y-65904819D01*
X164779047Y-65904819D02*
X164874285Y-65952438D01*
X164874285Y-65952438D02*
X164969523Y-66047676D01*
X164969523Y-66047676D02*
X165017142Y-66238152D01*
X165017142Y-66238152D02*
X165017142Y-66571485D01*
X165017142Y-66571485D02*
X164969523Y-66761961D01*
X164969523Y-66761961D02*
X164874285Y-66857200D01*
X164874285Y-66857200D02*
X164779047Y-66904819D01*
X164779047Y-66904819D02*
X164588571Y-66904819D01*
X165398095Y-66000057D02*
X165445714Y-65952438D01*
X165445714Y-65952438D02*
X165540952Y-65904819D01*
X165540952Y-65904819D02*
X165779047Y-65904819D01*
X165779047Y-65904819D02*
X165874285Y-65952438D01*
X165874285Y-65952438D02*
X165921904Y-66000057D01*
X165921904Y-66000057D02*
X165969523Y-66095295D01*
X165969523Y-66095295D02*
X165969523Y-66190533D01*
X165969523Y-66190533D02*
X165921904Y-66333390D01*
X165921904Y-66333390D02*
X165350476Y-66904819D01*
X165350476Y-66904819D02*
X165969523Y-66904819D01*
X168703333Y-58854819D02*
X168370000Y-58378628D01*
X168131905Y-58854819D02*
X168131905Y-57854819D01*
X168131905Y-57854819D02*
X168512857Y-57854819D01*
X168512857Y-57854819D02*
X168608095Y-57902438D01*
X168608095Y-57902438D02*
X168655714Y-57950057D01*
X168655714Y-57950057D02*
X168703333Y-58045295D01*
X168703333Y-58045295D02*
X168703333Y-58188152D01*
X168703333Y-58188152D02*
X168655714Y-58283390D01*
X168655714Y-58283390D02*
X168608095Y-58331009D01*
X168608095Y-58331009D02*
X168512857Y-58378628D01*
X168512857Y-58378628D02*
X168131905Y-58378628D01*
X169084286Y-57950057D02*
X169131905Y-57902438D01*
X169131905Y-57902438D02*
X169227143Y-57854819D01*
X169227143Y-57854819D02*
X169465238Y-57854819D01*
X169465238Y-57854819D02*
X169560476Y-57902438D01*
X169560476Y-57902438D02*
X169608095Y-57950057D01*
X169608095Y-57950057D02*
X169655714Y-58045295D01*
X169655714Y-58045295D02*
X169655714Y-58140533D01*
X169655714Y-58140533D02*
X169608095Y-58283390D01*
X169608095Y-58283390D02*
X169036667Y-58854819D01*
X169036667Y-58854819D02*
X169655714Y-58854819D01*
X155733333Y-58944819D02*
X155400000Y-58468628D01*
X155161905Y-58944819D02*
X155161905Y-57944819D01*
X155161905Y-57944819D02*
X155542857Y-57944819D01*
X155542857Y-57944819D02*
X155638095Y-57992438D01*
X155638095Y-57992438D02*
X155685714Y-58040057D01*
X155685714Y-58040057D02*
X155733333Y-58135295D01*
X155733333Y-58135295D02*
X155733333Y-58278152D01*
X155733333Y-58278152D02*
X155685714Y-58373390D01*
X155685714Y-58373390D02*
X155638095Y-58421009D01*
X155638095Y-58421009D02*
X155542857Y-58468628D01*
X155542857Y-58468628D02*
X155161905Y-58468628D01*
X156685714Y-58944819D02*
X156114286Y-58944819D01*
X156400000Y-58944819D02*
X156400000Y-57944819D01*
X156400000Y-57944819D02*
X156304762Y-58087676D01*
X156304762Y-58087676D02*
X156209524Y-58182914D01*
X156209524Y-58182914D02*
X156114286Y-58230533D01*
X147064819Y-82318094D02*
X146064819Y-82318094D01*
X146064819Y-82318094D02*
X146064819Y-82079999D01*
X146064819Y-82079999D02*
X146112438Y-81937142D01*
X146112438Y-81937142D02*
X146207676Y-81841904D01*
X146207676Y-81841904D02*
X146302914Y-81794285D01*
X146302914Y-81794285D02*
X146493390Y-81746666D01*
X146493390Y-81746666D02*
X146636247Y-81746666D01*
X146636247Y-81746666D02*
X146826723Y-81794285D01*
X146826723Y-81794285D02*
X146921961Y-81841904D01*
X146921961Y-81841904D02*
X147017200Y-81937142D01*
X147017200Y-81937142D02*
X147064819Y-82079999D01*
X147064819Y-82079999D02*
X147064819Y-82318094D01*
X147064819Y-80794285D02*
X147064819Y-81365713D01*
X147064819Y-81079999D02*
X146064819Y-81079999D01*
X146064819Y-81079999D02*
X146207676Y-81175237D01*
X146207676Y-81175237D02*
X146302914Y-81270475D01*
X146302914Y-81270475D02*
X146350533Y-81365713D01*
X156113333Y-86099580D02*
X156065714Y-86147200D01*
X156065714Y-86147200D02*
X155922857Y-86194819D01*
X155922857Y-86194819D02*
X155827619Y-86194819D01*
X155827619Y-86194819D02*
X155684762Y-86147200D01*
X155684762Y-86147200D02*
X155589524Y-86051961D01*
X155589524Y-86051961D02*
X155541905Y-85956723D01*
X155541905Y-85956723D02*
X155494286Y-85766247D01*
X155494286Y-85766247D02*
X155494286Y-85623390D01*
X155494286Y-85623390D02*
X155541905Y-85432914D01*
X155541905Y-85432914D02*
X155589524Y-85337676D01*
X155589524Y-85337676D02*
X155684762Y-85242438D01*
X155684762Y-85242438D02*
X155827619Y-85194819D01*
X155827619Y-85194819D02*
X155922857Y-85194819D01*
X155922857Y-85194819D02*
X156065714Y-85242438D01*
X156065714Y-85242438D02*
X156113333Y-85290057D01*
X157065714Y-86194819D02*
X156494286Y-86194819D01*
X156780000Y-86194819D02*
X156780000Y-85194819D01*
X156780000Y-85194819D02*
X156684762Y-85337676D01*
X156684762Y-85337676D02*
X156589524Y-85432914D01*
X156589524Y-85432914D02*
X156494286Y-85480533D01*
X174093333Y-94279580D02*
X174045714Y-94327200D01*
X174045714Y-94327200D02*
X173902857Y-94374819D01*
X173902857Y-94374819D02*
X173807619Y-94374819D01*
X173807619Y-94374819D02*
X173664762Y-94327200D01*
X173664762Y-94327200D02*
X173569524Y-94231961D01*
X173569524Y-94231961D02*
X173521905Y-94136723D01*
X173521905Y-94136723D02*
X173474286Y-93946247D01*
X173474286Y-93946247D02*
X173474286Y-93803390D01*
X173474286Y-93803390D02*
X173521905Y-93612914D01*
X173521905Y-93612914D02*
X173569524Y-93517676D01*
X173569524Y-93517676D02*
X173664762Y-93422438D01*
X173664762Y-93422438D02*
X173807619Y-93374819D01*
X173807619Y-93374819D02*
X173902857Y-93374819D01*
X173902857Y-93374819D02*
X174045714Y-93422438D01*
X174045714Y-93422438D02*
X174093333Y-93470057D01*
X174474286Y-93470057D02*
X174521905Y-93422438D01*
X174521905Y-93422438D02*
X174617143Y-93374819D01*
X174617143Y-93374819D02*
X174855238Y-93374819D01*
X174855238Y-93374819D02*
X174950476Y-93422438D01*
X174950476Y-93422438D02*
X174998095Y-93470057D01*
X174998095Y-93470057D02*
X175045714Y-93565295D01*
X175045714Y-93565295D02*
X175045714Y-93660533D01*
X175045714Y-93660533D02*
X174998095Y-93803390D01*
X174998095Y-93803390D02*
X174426667Y-94374819D01*
X174426667Y-94374819D02*
X175045714Y-94374819D01*
X74396666Y-79019819D02*
X74396666Y-79734104D01*
X74396666Y-79734104D02*
X74349047Y-79876961D01*
X74349047Y-79876961D02*
X74253809Y-79972200D01*
X74253809Y-79972200D02*
X74110952Y-80019819D01*
X74110952Y-80019819D02*
X74015714Y-80019819D01*
X74825238Y-79115057D02*
X74872857Y-79067438D01*
X74872857Y-79067438D02*
X74968095Y-79019819D01*
X74968095Y-79019819D02*
X75206190Y-79019819D01*
X75206190Y-79019819D02*
X75301428Y-79067438D01*
X75301428Y-79067438D02*
X75349047Y-79115057D01*
X75349047Y-79115057D02*
X75396666Y-79210295D01*
X75396666Y-79210295D02*
X75396666Y-79305533D01*
X75396666Y-79305533D02*
X75349047Y-79448390D01*
X75349047Y-79448390D02*
X74777619Y-80019819D01*
X74777619Y-80019819D02*
X75396666Y-80019819D01*
X181033333Y-58834819D02*
X180700000Y-58358628D01*
X180461905Y-58834819D02*
X180461905Y-57834819D01*
X180461905Y-57834819D02*
X180842857Y-57834819D01*
X180842857Y-57834819D02*
X180938095Y-57882438D01*
X180938095Y-57882438D02*
X180985714Y-57930057D01*
X180985714Y-57930057D02*
X181033333Y-58025295D01*
X181033333Y-58025295D02*
X181033333Y-58168152D01*
X181033333Y-58168152D02*
X180985714Y-58263390D01*
X180985714Y-58263390D02*
X180938095Y-58311009D01*
X180938095Y-58311009D02*
X180842857Y-58358628D01*
X180842857Y-58358628D02*
X180461905Y-58358628D01*
X181366667Y-57834819D02*
X181985714Y-57834819D01*
X181985714Y-57834819D02*
X181652381Y-58215771D01*
X181652381Y-58215771D02*
X181795238Y-58215771D01*
X181795238Y-58215771D02*
X181890476Y-58263390D01*
X181890476Y-58263390D02*
X181938095Y-58311009D01*
X181938095Y-58311009D02*
X181985714Y-58406247D01*
X181985714Y-58406247D02*
X181985714Y-58644342D01*
X181985714Y-58644342D02*
X181938095Y-58739580D01*
X181938095Y-58739580D02*
X181890476Y-58787200D01*
X181890476Y-58787200D02*
X181795238Y-58834819D01*
X181795238Y-58834819D02*
X181509524Y-58834819D01*
X181509524Y-58834819D02*
X181414286Y-58787200D01*
X181414286Y-58787200D02*
X181366667Y-58739580D01*
X161758095Y-77004819D02*
X161758095Y-77814342D01*
X161758095Y-77814342D02*
X161805714Y-77909580D01*
X161805714Y-77909580D02*
X161853333Y-77957200D01*
X161853333Y-77957200D02*
X161948571Y-78004819D01*
X161948571Y-78004819D02*
X162139047Y-78004819D01*
X162139047Y-78004819D02*
X162234285Y-77957200D01*
X162234285Y-77957200D02*
X162281904Y-77909580D01*
X162281904Y-77909580D02*
X162329523Y-77814342D01*
X162329523Y-77814342D02*
X162329523Y-77004819D01*
X163329523Y-78004819D02*
X162758095Y-78004819D01*
X163043809Y-78004819D02*
X163043809Y-77004819D01*
X163043809Y-77004819D02*
X162948571Y-77147676D01*
X162948571Y-77147676D02*
X162853333Y-77242914D01*
X162853333Y-77242914D02*
X162758095Y-77290533D01*
X106568095Y-55284819D02*
X107139523Y-55284819D01*
X106853809Y-56284819D02*
X106853809Y-55284819D01*
X107996666Y-56284819D02*
X107425238Y-56284819D01*
X107710952Y-56284819D02*
X107710952Y-55284819D01*
X107710952Y-55284819D02*
X107615714Y-55427676D01*
X107615714Y-55427676D02*
X107520476Y-55522914D01*
X107520476Y-55522914D02*
X107425238Y-55570533D01*
X119237200Y-86472856D02*
X119284819Y-86329999D01*
X119284819Y-86329999D02*
X119284819Y-86091904D01*
X119284819Y-86091904D02*
X119237200Y-85996666D01*
X119237200Y-85996666D02*
X119189580Y-85949047D01*
X119189580Y-85949047D02*
X119094342Y-85901428D01*
X119094342Y-85901428D02*
X118999104Y-85901428D01*
X118999104Y-85901428D02*
X118903866Y-85949047D01*
X118903866Y-85949047D02*
X118856247Y-85996666D01*
X118856247Y-85996666D02*
X118808628Y-86091904D01*
X118808628Y-86091904D02*
X118761009Y-86282380D01*
X118761009Y-86282380D02*
X118713390Y-86377618D01*
X118713390Y-86377618D02*
X118665771Y-86425237D01*
X118665771Y-86425237D02*
X118570533Y-86472856D01*
X118570533Y-86472856D02*
X118475295Y-86472856D01*
X118475295Y-86472856D02*
X118380057Y-86425237D01*
X118380057Y-86425237D02*
X118332438Y-86377618D01*
X118332438Y-86377618D02*
X118284819Y-86282380D01*
X118284819Y-86282380D02*
X118284819Y-86044285D01*
X118284819Y-86044285D02*
X118332438Y-85901428D01*
X119237200Y-85091904D02*
X119284819Y-85187142D01*
X119284819Y-85187142D02*
X119284819Y-85377618D01*
X119284819Y-85377618D02*
X119237200Y-85472856D01*
X119237200Y-85472856D02*
X119141961Y-85520475D01*
X119141961Y-85520475D02*
X118761009Y-85520475D01*
X118761009Y-85520475D02*
X118665771Y-85472856D01*
X118665771Y-85472856D02*
X118618152Y-85377618D01*
X118618152Y-85377618D02*
X118618152Y-85187142D01*
X118618152Y-85187142D02*
X118665771Y-85091904D01*
X118665771Y-85091904D02*
X118761009Y-85044285D01*
X118761009Y-85044285D02*
X118856247Y-85044285D01*
X118856247Y-85044285D02*
X118951485Y-85520475D01*
X119237200Y-84187142D02*
X119284819Y-84282380D01*
X119284819Y-84282380D02*
X119284819Y-84472856D01*
X119284819Y-84472856D02*
X119237200Y-84568094D01*
X119237200Y-84568094D02*
X119189580Y-84615713D01*
X119189580Y-84615713D02*
X119094342Y-84663332D01*
X119094342Y-84663332D02*
X118808628Y-84663332D01*
X118808628Y-84663332D02*
X118713390Y-84615713D01*
X118713390Y-84615713D02*
X118665771Y-84568094D01*
X118665771Y-84568094D02*
X118618152Y-84472856D01*
X118618152Y-84472856D02*
X118618152Y-84282380D01*
X118618152Y-84282380D02*
X118665771Y-84187142D01*
X96115714Y-100784819D02*
X95544286Y-100784819D01*
X95830000Y-100784819D02*
X95830000Y-99784819D01*
X95830000Y-99784819D02*
X95734762Y-99927676D01*
X95734762Y-99927676D02*
X95639524Y-100022914D01*
X95639524Y-100022914D02*
X95544286Y-100070533D01*
X97284819Y-86139523D02*
X96284819Y-86139523D01*
X96284819Y-86139523D02*
X96284819Y-85758571D01*
X96284819Y-85758571D02*
X96332438Y-85663333D01*
X96332438Y-85663333D02*
X96380057Y-85615714D01*
X96380057Y-85615714D02*
X96475295Y-85568095D01*
X96475295Y-85568095D02*
X96618152Y-85568095D01*
X96618152Y-85568095D02*
X96713390Y-85615714D01*
X96713390Y-85615714D02*
X96761009Y-85663333D01*
X96761009Y-85663333D02*
X96808628Y-85758571D01*
X96808628Y-85758571D02*
X96808628Y-86139523D01*
X97284819Y-85139523D02*
X96618152Y-85139523D01*
X96808628Y-85139523D02*
X96713390Y-85091904D01*
X96713390Y-85091904D02*
X96665771Y-85044285D01*
X96665771Y-85044285D02*
X96618152Y-84949047D01*
X96618152Y-84949047D02*
X96618152Y-84853809D01*
X97284819Y-84520475D02*
X96618152Y-84520475D01*
X96284819Y-84520475D02*
X96332438Y-84568094D01*
X96332438Y-84568094D02*
X96380057Y-84520475D01*
X96380057Y-84520475D02*
X96332438Y-84472856D01*
X96332438Y-84472856D02*
X96284819Y-84520475D01*
X96284819Y-84520475D02*
X96380057Y-84520475D01*
X183054761Y-67110057D02*
X182959523Y-67062438D01*
X182959523Y-67062438D02*
X182864285Y-66967200D01*
X182864285Y-66967200D02*
X182721428Y-66824342D01*
X182721428Y-66824342D02*
X182626190Y-66776723D01*
X182626190Y-66776723D02*
X182530952Y-66776723D01*
X182578571Y-67014819D02*
X182483333Y-66967200D01*
X182483333Y-66967200D02*
X182388095Y-66871961D01*
X182388095Y-66871961D02*
X182340476Y-66681485D01*
X182340476Y-66681485D02*
X182340476Y-66348152D01*
X182340476Y-66348152D02*
X182388095Y-66157676D01*
X182388095Y-66157676D02*
X182483333Y-66062438D01*
X182483333Y-66062438D02*
X182578571Y-66014819D01*
X182578571Y-66014819D02*
X182769047Y-66014819D01*
X182769047Y-66014819D02*
X182864285Y-66062438D01*
X182864285Y-66062438D02*
X182959523Y-66157676D01*
X182959523Y-66157676D02*
X183007142Y-66348152D01*
X183007142Y-66348152D02*
X183007142Y-66681485D01*
X183007142Y-66681485D02*
X182959523Y-66871961D01*
X182959523Y-66871961D02*
X182864285Y-66967200D01*
X182864285Y-66967200D02*
X182769047Y-67014819D01*
X182769047Y-67014819D02*
X182578571Y-67014819D01*
X183959523Y-67014819D02*
X183388095Y-67014819D01*
X183673809Y-67014819D02*
X183673809Y-66014819D01*
X183673809Y-66014819D02*
X183578571Y-66157676D01*
X183578571Y-66157676D02*
X183483333Y-66252914D01*
X183483333Y-66252914D02*
X183388095Y-66300533D01*
D11*
%TO.C,C3*%
X189240000Y-97710000D02*
G75*
G02*
X184000000Y-97710000I-2620000J0D01*
G01*
X184000000Y-97710000D02*
G75*
G02*
X189240000Y-97710000I2620000J0D01*
G01*
%TO.C,F2*%
X171060000Y-84490000D02*
X171060000Y-90090000D01*
X171060000Y-84490000D02*
X194760000Y-84490000D01*
X171060000Y-90090000D02*
X194760000Y-90090000D01*
X194760000Y-84490000D02*
X194760000Y-90090000D01*
%TO.C,J1*%
X197890000Y-80540000D02*
X199270000Y-80540000D01*
X197890000Y-81920000D02*
X197890000Y-80540000D01*
X197890000Y-83190000D02*
X197890000Y-85840000D01*
X197890000Y-83190000D02*
X200650000Y-83190000D01*
X197890000Y-85840000D02*
X200650000Y-85840000D01*
X200650000Y-83190000D02*
X200650000Y-85840000D01*
%TO.C,F1*%
X171130000Y-76280000D02*
X171130000Y-81880000D01*
X171130000Y-76280000D02*
X194830000Y-76280000D01*
X171130000Y-81880000D02*
X194830000Y-81880000D01*
X194830000Y-76280000D02*
X194830000Y-81880000D01*
%TO.C,Q2*%
X157575000Y-67290000D02*
X157575000Y-72310000D01*
X157575000Y-67290000D02*
X172735000Y-67290000D01*
X157575000Y-68670000D02*
X158170000Y-68670000D01*
X157575000Y-72310000D02*
X158170000Y-72310000D01*
X161190000Y-68670000D02*
X163645000Y-68670000D01*
X161190000Y-72310000D02*
X163645000Y-72310000D01*
X163040000Y-67290000D02*
X163040000Y-68670000D01*
X166665000Y-68670000D02*
X169120000Y-68670000D01*
X166665000Y-72310000D02*
X169120000Y-72310000D01*
X167270000Y-67290000D02*
X167270000Y-68670000D01*
X172140000Y-68670000D02*
X172735000Y-68670000D01*
X172140000Y-72310000D02*
X172735000Y-72310000D01*
X172735000Y-67290000D02*
X172735000Y-72310000D01*
%TO.C,R2*%
X165600000Y-59400000D02*
X172140000Y-59400000D01*
X165600000Y-59730000D02*
X165600000Y-59400000D01*
X165600000Y-61810000D02*
X165600000Y-62140000D01*
X165600000Y-62140000D02*
X172140000Y-62140000D01*
X172140000Y-59400000D02*
X172140000Y-59730000D01*
X172140000Y-62140000D02*
X172140000Y-61810000D01*
%TO.C,R1*%
X152630000Y-59490000D02*
X159170000Y-59490000D01*
X152630000Y-59820000D02*
X152630000Y-59490000D01*
X152630000Y-61900000D02*
X152630000Y-62230000D01*
X152630000Y-62230000D02*
X159170000Y-62230000D01*
X159170000Y-59490000D02*
X159170000Y-59820000D01*
X159170000Y-62230000D02*
X159170000Y-61900000D01*
%TO.C,D1*%
X140410000Y-78930000D02*
X140410000Y-84230000D01*
X140410000Y-84230000D02*
X145610000Y-84230000D01*
X145610000Y-78930000D02*
X140410000Y-78930000D01*
X145610000Y-80580000D02*
X145610000Y-78930000D01*
X145610000Y-84230000D02*
X145610000Y-82580000D01*
X145610000Y-82580000D02*
G75*
G02*
X145610000Y-80580000I0J1000000D01*
G01*
%TO.C,C1*%
X164400000Y-94990000D02*
G75*
G02*
X148160000Y-94990000I-8120000J0D01*
G01*
X148160000Y-94990000D02*
G75*
G02*
X164400000Y-94990000I8120000J0D01*
G01*
%TO.C,C2*%
X179380000Y-100170000D02*
G75*
G02*
X169140000Y-100170000I-5120000J0D01*
G01*
X169140000Y-100170000D02*
G75*
G02*
X179380000Y-100170000I5120000J0D01*
G01*
%TO.C,J2*%
X73350000Y-80565000D02*
X74730000Y-80565000D01*
X73350000Y-81945000D02*
X73350000Y-80565000D01*
X73350000Y-83215000D02*
X73350000Y-85865000D01*
X73350000Y-83215000D02*
X76110000Y-83215000D01*
X73350000Y-85865000D02*
X76110000Y-85865000D01*
X76110000Y-83215000D02*
X76110000Y-85865000D01*
%TO.C,R3*%
X177930000Y-59380000D02*
X184470000Y-59380000D01*
X177930000Y-59710000D02*
X177930000Y-59380000D01*
X177930000Y-61790000D02*
X177930000Y-62120000D01*
X177930000Y-62120000D02*
X184470000Y-62120000D01*
X184470000Y-59380000D02*
X184470000Y-59710000D01*
X184470000Y-62120000D02*
X184470000Y-61790000D01*
%TO.C,U1*%
X157410000Y-78390000D02*
X157410000Y-83010000D01*
X157410000Y-78390000D02*
X167630000Y-78390000D01*
X157410000Y-79770000D02*
X167630000Y-79770000D01*
X157410000Y-83010000D02*
X167630000Y-83010000D01*
X160670000Y-78390000D02*
X160670000Y-79770000D01*
X164370000Y-78390000D02*
X164370000Y-79770000D01*
X167630000Y-78390000D02*
X167630000Y-83010000D01*
%TO.C,T1*%
X84210000Y-57210000D02*
X84210000Y-113450000D01*
X84210000Y-57210000D02*
X131450000Y-57210000D01*
X131450000Y-113450000D02*
X84210000Y-113450000D01*
X131450000Y-113450000D02*
X131450000Y-57210000D01*
%TO.C,Q1*%
X175565000Y-67400000D02*
X175565000Y-72420000D01*
X175565000Y-67400000D02*
X190725000Y-67400000D01*
X175565000Y-68780000D02*
X176160000Y-68780000D01*
X175565000Y-72420000D02*
X176160000Y-72420000D01*
X179180000Y-68780000D02*
X181635000Y-68780000D01*
X179180000Y-72420000D02*
X181635000Y-72420000D01*
X181030000Y-67400000D02*
X181030000Y-68780000D01*
X184655000Y-68780000D02*
X187110000Y-68780000D01*
X184655000Y-72420000D02*
X187110000Y-72420000D01*
X185260000Y-67400000D02*
X185260000Y-68780000D01*
X190130000Y-68780000D02*
X190725000Y-68780000D01*
X190130000Y-72420000D02*
X190725000Y-72420000D01*
X190725000Y-67400000D02*
X190725000Y-72420000D01*
%TD*%
M02*
