%TF.GenerationSoftware,KiCad,Pcbnew,9.0.2*%
%TF.CreationDate,2025-07-03T13:44:50+05:30*%
%TF.ProjectId,Battery Charger and Protection,42617474-6572-4792-9043-686172676572,rev?*%
%TF.SameCoordinates,Original*%
%TF.FileFunction,Copper,L2,Inr*%
%TF.FilePolarity,Positive*%
%FSLAX46Y46*%
G04 Gerber Fmt 4.6, Leading zero omitted, Abs format (unit mm)*
G04 Created by KiCad (PCBNEW 9.0.2) date 2025-07-03 13:44:50*
%MOMM*%
%LPD*%
G01*
G04 APERTURE LIST*
%TA.AperFunction,ComponentPad*%
%ADD10R,1.700000X1.700000*%
%TD*%
%TA.AperFunction,ComponentPad*%
%ADD11C,1.700000*%
%TD*%
%TA.AperFunction,ViaPad*%
%ADD12C,0.600000*%
%TD*%
G04 APERTURE END LIST*
D10*
%TO.N,VCC*%
%TO.C,J2*%
X46000000Y-48000000D03*
D11*
%TO.N,GND*%
X46000000Y-50540000D03*
%TO.N,/SDA*%
X46000000Y-53080000D03*
%TO.N,/SCL*%
X46000000Y-55620000D03*
%TO.N,/INT*%
X46000000Y-58160000D03*
%TO.N,/CE*%
X46000000Y-60700000D03*
%TD*%
D10*
%TO.N,VCC*%
%TO.C,J6*%
X68000000Y-74000000D03*
D11*
%TO.N,GND*%
X70540000Y-74000000D03*
X73080000Y-74000000D03*
X75620000Y-74000000D03*
%TD*%
D12*
%TO.N,GND*%
X60210000Y-58110000D03*
X59410000Y-58910000D03*
X60270000Y-59720000D03*
X64000000Y-56000000D03*
X79000000Y-51000000D03*
X91000000Y-50000000D03*
X60980000Y-58110000D03*
X67729692Y-67609692D03*
X60990000Y-58920000D03*
X59460000Y-59710000D03*
X60220000Y-58920000D03*
X61040000Y-59720000D03*
X50000000Y-50000000D03*
X59400000Y-58100000D03*
X61000000Y-45000000D03*
X60000000Y-51000000D03*
%TO.N,VCC*%
X58465421Y-55487872D03*
X51790000Y-67880000D03*
X51810000Y-70020000D03*
X63655868Y-58261714D03*
%TO.N,/CE*%
X59000000Y-64000000D03*
X57000000Y-63000000D03*
X51046232Y-58857228D03*
%TO.N,/INT*%
X50000000Y-69000000D03*
%TO.N,/SDA*%
X56000000Y-62000000D03*
X53000000Y-60000000D03*
%TO.N,/SCL*%
X50992089Y-63000000D03*
X54000000Y-61000000D03*
X56000000Y-61000000D03*
%TO.N,/REGN*%
X58998442Y-54618753D03*
X61150016Y-54625784D03*
%TO.N,Net-(U2-COUT)*%
X80000000Y-48000000D03*
X80000000Y-52000000D03*
%TO.N,Net-(U2-V-)*%
X84254483Y-47254483D03*
X86000000Y-47000000D03*
%TO.N,Net-(Q1-Pad5)*%
X87000000Y-53000000D03*
X87010000Y-55370000D03*
%TO.N,Net-(D201-A)*%
X61000000Y-66000000D03*
X58000000Y-66000000D03*
%TO.N,Net-(D201-K)*%
X55857817Y-58410929D03*
X54000000Y-62000000D03*
%TO.N,Net-(U200-ILIM)*%
X54254683Y-56994525D03*
X60715634Y-62696097D03*
%TO.N,Net-(U200-TS)*%
X56000000Y-60000000D03*
X52785144Y-53785144D03*
X62000000Y-62000000D03*
X52785144Y-51893327D03*
%TO.N,Net-(U200-OTG)*%
X59000000Y-62400000D03*
X59000000Y-69000000D03*
%TD*%
%TA.AperFunction,Conductor*%
%TO.N,GND*%
G36*
X91943039Y-43019685D02*
G01*
X91988794Y-43072489D01*
X92000000Y-43124000D01*
X92000000Y-75876000D01*
X91980315Y-75943039D01*
X91927511Y-75988794D01*
X91876000Y-76000000D01*
X44124000Y-76000000D01*
X44056961Y-75980315D01*
X44011206Y-75927511D01*
X44000000Y-75876000D01*
X44000000Y-73102135D01*
X66649500Y-73102135D01*
X66649500Y-74897870D01*
X66649501Y-74897876D01*
X66655908Y-74957483D01*
X66706202Y-75092328D01*
X66706206Y-75092335D01*
X66792452Y-75207544D01*
X66792455Y-75207547D01*
X66907664Y-75293793D01*
X66907671Y-75293797D01*
X67042517Y-75344091D01*
X67042516Y-75344091D01*
X67049444Y-75344835D01*
X67102127Y-75350500D01*
X68897872Y-75350499D01*
X68957483Y-75344091D01*
X69092331Y-75293796D01*
X69207546Y-75207546D01*
X69293796Y-75092331D01*
X69344091Y-74957483D01*
X69350500Y-74897873D01*
X69350499Y-74873979D01*
X69353330Y-74860963D01*
X69363940Y-74841525D01*
X69370179Y-74820275D01*
X69386803Y-74799643D01*
X69386808Y-74799636D01*
X69386811Y-74799634D01*
X69386818Y-74799626D01*
X70057037Y-74129408D01*
X70074075Y-74192993D01*
X70139901Y-74307007D01*
X70232993Y-74400099D01*
X70347007Y-74465925D01*
X70410590Y-74482962D01*
X69778282Y-75115269D01*
X69778282Y-75115270D01*
X69832449Y-75154624D01*
X70021782Y-75251095D01*
X70223870Y-75316757D01*
X70433754Y-75350000D01*
X70646246Y-75350000D01*
X70856127Y-75316757D01*
X70856130Y-75316757D01*
X71058217Y-75251095D01*
X71247554Y-75154622D01*
X71301716Y-75115270D01*
X71301717Y-75115270D01*
X70669408Y-74482962D01*
X70732993Y-74465925D01*
X70847007Y-74400099D01*
X70940099Y-74307007D01*
X71005925Y-74192993D01*
X71022962Y-74129409D01*
X71655270Y-74761717D01*
X71655270Y-74761716D01*
X71694622Y-74707554D01*
X71699514Y-74697954D01*
X71747488Y-74647157D01*
X71815308Y-74630361D01*
X71881444Y-74652897D01*
X71920486Y-74697954D01*
X71925375Y-74707550D01*
X71964728Y-74761716D01*
X72597037Y-74129408D01*
X72614075Y-74192993D01*
X72679901Y-74307007D01*
X72772993Y-74400099D01*
X72887007Y-74465925D01*
X72950590Y-74482962D01*
X72318282Y-75115269D01*
X72318282Y-75115270D01*
X72372449Y-75154624D01*
X72561782Y-75251095D01*
X72763870Y-75316757D01*
X72973754Y-75350000D01*
X73186246Y-75350000D01*
X73396127Y-75316757D01*
X73396130Y-75316757D01*
X73598217Y-75251095D01*
X73787554Y-75154622D01*
X73841716Y-75115270D01*
X73841717Y-75115270D01*
X73209408Y-74482962D01*
X73272993Y-74465925D01*
X73387007Y-74400099D01*
X73480099Y-74307007D01*
X73545925Y-74192993D01*
X73562962Y-74129408D01*
X74195270Y-74761717D01*
X74195270Y-74761716D01*
X74234622Y-74707554D01*
X74239514Y-74697954D01*
X74287488Y-74647157D01*
X74355308Y-74630361D01*
X74421444Y-74652897D01*
X74460486Y-74697954D01*
X74465375Y-74707550D01*
X74504728Y-74761716D01*
X75137037Y-74129408D01*
X75154075Y-74192993D01*
X75219901Y-74307007D01*
X75312993Y-74400099D01*
X75427007Y-74465925D01*
X75490590Y-74482962D01*
X74858282Y-75115269D01*
X74858282Y-75115270D01*
X74912449Y-75154624D01*
X75101782Y-75251095D01*
X75303870Y-75316757D01*
X75513754Y-75350000D01*
X75726246Y-75350000D01*
X75936127Y-75316757D01*
X75936130Y-75316757D01*
X76138217Y-75251095D01*
X76327554Y-75154622D01*
X76381716Y-75115270D01*
X76381717Y-75115270D01*
X75749408Y-74482962D01*
X75812993Y-74465925D01*
X75927007Y-74400099D01*
X76020099Y-74307007D01*
X76085925Y-74192993D01*
X76102962Y-74129408D01*
X76735270Y-74761717D01*
X76735270Y-74761716D01*
X76774622Y-74707554D01*
X76871095Y-74518217D01*
X76936757Y-74316130D01*
X76936757Y-74316127D01*
X76970000Y-74106246D01*
X76970000Y-73893753D01*
X76936757Y-73683872D01*
X76936757Y-73683869D01*
X76871095Y-73481782D01*
X76774624Y-73292449D01*
X76735270Y-73238282D01*
X76735269Y-73238282D01*
X76102962Y-73870590D01*
X76085925Y-73807007D01*
X76020099Y-73692993D01*
X75927007Y-73599901D01*
X75812993Y-73534075D01*
X75749409Y-73517037D01*
X76381716Y-72884728D01*
X76327550Y-72845375D01*
X76138217Y-72748904D01*
X75936129Y-72683242D01*
X75726246Y-72650000D01*
X75513754Y-72650000D01*
X75303872Y-72683242D01*
X75303869Y-72683242D01*
X75101782Y-72748904D01*
X74912439Y-72845380D01*
X74858282Y-72884727D01*
X74858282Y-72884728D01*
X75490591Y-73517037D01*
X75427007Y-73534075D01*
X75312993Y-73599901D01*
X75219901Y-73692993D01*
X75154075Y-73807007D01*
X75137037Y-73870591D01*
X74504728Y-73238282D01*
X74504727Y-73238282D01*
X74465380Y-73292440D01*
X74460483Y-73302051D01*
X74412506Y-73352845D01*
X74344684Y-73369638D01*
X74278550Y-73347098D01*
X74239516Y-73302048D01*
X74234626Y-73292452D01*
X74195270Y-73238282D01*
X74195269Y-73238282D01*
X73562962Y-73870590D01*
X73545925Y-73807007D01*
X73480099Y-73692993D01*
X73387007Y-73599901D01*
X73272993Y-73534075D01*
X73209409Y-73517037D01*
X73841716Y-72884728D01*
X73787550Y-72845375D01*
X73598217Y-72748904D01*
X73396129Y-72683242D01*
X73186246Y-72650000D01*
X72973754Y-72650000D01*
X72763872Y-72683242D01*
X72763869Y-72683242D01*
X72561782Y-72748904D01*
X72372439Y-72845380D01*
X72318282Y-72884727D01*
X72318282Y-72884728D01*
X72950591Y-73517037D01*
X72887007Y-73534075D01*
X72772993Y-73599901D01*
X72679901Y-73692993D01*
X72614075Y-73807007D01*
X72597037Y-73870591D01*
X71964728Y-73238282D01*
X71964727Y-73238282D01*
X71925380Y-73292440D01*
X71920483Y-73302051D01*
X71872506Y-73352845D01*
X71804684Y-73369638D01*
X71738550Y-73347098D01*
X71699516Y-73302048D01*
X71694626Y-73292452D01*
X71655270Y-73238282D01*
X71655269Y-73238282D01*
X71022962Y-73870590D01*
X71005925Y-73807007D01*
X70940099Y-73692993D01*
X70847007Y-73599901D01*
X70732993Y-73534075D01*
X70669409Y-73517037D01*
X71301716Y-72884728D01*
X71247550Y-72845375D01*
X71058217Y-72748904D01*
X70856129Y-72683242D01*
X70646246Y-72650000D01*
X70433754Y-72650000D01*
X70223872Y-72683242D01*
X70223869Y-72683242D01*
X70021782Y-72748904D01*
X69832439Y-72845380D01*
X69778282Y-72884727D01*
X69778282Y-72884728D01*
X70410591Y-73517037D01*
X70347007Y-73534075D01*
X70232993Y-73599901D01*
X70139901Y-73692993D01*
X70074075Y-73807007D01*
X70057037Y-73870591D01*
X69386818Y-73200372D01*
X69353333Y-73139049D01*
X69353330Y-73139036D01*
X69350499Y-73126015D01*
X69350499Y-73102128D01*
X69344091Y-73042517D01*
X69315926Y-72967002D01*
X69293798Y-72907673D01*
X69293793Y-72907664D01*
X69207547Y-72792455D01*
X69207544Y-72792452D01*
X69092335Y-72706206D01*
X69092328Y-72706202D01*
X68957482Y-72655908D01*
X68957483Y-72655908D01*
X68897883Y-72649501D01*
X68897881Y-72649500D01*
X68897873Y-72649500D01*
X68897864Y-72649500D01*
X67102129Y-72649500D01*
X67102123Y-72649501D01*
X67042516Y-72655908D01*
X66907671Y-72706202D01*
X66907664Y-72706206D01*
X66792455Y-72792452D01*
X66792452Y-72792455D01*
X66706206Y-72907664D01*
X66706202Y-72907671D01*
X66655908Y-73042517D01*
X66649501Y-73102116D01*
X66649500Y-73102135D01*
X44000000Y-73102135D01*
X44000000Y-69941153D01*
X51009500Y-69941153D01*
X51009500Y-70098846D01*
X51040261Y-70253489D01*
X51040264Y-70253501D01*
X51100602Y-70399172D01*
X51100609Y-70399185D01*
X51188210Y-70530288D01*
X51188213Y-70530292D01*
X51299707Y-70641786D01*
X51299711Y-70641789D01*
X51430814Y-70729390D01*
X51430827Y-70729397D01*
X51576498Y-70789735D01*
X51576503Y-70789737D01*
X51731153Y-70820499D01*
X51731156Y-70820500D01*
X51731158Y-70820500D01*
X51888844Y-70820500D01*
X51888845Y-70820499D01*
X52043497Y-70789737D01*
X52189179Y-70729394D01*
X52320289Y-70641789D01*
X52431789Y-70530289D01*
X52519394Y-70399179D01*
X52579737Y-70253497D01*
X52610500Y-70098842D01*
X52610500Y-69941158D01*
X52610500Y-69941155D01*
X52610499Y-69941153D01*
X52579738Y-69786510D01*
X52579737Y-69786503D01*
X52547796Y-69709390D01*
X52519397Y-69640827D01*
X52519390Y-69640814D01*
X52431789Y-69509711D01*
X52431786Y-69509707D01*
X52320292Y-69398213D01*
X52320288Y-69398210D01*
X52189185Y-69310609D01*
X52189172Y-69310602D01*
X52043501Y-69250264D01*
X52043489Y-69250261D01*
X51888845Y-69219500D01*
X51888842Y-69219500D01*
X51731158Y-69219500D01*
X51731155Y-69219500D01*
X51576510Y-69250261D01*
X51576498Y-69250264D01*
X51430827Y-69310602D01*
X51430814Y-69310609D01*
X51299711Y-69398210D01*
X51299707Y-69398213D01*
X51188213Y-69509707D01*
X51188210Y-69509711D01*
X51100609Y-69640814D01*
X51100602Y-69640827D01*
X51040264Y-69786498D01*
X51040261Y-69786510D01*
X51009500Y-69941153D01*
X44000000Y-69941153D01*
X44000000Y-68921153D01*
X49199500Y-68921153D01*
X49199500Y-69078846D01*
X49230261Y-69233489D01*
X49230264Y-69233501D01*
X49290602Y-69379172D01*
X49290609Y-69379185D01*
X49378210Y-69510288D01*
X49378213Y-69510292D01*
X49489707Y-69621786D01*
X49489711Y-69621789D01*
X49620814Y-69709390D01*
X49620827Y-69709397D01*
X49766498Y-69769735D01*
X49766503Y-69769737D01*
X49921153Y-69800499D01*
X49921156Y-69800500D01*
X49921158Y-69800500D01*
X50078844Y-69800500D01*
X50078845Y-69800499D01*
X50233497Y-69769737D01*
X50379179Y-69709394D01*
X50510289Y-69621789D01*
X50621789Y-69510289D01*
X50709394Y-69379179D01*
X50769737Y-69233497D01*
X50800500Y-69078842D01*
X50800500Y-68921158D01*
X50800500Y-68921155D01*
X50800499Y-68921153D01*
X58199500Y-68921153D01*
X58199500Y-69078846D01*
X58230261Y-69233489D01*
X58230264Y-69233501D01*
X58290602Y-69379172D01*
X58290609Y-69379185D01*
X58378210Y-69510288D01*
X58378213Y-69510292D01*
X58489707Y-69621786D01*
X58489711Y-69621789D01*
X58620814Y-69709390D01*
X58620827Y-69709397D01*
X58766498Y-69769735D01*
X58766503Y-69769737D01*
X58921153Y-69800499D01*
X58921156Y-69800500D01*
X58921158Y-69800500D01*
X59078844Y-69800500D01*
X59078845Y-69800499D01*
X59233497Y-69769737D01*
X59379179Y-69709394D01*
X59510289Y-69621789D01*
X59621789Y-69510289D01*
X59709394Y-69379179D01*
X59769737Y-69233497D01*
X59800500Y-69078842D01*
X59800500Y-68921158D01*
X59800500Y-68921155D01*
X59800499Y-68921153D01*
X59769738Y-68766510D01*
X59769737Y-68766503D01*
X59734114Y-68680500D01*
X59709397Y-68620827D01*
X59709390Y-68620814D01*
X59621789Y-68489711D01*
X59621786Y-68489707D01*
X59510292Y-68378213D01*
X59510288Y-68378210D01*
X59379185Y-68290609D01*
X59379172Y-68290602D01*
X59233501Y-68230264D01*
X59233489Y-68230261D01*
X59078845Y-68199500D01*
X59078842Y-68199500D01*
X58921158Y-68199500D01*
X58921155Y-68199500D01*
X58766510Y-68230261D01*
X58766498Y-68230264D01*
X58620827Y-68290602D01*
X58620814Y-68290609D01*
X58489711Y-68378210D01*
X58489707Y-68378213D01*
X58378213Y-68489707D01*
X58378210Y-68489711D01*
X58290609Y-68620814D01*
X58290602Y-68620827D01*
X58230264Y-68766498D01*
X58230261Y-68766510D01*
X58199500Y-68921153D01*
X50800499Y-68921153D01*
X50769738Y-68766510D01*
X50769737Y-68766503D01*
X50734114Y-68680500D01*
X50709397Y-68620827D01*
X50709390Y-68620814D01*
X50621789Y-68489711D01*
X50621786Y-68489707D01*
X50510292Y-68378213D01*
X50510288Y-68378210D01*
X50379185Y-68290609D01*
X50379172Y-68290602D01*
X50233501Y-68230264D01*
X50233489Y-68230261D01*
X50078845Y-68199500D01*
X50078842Y-68199500D01*
X49921158Y-68199500D01*
X49921155Y-68199500D01*
X49766510Y-68230261D01*
X49766498Y-68230264D01*
X49620827Y-68290602D01*
X49620814Y-68290609D01*
X49489711Y-68378210D01*
X49489707Y-68378213D01*
X49378213Y-68489707D01*
X49378210Y-68489711D01*
X49290609Y-68620814D01*
X49290602Y-68620827D01*
X49230264Y-68766498D01*
X49230261Y-68766510D01*
X49199500Y-68921153D01*
X44000000Y-68921153D01*
X44000000Y-67801153D01*
X50989500Y-67801153D01*
X50989500Y-67958846D01*
X51020261Y-68113489D01*
X51020264Y-68113501D01*
X51080602Y-68259172D01*
X51080609Y-68259185D01*
X51168210Y-68390288D01*
X51168213Y-68390292D01*
X51279707Y-68501786D01*
X51279711Y-68501789D01*
X51410814Y-68589390D01*
X51410827Y-68589397D01*
X51556498Y-68649735D01*
X51556503Y-68649737D01*
X51711153Y-68680499D01*
X51711156Y-68680500D01*
X51711158Y-68680500D01*
X51868844Y-68680500D01*
X51868845Y-68680499D01*
X52023497Y-68649737D01*
X52169179Y-68589394D01*
X52300289Y-68501789D01*
X52411789Y-68390289D01*
X52499394Y-68259179D01*
X52559737Y-68113497D01*
X52590500Y-67958842D01*
X52590500Y-67801158D01*
X52590500Y-67801155D01*
X52590499Y-67801153D01*
X52559738Y-67646510D01*
X52559737Y-67646503D01*
X52559735Y-67646498D01*
X52499397Y-67500827D01*
X52499390Y-67500814D01*
X52411789Y-67369711D01*
X52411786Y-67369707D01*
X52300292Y-67258213D01*
X52300288Y-67258210D01*
X52169185Y-67170609D01*
X52169172Y-67170602D01*
X52023501Y-67110264D01*
X52023489Y-67110261D01*
X51868845Y-67079500D01*
X51868842Y-67079500D01*
X51711158Y-67079500D01*
X51711155Y-67079500D01*
X51556510Y-67110261D01*
X51556498Y-67110264D01*
X51410827Y-67170602D01*
X51410814Y-67170609D01*
X51279711Y-67258210D01*
X51279707Y-67258213D01*
X51168213Y-67369707D01*
X51168210Y-67369711D01*
X51080609Y-67500814D01*
X51080602Y-67500827D01*
X51020264Y-67646498D01*
X51020261Y-67646510D01*
X50989500Y-67801153D01*
X44000000Y-67801153D01*
X44000000Y-65921153D01*
X57199500Y-65921153D01*
X57199500Y-66078846D01*
X57230261Y-66233489D01*
X57230264Y-66233501D01*
X57290602Y-66379172D01*
X57290609Y-66379185D01*
X57378210Y-66510288D01*
X57378213Y-66510292D01*
X57489707Y-66621786D01*
X57489711Y-66621789D01*
X57620814Y-66709390D01*
X57620827Y-66709397D01*
X57766498Y-66769735D01*
X57766503Y-66769737D01*
X57921153Y-66800499D01*
X57921156Y-66800500D01*
X57921158Y-66800500D01*
X58078844Y-66800500D01*
X58078845Y-66800499D01*
X58233497Y-66769737D01*
X58379179Y-66709394D01*
X58510289Y-66621789D01*
X58621789Y-66510289D01*
X58709394Y-66379179D01*
X58769737Y-66233497D01*
X58800500Y-66078842D01*
X58800500Y-65921158D01*
X58800500Y-65921155D01*
X58800499Y-65921153D01*
X60199500Y-65921153D01*
X60199500Y-66078846D01*
X60230261Y-66233489D01*
X60230264Y-66233501D01*
X60290602Y-66379172D01*
X60290609Y-66379185D01*
X60378210Y-66510288D01*
X60378213Y-66510292D01*
X60489707Y-66621786D01*
X60489711Y-66621789D01*
X60620814Y-66709390D01*
X60620827Y-66709397D01*
X60766498Y-66769735D01*
X60766503Y-66769737D01*
X60921153Y-66800499D01*
X60921156Y-66800500D01*
X60921158Y-66800500D01*
X61078844Y-66800500D01*
X61078845Y-66800499D01*
X61233497Y-66769737D01*
X61379179Y-66709394D01*
X61510289Y-66621789D01*
X61621789Y-66510289D01*
X61709394Y-66379179D01*
X61769737Y-66233497D01*
X61800500Y-66078842D01*
X61800500Y-65921158D01*
X61800500Y-65921155D01*
X61800499Y-65921153D01*
X61769738Y-65766510D01*
X61769737Y-65766503D01*
X61769735Y-65766498D01*
X61709397Y-65620827D01*
X61709390Y-65620814D01*
X61621789Y-65489711D01*
X61621786Y-65489707D01*
X61510292Y-65378213D01*
X61510288Y-65378210D01*
X61379185Y-65290609D01*
X61379172Y-65290602D01*
X61233501Y-65230264D01*
X61233489Y-65230261D01*
X61078845Y-65199500D01*
X61078842Y-65199500D01*
X60921158Y-65199500D01*
X60921155Y-65199500D01*
X60766510Y-65230261D01*
X60766498Y-65230264D01*
X60620827Y-65290602D01*
X60620814Y-65290609D01*
X60489711Y-65378210D01*
X60489707Y-65378213D01*
X60378213Y-65489707D01*
X60378210Y-65489711D01*
X60290609Y-65620814D01*
X60290602Y-65620827D01*
X60230264Y-65766498D01*
X60230261Y-65766510D01*
X60199500Y-65921153D01*
X58800499Y-65921153D01*
X58769738Y-65766510D01*
X58769737Y-65766503D01*
X58769735Y-65766498D01*
X58709397Y-65620827D01*
X58709390Y-65620814D01*
X58621789Y-65489711D01*
X58621786Y-65489707D01*
X58510292Y-65378213D01*
X58510288Y-65378210D01*
X58379185Y-65290609D01*
X58379172Y-65290602D01*
X58233501Y-65230264D01*
X58233489Y-65230261D01*
X58078845Y-65199500D01*
X58078842Y-65199500D01*
X57921158Y-65199500D01*
X57921155Y-65199500D01*
X57766510Y-65230261D01*
X57766498Y-65230264D01*
X57620827Y-65290602D01*
X57620814Y-65290609D01*
X57489711Y-65378210D01*
X57489707Y-65378213D01*
X57378213Y-65489707D01*
X57378210Y-65489711D01*
X57290609Y-65620814D01*
X57290602Y-65620827D01*
X57230264Y-65766498D01*
X57230261Y-65766510D01*
X57199500Y-65921153D01*
X44000000Y-65921153D01*
X44000000Y-62921153D01*
X50191589Y-62921153D01*
X50191589Y-63078846D01*
X50222350Y-63233489D01*
X50222353Y-63233501D01*
X50282691Y-63379172D01*
X50282698Y-63379185D01*
X50370299Y-63510288D01*
X50370302Y-63510292D01*
X50481796Y-63621786D01*
X50481800Y-63621789D01*
X50612903Y-63709390D01*
X50612916Y-63709397D01*
X50750772Y-63766498D01*
X50758592Y-63769737D01*
X50913242Y-63800499D01*
X50913245Y-63800500D01*
X50913247Y-63800500D01*
X51070933Y-63800500D01*
X51070934Y-63800499D01*
X51225586Y-63769737D01*
X51371268Y-63709394D01*
X51502378Y-63621789D01*
X51613878Y-63510289D01*
X51701483Y-63379179D01*
X51761826Y-63233497D01*
X51792589Y-63078842D01*
X51792589Y-62921158D01*
X51792589Y-62921155D01*
X51792588Y-62921153D01*
X51790427Y-62910288D01*
X51761826Y-62766503D01*
X51746609Y-62729766D01*
X51701486Y-62620827D01*
X51701479Y-62620814D01*
X51613878Y-62489711D01*
X51613875Y-62489707D01*
X51502381Y-62378213D01*
X51502377Y-62378210D01*
X51371274Y-62290609D01*
X51371261Y-62290602D01*
X51225590Y-62230264D01*
X51225578Y-62230261D01*
X51070934Y-62199500D01*
X51070931Y-62199500D01*
X50913247Y-62199500D01*
X50913244Y-62199500D01*
X50758599Y-62230261D01*
X50758587Y-62230264D01*
X50612916Y-62290602D01*
X50612903Y-62290609D01*
X50481800Y-62378210D01*
X50481796Y-62378213D01*
X50370302Y-62489707D01*
X50370299Y-62489711D01*
X50282698Y-62620814D01*
X50282691Y-62620827D01*
X50222353Y-62766498D01*
X50222350Y-62766510D01*
X50191589Y-62921153D01*
X44000000Y-62921153D01*
X44000000Y-47102135D01*
X44649500Y-47102135D01*
X44649500Y-48897870D01*
X44649501Y-48897876D01*
X44655908Y-48957483D01*
X44706202Y-49092328D01*
X44706206Y-49092335D01*
X44792452Y-49207544D01*
X44792455Y-49207547D01*
X44907664Y-49293793D01*
X44907671Y-49293797D01*
X44952618Y-49310561D01*
X45042517Y-49344091D01*
X45102127Y-49350500D01*
X45112685Y-49350499D01*
X45179723Y-49370179D01*
X45200372Y-49386818D01*
X45870591Y-50057037D01*
X45807007Y-50074075D01*
X45692993Y-50139901D01*
X45599901Y-50232993D01*
X45534075Y-50347007D01*
X45517037Y-50410591D01*
X44884728Y-49778282D01*
X44884727Y-49778282D01*
X44845380Y-49832439D01*
X44748904Y-50021782D01*
X44683242Y-50223869D01*
X44683242Y-50223872D01*
X44650000Y-50433753D01*
X44650000Y-50646246D01*
X44683242Y-50856127D01*
X44683242Y-50856130D01*
X44748904Y-51058217D01*
X44845375Y-51247550D01*
X44884728Y-51301716D01*
X45517037Y-50669408D01*
X45534075Y-50732993D01*
X45599901Y-50847007D01*
X45692993Y-50940099D01*
X45807007Y-51005925D01*
X45870590Y-51022962D01*
X45238282Y-51655269D01*
X45238282Y-51655270D01*
X45292452Y-51694626D01*
X45292451Y-51694626D01*
X45301495Y-51699234D01*
X45352292Y-51747208D01*
X45369087Y-51815029D01*
X45346550Y-51881164D01*
X45301499Y-51920202D01*
X45292182Y-51924949D01*
X45120213Y-52049890D01*
X44969890Y-52200213D01*
X44844951Y-52372179D01*
X44748444Y-52561585D01*
X44682753Y-52763760D01*
X44676934Y-52800500D01*
X44649500Y-52973713D01*
X44649500Y-53186287D01*
X44682754Y-53396243D01*
X44733250Y-53551654D01*
X44748444Y-53598414D01*
X44844951Y-53787820D01*
X44969890Y-53959786D01*
X45120213Y-54110109D01*
X45292182Y-54235050D01*
X45300946Y-54239516D01*
X45351742Y-54287491D01*
X45368536Y-54355312D01*
X45345998Y-54421447D01*
X45300946Y-54460484D01*
X45292182Y-54464949D01*
X45120213Y-54589890D01*
X44969890Y-54740213D01*
X44844951Y-54912179D01*
X44748444Y-55101585D01*
X44748443Y-55101587D01*
X44748443Y-55101588D01*
X44739523Y-55129041D01*
X44682753Y-55303760D01*
X44649500Y-55513713D01*
X44649500Y-55726286D01*
X44673891Y-55880289D01*
X44682754Y-55936243D01*
X44739101Y-56109661D01*
X44748444Y-56138414D01*
X44844951Y-56327820D01*
X44969890Y-56499786D01*
X45120213Y-56650109D01*
X45292182Y-56775050D01*
X45300946Y-56779516D01*
X45351742Y-56827491D01*
X45368536Y-56895312D01*
X45345998Y-56961447D01*
X45300946Y-57000484D01*
X45292182Y-57004949D01*
X45120213Y-57129890D01*
X44969890Y-57280213D01*
X44844951Y-57452179D01*
X44748444Y-57641585D01*
X44682753Y-57843760D01*
X44653539Y-58028212D01*
X44649500Y-58053713D01*
X44649500Y-58266287D01*
X44682754Y-58476243D01*
X44737400Y-58644426D01*
X44748444Y-58678414D01*
X44844951Y-58867820D01*
X44969890Y-59039786D01*
X45120213Y-59190109D01*
X45292182Y-59315050D01*
X45300946Y-59319516D01*
X45351742Y-59367491D01*
X45368536Y-59435312D01*
X45345998Y-59501447D01*
X45300946Y-59540484D01*
X45292182Y-59544949D01*
X45120213Y-59669890D01*
X44969890Y-59820213D01*
X44844951Y-59992179D01*
X44748444Y-60181585D01*
X44682753Y-60383760D01*
X44654021Y-60565167D01*
X44649500Y-60593713D01*
X44649500Y-60806287D01*
X44682754Y-61016243D01*
X44703094Y-61078844D01*
X44748444Y-61218414D01*
X44844951Y-61407820D01*
X44969890Y-61579786D01*
X45120213Y-61730109D01*
X45292179Y-61855048D01*
X45292181Y-61855049D01*
X45292184Y-61855051D01*
X45481588Y-61951557D01*
X45683757Y-62017246D01*
X45893713Y-62050500D01*
X45893714Y-62050500D01*
X46106286Y-62050500D01*
X46106287Y-62050500D01*
X46316243Y-62017246D01*
X46518412Y-61951557D01*
X46707816Y-61855051D01*
X46729789Y-61839086D01*
X46879786Y-61730109D01*
X46879788Y-61730106D01*
X46879792Y-61730104D01*
X47030104Y-61579792D01*
X47030106Y-61579788D01*
X47030109Y-61579786D01*
X47155048Y-61407820D01*
X47155047Y-61407820D01*
X47155051Y-61407816D01*
X47251557Y-61218412D01*
X47317246Y-61016243D01*
X47350500Y-60806287D01*
X47350500Y-60593713D01*
X47317246Y-60383757D01*
X47251557Y-60181588D01*
X47155051Y-59992184D01*
X47155047Y-59992179D01*
X47151977Y-59987953D01*
X47103444Y-59921153D01*
X52199500Y-59921153D01*
X52199500Y-60078846D01*
X52230261Y-60233489D01*
X52230264Y-60233501D01*
X52290602Y-60379172D01*
X52290609Y-60379185D01*
X52378210Y-60510288D01*
X52378213Y-60510292D01*
X52489707Y-60621786D01*
X52489711Y-60621789D01*
X52620814Y-60709390D01*
X52620827Y-60709397D01*
X52758683Y-60766498D01*
X52766503Y-60769737D01*
X52921153Y-60800499D01*
X52921156Y-60800500D01*
X53075500Y-60800500D01*
X53142539Y-60820185D01*
X53188294Y-60872989D01*
X53199500Y-60924500D01*
X53199500Y-61078846D01*
X53230261Y-61233489D01*
X53230264Y-61233501D01*
X53290602Y-61379172D01*
X53290609Y-61379185D01*
X53325304Y-61431109D01*
X53346182Y-61497786D01*
X53327698Y-61565167D01*
X53325304Y-61568891D01*
X53290609Y-61620814D01*
X53290602Y-61620827D01*
X53230264Y-61766498D01*
X53230261Y-61766510D01*
X53199500Y-61921153D01*
X53199500Y-62078846D01*
X53230261Y-62233489D01*
X53230264Y-62233501D01*
X53290602Y-62379172D01*
X53290609Y-62379185D01*
X53378210Y-62510288D01*
X53378213Y-62510292D01*
X53489707Y-62621786D01*
X53489711Y-62621789D01*
X53620814Y-62709390D01*
X53620827Y-62709397D01*
X53758647Y-62766483D01*
X53766503Y-62769737D01*
X53921153Y-62800499D01*
X53921156Y-62800500D01*
X53921158Y-62800500D01*
X54078844Y-62800500D01*
X54078845Y-62800499D01*
X54233497Y-62769737D01*
X54379179Y-62709394D01*
X54510289Y-62621789D01*
X54621789Y-62510289D01*
X54709394Y-62379179D01*
X54769737Y-62233497D01*
X54800500Y-62078842D01*
X54800500Y-61921158D01*
X54800500Y-61921155D01*
X54800499Y-61921153D01*
X54769737Y-61766503D01*
X54738298Y-61690602D01*
X54709396Y-61620825D01*
X54709394Y-61620822D01*
X54709394Y-61620821D01*
X54674694Y-61568889D01*
X54653816Y-61502215D01*
X54672300Y-61434835D01*
X54674676Y-61431136D01*
X54709394Y-61379179D01*
X54769737Y-61233497D01*
X54800500Y-61078842D01*
X54800500Y-60921158D01*
X54800500Y-60921155D01*
X54800499Y-60921153D01*
X54769737Y-60766503D01*
X54709794Y-60621786D01*
X54709397Y-60620827D01*
X54709390Y-60620814D01*
X54621789Y-60489711D01*
X54621786Y-60489707D01*
X54510292Y-60378213D01*
X54510288Y-60378210D01*
X54379185Y-60290609D01*
X54379172Y-60290602D01*
X54233501Y-60230264D01*
X54233489Y-60230261D01*
X54078845Y-60199500D01*
X54078842Y-60199500D01*
X53924500Y-60199500D01*
X53857461Y-60179815D01*
X53811706Y-60127011D01*
X53800500Y-60075500D01*
X53800500Y-59921155D01*
X53800499Y-59921153D01*
X53769737Y-59766503D01*
X53769735Y-59766498D01*
X53709397Y-59620827D01*
X53709390Y-59620814D01*
X53621789Y-59489711D01*
X53621786Y-59489707D01*
X53510292Y-59378213D01*
X53510288Y-59378210D01*
X53379185Y-59290609D01*
X53379172Y-59290602D01*
X53233501Y-59230264D01*
X53233489Y-59230261D01*
X53078845Y-59199500D01*
X53078842Y-59199500D01*
X52921158Y-59199500D01*
X52921155Y-59199500D01*
X52766510Y-59230261D01*
X52766498Y-59230264D01*
X52620827Y-59290602D01*
X52620814Y-59290609D01*
X52489711Y-59378210D01*
X52489707Y-59378213D01*
X52378213Y-59489707D01*
X52378210Y-59489711D01*
X52290609Y-59620814D01*
X52290602Y-59620827D01*
X52230264Y-59766498D01*
X52230261Y-59766510D01*
X52199500Y-59921153D01*
X47103444Y-59921153D01*
X47030104Y-59820208D01*
X46879792Y-59669896D01*
X46879786Y-59669890D01*
X46707820Y-59544951D01*
X46707115Y-59544591D01*
X46699054Y-59540485D01*
X46648259Y-59492512D01*
X46631463Y-59424692D01*
X46653999Y-59358556D01*
X46699054Y-59319515D01*
X46707816Y-59315051D01*
X46759000Y-59277864D01*
X46879786Y-59190109D01*
X46879788Y-59190106D01*
X46879792Y-59190104D01*
X47030104Y-59039792D01*
X47030106Y-59039788D01*
X47030109Y-59039786D01*
X47116253Y-58921217D01*
X47155051Y-58867816D01*
X47200620Y-58778381D01*
X50245732Y-58778381D01*
X50245732Y-58936074D01*
X50276493Y-59090717D01*
X50276496Y-59090729D01*
X50336834Y-59236400D01*
X50336841Y-59236413D01*
X50424442Y-59367516D01*
X50424445Y-59367520D01*
X50535939Y-59479014D01*
X50535943Y-59479017D01*
X50667046Y-59566618D01*
X50667059Y-59566625D01*
X50797885Y-59620814D01*
X50812735Y-59626965D01*
X50967385Y-59657727D01*
X50967388Y-59657728D01*
X50967390Y-59657728D01*
X51125076Y-59657728D01*
X51125077Y-59657727D01*
X51279729Y-59626965D01*
X51425411Y-59566622D01*
X51556521Y-59479017D01*
X51668021Y-59367517D01*
X51755626Y-59236407D01*
X51756614Y-59234023D01*
X51774805Y-59190104D01*
X51815969Y-59090725D01*
X51846732Y-58936070D01*
X51846732Y-58778386D01*
X51846732Y-58778383D01*
X51846731Y-58778381D01*
X51820086Y-58644430D01*
X51815969Y-58623731D01*
X51815967Y-58623726D01*
X51755629Y-58478055D01*
X51755622Y-58478042D01*
X51700059Y-58394886D01*
X51668021Y-58346939D01*
X51668018Y-58346935D01*
X51653165Y-58332082D01*
X55057317Y-58332082D01*
X55057317Y-58489775D01*
X55088078Y-58644418D01*
X55088081Y-58644430D01*
X55148419Y-58790101D01*
X55148426Y-58790114D01*
X55236027Y-58921217D01*
X55236030Y-58921221D01*
X55347524Y-59032715D01*
X55347528Y-59032718D01*
X55478631Y-59120319D01*
X55478635Y-59120321D01*
X55478638Y-59120323D01*
X55509400Y-59133065D01*
X55563803Y-59176903D01*
X55585870Y-59243197D01*
X55568592Y-59310897D01*
X55530841Y-59350727D01*
X55489714Y-59378208D01*
X55489707Y-59378213D01*
X55378213Y-59489707D01*
X55378210Y-59489711D01*
X55290609Y-59620814D01*
X55290602Y-59620827D01*
X55230264Y-59766498D01*
X55230261Y-59766510D01*
X55199500Y-59921153D01*
X55199500Y-60078846D01*
X55230261Y-60233489D01*
X55230264Y-60233501D01*
X55290602Y-60379172D01*
X55290609Y-60379185D01*
X55325304Y-60431109D01*
X55346182Y-60497786D01*
X55327698Y-60565167D01*
X55325304Y-60568891D01*
X55290609Y-60620814D01*
X55290602Y-60620827D01*
X55230264Y-60766498D01*
X55230261Y-60766510D01*
X55199500Y-60921153D01*
X55199500Y-61078846D01*
X55230261Y-61233489D01*
X55230264Y-61233501D01*
X55290602Y-61379172D01*
X55290609Y-61379185D01*
X55325304Y-61431109D01*
X55346182Y-61497786D01*
X55327698Y-61565167D01*
X55325304Y-61568891D01*
X55290609Y-61620814D01*
X55290602Y-61620827D01*
X55230264Y-61766498D01*
X55230261Y-61766510D01*
X55199500Y-61921153D01*
X55199500Y-62078846D01*
X55230261Y-62233489D01*
X55230264Y-62233501D01*
X55290602Y-62379172D01*
X55290609Y-62379185D01*
X55378210Y-62510288D01*
X55378213Y-62510292D01*
X55489707Y-62621786D01*
X55489711Y-62621789D01*
X55620814Y-62709390D01*
X55620827Y-62709397D01*
X55758647Y-62766483D01*
X55766503Y-62769737D01*
X55921153Y-62800499D01*
X55921156Y-62800500D01*
X56075500Y-62800500D01*
X56142539Y-62820185D01*
X56188294Y-62872989D01*
X56199500Y-62924500D01*
X56199500Y-63078846D01*
X56230261Y-63233489D01*
X56230264Y-63233501D01*
X56290602Y-63379172D01*
X56290609Y-63379185D01*
X56378210Y-63510288D01*
X56378213Y-63510292D01*
X56489707Y-63621786D01*
X56489711Y-63621789D01*
X56620814Y-63709390D01*
X56620827Y-63709397D01*
X56758683Y-63766498D01*
X56766503Y-63769737D01*
X56921153Y-63800499D01*
X56921156Y-63800500D01*
X56921158Y-63800500D01*
X57078844Y-63800500D01*
X57078845Y-63800499D01*
X57233497Y-63769737D01*
X57379179Y-63709394D01*
X57510289Y-63621789D01*
X57621789Y-63510289D01*
X57709394Y-63379179D01*
X57769737Y-63233497D01*
X57800500Y-63078842D01*
X57800500Y-62921158D01*
X57800500Y-62921155D01*
X57800499Y-62921153D01*
X57798338Y-62910288D01*
X57769737Y-62766503D01*
X57754520Y-62729766D01*
X57709397Y-62620827D01*
X57709390Y-62620814D01*
X57621789Y-62489711D01*
X57621786Y-62489707D01*
X57510292Y-62378213D01*
X57510288Y-62378210D01*
X57424897Y-62321153D01*
X58199500Y-62321153D01*
X58199500Y-62478846D01*
X58230261Y-62633489D01*
X58230264Y-62633501D01*
X58290602Y-62779172D01*
X58290609Y-62779185D01*
X58378210Y-62910288D01*
X58378213Y-62910292D01*
X58489707Y-63021786D01*
X58489711Y-63021789D01*
X58602118Y-63096898D01*
X58646923Y-63150510D01*
X58655630Y-63219835D01*
X58625475Y-63282863D01*
X58602118Y-63303102D01*
X58489711Y-63378210D01*
X58489707Y-63378213D01*
X58378213Y-63489707D01*
X58378210Y-63489711D01*
X58290609Y-63620814D01*
X58290602Y-63620827D01*
X58230264Y-63766498D01*
X58230261Y-63766510D01*
X58199500Y-63921153D01*
X58199500Y-64078846D01*
X58230261Y-64233489D01*
X58230264Y-64233501D01*
X58290602Y-64379172D01*
X58290609Y-64379185D01*
X58378210Y-64510288D01*
X58378213Y-64510292D01*
X58489707Y-64621786D01*
X58489711Y-64621789D01*
X58620814Y-64709390D01*
X58620827Y-64709397D01*
X58766498Y-64769735D01*
X58766503Y-64769737D01*
X58921153Y-64800499D01*
X58921156Y-64800500D01*
X58921158Y-64800500D01*
X59078844Y-64800500D01*
X59078845Y-64800499D01*
X59233497Y-64769737D01*
X59379179Y-64709394D01*
X59510289Y-64621789D01*
X59621789Y-64510289D01*
X59709394Y-64379179D01*
X59769737Y-64233497D01*
X59800500Y-64078842D01*
X59800500Y-63921158D01*
X59800500Y-63921155D01*
X59800499Y-63921153D01*
X59769738Y-63766510D01*
X59769737Y-63766503D01*
X59709794Y-63621786D01*
X59709397Y-63620827D01*
X59709390Y-63620814D01*
X59621789Y-63489711D01*
X59621786Y-63489707D01*
X59510292Y-63378213D01*
X59510288Y-63378210D01*
X59397881Y-63303102D01*
X59353076Y-63249490D01*
X59344369Y-63180165D01*
X59374523Y-63117137D01*
X59397881Y-63096898D01*
X59431981Y-63074112D01*
X59510289Y-63021789D01*
X59621789Y-62910289D01*
X59695148Y-62800500D01*
X59702270Y-62789841D01*
X59755882Y-62745036D01*
X59825207Y-62736329D01*
X59888234Y-62766483D01*
X59924954Y-62825926D01*
X59926989Y-62834540D01*
X59945895Y-62929588D01*
X59945898Y-62929598D01*
X60006236Y-63075269D01*
X60006243Y-63075282D01*
X60093844Y-63206385D01*
X60093847Y-63206389D01*
X60205341Y-63317883D01*
X60205345Y-63317886D01*
X60336448Y-63405487D01*
X60336461Y-63405494D01*
X60482132Y-63465832D01*
X60482137Y-63465834D01*
X60602154Y-63489707D01*
X60636787Y-63496596D01*
X60636790Y-63496597D01*
X60636792Y-63496597D01*
X60794478Y-63496597D01*
X60794479Y-63496596D01*
X60949131Y-63465834D01*
X61094813Y-63405491D01*
X61225923Y-63317886D01*
X61337423Y-63206386D01*
X61425028Y-63075276D01*
X61485371Y-62929594D01*
X61506671Y-62822511D01*
X61539055Y-62760601D01*
X61599771Y-62726027D01*
X61669540Y-62729766D01*
X61675726Y-62732136D01*
X61766503Y-62769737D01*
X61921153Y-62800499D01*
X61921156Y-62800500D01*
X61921158Y-62800500D01*
X62078844Y-62800500D01*
X62078845Y-62800499D01*
X62233497Y-62769737D01*
X62379179Y-62709394D01*
X62510289Y-62621789D01*
X62621789Y-62510289D01*
X62709394Y-62379179D01*
X62769737Y-62233497D01*
X62800500Y-62078842D01*
X62800500Y-61921158D01*
X62800500Y-61921155D01*
X62800499Y-61921153D01*
X62769737Y-61766503D01*
X62738298Y-61690602D01*
X62709397Y-61620827D01*
X62709390Y-61620814D01*
X62621789Y-61489711D01*
X62621786Y-61489707D01*
X62510292Y-61378213D01*
X62510288Y-61378210D01*
X62379185Y-61290609D01*
X62379172Y-61290602D01*
X62233501Y-61230264D01*
X62233489Y-61230261D01*
X62078845Y-61199500D01*
X62078842Y-61199500D01*
X61921158Y-61199500D01*
X61921155Y-61199500D01*
X61766510Y-61230261D01*
X61766498Y-61230264D01*
X61620827Y-61290602D01*
X61620814Y-61290609D01*
X61489711Y-61378210D01*
X61489707Y-61378213D01*
X61378213Y-61489707D01*
X61378210Y-61489711D01*
X61290609Y-61620814D01*
X61290602Y-61620827D01*
X61230264Y-61766498D01*
X61230261Y-61766508D01*
X61208962Y-61873585D01*
X61176577Y-61935496D01*
X61115861Y-61970070D01*
X61046091Y-61966329D01*
X61039893Y-61963954D01*
X60949135Y-61926361D01*
X60949123Y-61926358D01*
X60794479Y-61895597D01*
X60794476Y-61895597D01*
X60636792Y-61895597D01*
X60636789Y-61895597D01*
X60482144Y-61926358D01*
X60482132Y-61926361D01*
X60336461Y-61986699D01*
X60336448Y-61986706D01*
X60205345Y-62074307D01*
X60205341Y-62074310D01*
X60093847Y-62185804D01*
X60013363Y-62306256D01*
X59959750Y-62351060D01*
X59890425Y-62359767D01*
X59827398Y-62329612D01*
X59790679Y-62270169D01*
X59788644Y-62261555D01*
X59782260Y-62229459D01*
X59769737Y-62166503D01*
X59731549Y-62074308D01*
X59709397Y-62020827D01*
X59709390Y-62020814D01*
X59621789Y-61889711D01*
X59621786Y-61889707D01*
X59510292Y-61778213D01*
X59510288Y-61778210D01*
X59379185Y-61690609D01*
X59379172Y-61690602D01*
X59233501Y-61630264D01*
X59233489Y-61630261D01*
X59078845Y-61599500D01*
X59078842Y-61599500D01*
X58921158Y-61599500D01*
X58921155Y-61599500D01*
X58766510Y-61630261D01*
X58766498Y-61630264D01*
X58620827Y-61690602D01*
X58620814Y-61690609D01*
X58489711Y-61778210D01*
X58489707Y-61778213D01*
X58378213Y-61889707D01*
X58378210Y-61889711D01*
X58290609Y-62020814D01*
X58290602Y-62020827D01*
X58230264Y-62166498D01*
X58230261Y-62166510D01*
X58199500Y-62321153D01*
X57424897Y-62321153D01*
X57379185Y-62290609D01*
X57379172Y-62290602D01*
X57233501Y-62230264D01*
X57233489Y-62230261D01*
X57078845Y-62199500D01*
X57078842Y-62199500D01*
X56924500Y-62199500D01*
X56857461Y-62179815D01*
X56811706Y-62127011D01*
X56800500Y-62075500D01*
X56800500Y-61921155D01*
X56800499Y-61921153D01*
X56769737Y-61766503D01*
X56738298Y-61690602D01*
X56709396Y-61620825D01*
X56709394Y-61620822D01*
X56709394Y-61620821D01*
X56674694Y-61568889D01*
X56653816Y-61502215D01*
X56672300Y-61434835D01*
X56674676Y-61431136D01*
X56709394Y-61379179D01*
X56769737Y-61233497D01*
X56800500Y-61078842D01*
X56800500Y-60921158D01*
X56800500Y-60921155D01*
X56800499Y-60921153D01*
X56769737Y-60766503D01*
X56709794Y-60621786D01*
X56709396Y-60620825D01*
X56709394Y-60620822D01*
X56709394Y-60620821D01*
X56674694Y-60568889D01*
X56653816Y-60502215D01*
X56672300Y-60434835D01*
X56674676Y-60431136D01*
X56709394Y-60379179D01*
X56769737Y-60233497D01*
X56800500Y-60078842D01*
X56800500Y-59921158D01*
X56800500Y-59921155D01*
X56800499Y-59921153D01*
X56769737Y-59766503D01*
X56769735Y-59766498D01*
X56709397Y-59620827D01*
X56709390Y-59620814D01*
X56621789Y-59489711D01*
X56621786Y-59489707D01*
X56510292Y-59378213D01*
X56510288Y-59378210D01*
X56379185Y-59290609D01*
X56379178Y-59290605D01*
X56360016Y-59282668D01*
X56348415Y-59277863D01*
X56294012Y-59234023D01*
X56271946Y-59167729D01*
X56289225Y-59100030D01*
X56326975Y-59060200D01*
X56368106Y-59032718D01*
X56479606Y-58921218D01*
X56567211Y-58790108D01*
X56572069Y-58778381D01*
X56597908Y-58715999D01*
X56627554Y-58644426D01*
X56658317Y-58489771D01*
X56658317Y-58332087D01*
X56658317Y-58332084D01*
X56658316Y-58332082D01*
X56632237Y-58200971D01*
X56628635Y-58182867D01*
X62855368Y-58182867D01*
X62855368Y-58340560D01*
X62886129Y-58495203D01*
X62886132Y-58495215D01*
X62946470Y-58640886D01*
X62946477Y-58640899D01*
X63034078Y-58772002D01*
X63034081Y-58772006D01*
X63145575Y-58883500D01*
X63145579Y-58883503D01*
X63276682Y-58971104D01*
X63276695Y-58971111D01*
X63422366Y-59031449D01*
X63422371Y-59031451D01*
X63566896Y-59060199D01*
X63577021Y-59062213D01*
X63577024Y-59062214D01*
X63577026Y-59062214D01*
X63734712Y-59062214D01*
X63734713Y-59062213D01*
X63889365Y-59031451D01*
X64035047Y-58971108D01*
X64166157Y-58883503D01*
X64277657Y-58772003D01*
X64365262Y-58640893D01*
X64425605Y-58495211D01*
X64456368Y-58340556D01*
X64456368Y-58182872D01*
X64456368Y-58182869D01*
X64456367Y-58182867D01*
X64449398Y-58147830D01*
X64425605Y-58028217D01*
X64425603Y-58028212D01*
X64365265Y-57882541D01*
X64365258Y-57882528D01*
X64277657Y-57751425D01*
X64277654Y-57751421D01*
X64166160Y-57639927D01*
X64166156Y-57639924D01*
X64035053Y-57552323D01*
X64035040Y-57552316D01*
X63889369Y-57491978D01*
X63889357Y-57491975D01*
X63734713Y-57461214D01*
X63734710Y-57461214D01*
X63577026Y-57461214D01*
X63577023Y-57461214D01*
X63422378Y-57491975D01*
X63422366Y-57491978D01*
X63276695Y-57552316D01*
X63276682Y-57552323D01*
X63145579Y-57639924D01*
X63145575Y-57639927D01*
X63034081Y-57751421D01*
X63034078Y-57751425D01*
X62946477Y-57882528D01*
X62946470Y-57882541D01*
X62886132Y-58028212D01*
X62886129Y-58028224D01*
X62855368Y-58182867D01*
X56628635Y-58182867D01*
X56627555Y-58177437D01*
X56627554Y-58177436D01*
X56627554Y-58177432D01*
X56627552Y-58177427D01*
X56567214Y-58031756D01*
X56567207Y-58031743D01*
X56479606Y-57900640D01*
X56479603Y-57900636D01*
X56368109Y-57789142D01*
X56368105Y-57789139D01*
X56237002Y-57701538D01*
X56236989Y-57701531D01*
X56091318Y-57641193D01*
X56091306Y-57641190D01*
X55936662Y-57610429D01*
X55936659Y-57610429D01*
X55778975Y-57610429D01*
X55778972Y-57610429D01*
X55624327Y-57641190D01*
X55624315Y-57641193D01*
X55478644Y-57701531D01*
X55478631Y-57701538D01*
X55347528Y-57789139D01*
X55347524Y-57789142D01*
X55236030Y-57900636D01*
X55236027Y-57900640D01*
X55148426Y-58031743D01*
X55148419Y-58031756D01*
X55088081Y-58177427D01*
X55088078Y-58177439D01*
X55057317Y-58332082D01*
X51653165Y-58332082D01*
X51556524Y-58235441D01*
X51556520Y-58235438D01*
X51425417Y-58147837D01*
X51425404Y-58147830D01*
X51279733Y-58087492D01*
X51279721Y-58087489D01*
X51125077Y-58056728D01*
X51125074Y-58056728D01*
X50967390Y-58056728D01*
X50967387Y-58056728D01*
X50812742Y-58087489D01*
X50812730Y-58087492D01*
X50667059Y-58147830D01*
X50667046Y-58147837D01*
X50535943Y-58235438D01*
X50535939Y-58235441D01*
X50424445Y-58346935D01*
X50424442Y-58346939D01*
X50336841Y-58478042D01*
X50336834Y-58478055D01*
X50276496Y-58623726D01*
X50276493Y-58623738D01*
X50245732Y-58778381D01*
X47200620Y-58778381D01*
X47212737Y-58754599D01*
X47232406Y-58715999D01*
X47232407Y-58715997D01*
X47251554Y-58678417D01*
X47251557Y-58678412D01*
X47317246Y-58476243D01*
X47350500Y-58266287D01*
X47350500Y-58053713D01*
X47317246Y-57843757D01*
X47251557Y-57641588D01*
X47155051Y-57452184D01*
X47155049Y-57452181D01*
X47155048Y-57452179D01*
X47030109Y-57280213D01*
X46879790Y-57129894D01*
X46879785Y-57129890D01*
X46718735Y-57012881D01*
X46718725Y-57012875D01*
X46707816Y-57004949D01*
X46694873Y-56998354D01*
X46690868Y-56995916D01*
X46670387Y-56973410D01*
X46648259Y-56952512D01*
X46647096Y-56947816D01*
X46643842Y-56944241D01*
X46639023Y-56915678D01*
X53454183Y-56915678D01*
X53454183Y-57073371D01*
X53484944Y-57228014D01*
X53484947Y-57228026D01*
X53545285Y-57373697D01*
X53545292Y-57373710D01*
X53632893Y-57504813D01*
X53632896Y-57504817D01*
X53744390Y-57616311D01*
X53744394Y-57616314D01*
X53875497Y-57703915D01*
X53875510Y-57703922D01*
X54021181Y-57764260D01*
X54021186Y-57764262D01*
X54175836Y-57795024D01*
X54175839Y-57795025D01*
X54175841Y-57795025D01*
X54333527Y-57795025D01*
X54333528Y-57795024D01*
X54488180Y-57764262D01*
X54633862Y-57703919D01*
X54764972Y-57616314D01*
X54876472Y-57504814D01*
X54964077Y-57373704D01*
X55024420Y-57228022D01*
X55055183Y-57073367D01*
X55055183Y-56915683D01*
X55055183Y-56915680D01*
X55055182Y-56915678D01*
X55032579Y-56802045D01*
X55024420Y-56761028D01*
X55024418Y-56761023D01*
X54964080Y-56615352D01*
X54964073Y-56615339D01*
X54876472Y-56484236D01*
X54876469Y-56484232D01*
X54764975Y-56372738D01*
X54764971Y-56372735D01*
X54633868Y-56285134D01*
X54633855Y-56285127D01*
X54488184Y-56224789D01*
X54488172Y-56224786D01*
X54333528Y-56194025D01*
X54333525Y-56194025D01*
X54175841Y-56194025D01*
X54175838Y-56194025D01*
X54021193Y-56224786D01*
X54021181Y-56224789D01*
X53875510Y-56285127D01*
X53875497Y-56285134D01*
X53744394Y-56372735D01*
X53744390Y-56372738D01*
X53632896Y-56484232D01*
X53632893Y-56484236D01*
X53545292Y-56615339D01*
X53545285Y-56615352D01*
X53484947Y-56761023D01*
X53484944Y-56761035D01*
X53454183Y-56915678D01*
X46639023Y-56915678D01*
X46638779Y-56914234D01*
X46631463Y-56884692D01*
X46633022Y-56880114D01*
X46632218Y-56875345D01*
X46644182Y-56847363D01*
X46653999Y-56818556D01*
X46657973Y-56815112D01*
X46659688Y-56811102D01*
X46673053Y-56802045D01*
X46699054Y-56779515D01*
X46707816Y-56775051D01*
X46729789Y-56759086D01*
X46879786Y-56650109D01*
X46879788Y-56650106D01*
X46879792Y-56650104D01*
X47030104Y-56499792D01*
X47030106Y-56499788D01*
X47030109Y-56499786D01*
X47155048Y-56327820D01*
X47155047Y-56327820D01*
X47155051Y-56327816D01*
X47251557Y-56138412D01*
X47317246Y-55936243D01*
X47350500Y-55726287D01*
X47350500Y-55513713D01*
X47333919Y-55409025D01*
X57664921Y-55409025D01*
X57664921Y-55566718D01*
X57695682Y-55721361D01*
X57695685Y-55721373D01*
X57756023Y-55867044D01*
X57756030Y-55867057D01*
X57843631Y-55998160D01*
X57843634Y-55998164D01*
X57955128Y-56109658D01*
X57955132Y-56109661D01*
X58086235Y-56197262D01*
X58086248Y-56197269D01*
X58231919Y-56257607D01*
X58231924Y-56257609D01*
X58370286Y-56285131D01*
X58386574Y-56288371D01*
X58386577Y-56288372D01*
X58386579Y-56288372D01*
X58544265Y-56288372D01*
X58544266Y-56288371D01*
X58698918Y-56257609D01*
X58844600Y-56197266D01*
X58975710Y-56109661D01*
X59087210Y-55998161D01*
X59174815Y-55867051D01*
X59235158Y-55721369D01*
X59265921Y-55566714D01*
X59265921Y-55457268D01*
X59285606Y-55390229D01*
X59338410Y-55344474D01*
X59342434Y-55342721D01*
X59377621Y-55328147D01*
X59508731Y-55240542D01*
X59620231Y-55129042D01*
X59707836Y-54997932D01*
X59710782Y-54990821D01*
X59762449Y-54866083D01*
X59768179Y-54852250D01*
X59798942Y-54697595D01*
X59798942Y-54546937D01*
X60349516Y-54546937D01*
X60349516Y-54704630D01*
X60380277Y-54859273D01*
X60380280Y-54859285D01*
X60440618Y-55004956D01*
X60440625Y-55004969D01*
X60528226Y-55136072D01*
X60528229Y-55136076D01*
X60639723Y-55247570D01*
X60639727Y-55247573D01*
X60770830Y-55335174D01*
X60770843Y-55335181D01*
X60871923Y-55377049D01*
X60916519Y-55395521D01*
X61051326Y-55422336D01*
X61071169Y-55426283D01*
X61071172Y-55426284D01*
X61071174Y-55426284D01*
X61228860Y-55426284D01*
X61228861Y-55426283D01*
X61383513Y-55395521D01*
X61529195Y-55335178D01*
X61595083Y-55291153D01*
X86209500Y-55291153D01*
X86209500Y-55448846D01*
X86240261Y-55603489D01*
X86240264Y-55603501D01*
X86300602Y-55749172D01*
X86300609Y-55749185D01*
X86388210Y-55880288D01*
X86388213Y-55880292D01*
X86499707Y-55991786D01*
X86499711Y-55991789D01*
X86630814Y-56079390D01*
X86630827Y-56079397D01*
X86773304Y-56138412D01*
X86776503Y-56139737D01*
X86931153Y-56170499D01*
X86931156Y-56170500D01*
X86931158Y-56170500D01*
X87088844Y-56170500D01*
X87088845Y-56170499D01*
X87243497Y-56139737D01*
X87389179Y-56079394D01*
X87520289Y-55991789D01*
X87631789Y-55880289D01*
X87719394Y-55749179D01*
X87779737Y-55603497D01*
X87810500Y-55448842D01*
X87810500Y-55291158D01*
X87810500Y-55291155D01*
X87810499Y-55291153D01*
X87779738Y-55136510D01*
X87779737Y-55136503D01*
X87779559Y-55136073D01*
X87719397Y-54990827D01*
X87719390Y-54990814D01*
X87631789Y-54859711D01*
X87631786Y-54859707D01*
X87520292Y-54748213D01*
X87520288Y-54748210D01*
X87389185Y-54660609D01*
X87389172Y-54660602D01*
X87243501Y-54600264D01*
X87243489Y-54600261D01*
X87088845Y-54569500D01*
X87088842Y-54569500D01*
X86931158Y-54569500D01*
X86931155Y-54569500D01*
X86776510Y-54600261D01*
X86776498Y-54600264D01*
X86630827Y-54660602D01*
X86630814Y-54660609D01*
X86499711Y-54748210D01*
X86499707Y-54748213D01*
X86388213Y-54859707D01*
X86388210Y-54859711D01*
X86300609Y-54990814D01*
X86300602Y-54990827D01*
X86240264Y-55136498D01*
X86240261Y-55136510D01*
X86209500Y-55291153D01*
X61595083Y-55291153D01*
X61660305Y-55247573D01*
X61667336Y-55240542D01*
X61710494Y-55197385D01*
X61771802Y-55136076D01*
X61771805Y-55136073D01*
X61859410Y-55004963D01*
X61919753Y-54859281D01*
X61950516Y-54704626D01*
X61950516Y-54546942D01*
X61950516Y-54546939D01*
X61950515Y-54546937D01*
X61934206Y-54464949D01*
X61919753Y-54392287D01*
X61894598Y-54331557D01*
X61859413Y-54246611D01*
X61859406Y-54246598D01*
X61771805Y-54115495D01*
X61771802Y-54115491D01*
X61660308Y-54003997D01*
X61660304Y-54003994D01*
X61529201Y-53916393D01*
X61529188Y-53916386D01*
X61383517Y-53856048D01*
X61383505Y-53856045D01*
X61228861Y-53825284D01*
X61228858Y-53825284D01*
X61071174Y-53825284D01*
X61071171Y-53825284D01*
X60916526Y-53856045D01*
X60916514Y-53856048D01*
X60770843Y-53916386D01*
X60770830Y-53916393D01*
X60639727Y-54003994D01*
X60639723Y-54003997D01*
X60528229Y-54115491D01*
X60528226Y-54115495D01*
X60440625Y-54246598D01*
X60440618Y-54246611D01*
X60380280Y-54392282D01*
X60380277Y-54392294D01*
X60349516Y-54546937D01*
X59798942Y-54546937D01*
X59798942Y-54539911D01*
X59798942Y-54539908D01*
X59798941Y-54539906D01*
X59775378Y-54421447D01*
X59768179Y-54385256D01*
X59751377Y-54344692D01*
X59707839Y-54239580D01*
X59707832Y-54239567D01*
X59620231Y-54108464D01*
X59620228Y-54108460D01*
X59508734Y-53996966D01*
X59508730Y-53996963D01*
X59377627Y-53909362D01*
X59377614Y-53909355D01*
X59231943Y-53849017D01*
X59231931Y-53849014D01*
X59077287Y-53818253D01*
X59077284Y-53818253D01*
X58919600Y-53818253D01*
X58919597Y-53818253D01*
X58764952Y-53849014D01*
X58764940Y-53849017D01*
X58619269Y-53909355D01*
X58619256Y-53909362D01*
X58488153Y-53996963D01*
X58488149Y-53996966D01*
X58376655Y-54108460D01*
X58376652Y-54108464D01*
X58289051Y-54239567D01*
X58289044Y-54239580D01*
X58228706Y-54385251D01*
X58228703Y-54385263D01*
X58197942Y-54539906D01*
X58197942Y-54649355D01*
X58178257Y-54716394D01*
X58125453Y-54762149D01*
X58121397Y-54763915D01*
X58086247Y-54778475D01*
X58086235Y-54778481D01*
X57955132Y-54866082D01*
X57955128Y-54866085D01*
X57843634Y-54977579D01*
X57843631Y-54977583D01*
X57756030Y-55108686D01*
X57756023Y-55108699D01*
X57695685Y-55254370D01*
X57695682Y-55254382D01*
X57664921Y-55409025D01*
X47333919Y-55409025D01*
X47317246Y-55303757D01*
X47251557Y-55101588D01*
X47155051Y-54912184D01*
X47155049Y-54912181D01*
X47155048Y-54912179D01*
X47030109Y-54740213D01*
X46879786Y-54589890D01*
X46707820Y-54464951D01*
X46707115Y-54464591D01*
X46699054Y-54460485D01*
X46648259Y-54412512D01*
X46631463Y-54344692D01*
X46653999Y-54278556D01*
X46699054Y-54239515D01*
X46707816Y-54235051D01*
X46729789Y-54219086D01*
X46879786Y-54110109D01*
X46879788Y-54110106D01*
X46879792Y-54110104D01*
X47030104Y-53959792D01*
X47030106Y-53959788D01*
X47030109Y-53959786D01*
X47155048Y-53787820D01*
X47155047Y-53787820D01*
X47155051Y-53787816D01*
X47196587Y-53706297D01*
X51984644Y-53706297D01*
X51984644Y-53863990D01*
X52015405Y-54018633D01*
X52015408Y-54018645D01*
X52075746Y-54164316D01*
X52075753Y-54164329D01*
X52163354Y-54295432D01*
X52163357Y-54295436D01*
X52274851Y-54406930D01*
X52274855Y-54406933D01*
X52405958Y-54494534D01*
X52405971Y-54494541D01*
X52515506Y-54539911D01*
X52551647Y-54554881D01*
X52706297Y-54585643D01*
X52706300Y-54585644D01*
X52706302Y-54585644D01*
X52863988Y-54585644D01*
X52863989Y-54585643D01*
X53018641Y-54554881D01*
X53164323Y-54494538D01*
X53295433Y-54406933D01*
X53406933Y-54295433D01*
X53494538Y-54164323D01*
X53554881Y-54018641D01*
X53585644Y-53863986D01*
X53585644Y-53706302D01*
X53585644Y-53706299D01*
X53585643Y-53706297D01*
X53568833Y-53621789D01*
X53554881Y-53551647D01*
X53554879Y-53551642D01*
X53494541Y-53405971D01*
X53494534Y-53405958D01*
X53406933Y-53274855D01*
X53406930Y-53274851D01*
X53295436Y-53163357D01*
X53295432Y-53163354D01*
X53164329Y-53075753D01*
X53164316Y-53075746D01*
X53018645Y-53015408D01*
X53018633Y-53015405D01*
X52863989Y-52984644D01*
X52863986Y-52984644D01*
X52706302Y-52984644D01*
X52706299Y-52984644D01*
X52551654Y-53015405D01*
X52551642Y-53015408D01*
X52405971Y-53075746D01*
X52405958Y-53075753D01*
X52274855Y-53163354D01*
X52274851Y-53163357D01*
X52163357Y-53274851D01*
X52163354Y-53274855D01*
X52075753Y-53405958D01*
X52075746Y-53405971D01*
X52015408Y-53551642D01*
X52015405Y-53551654D01*
X51984644Y-53706297D01*
X47196587Y-53706297D01*
X47251557Y-53598412D01*
X47317246Y-53396243D01*
X47350500Y-53186287D01*
X47350500Y-52973713D01*
X47342175Y-52921153D01*
X86199500Y-52921153D01*
X86199500Y-53078846D01*
X86230261Y-53233489D01*
X86230264Y-53233501D01*
X86290602Y-53379172D01*
X86290609Y-53379185D01*
X86378210Y-53510288D01*
X86378213Y-53510292D01*
X86489707Y-53621786D01*
X86489711Y-53621789D01*
X86620814Y-53709390D01*
X86620827Y-53709397D01*
X86766498Y-53769735D01*
X86766503Y-53769737D01*
X86921153Y-53800499D01*
X86921156Y-53800500D01*
X86921158Y-53800500D01*
X87078844Y-53800500D01*
X87078845Y-53800499D01*
X87233497Y-53769737D01*
X87379179Y-53709394D01*
X87510289Y-53621789D01*
X87621789Y-53510289D01*
X87709394Y-53379179D01*
X87769737Y-53233497D01*
X87800500Y-53078842D01*
X87800500Y-52921158D01*
X87800500Y-52921155D01*
X87800499Y-52921153D01*
X87769738Y-52766510D01*
X87769737Y-52766503D01*
X87739634Y-52693827D01*
X87709397Y-52620827D01*
X87709390Y-52620814D01*
X87621789Y-52489711D01*
X87621786Y-52489707D01*
X87510292Y-52378213D01*
X87510288Y-52378210D01*
X87379185Y-52290609D01*
X87379172Y-52290602D01*
X87233501Y-52230264D01*
X87233489Y-52230261D01*
X87078845Y-52199500D01*
X87078842Y-52199500D01*
X86921158Y-52199500D01*
X86921155Y-52199500D01*
X86766510Y-52230261D01*
X86766498Y-52230264D01*
X86620827Y-52290602D01*
X86620814Y-52290609D01*
X86489711Y-52378210D01*
X86489707Y-52378213D01*
X86378213Y-52489707D01*
X86378210Y-52489711D01*
X86290609Y-52620814D01*
X86290602Y-52620827D01*
X86230264Y-52766498D01*
X86230261Y-52766510D01*
X86199500Y-52921153D01*
X47342175Y-52921153D01*
X47317246Y-52763757D01*
X47251557Y-52561588D01*
X47155051Y-52372184D01*
X47155049Y-52372181D01*
X47155048Y-52372179D01*
X47030109Y-52200213D01*
X46879786Y-52049890D01*
X46707817Y-51924949D01*
X46698504Y-51920204D01*
X46690659Y-51912795D01*
X46690362Y-51912708D01*
X46689438Y-51911642D01*
X46689346Y-51911555D01*
X46677674Y-51906817D01*
X46664425Y-51888019D01*
X46647707Y-51872230D01*
X46644678Y-51860001D01*
X46644622Y-51859921D01*
X46644607Y-51859904D01*
X46644606Y-51859898D01*
X46637423Y-51849707D01*
X46636440Y-51826733D01*
X46633406Y-51814480D01*
X51984644Y-51814480D01*
X51984644Y-51972173D01*
X52015405Y-52126816D01*
X52015408Y-52126828D01*
X52075746Y-52272499D01*
X52075753Y-52272512D01*
X52163354Y-52403615D01*
X52163357Y-52403619D01*
X52274851Y-52515113D01*
X52274855Y-52515116D01*
X52405958Y-52602717D01*
X52405971Y-52602724D01*
X52551642Y-52663062D01*
X52551647Y-52663064D01*
X52706297Y-52693826D01*
X52706300Y-52693827D01*
X52706302Y-52693827D01*
X52863988Y-52693827D01*
X52863989Y-52693826D01*
X53018641Y-52663064D01*
X53164323Y-52602721D01*
X53295433Y-52515116D01*
X53406933Y-52403616D01*
X53494538Y-52272506D01*
X53554881Y-52126824D01*
X53585644Y-51972169D01*
X53585644Y-51921153D01*
X79199500Y-51921153D01*
X79199500Y-52078846D01*
X79230261Y-52233489D01*
X79230264Y-52233501D01*
X79290602Y-52379172D01*
X79290609Y-52379185D01*
X79378210Y-52510288D01*
X79378213Y-52510292D01*
X79489707Y-52621786D01*
X79489711Y-52621789D01*
X79620814Y-52709390D01*
X79620827Y-52709397D01*
X79752066Y-52763757D01*
X79766503Y-52769737D01*
X79921153Y-52800499D01*
X79921156Y-52800500D01*
X79921158Y-52800500D01*
X80078844Y-52800500D01*
X80078845Y-52800499D01*
X80089179Y-52798443D01*
X80114287Y-52793450D01*
X80114292Y-52793449D01*
X80199800Y-52776439D01*
X80233497Y-52769737D01*
X80379179Y-52709394D01*
X80510289Y-52621789D01*
X80621789Y-52510289D01*
X80709394Y-52379179D01*
X80712294Y-52372179D01*
X80723067Y-52346166D01*
X80769737Y-52233497D01*
X80800500Y-52078842D01*
X80800500Y-51921158D01*
X80800500Y-51921155D01*
X80800499Y-51921153D01*
X80792545Y-51881164D01*
X80769737Y-51766503D01*
X80753453Y-51727190D01*
X80709397Y-51620827D01*
X80709390Y-51620814D01*
X80621789Y-51489711D01*
X80621786Y-51489707D01*
X80510292Y-51378213D01*
X80510288Y-51378210D01*
X80379185Y-51290609D01*
X80379172Y-51290602D01*
X80233501Y-51230264D01*
X80233489Y-51230261D01*
X80078845Y-51199500D01*
X80078842Y-51199500D01*
X79921158Y-51199500D01*
X79921155Y-51199500D01*
X79766510Y-51230261D01*
X79766498Y-51230264D01*
X79620827Y-51290602D01*
X79620814Y-51290609D01*
X79489711Y-51378210D01*
X79489707Y-51378213D01*
X79378213Y-51489707D01*
X79378210Y-51489711D01*
X79290609Y-51620814D01*
X79290602Y-51620827D01*
X79230264Y-51766498D01*
X79230261Y-51766510D01*
X79199500Y-51921153D01*
X53585644Y-51921153D01*
X53585644Y-51814485D01*
X53585644Y-51814482D01*
X53585643Y-51814480D01*
X53572262Y-51747208D01*
X53554881Y-51659830D01*
X53538720Y-51620814D01*
X53494541Y-51514154D01*
X53494534Y-51514141D01*
X53406933Y-51383038D01*
X53406930Y-51383034D01*
X53295436Y-51271540D01*
X53295432Y-51271537D01*
X53164329Y-51183936D01*
X53164316Y-51183929D01*
X53018645Y-51123591D01*
X53018633Y-51123588D01*
X52863989Y-51092827D01*
X52863986Y-51092827D01*
X52706302Y-51092827D01*
X52706299Y-51092827D01*
X52551654Y-51123588D01*
X52551642Y-51123591D01*
X52405971Y-51183929D01*
X52405958Y-51183936D01*
X52274855Y-51271537D01*
X52274851Y-51271540D01*
X52163357Y-51383034D01*
X52163354Y-51383038D01*
X52075753Y-51514141D01*
X52075746Y-51514154D01*
X52015408Y-51659825D01*
X52015405Y-51659837D01*
X51984644Y-51814480D01*
X46633406Y-51814480D01*
X46630912Y-51804409D01*
X46634931Y-51792613D01*
X46634663Y-51790746D01*
X46634880Y-51790269D01*
X46634437Y-51779901D01*
X46646031Y-51760041D01*
X46653449Y-51738274D01*
X46662015Y-51730851D01*
X46663688Y-51727190D01*
X46666491Y-51724996D01*
X46669664Y-51719562D01*
X46698513Y-51699229D01*
X46701116Y-51697903D01*
X46707554Y-51694622D01*
X46761716Y-51655270D01*
X46761717Y-51655270D01*
X46129408Y-51022962D01*
X46192993Y-51005925D01*
X46307007Y-50940099D01*
X46400099Y-50847007D01*
X46465925Y-50732993D01*
X46482962Y-50669409D01*
X47115270Y-51301717D01*
X47115270Y-51301716D01*
X47154622Y-51247554D01*
X47251095Y-51058217D01*
X47316757Y-50856130D01*
X47316757Y-50856127D01*
X47350000Y-50646246D01*
X47350000Y-50433753D01*
X47316757Y-50223872D01*
X47316757Y-50223869D01*
X47251095Y-50021782D01*
X47154624Y-49832449D01*
X47115270Y-49778282D01*
X47115269Y-49778282D01*
X46482962Y-50410590D01*
X46465925Y-50347007D01*
X46400099Y-50232993D01*
X46307007Y-50139901D01*
X46192993Y-50074075D01*
X46129409Y-50057037D01*
X46799627Y-49386818D01*
X46860950Y-49353333D01*
X46887307Y-49350499D01*
X46897872Y-49350499D01*
X46957483Y-49344091D01*
X47092331Y-49293796D01*
X47207546Y-49207546D01*
X47293796Y-49092331D01*
X47344091Y-48957483D01*
X47350500Y-48897873D01*
X47350499Y-47921153D01*
X79199500Y-47921153D01*
X79199500Y-48078846D01*
X79230261Y-48233489D01*
X79230264Y-48233501D01*
X79290602Y-48379172D01*
X79290609Y-48379185D01*
X79378210Y-48510288D01*
X79378213Y-48510292D01*
X79489707Y-48621786D01*
X79489711Y-48621789D01*
X79620814Y-48709390D01*
X79620827Y-48709397D01*
X79766498Y-48769735D01*
X79766503Y-48769737D01*
X79921153Y-48800499D01*
X79921156Y-48800500D01*
X79921158Y-48800500D01*
X80078844Y-48800500D01*
X80078845Y-48800499D01*
X80233497Y-48769737D01*
X80379179Y-48709394D01*
X80510289Y-48621789D01*
X80621789Y-48510289D01*
X80709394Y-48379179D01*
X80769737Y-48233497D01*
X80800500Y-48078842D01*
X80800500Y-47921158D01*
X80800500Y-47921155D01*
X80800499Y-47921153D01*
X80769737Y-47766503D01*
X80746080Y-47709390D01*
X80709397Y-47620827D01*
X80709390Y-47620814D01*
X80621789Y-47489711D01*
X80621786Y-47489707D01*
X80510292Y-47378213D01*
X80510288Y-47378210D01*
X80379185Y-47290609D01*
X80379178Y-47290605D01*
X80364290Y-47284439D01*
X80363497Y-47284110D01*
X80363496Y-47284109D01*
X80233501Y-47230264D01*
X80233489Y-47230261D01*
X80078845Y-47199500D01*
X80078842Y-47199500D01*
X79921158Y-47199500D01*
X79921155Y-47199500D01*
X79766510Y-47230261D01*
X79766498Y-47230264D01*
X79620827Y-47290602D01*
X79620814Y-47290609D01*
X79489711Y-47378210D01*
X79489707Y-47378213D01*
X79378213Y-47489707D01*
X79378210Y-47489711D01*
X79290609Y-47620814D01*
X79290602Y-47620827D01*
X79230264Y-47766498D01*
X79230261Y-47766510D01*
X79199500Y-47921153D01*
X47350499Y-47921153D01*
X47350499Y-47175636D01*
X83453983Y-47175636D01*
X83453983Y-47333329D01*
X83484744Y-47487972D01*
X83484747Y-47487984D01*
X83545085Y-47633655D01*
X83545092Y-47633668D01*
X83632693Y-47764771D01*
X83632696Y-47764775D01*
X83744190Y-47876269D01*
X83744194Y-47876272D01*
X83875297Y-47963873D01*
X83875310Y-47963880D01*
X84020981Y-48024218D01*
X84020986Y-48024220D01*
X84175636Y-48054982D01*
X84175639Y-48054983D01*
X84175641Y-48054983D01*
X84333327Y-48054983D01*
X84333328Y-48054982D01*
X84487980Y-48024220D01*
X84633662Y-47963877D01*
X84764772Y-47876272D01*
X84876272Y-47764772D01*
X84963877Y-47633662D01*
X85024220Y-47487980D01*
X85045515Y-47380924D01*
X85077900Y-47319013D01*
X85138615Y-47284439D01*
X85208385Y-47288178D01*
X85265057Y-47329044D01*
X85281693Y-47357662D01*
X85290604Y-47379175D01*
X85290609Y-47379185D01*
X85378210Y-47510288D01*
X85378213Y-47510292D01*
X85489707Y-47621786D01*
X85489711Y-47621789D01*
X85620814Y-47709390D01*
X85620827Y-47709397D01*
X85758683Y-47766498D01*
X85766503Y-47769737D01*
X85921153Y-47800499D01*
X85921156Y-47800500D01*
X85921158Y-47800500D01*
X86078844Y-47800500D01*
X86078845Y-47800499D01*
X86233497Y-47769737D01*
X86379179Y-47709394D01*
X86510289Y-47621789D01*
X86621789Y-47510289D01*
X86709394Y-47379179D01*
X86769737Y-47233497D01*
X86800500Y-47078842D01*
X86800500Y-46921158D01*
X86800500Y-46921155D01*
X86800499Y-46921153D01*
X86791379Y-46875304D01*
X86769737Y-46766503D01*
X86769735Y-46766498D01*
X86709397Y-46620827D01*
X86709390Y-46620814D01*
X86621789Y-46489711D01*
X86621786Y-46489707D01*
X86510292Y-46378213D01*
X86510288Y-46378210D01*
X86379185Y-46290609D01*
X86379172Y-46290602D01*
X86233501Y-46230264D01*
X86233489Y-46230261D01*
X86078845Y-46199500D01*
X86078842Y-46199500D01*
X85921158Y-46199500D01*
X85921155Y-46199500D01*
X85766510Y-46230261D01*
X85766498Y-46230264D01*
X85620827Y-46290602D01*
X85620814Y-46290609D01*
X85489711Y-46378210D01*
X85489707Y-46378213D01*
X85378213Y-46489707D01*
X85378210Y-46489711D01*
X85290609Y-46620814D01*
X85290602Y-46620827D01*
X85230264Y-46766498D01*
X85230261Y-46766508D01*
X85208967Y-46873559D01*
X85176582Y-46935470D01*
X85115866Y-46970044D01*
X85046096Y-46966303D01*
X84989424Y-46925437D01*
X84972788Y-46896818D01*
X84963877Y-46875304D01*
X84963873Y-46875297D01*
X84876272Y-46744194D01*
X84876269Y-46744190D01*
X84764775Y-46632696D01*
X84764771Y-46632693D01*
X84633668Y-46545092D01*
X84633655Y-46545085D01*
X84487984Y-46484747D01*
X84487972Y-46484744D01*
X84333328Y-46453983D01*
X84333325Y-46453983D01*
X84175641Y-46453983D01*
X84175638Y-46453983D01*
X84020993Y-46484744D01*
X84020981Y-46484747D01*
X83875310Y-46545085D01*
X83875297Y-46545092D01*
X83744194Y-46632693D01*
X83744190Y-46632696D01*
X83632696Y-46744190D01*
X83632693Y-46744194D01*
X83545092Y-46875297D01*
X83545085Y-46875310D01*
X83484747Y-47020981D01*
X83484744Y-47020993D01*
X83453983Y-47175636D01*
X47350499Y-47175636D01*
X47350499Y-47102128D01*
X47344091Y-47042517D01*
X47336060Y-47020986D01*
X47293797Y-46907671D01*
X47293793Y-46907664D01*
X47207547Y-46792455D01*
X47207544Y-46792452D01*
X47092335Y-46706206D01*
X47092328Y-46706202D01*
X46957482Y-46655908D01*
X46957483Y-46655908D01*
X46897883Y-46649501D01*
X46897881Y-46649500D01*
X46897873Y-46649500D01*
X46897864Y-46649500D01*
X45102129Y-46649500D01*
X45102123Y-46649501D01*
X45042516Y-46655908D01*
X44907671Y-46706202D01*
X44907664Y-46706206D01*
X44792455Y-46792452D01*
X44792452Y-46792455D01*
X44706206Y-46907664D01*
X44706202Y-46907671D01*
X44655908Y-47042517D01*
X44652003Y-47078842D01*
X44649501Y-47102123D01*
X44649500Y-47102135D01*
X44000000Y-47102135D01*
X44000000Y-43124000D01*
X44019685Y-43056961D01*
X44072489Y-43011206D01*
X44124000Y-43000000D01*
X91876000Y-43000000D01*
X91943039Y-43019685D01*
G37*
%TD.AperFunction*%
%TD*%
M02*
