M48
; DRILL file {KiCad 9.0.2} date 2025-07-03T13:44:59+0530
; FORMAT={-:-/ absolute / metric / decimal}
; #@! TF.CreationDate,2025-07-03T13:44:59+05:30
; #@! TF.GenerationSoftware,Kicad,Pcbnew,9.0.2
; #@! TF.FileFunction,Plated,1,4,PTH
FMAT,2
METRIC
; #@! TA.AperFunction,Plated,PTH,ViaDrill
T1C0.300
; #@! TA.AperFunction,Plated,PTH,ComponentDrill
T2C1.000
%
G90
G05
T1
X50.0Y-50.0
X50.0Y-69.0
X50.992Y-63.0
X51.046Y-58.857
X51.79Y-67.88
X51.81Y-70.02
X52.785Y-51.893
X52.785Y-53.785
X53.0Y-60.0
X54.0Y-61.0
X54.0Y-62.0
X54.255Y-56.995
X55.858Y-58.411
X56.0Y-60.0
X56.0Y-61.0
X56.0Y-62.0
X57.0Y-63.0
X58.0Y-66.0
X58.465Y-55.488
X58.998Y-54.619
X59.0Y-62.4
X59.0Y-64.0
X59.0Y-69.0
X59.4Y-58.1
X59.41Y-58.91
X59.46Y-59.71
X60.0Y-51.0
X60.21Y-58.11
X60.22Y-58.92
X60.27Y-59.72
X60.716Y-62.696
X60.98Y-58.11
X60.99Y-58.92
X61.0Y-45.0
X61.0Y-66.0
X61.04Y-59.72
X61.15Y-54.626
X62.0Y-62.0
X63.656Y-58.262
X64.0Y-56.0
X67.73Y-67.61
X79.0Y-51.0
X80.0Y-48.0
X80.0Y-52.0
X84.254Y-47.254
X86.0Y-47.0
X87.0Y-53.0
X87.01Y-55.37
X91.0Y-50.0
T2
X46.0Y-48.0
X46.0Y-50.54
X46.0Y-53.08
X46.0Y-55.62
X46.0Y-58.16
X46.0Y-60.7
X68.0Y-74.0
X70.54Y-74.0
X73.08Y-74.0
X75.62Y-74.0
M30
