%TF.GenerationSoftware,KiCad,Pcbnew,9.0.2*%
%TF.CreationDate,2025-07-03T13:44:50+05:30*%
%TF.ProjectId,Battery Charger and Protection,42617474-6572-4792-9043-686172676572,rev?*%
%TF.SameCoordinates,Original*%
%TF.FileFunction,Legend,Top*%
%TF.FilePolarity,Positive*%
%FSLAX46Y46*%
G04 Gerber Fmt 4.6, Leading zero omitted, Abs format (unit mm)*
G04 Created by KiCad (PCBNEW 9.0.2) date 2025-07-03 13:44:50*
%MOMM*%
%LPD*%
G01*
G04 APERTURE LIST*
%ADD10C,0.150000*%
%ADD11C,0.125000*%
%ADD12C,0.120000*%
%ADD13C,0.127000*%
%ADD14C,0.200000*%
G04 APERTURE END LIST*
D10*
X68929580Y-67119047D02*
X68977200Y-67166666D01*
X68977200Y-67166666D02*
X69024819Y-67309523D01*
X69024819Y-67309523D02*
X69024819Y-67404761D01*
X69024819Y-67404761D02*
X68977200Y-67547618D01*
X68977200Y-67547618D02*
X68881961Y-67642856D01*
X68881961Y-67642856D02*
X68786723Y-67690475D01*
X68786723Y-67690475D02*
X68596247Y-67738094D01*
X68596247Y-67738094D02*
X68453390Y-67738094D01*
X68453390Y-67738094D02*
X68262914Y-67690475D01*
X68262914Y-67690475D02*
X68167676Y-67642856D01*
X68167676Y-67642856D02*
X68072438Y-67547618D01*
X68072438Y-67547618D02*
X68024819Y-67404761D01*
X68024819Y-67404761D02*
X68024819Y-67309523D01*
X68024819Y-67309523D02*
X68072438Y-67166666D01*
X68072438Y-67166666D02*
X68120057Y-67119047D01*
X68120057Y-66738094D02*
X68072438Y-66690475D01*
X68072438Y-66690475D02*
X68024819Y-66595237D01*
X68024819Y-66595237D02*
X68024819Y-66357142D01*
X68024819Y-66357142D02*
X68072438Y-66261904D01*
X68072438Y-66261904D02*
X68120057Y-66214285D01*
X68120057Y-66214285D02*
X68215295Y-66166666D01*
X68215295Y-66166666D02*
X68310533Y-66166666D01*
X68310533Y-66166666D02*
X68453390Y-66214285D01*
X68453390Y-66214285D02*
X69024819Y-66785713D01*
X69024819Y-66785713D02*
X69024819Y-66166666D01*
X68024819Y-65547618D02*
X68024819Y-65452380D01*
X68024819Y-65452380D02*
X68072438Y-65357142D01*
X68072438Y-65357142D02*
X68120057Y-65309523D01*
X68120057Y-65309523D02*
X68215295Y-65261904D01*
X68215295Y-65261904D02*
X68405771Y-65214285D01*
X68405771Y-65214285D02*
X68643866Y-65214285D01*
X68643866Y-65214285D02*
X68834342Y-65261904D01*
X68834342Y-65261904D02*
X68929580Y-65309523D01*
X68929580Y-65309523D02*
X68977200Y-65357142D01*
X68977200Y-65357142D02*
X69024819Y-65452380D01*
X69024819Y-65452380D02*
X69024819Y-65547618D01*
X69024819Y-65547618D02*
X68977200Y-65642856D01*
X68977200Y-65642856D02*
X68929580Y-65690475D01*
X68929580Y-65690475D02*
X68834342Y-65738094D01*
X68834342Y-65738094D02*
X68643866Y-65785713D01*
X68643866Y-65785713D02*
X68405771Y-65785713D01*
X68405771Y-65785713D02*
X68215295Y-65738094D01*
X68215295Y-65738094D02*
X68120057Y-65690475D01*
X68120057Y-65690475D02*
X68072438Y-65642856D01*
X68072438Y-65642856D02*
X68024819Y-65547618D01*
X68024819Y-64357142D02*
X68024819Y-64547618D01*
X68024819Y-64547618D02*
X68072438Y-64642856D01*
X68072438Y-64642856D02*
X68120057Y-64690475D01*
X68120057Y-64690475D02*
X68262914Y-64785713D01*
X68262914Y-64785713D02*
X68453390Y-64833332D01*
X68453390Y-64833332D02*
X68834342Y-64833332D01*
X68834342Y-64833332D02*
X68929580Y-64785713D01*
X68929580Y-64785713D02*
X68977200Y-64738094D01*
X68977200Y-64738094D02*
X69024819Y-64642856D01*
X69024819Y-64642856D02*
X69024819Y-64452380D01*
X69024819Y-64452380D02*
X68977200Y-64357142D01*
X68977200Y-64357142D02*
X68929580Y-64309523D01*
X68929580Y-64309523D02*
X68834342Y-64261904D01*
X68834342Y-64261904D02*
X68596247Y-64261904D01*
X68596247Y-64261904D02*
X68501009Y-64309523D01*
X68501009Y-64309523D02*
X68453390Y-64357142D01*
X68453390Y-64357142D02*
X68405771Y-64452380D01*
X68405771Y-64452380D02*
X68405771Y-64642856D01*
X68405771Y-64642856D02*
X68453390Y-64738094D01*
X68453390Y-64738094D02*
X68501009Y-64785713D01*
X68501009Y-64785713D02*
X68596247Y-64833332D01*
X61814819Y-65109047D02*
X61338628Y-65442380D01*
X61814819Y-65680475D02*
X60814819Y-65680475D01*
X60814819Y-65680475D02*
X60814819Y-65299523D01*
X60814819Y-65299523D02*
X60862438Y-65204285D01*
X60862438Y-65204285D02*
X60910057Y-65156666D01*
X60910057Y-65156666D02*
X61005295Y-65109047D01*
X61005295Y-65109047D02*
X61148152Y-65109047D01*
X61148152Y-65109047D02*
X61243390Y-65156666D01*
X61243390Y-65156666D02*
X61291009Y-65204285D01*
X61291009Y-65204285D02*
X61338628Y-65299523D01*
X61338628Y-65299523D02*
X61338628Y-65680475D01*
X60910057Y-64728094D02*
X60862438Y-64680475D01*
X60862438Y-64680475D02*
X60814819Y-64585237D01*
X60814819Y-64585237D02*
X60814819Y-64347142D01*
X60814819Y-64347142D02*
X60862438Y-64251904D01*
X60862438Y-64251904D02*
X60910057Y-64204285D01*
X60910057Y-64204285D02*
X61005295Y-64156666D01*
X61005295Y-64156666D02*
X61100533Y-64156666D01*
X61100533Y-64156666D02*
X61243390Y-64204285D01*
X61243390Y-64204285D02*
X61814819Y-64775713D01*
X61814819Y-64775713D02*
X61814819Y-64156666D01*
X60814819Y-63537618D02*
X60814819Y-63442380D01*
X60814819Y-63442380D02*
X60862438Y-63347142D01*
X60862438Y-63347142D02*
X60910057Y-63299523D01*
X60910057Y-63299523D02*
X61005295Y-63251904D01*
X61005295Y-63251904D02*
X61195771Y-63204285D01*
X61195771Y-63204285D02*
X61433866Y-63204285D01*
X61433866Y-63204285D02*
X61624342Y-63251904D01*
X61624342Y-63251904D02*
X61719580Y-63299523D01*
X61719580Y-63299523D02*
X61767200Y-63347142D01*
X61767200Y-63347142D02*
X61814819Y-63442380D01*
X61814819Y-63442380D02*
X61814819Y-63537618D01*
X61814819Y-63537618D02*
X61767200Y-63632856D01*
X61767200Y-63632856D02*
X61719580Y-63680475D01*
X61719580Y-63680475D02*
X61624342Y-63728094D01*
X61624342Y-63728094D02*
X61433866Y-63775713D01*
X61433866Y-63775713D02*
X61195771Y-63775713D01*
X61195771Y-63775713D02*
X61005295Y-63728094D01*
X61005295Y-63728094D02*
X60910057Y-63680475D01*
X60910057Y-63680475D02*
X60862438Y-63632856D01*
X60862438Y-63632856D02*
X60814819Y-63537618D01*
X61148152Y-62347142D02*
X61814819Y-62347142D01*
X60767200Y-62585237D02*
X61481485Y-62823332D01*
X61481485Y-62823332D02*
X61481485Y-62204285D01*
X60024819Y-68944047D02*
X59548628Y-69277380D01*
X60024819Y-69515475D02*
X59024819Y-69515475D01*
X59024819Y-69515475D02*
X59024819Y-69134523D01*
X59024819Y-69134523D02*
X59072438Y-69039285D01*
X59072438Y-69039285D02*
X59120057Y-68991666D01*
X59120057Y-68991666D02*
X59215295Y-68944047D01*
X59215295Y-68944047D02*
X59358152Y-68944047D01*
X59358152Y-68944047D02*
X59453390Y-68991666D01*
X59453390Y-68991666D02*
X59501009Y-69039285D01*
X59501009Y-69039285D02*
X59548628Y-69134523D01*
X59548628Y-69134523D02*
X59548628Y-69515475D01*
X59120057Y-68563094D02*
X59072438Y-68515475D01*
X59072438Y-68515475D02*
X59024819Y-68420237D01*
X59024819Y-68420237D02*
X59024819Y-68182142D01*
X59024819Y-68182142D02*
X59072438Y-68086904D01*
X59072438Y-68086904D02*
X59120057Y-68039285D01*
X59120057Y-68039285D02*
X59215295Y-67991666D01*
X59215295Y-67991666D02*
X59310533Y-67991666D01*
X59310533Y-67991666D02*
X59453390Y-68039285D01*
X59453390Y-68039285D02*
X60024819Y-68610713D01*
X60024819Y-68610713D02*
X60024819Y-67991666D01*
X59024819Y-67372618D02*
X59024819Y-67277380D01*
X59024819Y-67277380D02*
X59072438Y-67182142D01*
X59072438Y-67182142D02*
X59120057Y-67134523D01*
X59120057Y-67134523D02*
X59215295Y-67086904D01*
X59215295Y-67086904D02*
X59405771Y-67039285D01*
X59405771Y-67039285D02*
X59643866Y-67039285D01*
X59643866Y-67039285D02*
X59834342Y-67086904D01*
X59834342Y-67086904D02*
X59929580Y-67134523D01*
X59929580Y-67134523D02*
X59977200Y-67182142D01*
X59977200Y-67182142D02*
X60024819Y-67277380D01*
X60024819Y-67277380D02*
X60024819Y-67372618D01*
X60024819Y-67372618D02*
X59977200Y-67467856D01*
X59977200Y-67467856D02*
X59929580Y-67515475D01*
X59929580Y-67515475D02*
X59834342Y-67563094D01*
X59834342Y-67563094D02*
X59643866Y-67610713D01*
X59643866Y-67610713D02*
X59405771Y-67610713D01*
X59405771Y-67610713D02*
X59215295Y-67563094D01*
X59215295Y-67563094D02*
X59120057Y-67515475D01*
X59120057Y-67515475D02*
X59072438Y-67467856D01*
X59072438Y-67467856D02*
X59024819Y-67372618D01*
X59120057Y-66658332D02*
X59072438Y-66610713D01*
X59072438Y-66610713D02*
X59024819Y-66515475D01*
X59024819Y-66515475D02*
X59024819Y-66277380D01*
X59024819Y-66277380D02*
X59072438Y-66182142D01*
X59072438Y-66182142D02*
X59120057Y-66134523D01*
X59120057Y-66134523D02*
X59215295Y-66086904D01*
X59215295Y-66086904D02*
X59310533Y-66086904D01*
X59310533Y-66086904D02*
X59453390Y-66134523D01*
X59453390Y-66134523D02*
X60024819Y-66705951D01*
X60024819Y-66705951D02*
X60024819Y-66086904D01*
X57178979Y-50240927D02*
X57131360Y-50288547D01*
X57131360Y-50288547D02*
X56988503Y-50336166D01*
X56988503Y-50336166D02*
X56893265Y-50336166D01*
X56893265Y-50336166D02*
X56750408Y-50288547D01*
X56750408Y-50288547D02*
X56655170Y-50193308D01*
X56655170Y-50193308D02*
X56607551Y-50098070D01*
X56607551Y-50098070D02*
X56559932Y-49907594D01*
X56559932Y-49907594D02*
X56559932Y-49764737D01*
X56559932Y-49764737D02*
X56607551Y-49574261D01*
X56607551Y-49574261D02*
X56655170Y-49479023D01*
X56655170Y-49479023D02*
X56750408Y-49383785D01*
X56750408Y-49383785D02*
X56893265Y-49336166D01*
X56893265Y-49336166D02*
X56988503Y-49336166D01*
X56988503Y-49336166D02*
X57131360Y-49383785D01*
X57131360Y-49383785D02*
X57178979Y-49431404D01*
X57559932Y-49431404D02*
X57607551Y-49383785D01*
X57607551Y-49383785D02*
X57702789Y-49336166D01*
X57702789Y-49336166D02*
X57940884Y-49336166D01*
X57940884Y-49336166D02*
X58036122Y-49383785D01*
X58036122Y-49383785D02*
X58083741Y-49431404D01*
X58083741Y-49431404D02*
X58131360Y-49526642D01*
X58131360Y-49526642D02*
X58131360Y-49621880D01*
X58131360Y-49621880D02*
X58083741Y-49764737D01*
X58083741Y-49764737D02*
X57512313Y-50336166D01*
X57512313Y-50336166D02*
X58131360Y-50336166D01*
X58750408Y-49336166D02*
X58845646Y-49336166D01*
X58845646Y-49336166D02*
X58940884Y-49383785D01*
X58940884Y-49383785D02*
X58988503Y-49431404D01*
X58988503Y-49431404D02*
X59036122Y-49526642D01*
X59036122Y-49526642D02*
X59083741Y-49717118D01*
X59083741Y-49717118D02*
X59083741Y-49955213D01*
X59083741Y-49955213D02*
X59036122Y-50145689D01*
X59036122Y-50145689D02*
X58988503Y-50240927D01*
X58988503Y-50240927D02*
X58940884Y-50288547D01*
X58940884Y-50288547D02*
X58845646Y-50336166D01*
X58845646Y-50336166D02*
X58750408Y-50336166D01*
X58750408Y-50336166D02*
X58655170Y-50288547D01*
X58655170Y-50288547D02*
X58607551Y-50240927D01*
X58607551Y-50240927D02*
X58559932Y-50145689D01*
X58559932Y-50145689D02*
X58512313Y-49955213D01*
X58512313Y-49955213D02*
X58512313Y-49717118D01*
X58512313Y-49717118D02*
X58559932Y-49526642D01*
X58559932Y-49526642D02*
X58607551Y-49431404D01*
X58607551Y-49431404D02*
X58655170Y-49383785D01*
X58655170Y-49383785D02*
X58750408Y-49336166D01*
X59417075Y-49336166D02*
X60083741Y-49336166D01*
X60083741Y-49336166D02*
X59655170Y-50336166D01*
X52965068Y-52003414D02*
X52631735Y-51527223D01*
X52393640Y-52003414D02*
X52393640Y-51003414D01*
X52393640Y-51003414D02*
X52774592Y-51003414D01*
X52774592Y-51003414D02*
X52869830Y-51051033D01*
X52869830Y-51051033D02*
X52917449Y-51098652D01*
X52917449Y-51098652D02*
X52965068Y-51193890D01*
X52965068Y-51193890D02*
X52965068Y-51336747D01*
X52965068Y-51336747D02*
X52917449Y-51431985D01*
X52917449Y-51431985D02*
X52869830Y-51479604D01*
X52869830Y-51479604D02*
X52774592Y-51527223D01*
X52774592Y-51527223D02*
X52393640Y-51527223D01*
X53346021Y-51098652D02*
X53393640Y-51051033D01*
X53393640Y-51051033D02*
X53488878Y-51003414D01*
X53488878Y-51003414D02*
X53726973Y-51003414D01*
X53726973Y-51003414D02*
X53822211Y-51051033D01*
X53822211Y-51051033D02*
X53869830Y-51098652D01*
X53869830Y-51098652D02*
X53917449Y-51193890D01*
X53917449Y-51193890D02*
X53917449Y-51289128D01*
X53917449Y-51289128D02*
X53869830Y-51431985D01*
X53869830Y-51431985D02*
X53298402Y-52003414D01*
X53298402Y-52003414D02*
X53917449Y-52003414D01*
X54536497Y-51003414D02*
X54631735Y-51003414D01*
X54631735Y-51003414D02*
X54726973Y-51051033D01*
X54726973Y-51051033D02*
X54774592Y-51098652D01*
X54774592Y-51098652D02*
X54822211Y-51193890D01*
X54822211Y-51193890D02*
X54869830Y-51384366D01*
X54869830Y-51384366D02*
X54869830Y-51622461D01*
X54869830Y-51622461D02*
X54822211Y-51812937D01*
X54822211Y-51812937D02*
X54774592Y-51908175D01*
X54774592Y-51908175D02*
X54726973Y-51955795D01*
X54726973Y-51955795D02*
X54631735Y-52003414D01*
X54631735Y-52003414D02*
X54536497Y-52003414D01*
X54536497Y-52003414D02*
X54441259Y-51955795D01*
X54441259Y-51955795D02*
X54393640Y-51908175D01*
X54393640Y-51908175D02*
X54346021Y-51812937D01*
X54346021Y-51812937D02*
X54298402Y-51622461D01*
X54298402Y-51622461D02*
X54298402Y-51384366D01*
X54298402Y-51384366D02*
X54346021Y-51193890D01*
X54346021Y-51193890D02*
X54393640Y-51098652D01*
X54393640Y-51098652D02*
X54441259Y-51051033D01*
X54441259Y-51051033D02*
X54536497Y-51003414D01*
X55203164Y-51003414D02*
X55822211Y-51003414D01*
X55822211Y-51003414D02*
X55488878Y-51384366D01*
X55488878Y-51384366D02*
X55631735Y-51384366D01*
X55631735Y-51384366D02*
X55726973Y-51431985D01*
X55726973Y-51431985D02*
X55774592Y-51479604D01*
X55774592Y-51479604D02*
X55822211Y-51574842D01*
X55822211Y-51574842D02*
X55822211Y-51812937D01*
X55822211Y-51812937D02*
X55774592Y-51908175D01*
X55774592Y-51908175D02*
X55726973Y-51955795D01*
X55726973Y-51955795D02*
X55631735Y-52003414D01*
X55631735Y-52003414D02*
X55346021Y-52003414D01*
X55346021Y-52003414D02*
X55250783Y-51955795D01*
X55250783Y-51955795D02*
X55203164Y-51908175D01*
X88008532Y-49294047D02*
X87532341Y-49627380D01*
X88008532Y-49865475D02*
X87008532Y-49865475D01*
X87008532Y-49865475D02*
X87008532Y-49484523D01*
X87008532Y-49484523D02*
X87056151Y-49389285D01*
X87056151Y-49389285D02*
X87103770Y-49341666D01*
X87103770Y-49341666D02*
X87199008Y-49294047D01*
X87199008Y-49294047D02*
X87341865Y-49294047D01*
X87341865Y-49294047D02*
X87437103Y-49341666D01*
X87437103Y-49341666D02*
X87484722Y-49389285D01*
X87484722Y-49389285D02*
X87532341Y-49484523D01*
X87532341Y-49484523D02*
X87532341Y-49865475D01*
X87103770Y-48913094D02*
X87056151Y-48865475D01*
X87056151Y-48865475D02*
X87008532Y-48770237D01*
X87008532Y-48770237D02*
X87008532Y-48532142D01*
X87008532Y-48532142D02*
X87056151Y-48436904D01*
X87056151Y-48436904D02*
X87103770Y-48389285D01*
X87103770Y-48389285D02*
X87199008Y-48341666D01*
X87199008Y-48341666D02*
X87294246Y-48341666D01*
X87294246Y-48341666D02*
X87437103Y-48389285D01*
X87437103Y-48389285D02*
X88008532Y-48960713D01*
X88008532Y-48960713D02*
X88008532Y-48341666D01*
X87008532Y-47722618D02*
X87008532Y-47627380D01*
X87008532Y-47627380D02*
X87056151Y-47532142D01*
X87056151Y-47532142D02*
X87103770Y-47484523D01*
X87103770Y-47484523D02*
X87199008Y-47436904D01*
X87199008Y-47436904D02*
X87389484Y-47389285D01*
X87389484Y-47389285D02*
X87627579Y-47389285D01*
X87627579Y-47389285D02*
X87818055Y-47436904D01*
X87818055Y-47436904D02*
X87913293Y-47484523D01*
X87913293Y-47484523D02*
X87960913Y-47532142D01*
X87960913Y-47532142D02*
X88008532Y-47627380D01*
X88008532Y-47627380D02*
X88008532Y-47722618D01*
X88008532Y-47722618D02*
X87960913Y-47817856D01*
X87960913Y-47817856D02*
X87913293Y-47865475D01*
X87913293Y-47865475D02*
X87818055Y-47913094D01*
X87818055Y-47913094D02*
X87627579Y-47960713D01*
X87627579Y-47960713D02*
X87389484Y-47960713D01*
X87389484Y-47960713D02*
X87199008Y-47913094D01*
X87199008Y-47913094D02*
X87103770Y-47865475D01*
X87103770Y-47865475D02*
X87056151Y-47817856D01*
X87056151Y-47817856D02*
X87008532Y-47722618D01*
X88008532Y-46913094D02*
X88008532Y-46722618D01*
X88008532Y-46722618D02*
X87960913Y-46627380D01*
X87960913Y-46627380D02*
X87913293Y-46579761D01*
X87913293Y-46579761D02*
X87770436Y-46484523D01*
X87770436Y-46484523D02*
X87579960Y-46436904D01*
X87579960Y-46436904D02*
X87199008Y-46436904D01*
X87199008Y-46436904D02*
X87103770Y-46484523D01*
X87103770Y-46484523D02*
X87056151Y-46532142D01*
X87056151Y-46532142D02*
X87008532Y-46627380D01*
X87008532Y-46627380D02*
X87008532Y-46817856D01*
X87008532Y-46817856D02*
X87056151Y-46913094D01*
X87056151Y-46913094D02*
X87103770Y-46960713D01*
X87103770Y-46960713D02*
X87199008Y-47008332D01*
X87199008Y-47008332D02*
X87437103Y-47008332D01*
X87437103Y-47008332D02*
X87532341Y-46960713D01*
X87532341Y-46960713D02*
X87579960Y-46913094D01*
X87579960Y-46913094D02*
X87627579Y-46817856D01*
X87627579Y-46817856D02*
X87627579Y-46627380D01*
X87627579Y-46627380D02*
X87579960Y-46532142D01*
X87579960Y-46532142D02*
X87532341Y-46484523D01*
X87532341Y-46484523D02*
X87437103Y-46436904D01*
X65154580Y-67119047D02*
X65202200Y-67166666D01*
X65202200Y-67166666D02*
X65249819Y-67309523D01*
X65249819Y-67309523D02*
X65249819Y-67404761D01*
X65249819Y-67404761D02*
X65202200Y-67547618D01*
X65202200Y-67547618D02*
X65106961Y-67642856D01*
X65106961Y-67642856D02*
X65011723Y-67690475D01*
X65011723Y-67690475D02*
X64821247Y-67738094D01*
X64821247Y-67738094D02*
X64678390Y-67738094D01*
X64678390Y-67738094D02*
X64487914Y-67690475D01*
X64487914Y-67690475D02*
X64392676Y-67642856D01*
X64392676Y-67642856D02*
X64297438Y-67547618D01*
X64297438Y-67547618D02*
X64249819Y-67404761D01*
X64249819Y-67404761D02*
X64249819Y-67309523D01*
X64249819Y-67309523D02*
X64297438Y-67166666D01*
X64297438Y-67166666D02*
X64345057Y-67119047D01*
X64345057Y-66738094D02*
X64297438Y-66690475D01*
X64297438Y-66690475D02*
X64249819Y-66595237D01*
X64249819Y-66595237D02*
X64249819Y-66357142D01*
X64249819Y-66357142D02*
X64297438Y-66261904D01*
X64297438Y-66261904D02*
X64345057Y-66214285D01*
X64345057Y-66214285D02*
X64440295Y-66166666D01*
X64440295Y-66166666D02*
X64535533Y-66166666D01*
X64535533Y-66166666D02*
X64678390Y-66214285D01*
X64678390Y-66214285D02*
X65249819Y-66785713D01*
X65249819Y-66785713D02*
X65249819Y-66166666D01*
X64249819Y-65547618D02*
X64249819Y-65452380D01*
X64249819Y-65452380D02*
X64297438Y-65357142D01*
X64297438Y-65357142D02*
X64345057Y-65309523D01*
X64345057Y-65309523D02*
X64440295Y-65261904D01*
X64440295Y-65261904D02*
X64630771Y-65214285D01*
X64630771Y-65214285D02*
X64868866Y-65214285D01*
X64868866Y-65214285D02*
X65059342Y-65261904D01*
X65059342Y-65261904D02*
X65154580Y-65309523D01*
X65154580Y-65309523D02*
X65202200Y-65357142D01*
X65202200Y-65357142D02*
X65249819Y-65452380D01*
X65249819Y-65452380D02*
X65249819Y-65547618D01*
X65249819Y-65547618D02*
X65202200Y-65642856D01*
X65202200Y-65642856D02*
X65154580Y-65690475D01*
X65154580Y-65690475D02*
X65059342Y-65738094D01*
X65059342Y-65738094D02*
X64868866Y-65785713D01*
X64868866Y-65785713D02*
X64630771Y-65785713D01*
X64630771Y-65785713D02*
X64440295Y-65738094D01*
X64440295Y-65738094D02*
X64345057Y-65690475D01*
X64345057Y-65690475D02*
X64297438Y-65642856D01*
X64297438Y-65642856D02*
X64249819Y-65547618D01*
X64249819Y-64309523D02*
X64249819Y-64785713D01*
X64249819Y-64785713D02*
X64726009Y-64833332D01*
X64726009Y-64833332D02*
X64678390Y-64785713D01*
X64678390Y-64785713D02*
X64630771Y-64690475D01*
X64630771Y-64690475D02*
X64630771Y-64452380D01*
X64630771Y-64452380D02*
X64678390Y-64357142D01*
X64678390Y-64357142D02*
X64726009Y-64309523D01*
X64726009Y-64309523D02*
X64821247Y-64261904D01*
X64821247Y-64261904D02*
X65059342Y-64261904D01*
X65059342Y-64261904D02*
X65154580Y-64309523D01*
X65154580Y-64309523D02*
X65202200Y-64357142D01*
X65202200Y-64357142D02*
X65249819Y-64452380D01*
X65249819Y-64452380D02*
X65249819Y-64690475D01*
X65249819Y-64690475D02*
X65202200Y-64785713D01*
X65202200Y-64785713D02*
X65154580Y-64833332D01*
X65929580Y-70894047D02*
X65977200Y-70941666D01*
X65977200Y-70941666D02*
X66024819Y-71084523D01*
X66024819Y-71084523D02*
X66024819Y-71179761D01*
X66024819Y-71179761D02*
X65977200Y-71322618D01*
X65977200Y-71322618D02*
X65881961Y-71417856D01*
X65881961Y-71417856D02*
X65786723Y-71465475D01*
X65786723Y-71465475D02*
X65596247Y-71513094D01*
X65596247Y-71513094D02*
X65453390Y-71513094D01*
X65453390Y-71513094D02*
X65262914Y-71465475D01*
X65262914Y-71465475D02*
X65167676Y-71417856D01*
X65167676Y-71417856D02*
X65072438Y-71322618D01*
X65072438Y-71322618D02*
X65024819Y-71179761D01*
X65024819Y-71179761D02*
X65024819Y-71084523D01*
X65024819Y-71084523D02*
X65072438Y-70941666D01*
X65072438Y-70941666D02*
X65120057Y-70894047D01*
X65120057Y-70513094D02*
X65072438Y-70465475D01*
X65072438Y-70465475D02*
X65024819Y-70370237D01*
X65024819Y-70370237D02*
X65024819Y-70132142D01*
X65024819Y-70132142D02*
X65072438Y-70036904D01*
X65072438Y-70036904D02*
X65120057Y-69989285D01*
X65120057Y-69989285D02*
X65215295Y-69941666D01*
X65215295Y-69941666D02*
X65310533Y-69941666D01*
X65310533Y-69941666D02*
X65453390Y-69989285D01*
X65453390Y-69989285D02*
X66024819Y-70560713D01*
X66024819Y-70560713D02*
X66024819Y-69941666D01*
X65024819Y-69322618D02*
X65024819Y-69227380D01*
X65024819Y-69227380D02*
X65072438Y-69132142D01*
X65072438Y-69132142D02*
X65120057Y-69084523D01*
X65120057Y-69084523D02*
X65215295Y-69036904D01*
X65215295Y-69036904D02*
X65405771Y-68989285D01*
X65405771Y-68989285D02*
X65643866Y-68989285D01*
X65643866Y-68989285D02*
X65834342Y-69036904D01*
X65834342Y-69036904D02*
X65929580Y-69084523D01*
X65929580Y-69084523D02*
X65977200Y-69132142D01*
X65977200Y-69132142D02*
X66024819Y-69227380D01*
X66024819Y-69227380D02*
X66024819Y-69322618D01*
X66024819Y-69322618D02*
X65977200Y-69417856D01*
X65977200Y-69417856D02*
X65929580Y-69465475D01*
X65929580Y-69465475D02*
X65834342Y-69513094D01*
X65834342Y-69513094D02*
X65643866Y-69560713D01*
X65643866Y-69560713D02*
X65405771Y-69560713D01*
X65405771Y-69560713D02*
X65215295Y-69513094D01*
X65215295Y-69513094D02*
X65120057Y-69465475D01*
X65120057Y-69465475D02*
X65072438Y-69417856D01*
X65072438Y-69417856D02*
X65024819Y-69322618D01*
X66024819Y-68513094D02*
X66024819Y-68322618D01*
X66024819Y-68322618D02*
X65977200Y-68227380D01*
X65977200Y-68227380D02*
X65929580Y-68179761D01*
X65929580Y-68179761D02*
X65786723Y-68084523D01*
X65786723Y-68084523D02*
X65596247Y-68036904D01*
X65596247Y-68036904D02*
X65215295Y-68036904D01*
X65215295Y-68036904D02*
X65120057Y-68084523D01*
X65120057Y-68084523D02*
X65072438Y-68132142D01*
X65072438Y-68132142D02*
X65024819Y-68227380D01*
X65024819Y-68227380D02*
X65024819Y-68417856D01*
X65024819Y-68417856D02*
X65072438Y-68513094D01*
X65072438Y-68513094D02*
X65120057Y-68560713D01*
X65120057Y-68560713D02*
X65215295Y-68608332D01*
X65215295Y-68608332D02*
X65453390Y-68608332D01*
X65453390Y-68608332D02*
X65548628Y-68560713D01*
X65548628Y-68560713D02*
X65596247Y-68513094D01*
X65596247Y-68513094D02*
X65643866Y-68417856D01*
X65643866Y-68417856D02*
X65643866Y-68227380D01*
X65643866Y-68227380D02*
X65596247Y-68132142D01*
X65596247Y-68132142D02*
X65548628Y-68084523D01*
X65548628Y-68084523D02*
X65453390Y-68036904D01*
X88880952Y-58454819D02*
X88547619Y-57978628D01*
X88309524Y-58454819D02*
X88309524Y-57454819D01*
X88309524Y-57454819D02*
X88690476Y-57454819D01*
X88690476Y-57454819D02*
X88785714Y-57502438D01*
X88785714Y-57502438D02*
X88833333Y-57550057D01*
X88833333Y-57550057D02*
X88880952Y-57645295D01*
X88880952Y-57645295D02*
X88880952Y-57788152D01*
X88880952Y-57788152D02*
X88833333Y-57883390D01*
X88833333Y-57883390D02*
X88785714Y-57931009D01*
X88785714Y-57931009D02*
X88690476Y-57978628D01*
X88690476Y-57978628D02*
X88309524Y-57978628D01*
X89261905Y-57550057D02*
X89309524Y-57502438D01*
X89309524Y-57502438D02*
X89404762Y-57454819D01*
X89404762Y-57454819D02*
X89642857Y-57454819D01*
X89642857Y-57454819D02*
X89738095Y-57502438D01*
X89738095Y-57502438D02*
X89785714Y-57550057D01*
X89785714Y-57550057D02*
X89833333Y-57645295D01*
X89833333Y-57645295D02*
X89833333Y-57740533D01*
X89833333Y-57740533D02*
X89785714Y-57883390D01*
X89785714Y-57883390D02*
X89214286Y-58454819D01*
X89214286Y-58454819D02*
X89833333Y-58454819D01*
X90785714Y-58454819D02*
X90214286Y-58454819D01*
X90500000Y-58454819D02*
X90500000Y-57454819D01*
X90500000Y-57454819D02*
X90404762Y-57597676D01*
X90404762Y-57597676D02*
X90309524Y-57692914D01*
X90309524Y-57692914D02*
X90214286Y-57740533D01*
X91738095Y-58454819D02*
X91166667Y-58454819D01*
X91452381Y-58454819D02*
X91452381Y-57454819D01*
X91452381Y-57454819D02*
X91357143Y-57597676D01*
X91357143Y-57597676D02*
X91261905Y-57692914D01*
X91261905Y-57692914D02*
X91166667Y-57740533D01*
D11*
X56714762Y-54447404D02*
X56676666Y-54485500D01*
X56676666Y-54485500D02*
X56562381Y-54523595D01*
X56562381Y-54523595D02*
X56486190Y-54523595D01*
X56486190Y-54523595D02*
X56371904Y-54485500D01*
X56371904Y-54485500D02*
X56295714Y-54409309D01*
X56295714Y-54409309D02*
X56257619Y-54333119D01*
X56257619Y-54333119D02*
X56219523Y-54180738D01*
X56219523Y-54180738D02*
X56219523Y-54066452D01*
X56219523Y-54066452D02*
X56257619Y-53914071D01*
X56257619Y-53914071D02*
X56295714Y-53837880D01*
X56295714Y-53837880D02*
X56371904Y-53761690D01*
X56371904Y-53761690D02*
X56486190Y-53723595D01*
X56486190Y-53723595D02*
X56562381Y-53723595D01*
X56562381Y-53723595D02*
X56676666Y-53761690D01*
X56676666Y-53761690D02*
X56714762Y-53799785D01*
X57019523Y-53799785D02*
X57057619Y-53761690D01*
X57057619Y-53761690D02*
X57133809Y-53723595D01*
X57133809Y-53723595D02*
X57324285Y-53723595D01*
X57324285Y-53723595D02*
X57400476Y-53761690D01*
X57400476Y-53761690D02*
X57438571Y-53799785D01*
X57438571Y-53799785D02*
X57476666Y-53875976D01*
X57476666Y-53875976D02*
X57476666Y-53952166D01*
X57476666Y-53952166D02*
X57438571Y-54066452D01*
X57438571Y-54066452D02*
X56981428Y-54523595D01*
X56981428Y-54523595D02*
X57476666Y-54523595D01*
X57971905Y-53723595D02*
X58048095Y-53723595D01*
X58048095Y-53723595D02*
X58124286Y-53761690D01*
X58124286Y-53761690D02*
X58162381Y-53799785D01*
X58162381Y-53799785D02*
X58200476Y-53875976D01*
X58200476Y-53875976D02*
X58238571Y-54028357D01*
X58238571Y-54028357D02*
X58238571Y-54218833D01*
X58238571Y-54218833D02*
X58200476Y-54371214D01*
X58200476Y-54371214D02*
X58162381Y-54447404D01*
X58162381Y-54447404D02*
X58124286Y-54485500D01*
X58124286Y-54485500D02*
X58048095Y-54523595D01*
X58048095Y-54523595D02*
X57971905Y-54523595D01*
X57971905Y-54523595D02*
X57895714Y-54485500D01*
X57895714Y-54485500D02*
X57857619Y-54447404D01*
X57857619Y-54447404D02*
X57819524Y-54371214D01*
X57819524Y-54371214D02*
X57781428Y-54218833D01*
X57781428Y-54218833D02*
X57781428Y-54028357D01*
X57781428Y-54028357D02*
X57819524Y-53875976D01*
X57819524Y-53875976D02*
X57857619Y-53799785D01*
X57857619Y-53799785D02*
X57895714Y-53761690D01*
X57895714Y-53761690D02*
X57971905Y-53723595D01*
X58695714Y-54066452D02*
X58619524Y-54028357D01*
X58619524Y-54028357D02*
X58581429Y-53990261D01*
X58581429Y-53990261D02*
X58543333Y-53914071D01*
X58543333Y-53914071D02*
X58543333Y-53875976D01*
X58543333Y-53875976D02*
X58581429Y-53799785D01*
X58581429Y-53799785D02*
X58619524Y-53761690D01*
X58619524Y-53761690D02*
X58695714Y-53723595D01*
X58695714Y-53723595D02*
X58848095Y-53723595D01*
X58848095Y-53723595D02*
X58924286Y-53761690D01*
X58924286Y-53761690D02*
X58962381Y-53799785D01*
X58962381Y-53799785D02*
X59000476Y-53875976D01*
X59000476Y-53875976D02*
X59000476Y-53914071D01*
X59000476Y-53914071D02*
X58962381Y-53990261D01*
X58962381Y-53990261D02*
X58924286Y-54028357D01*
X58924286Y-54028357D02*
X58848095Y-54066452D01*
X58848095Y-54066452D02*
X58695714Y-54066452D01*
X58695714Y-54066452D02*
X58619524Y-54104547D01*
X58619524Y-54104547D02*
X58581429Y-54142642D01*
X58581429Y-54142642D02*
X58543333Y-54218833D01*
X58543333Y-54218833D02*
X58543333Y-54371214D01*
X58543333Y-54371214D02*
X58581429Y-54447404D01*
X58581429Y-54447404D02*
X58619524Y-54485500D01*
X58619524Y-54485500D02*
X58695714Y-54523595D01*
X58695714Y-54523595D02*
X58848095Y-54523595D01*
X58848095Y-54523595D02*
X58924286Y-54485500D01*
X58924286Y-54485500D02*
X58962381Y-54447404D01*
X58962381Y-54447404D02*
X59000476Y-54371214D01*
X59000476Y-54371214D02*
X59000476Y-54218833D01*
X59000476Y-54218833D02*
X58962381Y-54142642D01*
X58962381Y-54142642D02*
X58924286Y-54104547D01*
X58924286Y-54104547D02*
X58848095Y-54066452D01*
D10*
X52965068Y-54293414D02*
X52631735Y-53817223D01*
X52393640Y-54293414D02*
X52393640Y-53293414D01*
X52393640Y-53293414D02*
X52774592Y-53293414D01*
X52774592Y-53293414D02*
X52869830Y-53341033D01*
X52869830Y-53341033D02*
X52917449Y-53388652D01*
X52917449Y-53388652D02*
X52965068Y-53483890D01*
X52965068Y-53483890D02*
X52965068Y-53626747D01*
X52965068Y-53626747D02*
X52917449Y-53721985D01*
X52917449Y-53721985D02*
X52869830Y-53769604D01*
X52869830Y-53769604D02*
X52774592Y-53817223D01*
X52774592Y-53817223D02*
X52393640Y-53817223D01*
X53346021Y-53388652D02*
X53393640Y-53341033D01*
X53393640Y-53341033D02*
X53488878Y-53293414D01*
X53488878Y-53293414D02*
X53726973Y-53293414D01*
X53726973Y-53293414D02*
X53822211Y-53341033D01*
X53822211Y-53341033D02*
X53869830Y-53388652D01*
X53869830Y-53388652D02*
X53917449Y-53483890D01*
X53917449Y-53483890D02*
X53917449Y-53579128D01*
X53917449Y-53579128D02*
X53869830Y-53721985D01*
X53869830Y-53721985D02*
X53298402Y-54293414D01*
X53298402Y-54293414D02*
X53917449Y-54293414D01*
X54536497Y-53293414D02*
X54631735Y-53293414D01*
X54631735Y-53293414D02*
X54726973Y-53341033D01*
X54726973Y-53341033D02*
X54774592Y-53388652D01*
X54774592Y-53388652D02*
X54822211Y-53483890D01*
X54822211Y-53483890D02*
X54869830Y-53674366D01*
X54869830Y-53674366D02*
X54869830Y-53912461D01*
X54869830Y-53912461D02*
X54822211Y-54102937D01*
X54822211Y-54102937D02*
X54774592Y-54198175D01*
X54774592Y-54198175D02*
X54726973Y-54245795D01*
X54726973Y-54245795D02*
X54631735Y-54293414D01*
X54631735Y-54293414D02*
X54536497Y-54293414D01*
X54536497Y-54293414D02*
X54441259Y-54245795D01*
X54441259Y-54245795D02*
X54393640Y-54198175D01*
X54393640Y-54198175D02*
X54346021Y-54102937D01*
X54346021Y-54102937D02*
X54298402Y-53912461D01*
X54298402Y-53912461D02*
X54298402Y-53674366D01*
X54298402Y-53674366D02*
X54346021Y-53483890D01*
X54346021Y-53483890D02*
X54393640Y-53388652D01*
X54393640Y-53388652D02*
X54441259Y-53341033D01*
X54441259Y-53341033D02*
X54536497Y-53293414D01*
X55822211Y-54293414D02*
X55250783Y-54293414D01*
X55536497Y-54293414D02*
X55536497Y-53293414D01*
X55536497Y-53293414D02*
X55441259Y-53436271D01*
X55441259Y-53436271D02*
X55346021Y-53531509D01*
X55346021Y-53531509D02*
X55250783Y-53579128D01*
X52810095Y-58408226D02*
X52476762Y-57932035D01*
X52238667Y-58408226D02*
X52238667Y-57408226D01*
X52238667Y-57408226D02*
X52619619Y-57408226D01*
X52619619Y-57408226D02*
X52714857Y-57455845D01*
X52714857Y-57455845D02*
X52762476Y-57503464D01*
X52762476Y-57503464D02*
X52810095Y-57598702D01*
X52810095Y-57598702D02*
X52810095Y-57741559D01*
X52810095Y-57741559D02*
X52762476Y-57836797D01*
X52762476Y-57836797D02*
X52714857Y-57884416D01*
X52714857Y-57884416D02*
X52619619Y-57932035D01*
X52619619Y-57932035D02*
X52238667Y-57932035D01*
X53191048Y-57503464D02*
X53238667Y-57455845D01*
X53238667Y-57455845D02*
X53333905Y-57408226D01*
X53333905Y-57408226D02*
X53572000Y-57408226D01*
X53572000Y-57408226D02*
X53667238Y-57455845D01*
X53667238Y-57455845D02*
X53714857Y-57503464D01*
X53714857Y-57503464D02*
X53762476Y-57598702D01*
X53762476Y-57598702D02*
X53762476Y-57693940D01*
X53762476Y-57693940D02*
X53714857Y-57836797D01*
X53714857Y-57836797D02*
X53143429Y-58408226D01*
X53143429Y-58408226D02*
X53762476Y-58408226D01*
X54381524Y-57408226D02*
X54476762Y-57408226D01*
X54476762Y-57408226D02*
X54572000Y-57455845D01*
X54572000Y-57455845D02*
X54619619Y-57503464D01*
X54619619Y-57503464D02*
X54667238Y-57598702D01*
X54667238Y-57598702D02*
X54714857Y-57789178D01*
X54714857Y-57789178D02*
X54714857Y-58027273D01*
X54714857Y-58027273D02*
X54667238Y-58217749D01*
X54667238Y-58217749D02*
X54619619Y-58312987D01*
X54619619Y-58312987D02*
X54572000Y-58360607D01*
X54572000Y-58360607D02*
X54476762Y-58408226D01*
X54476762Y-58408226D02*
X54381524Y-58408226D01*
X54381524Y-58408226D02*
X54286286Y-58360607D01*
X54286286Y-58360607D02*
X54238667Y-58312987D01*
X54238667Y-58312987D02*
X54191048Y-58217749D01*
X54191048Y-58217749D02*
X54143429Y-58027273D01*
X54143429Y-58027273D02*
X54143429Y-57789178D01*
X54143429Y-57789178D02*
X54191048Y-57598702D01*
X54191048Y-57598702D02*
X54238667Y-57503464D01*
X54238667Y-57503464D02*
X54286286Y-57455845D01*
X54286286Y-57455845D02*
X54381524Y-57408226D01*
X55572000Y-57408226D02*
X55381524Y-57408226D01*
X55381524Y-57408226D02*
X55286286Y-57455845D01*
X55286286Y-57455845D02*
X55238667Y-57503464D01*
X55238667Y-57503464D02*
X55143429Y-57646321D01*
X55143429Y-57646321D02*
X55095810Y-57836797D01*
X55095810Y-57836797D02*
X55095810Y-58217749D01*
X55095810Y-58217749D02*
X55143429Y-58312987D01*
X55143429Y-58312987D02*
X55191048Y-58360607D01*
X55191048Y-58360607D02*
X55286286Y-58408226D01*
X55286286Y-58408226D02*
X55476762Y-58408226D01*
X55476762Y-58408226D02*
X55572000Y-58360607D01*
X55572000Y-58360607D02*
X55619619Y-58312987D01*
X55619619Y-58312987D02*
X55667238Y-58217749D01*
X55667238Y-58217749D02*
X55667238Y-57979654D01*
X55667238Y-57979654D02*
X55619619Y-57884416D01*
X55619619Y-57884416D02*
X55572000Y-57836797D01*
X55572000Y-57836797D02*
X55476762Y-57789178D01*
X55476762Y-57789178D02*
X55286286Y-57789178D01*
X55286286Y-57789178D02*
X55191048Y-57836797D01*
X55191048Y-57836797D02*
X55143429Y-57884416D01*
X55143429Y-57884416D02*
X55095810Y-57979654D01*
X45666666Y-45074819D02*
X45666666Y-45789104D01*
X45666666Y-45789104D02*
X45619047Y-45931961D01*
X45619047Y-45931961D02*
X45523809Y-46027200D01*
X45523809Y-46027200D02*
X45380952Y-46074819D01*
X45380952Y-46074819D02*
X45285714Y-46074819D01*
X46095238Y-45170057D02*
X46142857Y-45122438D01*
X46142857Y-45122438D02*
X46238095Y-45074819D01*
X46238095Y-45074819D02*
X46476190Y-45074819D01*
X46476190Y-45074819D02*
X46571428Y-45122438D01*
X46571428Y-45122438D02*
X46619047Y-45170057D01*
X46619047Y-45170057D02*
X46666666Y-45265295D01*
X46666666Y-45265295D02*
X46666666Y-45360533D01*
X46666666Y-45360533D02*
X46619047Y-45503390D01*
X46619047Y-45503390D02*
X46047619Y-46074819D01*
X46047619Y-46074819D02*
X46666666Y-46074819D01*
X58710714Y-54764819D02*
X58710714Y-55574342D01*
X58710714Y-55574342D02*
X58758333Y-55669580D01*
X58758333Y-55669580D02*
X58805952Y-55717200D01*
X58805952Y-55717200D02*
X58901190Y-55764819D01*
X58901190Y-55764819D02*
X59091666Y-55764819D01*
X59091666Y-55764819D02*
X59186904Y-55717200D01*
X59186904Y-55717200D02*
X59234523Y-55669580D01*
X59234523Y-55669580D02*
X59282142Y-55574342D01*
X59282142Y-55574342D02*
X59282142Y-54764819D01*
X59710714Y-54860057D02*
X59758333Y-54812438D01*
X59758333Y-54812438D02*
X59853571Y-54764819D01*
X59853571Y-54764819D02*
X60091666Y-54764819D01*
X60091666Y-54764819D02*
X60186904Y-54812438D01*
X60186904Y-54812438D02*
X60234523Y-54860057D01*
X60234523Y-54860057D02*
X60282142Y-54955295D01*
X60282142Y-54955295D02*
X60282142Y-55050533D01*
X60282142Y-55050533D02*
X60234523Y-55193390D01*
X60234523Y-55193390D02*
X59663095Y-55764819D01*
X59663095Y-55764819D02*
X60282142Y-55764819D01*
X60901190Y-54764819D02*
X60996428Y-54764819D01*
X60996428Y-54764819D02*
X61091666Y-54812438D01*
X61091666Y-54812438D02*
X61139285Y-54860057D01*
X61139285Y-54860057D02*
X61186904Y-54955295D01*
X61186904Y-54955295D02*
X61234523Y-55145771D01*
X61234523Y-55145771D02*
X61234523Y-55383866D01*
X61234523Y-55383866D02*
X61186904Y-55574342D01*
X61186904Y-55574342D02*
X61139285Y-55669580D01*
X61139285Y-55669580D02*
X61091666Y-55717200D01*
X61091666Y-55717200D02*
X60996428Y-55764819D01*
X60996428Y-55764819D02*
X60901190Y-55764819D01*
X60901190Y-55764819D02*
X60805952Y-55717200D01*
X60805952Y-55717200D02*
X60758333Y-55669580D01*
X60758333Y-55669580D02*
X60710714Y-55574342D01*
X60710714Y-55574342D02*
X60663095Y-55383866D01*
X60663095Y-55383866D02*
X60663095Y-55145771D01*
X60663095Y-55145771D02*
X60710714Y-54955295D01*
X60710714Y-54955295D02*
X60758333Y-54860057D01*
X60758333Y-54860057D02*
X60805952Y-54812438D01*
X60805952Y-54812438D02*
X60901190Y-54764819D01*
X61853571Y-54764819D02*
X61948809Y-54764819D01*
X61948809Y-54764819D02*
X62044047Y-54812438D01*
X62044047Y-54812438D02*
X62091666Y-54860057D01*
X62091666Y-54860057D02*
X62139285Y-54955295D01*
X62139285Y-54955295D02*
X62186904Y-55145771D01*
X62186904Y-55145771D02*
X62186904Y-55383866D01*
X62186904Y-55383866D02*
X62139285Y-55574342D01*
X62139285Y-55574342D02*
X62091666Y-55669580D01*
X62091666Y-55669580D02*
X62044047Y-55717200D01*
X62044047Y-55717200D02*
X61948809Y-55764819D01*
X61948809Y-55764819D02*
X61853571Y-55764819D01*
X61853571Y-55764819D02*
X61758333Y-55717200D01*
X61758333Y-55717200D02*
X61710714Y-55669580D01*
X61710714Y-55669580D02*
X61663095Y-55574342D01*
X61663095Y-55574342D02*
X61615476Y-55383866D01*
X61615476Y-55383866D02*
X61615476Y-55145771D01*
X61615476Y-55145771D02*
X61663095Y-54955295D01*
X61663095Y-54955295D02*
X61710714Y-54860057D01*
X61710714Y-54860057D02*
X61758333Y-54812438D01*
X61758333Y-54812438D02*
X61853571Y-54764819D01*
X91454819Y-52944047D02*
X90978628Y-53277380D01*
X91454819Y-53515475D02*
X90454819Y-53515475D01*
X90454819Y-53515475D02*
X90454819Y-53134523D01*
X90454819Y-53134523D02*
X90502438Y-53039285D01*
X90502438Y-53039285D02*
X90550057Y-52991666D01*
X90550057Y-52991666D02*
X90645295Y-52944047D01*
X90645295Y-52944047D02*
X90788152Y-52944047D01*
X90788152Y-52944047D02*
X90883390Y-52991666D01*
X90883390Y-52991666D02*
X90931009Y-53039285D01*
X90931009Y-53039285D02*
X90978628Y-53134523D01*
X90978628Y-53134523D02*
X90978628Y-53515475D01*
X90550057Y-52563094D02*
X90502438Y-52515475D01*
X90502438Y-52515475D02*
X90454819Y-52420237D01*
X90454819Y-52420237D02*
X90454819Y-52182142D01*
X90454819Y-52182142D02*
X90502438Y-52086904D01*
X90502438Y-52086904D02*
X90550057Y-52039285D01*
X90550057Y-52039285D02*
X90645295Y-51991666D01*
X90645295Y-51991666D02*
X90740533Y-51991666D01*
X90740533Y-51991666D02*
X90883390Y-52039285D01*
X90883390Y-52039285D02*
X91454819Y-52610713D01*
X91454819Y-52610713D02*
X91454819Y-51991666D01*
X91454819Y-51039285D02*
X91454819Y-51610713D01*
X91454819Y-51324999D02*
X90454819Y-51324999D01*
X90454819Y-51324999D02*
X90597676Y-51420237D01*
X90597676Y-51420237D02*
X90692914Y-51515475D01*
X90692914Y-51515475D02*
X90740533Y-51610713D01*
X90454819Y-50420237D02*
X90454819Y-50324999D01*
X90454819Y-50324999D02*
X90502438Y-50229761D01*
X90502438Y-50229761D02*
X90550057Y-50182142D01*
X90550057Y-50182142D02*
X90645295Y-50134523D01*
X90645295Y-50134523D02*
X90835771Y-50086904D01*
X90835771Y-50086904D02*
X91073866Y-50086904D01*
X91073866Y-50086904D02*
X91264342Y-50134523D01*
X91264342Y-50134523D02*
X91359580Y-50182142D01*
X91359580Y-50182142D02*
X91407200Y-50229761D01*
X91407200Y-50229761D02*
X91454819Y-50324999D01*
X91454819Y-50324999D02*
X91454819Y-50420237D01*
X91454819Y-50420237D02*
X91407200Y-50515475D01*
X91407200Y-50515475D02*
X91359580Y-50563094D01*
X91359580Y-50563094D02*
X91264342Y-50610713D01*
X91264342Y-50610713D02*
X91073866Y-50658332D01*
X91073866Y-50658332D02*
X90835771Y-50658332D01*
X90835771Y-50658332D02*
X90645295Y-50610713D01*
X90645295Y-50610713D02*
X90550057Y-50563094D01*
X90550057Y-50563094D02*
X90502438Y-50515475D01*
X90502438Y-50515475D02*
X90454819Y-50420237D01*
X62099580Y-48369047D02*
X62147200Y-48416666D01*
X62147200Y-48416666D02*
X62194819Y-48559523D01*
X62194819Y-48559523D02*
X62194819Y-48654761D01*
X62194819Y-48654761D02*
X62147200Y-48797618D01*
X62147200Y-48797618D02*
X62051961Y-48892856D01*
X62051961Y-48892856D02*
X61956723Y-48940475D01*
X61956723Y-48940475D02*
X61766247Y-48988094D01*
X61766247Y-48988094D02*
X61623390Y-48988094D01*
X61623390Y-48988094D02*
X61432914Y-48940475D01*
X61432914Y-48940475D02*
X61337676Y-48892856D01*
X61337676Y-48892856D02*
X61242438Y-48797618D01*
X61242438Y-48797618D02*
X61194819Y-48654761D01*
X61194819Y-48654761D02*
X61194819Y-48559523D01*
X61194819Y-48559523D02*
X61242438Y-48416666D01*
X61242438Y-48416666D02*
X61290057Y-48369047D01*
X61290057Y-47988094D02*
X61242438Y-47940475D01*
X61242438Y-47940475D02*
X61194819Y-47845237D01*
X61194819Y-47845237D02*
X61194819Y-47607142D01*
X61194819Y-47607142D02*
X61242438Y-47511904D01*
X61242438Y-47511904D02*
X61290057Y-47464285D01*
X61290057Y-47464285D02*
X61385295Y-47416666D01*
X61385295Y-47416666D02*
X61480533Y-47416666D01*
X61480533Y-47416666D02*
X61623390Y-47464285D01*
X61623390Y-47464285D02*
X62194819Y-48035713D01*
X62194819Y-48035713D02*
X62194819Y-47416666D01*
X61194819Y-46797618D02*
X61194819Y-46702380D01*
X61194819Y-46702380D02*
X61242438Y-46607142D01*
X61242438Y-46607142D02*
X61290057Y-46559523D01*
X61290057Y-46559523D02*
X61385295Y-46511904D01*
X61385295Y-46511904D02*
X61575771Y-46464285D01*
X61575771Y-46464285D02*
X61813866Y-46464285D01*
X61813866Y-46464285D02*
X62004342Y-46511904D01*
X62004342Y-46511904D02*
X62099580Y-46559523D01*
X62099580Y-46559523D02*
X62147200Y-46607142D01*
X62147200Y-46607142D02*
X62194819Y-46702380D01*
X62194819Y-46702380D02*
X62194819Y-46797618D01*
X62194819Y-46797618D02*
X62147200Y-46892856D01*
X62147200Y-46892856D02*
X62099580Y-46940475D01*
X62099580Y-46940475D02*
X62004342Y-46988094D01*
X62004342Y-46988094D02*
X61813866Y-47035713D01*
X61813866Y-47035713D02*
X61575771Y-47035713D01*
X61575771Y-47035713D02*
X61385295Y-46988094D01*
X61385295Y-46988094D02*
X61290057Y-46940475D01*
X61290057Y-46940475D02*
X61242438Y-46892856D01*
X61242438Y-46892856D02*
X61194819Y-46797618D01*
X62194819Y-45511904D02*
X62194819Y-46083332D01*
X62194819Y-45797618D02*
X61194819Y-45797618D01*
X61194819Y-45797618D02*
X61337676Y-45892856D01*
X61337676Y-45892856D02*
X61432914Y-45988094D01*
X61432914Y-45988094D02*
X61480533Y-46083332D01*
X79789580Y-48344047D02*
X79837200Y-48391666D01*
X79837200Y-48391666D02*
X79884819Y-48534523D01*
X79884819Y-48534523D02*
X79884819Y-48629761D01*
X79884819Y-48629761D02*
X79837200Y-48772618D01*
X79837200Y-48772618D02*
X79741961Y-48867856D01*
X79741961Y-48867856D02*
X79646723Y-48915475D01*
X79646723Y-48915475D02*
X79456247Y-48963094D01*
X79456247Y-48963094D02*
X79313390Y-48963094D01*
X79313390Y-48963094D02*
X79122914Y-48915475D01*
X79122914Y-48915475D02*
X79027676Y-48867856D01*
X79027676Y-48867856D02*
X78932438Y-48772618D01*
X78932438Y-48772618D02*
X78884819Y-48629761D01*
X78884819Y-48629761D02*
X78884819Y-48534523D01*
X78884819Y-48534523D02*
X78932438Y-48391666D01*
X78932438Y-48391666D02*
X78980057Y-48344047D01*
X78980057Y-47963094D02*
X78932438Y-47915475D01*
X78932438Y-47915475D02*
X78884819Y-47820237D01*
X78884819Y-47820237D02*
X78884819Y-47582142D01*
X78884819Y-47582142D02*
X78932438Y-47486904D01*
X78932438Y-47486904D02*
X78980057Y-47439285D01*
X78980057Y-47439285D02*
X79075295Y-47391666D01*
X79075295Y-47391666D02*
X79170533Y-47391666D01*
X79170533Y-47391666D02*
X79313390Y-47439285D01*
X79313390Y-47439285D02*
X79884819Y-48010713D01*
X79884819Y-48010713D02*
X79884819Y-47391666D01*
X79884819Y-46439285D02*
X79884819Y-47010713D01*
X79884819Y-46724999D02*
X78884819Y-46724999D01*
X78884819Y-46724999D02*
X79027676Y-46820237D01*
X79027676Y-46820237D02*
X79122914Y-46915475D01*
X79122914Y-46915475D02*
X79170533Y-47010713D01*
X78884819Y-45820237D02*
X78884819Y-45724999D01*
X78884819Y-45724999D02*
X78932438Y-45629761D01*
X78932438Y-45629761D02*
X78980057Y-45582142D01*
X78980057Y-45582142D02*
X79075295Y-45534523D01*
X79075295Y-45534523D02*
X79265771Y-45486904D01*
X79265771Y-45486904D02*
X79503866Y-45486904D01*
X79503866Y-45486904D02*
X79694342Y-45534523D01*
X79694342Y-45534523D02*
X79789580Y-45582142D01*
X79789580Y-45582142D02*
X79837200Y-45629761D01*
X79837200Y-45629761D02*
X79884819Y-45724999D01*
X79884819Y-45724999D02*
X79884819Y-45820237D01*
X79884819Y-45820237D02*
X79837200Y-45915475D01*
X79837200Y-45915475D02*
X79789580Y-45963094D01*
X79789580Y-45963094D02*
X79694342Y-46010713D01*
X79694342Y-46010713D02*
X79503866Y-46058332D01*
X79503866Y-46058332D02*
X79265771Y-46058332D01*
X79265771Y-46058332D02*
X79075295Y-46010713D01*
X79075295Y-46010713D02*
X78980057Y-45963094D01*
X78980057Y-45963094D02*
X78932438Y-45915475D01*
X78932438Y-45915475D02*
X78884819Y-45820237D01*
X66370952Y-45446104D02*
X66323333Y-45484200D01*
X66323333Y-45484200D02*
X66180476Y-45522295D01*
X66180476Y-45522295D02*
X66085238Y-45522295D01*
X66085238Y-45522295D02*
X65942381Y-45484200D01*
X65942381Y-45484200D02*
X65847143Y-45408009D01*
X65847143Y-45408009D02*
X65799524Y-45331819D01*
X65799524Y-45331819D02*
X65751905Y-45179438D01*
X65751905Y-45179438D02*
X65751905Y-45065152D01*
X65751905Y-45065152D02*
X65799524Y-44912771D01*
X65799524Y-44912771D02*
X65847143Y-44836580D01*
X65847143Y-44836580D02*
X65942381Y-44760390D01*
X65942381Y-44760390D02*
X66085238Y-44722295D01*
X66085238Y-44722295D02*
X66180476Y-44722295D01*
X66180476Y-44722295D02*
X66323333Y-44760390D01*
X66323333Y-44760390D02*
X66370952Y-44798485D01*
X66751905Y-44798485D02*
X66799524Y-44760390D01*
X66799524Y-44760390D02*
X66894762Y-44722295D01*
X66894762Y-44722295D02*
X67132857Y-44722295D01*
X67132857Y-44722295D02*
X67228095Y-44760390D01*
X67228095Y-44760390D02*
X67275714Y-44798485D01*
X67275714Y-44798485D02*
X67323333Y-44874676D01*
X67323333Y-44874676D02*
X67323333Y-44950866D01*
X67323333Y-44950866D02*
X67275714Y-45065152D01*
X67275714Y-45065152D02*
X66704286Y-45522295D01*
X66704286Y-45522295D02*
X67323333Y-45522295D01*
X67942381Y-44722295D02*
X68037619Y-44722295D01*
X68037619Y-44722295D02*
X68132857Y-44760390D01*
X68132857Y-44760390D02*
X68180476Y-44798485D01*
X68180476Y-44798485D02*
X68228095Y-44874676D01*
X68228095Y-44874676D02*
X68275714Y-45027057D01*
X68275714Y-45027057D02*
X68275714Y-45217533D01*
X68275714Y-45217533D02*
X68228095Y-45369914D01*
X68228095Y-45369914D02*
X68180476Y-45446104D01*
X68180476Y-45446104D02*
X68132857Y-45484200D01*
X68132857Y-45484200D02*
X68037619Y-45522295D01*
X68037619Y-45522295D02*
X67942381Y-45522295D01*
X67942381Y-45522295D02*
X67847143Y-45484200D01*
X67847143Y-45484200D02*
X67799524Y-45446104D01*
X67799524Y-45446104D02*
X67751905Y-45369914D01*
X67751905Y-45369914D02*
X67704286Y-45217533D01*
X67704286Y-45217533D02*
X67704286Y-45027057D01*
X67704286Y-45027057D02*
X67751905Y-44874676D01*
X67751905Y-44874676D02*
X67799524Y-44798485D01*
X67799524Y-44798485D02*
X67847143Y-44760390D01*
X67847143Y-44760390D02*
X67942381Y-44722295D01*
X68609048Y-44722295D02*
X69228095Y-44722295D01*
X69228095Y-44722295D02*
X68894762Y-45027057D01*
X68894762Y-45027057D02*
X69037619Y-45027057D01*
X69037619Y-45027057D02*
X69132857Y-45065152D01*
X69132857Y-45065152D02*
X69180476Y-45103247D01*
X69180476Y-45103247D02*
X69228095Y-45179438D01*
X69228095Y-45179438D02*
X69228095Y-45369914D01*
X69228095Y-45369914D02*
X69180476Y-45446104D01*
X69180476Y-45446104D02*
X69132857Y-45484200D01*
X69132857Y-45484200D02*
X69037619Y-45522295D01*
X69037619Y-45522295D02*
X68751905Y-45522295D01*
X68751905Y-45522295D02*
X68656667Y-45484200D01*
X68656667Y-45484200D02*
X68609048Y-45446104D01*
X83383809Y-59838485D02*
X83307619Y-59800390D01*
X83307619Y-59800390D02*
X83231428Y-59724200D01*
X83231428Y-59724200D02*
X83117142Y-59609914D01*
X83117142Y-59609914D02*
X83040952Y-59571819D01*
X83040952Y-59571819D02*
X82964761Y-59571819D01*
X83002857Y-59762295D02*
X82926666Y-59724200D01*
X82926666Y-59724200D02*
X82850476Y-59648009D01*
X82850476Y-59648009D02*
X82812380Y-59495628D01*
X82812380Y-59495628D02*
X82812380Y-59228961D01*
X82812380Y-59228961D02*
X82850476Y-59076580D01*
X82850476Y-59076580D02*
X82926666Y-59000390D01*
X82926666Y-59000390D02*
X83002857Y-58962295D01*
X83002857Y-58962295D02*
X83155238Y-58962295D01*
X83155238Y-58962295D02*
X83231428Y-59000390D01*
X83231428Y-59000390D02*
X83307619Y-59076580D01*
X83307619Y-59076580D02*
X83345714Y-59228961D01*
X83345714Y-59228961D02*
X83345714Y-59495628D01*
X83345714Y-59495628D02*
X83307619Y-59648009D01*
X83307619Y-59648009D02*
X83231428Y-59724200D01*
X83231428Y-59724200D02*
X83155238Y-59762295D01*
X83155238Y-59762295D02*
X83002857Y-59762295D01*
X83650475Y-59038485D02*
X83688571Y-59000390D01*
X83688571Y-59000390D02*
X83764761Y-58962295D01*
X83764761Y-58962295D02*
X83955237Y-58962295D01*
X83955237Y-58962295D02*
X84031428Y-59000390D01*
X84031428Y-59000390D02*
X84069523Y-59038485D01*
X84069523Y-59038485D02*
X84107618Y-59114676D01*
X84107618Y-59114676D02*
X84107618Y-59190866D01*
X84107618Y-59190866D02*
X84069523Y-59305152D01*
X84069523Y-59305152D02*
X83612380Y-59762295D01*
X83612380Y-59762295D02*
X84107618Y-59762295D01*
X81770476Y-46082295D02*
X81770476Y-46729914D01*
X81770476Y-46729914D02*
X81808571Y-46806104D01*
X81808571Y-46806104D02*
X81846666Y-46844200D01*
X81846666Y-46844200D02*
X81922857Y-46882295D01*
X81922857Y-46882295D02*
X82075238Y-46882295D01*
X82075238Y-46882295D02*
X82151428Y-46844200D01*
X82151428Y-46844200D02*
X82189523Y-46806104D01*
X82189523Y-46806104D02*
X82227619Y-46729914D01*
X82227619Y-46729914D02*
X82227619Y-46082295D01*
X82570475Y-46158485D02*
X82608571Y-46120390D01*
X82608571Y-46120390D02*
X82684761Y-46082295D01*
X82684761Y-46082295D02*
X82875237Y-46082295D01*
X82875237Y-46082295D02*
X82951428Y-46120390D01*
X82951428Y-46120390D02*
X82989523Y-46158485D01*
X82989523Y-46158485D02*
X83027618Y-46234676D01*
X83027618Y-46234676D02*
X83027618Y-46310866D01*
X83027618Y-46310866D02*
X82989523Y-46425152D01*
X82989523Y-46425152D02*
X82532380Y-46882295D01*
X82532380Y-46882295D02*
X83027618Y-46882295D01*
X52657431Y-62219470D02*
X52324098Y-61743279D01*
X52086003Y-62219470D02*
X52086003Y-61219470D01*
X52086003Y-61219470D02*
X52466955Y-61219470D01*
X52466955Y-61219470D02*
X52562193Y-61267089D01*
X52562193Y-61267089D02*
X52609812Y-61314708D01*
X52609812Y-61314708D02*
X52657431Y-61409946D01*
X52657431Y-61409946D02*
X52657431Y-61552803D01*
X52657431Y-61552803D02*
X52609812Y-61648041D01*
X52609812Y-61648041D02*
X52562193Y-61695660D01*
X52562193Y-61695660D02*
X52466955Y-61743279D01*
X52466955Y-61743279D02*
X52086003Y-61743279D01*
X53038384Y-61314708D02*
X53086003Y-61267089D01*
X53086003Y-61267089D02*
X53181241Y-61219470D01*
X53181241Y-61219470D02*
X53419336Y-61219470D01*
X53419336Y-61219470D02*
X53514574Y-61267089D01*
X53514574Y-61267089D02*
X53562193Y-61314708D01*
X53562193Y-61314708D02*
X53609812Y-61409946D01*
X53609812Y-61409946D02*
X53609812Y-61505184D01*
X53609812Y-61505184D02*
X53562193Y-61648041D01*
X53562193Y-61648041D02*
X52990765Y-62219470D01*
X52990765Y-62219470D02*
X53609812Y-62219470D01*
X54228860Y-61219470D02*
X54324098Y-61219470D01*
X54324098Y-61219470D02*
X54419336Y-61267089D01*
X54419336Y-61267089D02*
X54466955Y-61314708D01*
X54466955Y-61314708D02*
X54514574Y-61409946D01*
X54514574Y-61409946D02*
X54562193Y-61600422D01*
X54562193Y-61600422D02*
X54562193Y-61838517D01*
X54562193Y-61838517D02*
X54514574Y-62028993D01*
X54514574Y-62028993D02*
X54466955Y-62124231D01*
X54466955Y-62124231D02*
X54419336Y-62171851D01*
X54419336Y-62171851D02*
X54324098Y-62219470D01*
X54324098Y-62219470D02*
X54228860Y-62219470D01*
X54228860Y-62219470D02*
X54133622Y-62171851D01*
X54133622Y-62171851D02*
X54086003Y-62124231D01*
X54086003Y-62124231D02*
X54038384Y-62028993D01*
X54038384Y-62028993D02*
X53990765Y-61838517D01*
X53990765Y-61838517D02*
X53990765Y-61600422D01*
X53990765Y-61600422D02*
X54038384Y-61409946D01*
X54038384Y-61409946D02*
X54086003Y-61314708D01*
X54086003Y-61314708D02*
X54133622Y-61267089D01*
X54133622Y-61267089D02*
X54228860Y-61219470D01*
X55133622Y-61648041D02*
X55038384Y-61600422D01*
X55038384Y-61600422D02*
X54990765Y-61552803D01*
X54990765Y-61552803D02*
X54943146Y-61457565D01*
X54943146Y-61457565D02*
X54943146Y-61409946D01*
X54943146Y-61409946D02*
X54990765Y-61314708D01*
X54990765Y-61314708D02*
X55038384Y-61267089D01*
X55038384Y-61267089D02*
X55133622Y-61219470D01*
X55133622Y-61219470D02*
X55324098Y-61219470D01*
X55324098Y-61219470D02*
X55419336Y-61267089D01*
X55419336Y-61267089D02*
X55466955Y-61314708D01*
X55466955Y-61314708D02*
X55514574Y-61409946D01*
X55514574Y-61409946D02*
X55514574Y-61457565D01*
X55514574Y-61457565D02*
X55466955Y-61552803D01*
X55466955Y-61552803D02*
X55419336Y-61600422D01*
X55419336Y-61600422D02*
X55324098Y-61648041D01*
X55324098Y-61648041D02*
X55133622Y-61648041D01*
X55133622Y-61648041D02*
X55038384Y-61695660D01*
X55038384Y-61695660D02*
X54990765Y-61743279D01*
X54990765Y-61743279D02*
X54943146Y-61838517D01*
X54943146Y-61838517D02*
X54943146Y-62028993D01*
X54943146Y-62028993D02*
X54990765Y-62124231D01*
X54990765Y-62124231D02*
X55038384Y-62171851D01*
X55038384Y-62171851D02*
X55133622Y-62219470D01*
X55133622Y-62219470D02*
X55324098Y-62219470D01*
X55324098Y-62219470D02*
X55419336Y-62171851D01*
X55419336Y-62171851D02*
X55466955Y-62124231D01*
X55466955Y-62124231D02*
X55514574Y-62028993D01*
X55514574Y-62028993D02*
X55514574Y-61838517D01*
X55514574Y-61838517D02*
X55466955Y-61743279D01*
X55466955Y-61743279D02*
X55419336Y-61695660D01*
X55419336Y-61695660D02*
X55324098Y-61648041D01*
X65074819Y-74333333D02*
X65789104Y-74333333D01*
X65789104Y-74333333D02*
X65931961Y-74380952D01*
X65931961Y-74380952D02*
X66027200Y-74476190D01*
X66027200Y-74476190D02*
X66074819Y-74619047D01*
X66074819Y-74619047D02*
X66074819Y-74714285D01*
X65074819Y-73428571D02*
X65074819Y-73619047D01*
X65074819Y-73619047D02*
X65122438Y-73714285D01*
X65122438Y-73714285D02*
X65170057Y-73761904D01*
X65170057Y-73761904D02*
X65312914Y-73857142D01*
X65312914Y-73857142D02*
X65503390Y-73904761D01*
X65503390Y-73904761D02*
X65884342Y-73904761D01*
X65884342Y-73904761D02*
X65979580Y-73857142D01*
X65979580Y-73857142D02*
X66027200Y-73809523D01*
X66027200Y-73809523D02*
X66074819Y-73714285D01*
X66074819Y-73714285D02*
X66074819Y-73523809D01*
X66074819Y-73523809D02*
X66027200Y-73428571D01*
X66027200Y-73428571D02*
X65979580Y-73380952D01*
X65979580Y-73380952D02*
X65884342Y-73333333D01*
X65884342Y-73333333D02*
X65646247Y-73333333D01*
X65646247Y-73333333D02*
X65551009Y-73380952D01*
X65551009Y-73380952D02*
X65503390Y-73428571D01*
X65503390Y-73428571D02*
X65455771Y-73523809D01*
X65455771Y-73523809D02*
X65455771Y-73714285D01*
X65455771Y-73714285D02*
X65503390Y-73809523D01*
X65503390Y-73809523D02*
X65551009Y-73857142D01*
X65551009Y-73857142D02*
X65646247Y-73904761D01*
X54309524Y-68024819D02*
X54309524Y-67024819D01*
X54309524Y-67024819D02*
X54547619Y-67024819D01*
X54547619Y-67024819D02*
X54690476Y-67072438D01*
X54690476Y-67072438D02*
X54785714Y-67167676D01*
X54785714Y-67167676D02*
X54833333Y-67262914D01*
X54833333Y-67262914D02*
X54880952Y-67453390D01*
X54880952Y-67453390D02*
X54880952Y-67596247D01*
X54880952Y-67596247D02*
X54833333Y-67786723D01*
X54833333Y-67786723D02*
X54785714Y-67881961D01*
X54785714Y-67881961D02*
X54690476Y-67977200D01*
X54690476Y-67977200D02*
X54547619Y-68024819D01*
X54547619Y-68024819D02*
X54309524Y-68024819D01*
X55261905Y-67120057D02*
X55309524Y-67072438D01*
X55309524Y-67072438D02*
X55404762Y-67024819D01*
X55404762Y-67024819D02*
X55642857Y-67024819D01*
X55642857Y-67024819D02*
X55738095Y-67072438D01*
X55738095Y-67072438D02*
X55785714Y-67120057D01*
X55785714Y-67120057D02*
X55833333Y-67215295D01*
X55833333Y-67215295D02*
X55833333Y-67310533D01*
X55833333Y-67310533D02*
X55785714Y-67453390D01*
X55785714Y-67453390D02*
X55214286Y-68024819D01*
X55214286Y-68024819D02*
X55833333Y-68024819D01*
X56452381Y-67024819D02*
X56547619Y-67024819D01*
X56547619Y-67024819D02*
X56642857Y-67072438D01*
X56642857Y-67072438D02*
X56690476Y-67120057D01*
X56690476Y-67120057D02*
X56738095Y-67215295D01*
X56738095Y-67215295D02*
X56785714Y-67405771D01*
X56785714Y-67405771D02*
X56785714Y-67643866D01*
X56785714Y-67643866D02*
X56738095Y-67834342D01*
X56738095Y-67834342D02*
X56690476Y-67929580D01*
X56690476Y-67929580D02*
X56642857Y-67977200D01*
X56642857Y-67977200D02*
X56547619Y-68024819D01*
X56547619Y-68024819D02*
X56452381Y-68024819D01*
X56452381Y-68024819D02*
X56357143Y-67977200D01*
X56357143Y-67977200D02*
X56309524Y-67929580D01*
X56309524Y-67929580D02*
X56261905Y-67834342D01*
X56261905Y-67834342D02*
X56214286Y-67643866D01*
X56214286Y-67643866D02*
X56214286Y-67405771D01*
X56214286Y-67405771D02*
X56261905Y-67215295D01*
X56261905Y-67215295D02*
X56309524Y-67120057D01*
X56309524Y-67120057D02*
X56357143Y-67072438D01*
X56357143Y-67072438D02*
X56452381Y-67024819D01*
X57166667Y-67120057D02*
X57214286Y-67072438D01*
X57214286Y-67072438D02*
X57309524Y-67024819D01*
X57309524Y-67024819D02*
X57547619Y-67024819D01*
X57547619Y-67024819D02*
X57642857Y-67072438D01*
X57642857Y-67072438D02*
X57690476Y-67120057D01*
X57690476Y-67120057D02*
X57738095Y-67215295D01*
X57738095Y-67215295D02*
X57738095Y-67310533D01*
X57738095Y-67310533D02*
X57690476Y-67453390D01*
X57690476Y-67453390D02*
X57119048Y-68024819D01*
X57119048Y-68024819D02*
X57738095Y-68024819D01*
X52754389Y-60359897D02*
X52421056Y-59883706D01*
X52182961Y-60359897D02*
X52182961Y-59359897D01*
X52182961Y-59359897D02*
X52563913Y-59359897D01*
X52563913Y-59359897D02*
X52659151Y-59407516D01*
X52659151Y-59407516D02*
X52706770Y-59455135D01*
X52706770Y-59455135D02*
X52754389Y-59550373D01*
X52754389Y-59550373D02*
X52754389Y-59693230D01*
X52754389Y-59693230D02*
X52706770Y-59788468D01*
X52706770Y-59788468D02*
X52659151Y-59836087D01*
X52659151Y-59836087D02*
X52563913Y-59883706D01*
X52563913Y-59883706D02*
X52182961Y-59883706D01*
X53135342Y-59455135D02*
X53182961Y-59407516D01*
X53182961Y-59407516D02*
X53278199Y-59359897D01*
X53278199Y-59359897D02*
X53516294Y-59359897D01*
X53516294Y-59359897D02*
X53611532Y-59407516D01*
X53611532Y-59407516D02*
X53659151Y-59455135D01*
X53659151Y-59455135D02*
X53706770Y-59550373D01*
X53706770Y-59550373D02*
X53706770Y-59645611D01*
X53706770Y-59645611D02*
X53659151Y-59788468D01*
X53659151Y-59788468D02*
X53087723Y-60359897D01*
X53087723Y-60359897D02*
X53706770Y-60359897D01*
X54325818Y-59359897D02*
X54421056Y-59359897D01*
X54421056Y-59359897D02*
X54516294Y-59407516D01*
X54516294Y-59407516D02*
X54563913Y-59455135D01*
X54563913Y-59455135D02*
X54611532Y-59550373D01*
X54611532Y-59550373D02*
X54659151Y-59740849D01*
X54659151Y-59740849D02*
X54659151Y-59978944D01*
X54659151Y-59978944D02*
X54611532Y-60169420D01*
X54611532Y-60169420D02*
X54563913Y-60264658D01*
X54563913Y-60264658D02*
X54516294Y-60312278D01*
X54516294Y-60312278D02*
X54421056Y-60359897D01*
X54421056Y-60359897D02*
X54325818Y-60359897D01*
X54325818Y-60359897D02*
X54230580Y-60312278D01*
X54230580Y-60312278D02*
X54182961Y-60264658D01*
X54182961Y-60264658D02*
X54135342Y-60169420D01*
X54135342Y-60169420D02*
X54087723Y-59978944D01*
X54087723Y-59978944D02*
X54087723Y-59740849D01*
X54087723Y-59740849D02*
X54135342Y-59550373D01*
X54135342Y-59550373D02*
X54182961Y-59455135D01*
X54182961Y-59455135D02*
X54230580Y-59407516D01*
X54230580Y-59407516D02*
X54325818Y-59359897D01*
X54992485Y-59359897D02*
X55659151Y-59359897D01*
X55659151Y-59359897D02*
X55230580Y-60359897D01*
X59399580Y-48344047D02*
X59447200Y-48391666D01*
X59447200Y-48391666D02*
X59494819Y-48534523D01*
X59494819Y-48534523D02*
X59494819Y-48629761D01*
X59494819Y-48629761D02*
X59447200Y-48772618D01*
X59447200Y-48772618D02*
X59351961Y-48867856D01*
X59351961Y-48867856D02*
X59256723Y-48915475D01*
X59256723Y-48915475D02*
X59066247Y-48963094D01*
X59066247Y-48963094D02*
X58923390Y-48963094D01*
X58923390Y-48963094D02*
X58732914Y-48915475D01*
X58732914Y-48915475D02*
X58637676Y-48867856D01*
X58637676Y-48867856D02*
X58542438Y-48772618D01*
X58542438Y-48772618D02*
X58494819Y-48629761D01*
X58494819Y-48629761D02*
X58494819Y-48534523D01*
X58494819Y-48534523D02*
X58542438Y-48391666D01*
X58542438Y-48391666D02*
X58590057Y-48344047D01*
X58590057Y-47963094D02*
X58542438Y-47915475D01*
X58542438Y-47915475D02*
X58494819Y-47820237D01*
X58494819Y-47820237D02*
X58494819Y-47582142D01*
X58494819Y-47582142D02*
X58542438Y-47486904D01*
X58542438Y-47486904D02*
X58590057Y-47439285D01*
X58590057Y-47439285D02*
X58685295Y-47391666D01*
X58685295Y-47391666D02*
X58780533Y-47391666D01*
X58780533Y-47391666D02*
X58923390Y-47439285D01*
X58923390Y-47439285D02*
X59494819Y-48010713D01*
X59494819Y-48010713D02*
X59494819Y-47391666D01*
X58494819Y-46772618D02*
X58494819Y-46677380D01*
X58494819Y-46677380D02*
X58542438Y-46582142D01*
X58542438Y-46582142D02*
X58590057Y-46534523D01*
X58590057Y-46534523D02*
X58685295Y-46486904D01*
X58685295Y-46486904D02*
X58875771Y-46439285D01*
X58875771Y-46439285D02*
X59113866Y-46439285D01*
X59113866Y-46439285D02*
X59304342Y-46486904D01*
X59304342Y-46486904D02*
X59399580Y-46534523D01*
X59399580Y-46534523D02*
X59447200Y-46582142D01*
X59447200Y-46582142D02*
X59494819Y-46677380D01*
X59494819Y-46677380D02*
X59494819Y-46772618D01*
X59494819Y-46772618D02*
X59447200Y-46867856D01*
X59447200Y-46867856D02*
X59399580Y-46915475D01*
X59399580Y-46915475D02*
X59304342Y-46963094D01*
X59304342Y-46963094D02*
X59113866Y-47010713D01*
X59113866Y-47010713D02*
X58875771Y-47010713D01*
X58875771Y-47010713D02*
X58685295Y-46963094D01*
X58685295Y-46963094D02*
X58590057Y-46915475D01*
X58590057Y-46915475D02*
X58542438Y-46867856D01*
X58542438Y-46867856D02*
X58494819Y-46772618D01*
X58494819Y-45820237D02*
X58494819Y-45724999D01*
X58494819Y-45724999D02*
X58542438Y-45629761D01*
X58542438Y-45629761D02*
X58590057Y-45582142D01*
X58590057Y-45582142D02*
X58685295Y-45534523D01*
X58685295Y-45534523D02*
X58875771Y-45486904D01*
X58875771Y-45486904D02*
X59113866Y-45486904D01*
X59113866Y-45486904D02*
X59304342Y-45534523D01*
X59304342Y-45534523D02*
X59399580Y-45582142D01*
X59399580Y-45582142D02*
X59447200Y-45629761D01*
X59447200Y-45629761D02*
X59494819Y-45724999D01*
X59494819Y-45724999D02*
X59494819Y-45820237D01*
X59494819Y-45820237D02*
X59447200Y-45915475D01*
X59447200Y-45915475D02*
X59399580Y-45963094D01*
X59399580Y-45963094D02*
X59304342Y-46010713D01*
X59304342Y-46010713D02*
X59113866Y-46058332D01*
X59113866Y-46058332D02*
X58875771Y-46058332D01*
X58875771Y-46058332D02*
X58685295Y-46010713D01*
X58685295Y-46010713D02*
X58590057Y-45963094D01*
X58590057Y-45963094D02*
X58542438Y-45915475D01*
X58542438Y-45915475D02*
X58494819Y-45820237D01*
X64929580Y-48344047D02*
X64977200Y-48391666D01*
X64977200Y-48391666D02*
X65024819Y-48534523D01*
X65024819Y-48534523D02*
X65024819Y-48629761D01*
X65024819Y-48629761D02*
X64977200Y-48772618D01*
X64977200Y-48772618D02*
X64881961Y-48867856D01*
X64881961Y-48867856D02*
X64786723Y-48915475D01*
X64786723Y-48915475D02*
X64596247Y-48963094D01*
X64596247Y-48963094D02*
X64453390Y-48963094D01*
X64453390Y-48963094D02*
X64262914Y-48915475D01*
X64262914Y-48915475D02*
X64167676Y-48867856D01*
X64167676Y-48867856D02*
X64072438Y-48772618D01*
X64072438Y-48772618D02*
X64024819Y-48629761D01*
X64024819Y-48629761D02*
X64024819Y-48534523D01*
X64024819Y-48534523D02*
X64072438Y-48391666D01*
X64072438Y-48391666D02*
X64120057Y-48344047D01*
X64120057Y-47963094D02*
X64072438Y-47915475D01*
X64072438Y-47915475D02*
X64024819Y-47820237D01*
X64024819Y-47820237D02*
X64024819Y-47582142D01*
X64024819Y-47582142D02*
X64072438Y-47486904D01*
X64072438Y-47486904D02*
X64120057Y-47439285D01*
X64120057Y-47439285D02*
X64215295Y-47391666D01*
X64215295Y-47391666D02*
X64310533Y-47391666D01*
X64310533Y-47391666D02*
X64453390Y-47439285D01*
X64453390Y-47439285D02*
X65024819Y-48010713D01*
X65024819Y-48010713D02*
X65024819Y-47391666D01*
X64024819Y-46772618D02*
X64024819Y-46677380D01*
X64024819Y-46677380D02*
X64072438Y-46582142D01*
X64072438Y-46582142D02*
X64120057Y-46534523D01*
X64120057Y-46534523D02*
X64215295Y-46486904D01*
X64215295Y-46486904D02*
X64405771Y-46439285D01*
X64405771Y-46439285D02*
X64643866Y-46439285D01*
X64643866Y-46439285D02*
X64834342Y-46486904D01*
X64834342Y-46486904D02*
X64929580Y-46534523D01*
X64929580Y-46534523D02*
X64977200Y-46582142D01*
X64977200Y-46582142D02*
X65024819Y-46677380D01*
X65024819Y-46677380D02*
X65024819Y-46772618D01*
X65024819Y-46772618D02*
X64977200Y-46867856D01*
X64977200Y-46867856D02*
X64929580Y-46915475D01*
X64929580Y-46915475D02*
X64834342Y-46963094D01*
X64834342Y-46963094D02*
X64643866Y-47010713D01*
X64643866Y-47010713D02*
X64405771Y-47010713D01*
X64405771Y-47010713D02*
X64215295Y-46963094D01*
X64215295Y-46963094D02*
X64120057Y-46915475D01*
X64120057Y-46915475D02*
X64072438Y-46867856D01*
X64072438Y-46867856D02*
X64024819Y-46772618D01*
X64120057Y-46058332D02*
X64072438Y-46010713D01*
X64072438Y-46010713D02*
X64024819Y-45915475D01*
X64024819Y-45915475D02*
X64024819Y-45677380D01*
X64024819Y-45677380D02*
X64072438Y-45582142D01*
X64072438Y-45582142D02*
X64120057Y-45534523D01*
X64120057Y-45534523D02*
X64215295Y-45486904D01*
X64215295Y-45486904D02*
X64310533Y-45486904D01*
X64310533Y-45486904D02*
X64453390Y-45534523D01*
X64453390Y-45534523D02*
X65024819Y-46105951D01*
X65024819Y-46105951D02*
X65024819Y-45486904D01*
X52887392Y-56334245D02*
X52554059Y-55858054D01*
X52315964Y-56334245D02*
X52315964Y-55334245D01*
X52315964Y-55334245D02*
X52696916Y-55334245D01*
X52696916Y-55334245D02*
X52792154Y-55381864D01*
X52792154Y-55381864D02*
X52839773Y-55429483D01*
X52839773Y-55429483D02*
X52887392Y-55524721D01*
X52887392Y-55524721D02*
X52887392Y-55667578D01*
X52887392Y-55667578D02*
X52839773Y-55762816D01*
X52839773Y-55762816D02*
X52792154Y-55810435D01*
X52792154Y-55810435D02*
X52696916Y-55858054D01*
X52696916Y-55858054D02*
X52315964Y-55858054D01*
X53268345Y-55429483D02*
X53315964Y-55381864D01*
X53315964Y-55381864D02*
X53411202Y-55334245D01*
X53411202Y-55334245D02*
X53649297Y-55334245D01*
X53649297Y-55334245D02*
X53744535Y-55381864D01*
X53744535Y-55381864D02*
X53792154Y-55429483D01*
X53792154Y-55429483D02*
X53839773Y-55524721D01*
X53839773Y-55524721D02*
X53839773Y-55619959D01*
X53839773Y-55619959D02*
X53792154Y-55762816D01*
X53792154Y-55762816D02*
X53220726Y-56334245D01*
X53220726Y-56334245D02*
X53839773Y-56334245D01*
X54458821Y-55334245D02*
X54554059Y-55334245D01*
X54554059Y-55334245D02*
X54649297Y-55381864D01*
X54649297Y-55381864D02*
X54696916Y-55429483D01*
X54696916Y-55429483D02*
X54744535Y-55524721D01*
X54744535Y-55524721D02*
X54792154Y-55715197D01*
X54792154Y-55715197D02*
X54792154Y-55953292D01*
X54792154Y-55953292D02*
X54744535Y-56143768D01*
X54744535Y-56143768D02*
X54696916Y-56239006D01*
X54696916Y-56239006D02*
X54649297Y-56286626D01*
X54649297Y-56286626D02*
X54554059Y-56334245D01*
X54554059Y-56334245D02*
X54458821Y-56334245D01*
X54458821Y-56334245D02*
X54363583Y-56286626D01*
X54363583Y-56286626D02*
X54315964Y-56239006D01*
X54315964Y-56239006D02*
X54268345Y-56143768D01*
X54268345Y-56143768D02*
X54220726Y-55953292D01*
X54220726Y-55953292D02*
X54220726Y-55715197D01*
X54220726Y-55715197D02*
X54268345Y-55524721D01*
X54268345Y-55524721D02*
X54315964Y-55429483D01*
X54315964Y-55429483D02*
X54363583Y-55381864D01*
X54363583Y-55381864D02*
X54458821Y-55334245D01*
X55411202Y-55334245D02*
X55506440Y-55334245D01*
X55506440Y-55334245D02*
X55601678Y-55381864D01*
X55601678Y-55381864D02*
X55649297Y-55429483D01*
X55649297Y-55429483D02*
X55696916Y-55524721D01*
X55696916Y-55524721D02*
X55744535Y-55715197D01*
X55744535Y-55715197D02*
X55744535Y-55953292D01*
X55744535Y-55953292D02*
X55696916Y-56143768D01*
X55696916Y-56143768D02*
X55649297Y-56239006D01*
X55649297Y-56239006D02*
X55601678Y-56286626D01*
X55601678Y-56286626D02*
X55506440Y-56334245D01*
X55506440Y-56334245D02*
X55411202Y-56334245D01*
X55411202Y-56334245D02*
X55315964Y-56286626D01*
X55315964Y-56286626D02*
X55268345Y-56239006D01*
X55268345Y-56239006D02*
X55220726Y-56143768D01*
X55220726Y-56143768D02*
X55173107Y-55953292D01*
X55173107Y-55953292D02*
X55173107Y-55715197D01*
X55173107Y-55715197D02*
X55220726Y-55524721D01*
X55220726Y-55524721D02*
X55268345Y-55429483D01*
X55268345Y-55429483D02*
X55315964Y-55381864D01*
X55315964Y-55381864D02*
X55411202Y-55334245D01*
X59045003Y-72441646D02*
X58711670Y-71965455D01*
X58473575Y-72441646D02*
X58473575Y-71441646D01*
X58473575Y-71441646D02*
X58854527Y-71441646D01*
X58854527Y-71441646D02*
X58949765Y-71489265D01*
X58949765Y-71489265D02*
X58997384Y-71536884D01*
X58997384Y-71536884D02*
X59045003Y-71632122D01*
X59045003Y-71632122D02*
X59045003Y-71774979D01*
X59045003Y-71774979D02*
X58997384Y-71870217D01*
X58997384Y-71870217D02*
X58949765Y-71917836D01*
X58949765Y-71917836D02*
X58854527Y-71965455D01*
X58854527Y-71965455D02*
X58473575Y-71965455D01*
X59425956Y-71536884D02*
X59473575Y-71489265D01*
X59473575Y-71489265D02*
X59568813Y-71441646D01*
X59568813Y-71441646D02*
X59806908Y-71441646D01*
X59806908Y-71441646D02*
X59902146Y-71489265D01*
X59902146Y-71489265D02*
X59949765Y-71536884D01*
X59949765Y-71536884D02*
X59997384Y-71632122D01*
X59997384Y-71632122D02*
X59997384Y-71727360D01*
X59997384Y-71727360D02*
X59949765Y-71870217D01*
X59949765Y-71870217D02*
X59378337Y-72441646D01*
X59378337Y-72441646D02*
X59997384Y-72441646D01*
X60616432Y-71441646D02*
X60711670Y-71441646D01*
X60711670Y-71441646D02*
X60806908Y-71489265D01*
X60806908Y-71489265D02*
X60854527Y-71536884D01*
X60854527Y-71536884D02*
X60902146Y-71632122D01*
X60902146Y-71632122D02*
X60949765Y-71822598D01*
X60949765Y-71822598D02*
X60949765Y-72060693D01*
X60949765Y-72060693D02*
X60902146Y-72251169D01*
X60902146Y-72251169D02*
X60854527Y-72346407D01*
X60854527Y-72346407D02*
X60806908Y-72394027D01*
X60806908Y-72394027D02*
X60711670Y-72441646D01*
X60711670Y-72441646D02*
X60616432Y-72441646D01*
X60616432Y-72441646D02*
X60521194Y-72394027D01*
X60521194Y-72394027D02*
X60473575Y-72346407D01*
X60473575Y-72346407D02*
X60425956Y-72251169D01*
X60425956Y-72251169D02*
X60378337Y-72060693D01*
X60378337Y-72060693D02*
X60378337Y-71822598D01*
X60378337Y-71822598D02*
X60425956Y-71632122D01*
X60425956Y-71632122D02*
X60473575Y-71536884D01*
X60473575Y-71536884D02*
X60521194Y-71489265D01*
X60521194Y-71489265D02*
X60616432Y-71441646D01*
X61854527Y-71441646D02*
X61378337Y-71441646D01*
X61378337Y-71441646D02*
X61330718Y-71917836D01*
X61330718Y-71917836D02*
X61378337Y-71870217D01*
X61378337Y-71870217D02*
X61473575Y-71822598D01*
X61473575Y-71822598D02*
X61711670Y-71822598D01*
X61711670Y-71822598D02*
X61806908Y-71870217D01*
X61806908Y-71870217D02*
X61854527Y-71917836D01*
X61854527Y-71917836D02*
X61902146Y-72013074D01*
X61902146Y-72013074D02*
X61902146Y-72251169D01*
X61902146Y-72251169D02*
X61854527Y-72346407D01*
X61854527Y-72346407D02*
X61806908Y-72394027D01*
X61806908Y-72394027D02*
X61711670Y-72441646D01*
X61711670Y-72441646D02*
X61473575Y-72441646D01*
X61473575Y-72441646D02*
X61378337Y-72394027D01*
X61378337Y-72394027D02*
X61330718Y-72346407D01*
X69929580Y-48344047D02*
X69977200Y-48391666D01*
X69977200Y-48391666D02*
X70024819Y-48534523D01*
X70024819Y-48534523D02*
X70024819Y-48629761D01*
X70024819Y-48629761D02*
X69977200Y-48772618D01*
X69977200Y-48772618D02*
X69881961Y-48867856D01*
X69881961Y-48867856D02*
X69786723Y-48915475D01*
X69786723Y-48915475D02*
X69596247Y-48963094D01*
X69596247Y-48963094D02*
X69453390Y-48963094D01*
X69453390Y-48963094D02*
X69262914Y-48915475D01*
X69262914Y-48915475D02*
X69167676Y-48867856D01*
X69167676Y-48867856D02*
X69072438Y-48772618D01*
X69072438Y-48772618D02*
X69024819Y-48629761D01*
X69024819Y-48629761D02*
X69024819Y-48534523D01*
X69024819Y-48534523D02*
X69072438Y-48391666D01*
X69072438Y-48391666D02*
X69120057Y-48344047D01*
X69120057Y-47963094D02*
X69072438Y-47915475D01*
X69072438Y-47915475D02*
X69024819Y-47820237D01*
X69024819Y-47820237D02*
X69024819Y-47582142D01*
X69024819Y-47582142D02*
X69072438Y-47486904D01*
X69072438Y-47486904D02*
X69120057Y-47439285D01*
X69120057Y-47439285D02*
X69215295Y-47391666D01*
X69215295Y-47391666D02*
X69310533Y-47391666D01*
X69310533Y-47391666D02*
X69453390Y-47439285D01*
X69453390Y-47439285D02*
X70024819Y-48010713D01*
X70024819Y-48010713D02*
X70024819Y-47391666D01*
X69024819Y-46772618D02*
X69024819Y-46677380D01*
X69024819Y-46677380D02*
X69072438Y-46582142D01*
X69072438Y-46582142D02*
X69120057Y-46534523D01*
X69120057Y-46534523D02*
X69215295Y-46486904D01*
X69215295Y-46486904D02*
X69405771Y-46439285D01*
X69405771Y-46439285D02*
X69643866Y-46439285D01*
X69643866Y-46439285D02*
X69834342Y-46486904D01*
X69834342Y-46486904D02*
X69929580Y-46534523D01*
X69929580Y-46534523D02*
X69977200Y-46582142D01*
X69977200Y-46582142D02*
X70024819Y-46677380D01*
X70024819Y-46677380D02*
X70024819Y-46772618D01*
X70024819Y-46772618D02*
X69977200Y-46867856D01*
X69977200Y-46867856D02*
X69929580Y-46915475D01*
X69929580Y-46915475D02*
X69834342Y-46963094D01*
X69834342Y-46963094D02*
X69643866Y-47010713D01*
X69643866Y-47010713D02*
X69405771Y-47010713D01*
X69405771Y-47010713D02*
X69215295Y-46963094D01*
X69215295Y-46963094D02*
X69120057Y-46915475D01*
X69120057Y-46915475D02*
X69072438Y-46867856D01*
X69072438Y-46867856D02*
X69024819Y-46772618D01*
X69358152Y-45582142D02*
X70024819Y-45582142D01*
X68977200Y-45820237D02*
X69691485Y-46058332D01*
X69691485Y-46058332D02*
X69691485Y-45439285D01*
X75640952Y-65324819D02*
X75164762Y-65324819D01*
X75164762Y-65324819D02*
X75164762Y-64324819D01*
X75926667Y-64420057D02*
X75974286Y-64372438D01*
X75974286Y-64372438D02*
X76069524Y-64324819D01*
X76069524Y-64324819D02*
X76307619Y-64324819D01*
X76307619Y-64324819D02*
X76402857Y-64372438D01*
X76402857Y-64372438D02*
X76450476Y-64420057D01*
X76450476Y-64420057D02*
X76498095Y-64515295D01*
X76498095Y-64515295D02*
X76498095Y-64610533D01*
X76498095Y-64610533D02*
X76450476Y-64753390D01*
X76450476Y-64753390D02*
X75879048Y-65324819D01*
X75879048Y-65324819D02*
X76498095Y-65324819D01*
X77117143Y-64324819D02*
X77212381Y-64324819D01*
X77212381Y-64324819D02*
X77307619Y-64372438D01*
X77307619Y-64372438D02*
X77355238Y-64420057D01*
X77355238Y-64420057D02*
X77402857Y-64515295D01*
X77402857Y-64515295D02*
X77450476Y-64705771D01*
X77450476Y-64705771D02*
X77450476Y-64943866D01*
X77450476Y-64943866D02*
X77402857Y-65134342D01*
X77402857Y-65134342D02*
X77355238Y-65229580D01*
X77355238Y-65229580D02*
X77307619Y-65277200D01*
X77307619Y-65277200D02*
X77212381Y-65324819D01*
X77212381Y-65324819D02*
X77117143Y-65324819D01*
X77117143Y-65324819D02*
X77021905Y-65277200D01*
X77021905Y-65277200D02*
X76974286Y-65229580D01*
X76974286Y-65229580D02*
X76926667Y-65134342D01*
X76926667Y-65134342D02*
X76879048Y-64943866D01*
X76879048Y-64943866D02*
X76879048Y-64705771D01*
X76879048Y-64705771D02*
X76926667Y-64515295D01*
X76926667Y-64515295D02*
X76974286Y-64420057D01*
X76974286Y-64420057D02*
X77021905Y-64372438D01*
X77021905Y-64372438D02*
X77117143Y-64324819D01*
X78069524Y-64324819D02*
X78164762Y-64324819D01*
X78164762Y-64324819D02*
X78260000Y-64372438D01*
X78260000Y-64372438D02*
X78307619Y-64420057D01*
X78307619Y-64420057D02*
X78355238Y-64515295D01*
X78355238Y-64515295D02*
X78402857Y-64705771D01*
X78402857Y-64705771D02*
X78402857Y-64943866D01*
X78402857Y-64943866D02*
X78355238Y-65134342D01*
X78355238Y-65134342D02*
X78307619Y-65229580D01*
X78307619Y-65229580D02*
X78260000Y-65277200D01*
X78260000Y-65277200D02*
X78164762Y-65324819D01*
X78164762Y-65324819D02*
X78069524Y-65324819D01*
X78069524Y-65324819D02*
X77974286Y-65277200D01*
X77974286Y-65277200D02*
X77926667Y-65229580D01*
X77926667Y-65229580D02*
X77879048Y-65134342D01*
X77879048Y-65134342D02*
X77831429Y-64943866D01*
X77831429Y-64943866D02*
X77831429Y-64705771D01*
X77831429Y-64705771D02*
X77879048Y-64515295D01*
X77879048Y-64515295D02*
X77926667Y-64420057D01*
X77926667Y-64420057D02*
X77974286Y-64372438D01*
X77974286Y-64372438D02*
X78069524Y-64324819D01*
X54522024Y-64024819D02*
X54522024Y-63024819D01*
X54522024Y-63024819D02*
X54760119Y-63024819D01*
X54760119Y-63024819D02*
X54902976Y-63072438D01*
X54902976Y-63072438D02*
X54998214Y-63167676D01*
X54998214Y-63167676D02*
X55045833Y-63262914D01*
X55045833Y-63262914D02*
X55093452Y-63453390D01*
X55093452Y-63453390D02*
X55093452Y-63596247D01*
X55093452Y-63596247D02*
X55045833Y-63786723D01*
X55045833Y-63786723D02*
X54998214Y-63881961D01*
X54998214Y-63881961D02*
X54902976Y-63977200D01*
X54902976Y-63977200D02*
X54760119Y-64024819D01*
X54760119Y-64024819D02*
X54522024Y-64024819D01*
X55474405Y-63120057D02*
X55522024Y-63072438D01*
X55522024Y-63072438D02*
X55617262Y-63024819D01*
X55617262Y-63024819D02*
X55855357Y-63024819D01*
X55855357Y-63024819D02*
X55950595Y-63072438D01*
X55950595Y-63072438D02*
X55998214Y-63120057D01*
X55998214Y-63120057D02*
X56045833Y-63215295D01*
X56045833Y-63215295D02*
X56045833Y-63310533D01*
X56045833Y-63310533D02*
X55998214Y-63453390D01*
X55998214Y-63453390D02*
X55426786Y-64024819D01*
X55426786Y-64024819D02*
X56045833Y-64024819D01*
X56664881Y-63024819D02*
X56760119Y-63024819D01*
X56760119Y-63024819D02*
X56855357Y-63072438D01*
X56855357Y-63072438D02*
X56902976Y-63120057D01*
X56902976Y-63120057D02*
X56950595Y-63215295D01*
X56950595Y-63215295D02*
X56998214Y-63405771D01*
X56998214Y-63405771D02*
X56998214Y-63643866D01*
X56998214Y-63643866D02*
X56950595Y-63834342D01*
X56950595Y-63834342D02*
X56902976Y-63929580D01*
X56902976Y-63929580D02*
X56855357Y-63977200D01*
X56855357Y-63977200D02*
X56760119Y-64024819D01*
X56760119Y-64024819D02*
X56664881Y-64024819D01*
X56664881Y-64024819D02*
X56569643Y-63977200D01*
X56569643Y-63977200D02*
X56522024Y-63929580D01*
X56522024Y-63929580D02*
X56474405Y-63834342D01*
X56474405Y-63834342D02*
X56426786Y-63643866D01*
X56426786Y-63643866D02*
X56426786Y-63405771D01*
X56426786Y-63405771D02*
X56474405Y-63215295D01*
X56474405Y-63215295D02*
X56522024Y-63120057D01*
X56522024Y-63120057D02*
X56569643Y-63072438D01*
X56569643Y-63072438D02*
X56664881Y-63024819D01*
X57950595Y-64024819D02*
X57379167Y-64024819D01*
X57664881Y-64024819D02*
X57664881Y-63024819D01*
X57664881Y-63024819D02*
X57569643Y-63167676D01*
X57569643Y-63167676D02*
X57474405Y-63262914D01*
X57474405Y-63262914D02*
X57379167Y-63310533D01*
X81533809Y-50188485D02*
X81457619Y-50150390D01*
X81457619Y-50150390D02*
X81381428Y-50074200D01*
X81381428Y-50074200D02*
X81267142Y-49959914D01*
X81267142Y-49959914D02*
X81190952Y-49921819D01*
X81190952Y-49921819D02*
X81114761Y-49921819D01*
X81152857Y-50112295D02*
X81076666Y-50074200D01*
X81076666Y-50074200D02*
X81000476Y-49998009D01*
X81000476Y-49998009D02*
X80962380Y-49845628D01*
X80962380Y-49845628D02*
X80962380Y-49578961D01*
X80962380Y-49578961D02*
X81000476Y-49426580D01*
X81000476Y-49426580D02*
X81076666Y-49350390D01*
X81076666Y-49350390D02*
X81152857Y-49312295D01*
X81152857Y-49312295D02*
X81305238Y-49312295D01*
X81305238Y-49312295D02*
X81381428Y-49350390D01*
X81381428Y-49350390D02*
X81457619Y-49426580D01*
X81457619Y-49426580D02*
X81495714Y-49578961D01*
X81495714Y-49578961D02*
X81495714Y-49845628D01*
X81495714Y-49845628D02*
X81457619Y-49998009D01*
X81457619Y-49998009D02*
X81381428Y-50074200D01*
X81381428Y-50074200D02*
X81305238Y-50112295D01*
X81305238Y-50112295D02*
X81152857Y-50112295D01*
X82257618Y-50112295D02*
X81800475Y-50112295D01*
X82029047Y-50112295D02*
X82029047Y-49312295D01*
X82029047Y-49312295D02*
X81952856Y-49426580D01*
X81952856Y-49426580D02*
X81876666Y-49502771D01*
X81876666Y-49502771D02*
X81800475Y-49540866D01*
X60097024Y-52024819D02*
X60097024Y-51024819D01*
X60097024Y-51024819D02*
X60335119Y-51024819D01*
X60335119Y-51024819D02*
X60477976Y-51072438D01*
X60477976Y-51072438D02*
X60573214Y-51167676D01*
X60573214Y-51167676D02*
X60620833Y-51262914D01*
X60620833Y-51262914D02*
X60668452Y-51453390D01*
X60668452Y-51453390D02*
X60668452Y-51596247D01*
X60668452Y-51596247D02*
X60620833Y-51786723D01*
X60620833Y-51786723D02*
X60573214Y-51881961D01*
X60573214Y-51881961D02*
X60477976Y-51977200D01*
X60477976Y-51977200D02*
X60335119Y-52024819D01*
X60335119Y-52024819D02*
X60097024Y-52024819D01*
X61049405Y-51120057D02*
X61097024Y-51072438D01*
X61097024Y-51072438D02*
X61192262Y-51024819D01*
X61192262Y-51024819D02*
X61430357Y-51024819D01*
X61430357Y-51024819D02*
X61525595Y-51072438D01*
X61525595Y-51072438D02*
X61573214Y-51120057D01*
X61573214Y-51120057D02*
X61620833Y-51215295D01*
X61620833Y-51215295D02*
X61620833Y-51310533D01*
X61620833Y-51310533D02*
X61573214Y-51453390D01*
X61573214Y-51453390D02*
X61001786Y-52024819D01*
X61001786Y-52024819D02*
X61620833Y-52024819D01*
X62239881Y-51024819D02*
X62335119Y-51024819D01*
X62335119Y-51024819D02*
X62430357Y-51072438D01*
X62430357Y-51072438D02*
X62477976Y-51120057D01*
X62477976Y-51120057D02*
X62525595Y-51215295D01*
X62525595Y-51215295D02*
X62573214Y-51405771D01*
X62573214Y-51405771D02*
X62573214Y-51643866D01*
X62573214Y-51643866D02*
X62525595Y-51834342D01*
X62525595Y-51834342D02*
X62477976Y-51929580D01*
X62477976Y-51929580D02*
X62430357Y-51977200D01*
X62430357Y-51977200D02*
X62335119Y-52024819D01*
X62335119Y-52024819D02*
X62239881Y-52024819D01*
X62239881Y-52024819D02*
X62144643Y-51977200D01*
X62144643Y-51977200D02*
X62097024Y-51929580D01*
X62097024Y-51929580D02*
X62049405Y-51834342D01*
X62049405Y-51834342D02*
X62001786Y-51643866D01*
X62001786Y-51643866D02*
X62001786Y-51405771D01*
X62001786Y-51405771D02*
X62049405Y-51215295D01*
X62049405Y-51215295D02*
X62097024Y-51120057D01*
X62097024Y-51120057D02*
X62144643Y-51072438D01*
X62144643Y-51072438D02*
X62239881Y-51024819D01*
X63192262Y-51024819D02*
X63287500Y-51024819D01*
X63287500Y-51024819D02*
X63382738Y-51072438D01*
X63382738Y-51072438D02*
X63430357Y-51120057D01*
X63430357Y-51120057D02*
X63477976Y-51215295D01*
X63477976Y-51215295D02*
X63525595Y-51405771D01*
X63525595Y-51405771D02*
X63525595Y-51643866D01*
X63525595Y-51643866D02*
X63477976Y-51834342D01*
X63477976Y-51834342D02*
X63430357Y-51929580D01*
X63430357Y-51929580D02*
X63382738Y-51977200D01*
X63382738Y-51977200D02*
X63287500Y-52024819D01*
X63287500Y-52024819D02*
X63192262Y-52024819D01*
X63192262Y-52024819D02*
X63097024Y-51977200D01*
X63097024Y-51977200D02*
X63049405Y-51929580D01*
X63049405Y-51929580D02*
X63001786Y-51834342D01*
X63001786Y-51834342D02*
X62954167Y-51643866D01*
X62954167Y-51643866D02*
X62954167Y-51405771D01*
X62954167Y-51405771D02*
X63001786Y-51215295D01*
X63001786Y-51215295D02*
X63049405Y-51120057D01*
X63049405Y-51120057D02*
X63097024Y-51072438D01*
X63097024Y-51072438D02*
X63192262Y-51024819D01*
D12*
%TO.C,C206*%
X69490000Y-66140580D02*
X69490000Y-65859420D01*
X70510000Y-66140580D02*
X70510000Y-65859420D01*
%TO.C,R204*%
X62337500Y-64447258D02*
X62337500Y-63972742D01*
X63382500Y-64447258D02*
X63382500Y-63972742D01*
%TO.C,R202*%
X60477500Y-68062258D02*
X60477500Y-67587742D01*
X61522500Y-68062258D02*
X61522500Y-67587742D01*
%TO.C,C207*%
X58023698Y-50954141D02*
X58304858Y-50954141D01*
X58023698Y-51974141D02*
X58304858Y-51974141D01*
%TO.C,R203*%
X50021858Y-51316095D02*
X50496374Y-51316095D01*
X50021858Y-52361095D02*
X50496374Y-52361095D01*
%TO.C,R209*%
X88477500Y-47937742D02*
X88477500Y-48412258D01*
X89522500Y-47937742D02*
X89522500Y-48412258D01*
%TO.C,C205*%
X65715000Y-66140580D02*
X65715000Y-65859420D01*
X66735000Y-66140580D02*
X66735000Y-65859420D01*
%TO.C,C209*%
X66490000Y-69915580D02*
X66490000Y-69634420D01*
X67510000Y-69915580D02*
X67510000Y-69634420D01*
%TO.C,R211*%
X88477500Y-55587742D02*
X88477500Y-56062258D01*
X89522500Y-55587742D02*
X89522500Y-56062258D01*
%TO.C,C208*%
X58362467Y-52475536D02*
X58081307Y-52475536D01*
X58362467Y-53495536D02*
X58081307Y-53495536D01*
%TO.C,R201*%
X50021858Y-53316095D02*
X50496374Y-53316095D01*
X50021858Y-54361095D02*
X50496374Y-54361095D01*
%TO.C,R206*%
X49971752Y-57383446D02*
X50446268Y-57383446D01*
X49971752Y-58428446D02*
X50446268Y-58428446D01*
%TO.C,J2*%
X44620000Y-46620000D02*
X46000000Y-46620000D01*
X44620000Y-48000000D02*
X44620000Y-46620000D01*
X44620000Y-49270000D02*
X44620000Y-62080000D01*
X44620000Y-49270000D02*
X47380000Y-49270000D01*
X44620000Y-62080000D02*
X47380000Y-62080000D01*
X47380000Y-49270000D02*
X47380000Y-62080000D01*
D13*
%TO.C,U200*%
X58250000Y-56945000D02*
X58250000Y-57245000D01*
X58250000Y-56945000D02*
X58550000Y-56945000D01*
X58250000Y-60945000D02*
X58250000Y-60645000D01*
X58250000Y-60945000D02*
X58550000Y-60945000D01*
X62250000Y-56945000D02*
X61950000Y-56945000D01*
X62250000Y-56945000D02*
X62250000Y-57245000D01*
X62250000Y-60945000D02*
X61950000Y-60945000D01*
X62250000Y-60945000D02*
X62250000Y-60645000D01*
D14*
X57375000Y-57695000D02*
G75*
G02*
X57175000Y-57695000I-100000J0D01*
G01*
X57175000Y-57695000D02*
G75*
G02*
X57375000Y-57695000I100000J0D01*
G01*
D12*
%TO.C,R210*%
X88477500Y-52062258D02*
X88477500Y-51587742D01*
X89522500Y-52062258D02*
X89522500Y-51587742D01*
%TO.C,C201*%
X62470000Y-47365580D02*
X62470000Y-47084420D01*
X63490000Y-47365580D02*
X63490000Y-47084420D01*
%TO.C,C210*%
X77490000Y-47084420D02*
X77490000Y-47365580D01*
X78510000Y-47084420D02*
X78510000Y-47365580D01*
%TO.C,C203*%
X67490000Y-47365580D02*
X67490000Y-47084420D01*
X68510000Y-47365580D02*
X68510000Y-47084420D01*
D13*
%TO.C,Q2*%
X81805000Y-55325000D02*
X81805000Y-58625000D01*
X81805000Y-58625000D02*
X82002000Y-58625000D01*
X82002000Y-55325000D02*
X81805000Y-55325000D01*
X84908000Y-58625000D02*
X85105000Y-58625000D01*
X85105000Y-55325000D02*
X84908000Y-55325000D01*
X85105000Y-58625000D02*
X85105000Y-55325000D01*
D14*
X84555000Y-54675000D02*
G75*
G02*
X84355000Y-54675000I-100000J0D01*
G01*
X84355000Y-54675000D02*
G75*
G02*
X84555000Y-54675000I100000J0D01*
G01*
D13*
%TO.C,U2*%
X81620000Y-47045000D02*
X83120000Y-47045000D01*
X81620000Y-48955000D02*
X83120000Y-48955000D01*
D14*
X80695000Y-47500000D02*
G75*
G02*
X80495000Y-47500000I-100000J0D01*
G01*
X80495000Y-47500000D02*
G75*
G02*
X80695000Y-47500000I100000J0D01*
G01*
D12*
%TO.C,R208*%
X49929831Y-61231604D02*
X50404347Y-61231604D01*
X49929831Y-62276604D02*
X50404347Y-62276604D01*
%TO.C,J6*%
X66620000Y-75380000D02*
X66620000Y-74000000D01*
X68000000Y-75380000D02*
X66620000Y-75380000D01*
X69270000Y-72620000D02*
X77000000Y-72620000D01*
X69270000Y-75380000D02*
X69270000Y-72620000D01*
X69270000Y-75380000D02*
X77000000Y-75380000D01*
X77000000Y-75380000D02*
X77000000Y-72620000D01*
%TO.C,D202*%
X54515000Y-68265000D02*
X54515000Y-69735000D01*
X54515000Y-69735000D02*
X56800000Y-69735000D01*
X56800000Y-68265000D02*
X54515000Y-68265000D01*
%TO.C,R207*%
X49941057Y-59309728D02*
X50415573Y-59309728D01*
X49941057Y-60354728D02*
X50415573Y-60354728D01*
%TO.C,C200*%
X59960000Y-47365580D02*
X59960000Y-47084420D01*
X60980000Y-47365580D02*
X60980000Y-47084420D01*
%TO.C,C202*%
X65490000Y-47365580D02*
X65490000Y-47084420D01*
X66510000Y-47365580D02*
X66510000Y-47084420D01*
%TO.C,R200*%
X50044903Y-55316095D02*
X50519419Y-55316095D01*
X50044903Y-56361095D02*
X50519419Y-56361095D01*
%TO.C,R205*%
X60401309Y-70034327D02*
X59926793Y-70034327D01*
X60401309Y-71079327D02*
X59926793Y-71079327D01*
%TO.C,C204*%
X70490000Y-47365580D02*
X70490000Y-47084420D01*
X71510000Y-47365580D02*
X71510000Y-47084420D01*
%TO.C,L200*%
X65460000Y-50620000D02*
X68460000Y-50620000D01*
X65460000Y-63220000D02*
X65460000Y-50620000D01*
X68460000Y-63220000D02*
X65460000Y-63220000D01*
X75060000Y-50620000D02*
X78060000Y-50620000D01*
X78060000Y-50620000D02*
X78060000Y-63220000D01*
X78060000Y-63220000D02*
X75060000Y-63220000D01*
%TO.C,D201*%
X54727500Y-64265000D02*
X54727500Y-65735000D01*
X54727500Y-65735000D02*
X57012500Y-65735000D01*
X57012500Y-64265000D02*
X54727500Y-64265000D01*
D13*
%TO.C,Q1*%
X81805000Y-50375000D02*
X81805000Y-50572000D01*
X81805000Y-53478000D02*
X81805000Y-53675000D01*
X81805000Y-53675000D02*
X85105000Y-53675000D01*
X85105000Y-50375000D02*
X81805000Y-50375000D01*
X85105000Y-50572000D02*
X85105000Y-50375000D01*
X85105000Y-53675000D02*
X85105000Y-53478000D01*
D14*
X81255000Y-51025000D02*
G75*
G02*
X81055000Y-51025000I-100000J0D01*
G01*
X81055000Y-51025000D02*
G75*
G02*
X81255000Y-51025000I100000J0D01*
G01*
D12*
%TO.C,D200*%
X60302500Y-52265000D02*
X60302500Y-53735000D01*
X60302500Y-53735000D02*
X62587500Y-53735000D01*
X62587500Y-52265000D02*
X60302500Y-52265000D01*
%TD*%
M02*
