%TF.GenerationSoftware,KiCad,Pcbnew,9.0.2*%
%TF.CreationDate,2025-07-03T13:44:50+05:30*%
%TF.ProjectId,Battery Charger and Protection,42617474-6572-4792-9043-686172676572,rev?*%
%TF.SameCoordinates,Original*%
%TF.FileFunction,Soldermask,Top*%
%TF.FilePolarity,Negative*%
%FSLAX46Y46*%
G04 Gerber Fmt 4.6, Leading zero omitted, Abs format (unit mm)*
G04 Created by KiCad (PCBNEW 9.0.2) date 2025-07-03 13:44:50*
%MOMM*%
%LPD*%
G01*
G04 APERTURE LIST*
G04 Aperture macros list*
%AMRoundRect*
0 Rectangle with rounded corners*
0 $1 Rounding radius*
0 $2 $3 $4 $5 $6 $7 $8 $9 X,Y pos of 4 corners*
0 Add a 4 corners polygon primitive as box body*
4,1,4,$2,$3,$4,$5,$6,$7,$8,$9,$2,$3,0*
0 Add four circle primitives for the rounded corners*
1,1,$1+$1,$2,$3*
1,1,$1+$1,$4,$5*
1,1,$1+$1,$6,$7*
1,1,$1+$1,$8,$9*
0 Add four rect primitives between the rounded corners*
20,1,$1+$1,$2,$3,$4,$5,0*
20,1,$1+$1,$4,$5,$6,$7,0*
20,1,$1+$1,$6,$7,$8,$9,0*
20,1,$1+$1,$8,$9,$2,$3,0*%
G04 Aperture macros list end*
%ADD10RoundRect,0.225000X0.250000X-0.225000X0.250000X0.225000X-0.250000X0.225000X-0.250000X-0.225000X0*%
%ADD11RoundRect,0.200000X0.275000X-0.200000X0.275000X0.200000X-0.275000X0.200000X-0.275000X-0.200000X0*%
%ADD12RoundRect,0.225000X-0.225000X-0.250000X0.225000X-0.250000X0.225000X0.250000X-0.225000X0.250000X0*%
%ADD13RoundRect,0.200000X-0.200000X-0.275000X0.200000X-0.275000X0.200000X0.275000X-0.200000X0.275000X0*%
%ADD14RoundRect,0.200000X-0.275000X0.200000X-0.275000X-0.200000X0.275000X-0.200000X0.275000X0.200000X0*%
%ADD15RoundRect,0.225000X0.225000X0.250000X-0.225000X0.250000X-0.225000X-0.250000X0.225000X-0.250000X0*%
%ADD16R,1.700000X1.700000*%
%ADD17C,1.700000*%
%ADD18RoundRect,0.058000X-0.489000X-0.174000X0.489000X-0.174000X0.489000X0.174000X-0.489000X0.174000X0*%
%ADD19RoundRect,0.058000X-0.174000X-0.489000X0.174000X-0.489000X0.174000X0.489000X-0.174000X0.489000X0*%
%ADD20RoundRect,0.102000X-1.350000X-1.350000X1.350000X-1.350000X1.350000X1.350000X-1.350000X1.350000X0*%
%ADD21RoundRect,0.225000X-0.250000X0.225000X-0.250000X-0.225000X0.250000X-0.225000X0.250000X0.225000X0*%
%ADD22RoundRect,0.102000X-0.250000X0.315000X-0.250000X-0.315000X0.250000X-0.315000X0.250000X0.315000X0*%
%ADD23RoundRect,0.102000X-0.250000X0.205000X-0.250000X-0.205000X0.250000X-0.205000X0.250000X0.205000X0*%
%ADD24RoundRect,0.102000X-1.225000X0.950000X-1.225000X-0.950000X1.225000X-0.950000X1.225000X0.950000X0*%
%ADD25RoundRect,0.059250X-0.552750X-0.177750X0.552750X-0.177750X0.552750X0.177750X-0.552750X0.177750X0*%
%ADD26RoundRect,0.059250X-0.512750X-0.177750X0.512750X-0.177750X0.512750X0.177750X-0.512750X0.177750X0*%
%ADD27RoundRect,0.218750X-0.218750X-0.256250X0.218750X-0.256250X0.218750X0.256250X-0.218750X0.256250X0*%
%ADD28RoundRect,0.200000X0.200000X0.275000X-0.200000X0.275000X-0.200000X-0.275000X0.200000X-0.275000X0*%
%ADD29R,5.400000X2.900000*%
%ADD30RoundRect,0.102000X-0.315000X-0.250000X0.315000X-0.250000X0.315000X0.250000X-0.315000X0.250000X0*%
%ADD31RoundRect,0.102000X-0.205000X-0.250000X0.205000X-0.250000X0.205000X0.250000X-0.205000X0.250000X0*%
%ADD32RoundRect,0.102000X-0.950000X-1.225000X0.950000X-1.225000X0.950000X1.225000X-0.950000X1.225000X0*%
G04 APERTURE END LIST*
D10*
%TO.C,C206*%
X70000000Y-66775000D03*
X70000000Y-65225000D03*
%TD*%
D11*
%TO.C,R204*%
X62860000Y-65035000D03*
X62860000Y-63385000D03*
%TD*%
%TO.C,R202*%
X61000000Y-68650000D03*
X61000000Y-67000000D03*
%TD*%
D12*
%TO.C,C207*%
X57389278Y-51464141D03*
X58939278Y-51464141D03*
%TD*%
D13*
%TO.C,R203*%
X49434116Y-51838595D03*
X51084116Y-51838595D03*
%TD*%
D14*
%TO.C,R209*%
X89000000Y-47350000D03*
X89000000Y-49000000D03*
%TD*%
D10*
%TO.C,C205*%
X66225000Y-66775000D03*
X66225000Y-65225000D03*
%TD*%
%TO.C,C209*%
X67000000Y-70550000D03*
X67000000Y-69000000D03*
%TD*%
D14*
%TO.C,R211*%
X89000000Y-55000000D03*
X89000000Y-56650000D03*
%TD*%
D15*
%TO.C,C208*%
X58996887Y-52985536D03*
X57446887Y-52985536D03*
%TD*%
D13*
%TO.C,R201*%
X49434116Y-53838595D03*
X51084116Y-53838595D03*
%TD*%
%TO.C,R206*%
X49384010Y-57905946D03*
X51034010Y-57905946D03*
%TD*%
D16*
%TO.C,J2*%
X46000000Y-48000000D03*
D17*
X46000000Y-50540000D03*
X46000000Y-53080000D03*
X46000000Y-55620000D03*
X46000000Y-58160000D03*
X46000000Y-60700000D03*
%TD*%
D18*
%TO.C,U200*%
X58305000Y-57695000D03*
X58305000Y-58195000D03*
X58305000Y-58695000D03*
X58305000Y-59195000D03*
X58305000Y-59695000D03*
X58305000Y-60195000D03*
D19*
X59000000Y-60890000D03*
X59500000Y-60890000D03*
X60000000Y-60890000D03*
X60500000Y-60890000D03*
X61000000Y-60890000D03*
X61500000Y-60890000D03*
D18*
X62195000Y-60195000D03*
X62195000Y-59695000D03*
X62195000Y-59195000D03*
X62195000Y-58695000D03*
X62195000Y-58195000D03*
X62195000Y-57695000D03*
D19*
X61500000Y-57000000D03*
X61000000Y-57000000D03*
X60500000Y-57000000D03*
X60000000Y-57000000D03*
X59500000Y-57000000D03*
X59000000Y-57000000D03*
D20*
X60250000Y-58945000D03*
%TD*%
D11*
%TO.C,R210*%
X89000000Y-52650000D03*
X89000000Y-51000000D03*
%TD*%
D10*
%TO.C,C201*%
X62980000Y-48000000D03*
X62980000Y-46450000D03*
%TD*%
D21*
%TO.C,C210*%
X78000000Y-46450000D03*
X78000000Y-48000000D03*
%TD*%
D10*
%TO.C,C203*%
X68000000Y-48000000D03*
X68000000Y-46450000D03*
%TD*%
D22*
%TO.C,Q2*%
X84430000Y-55540000D03*
X83780000Y-55540000D03*
X83130000Y-55540000D03*
X82480000Y-55540000D03*
D23*
X82480000Y-58520000D03*
X83130000Y-58520000D03*
X83780000Y-58520000D03*
X84430000Y-58520000D03*
D24*
X83455000Y-57365000D03*
%TD*%
D25*
%TO.C,U2*%
X81780000Y-47500000D03*
D26*
X81740000Y-48000000D03*
X81740000Y-48500000D03*
X83000000Y-48500000D03*
X83000000Y-48000000D03*
X83000000Y-47500000D03*
%TD*%
D13*
%TO.C,R208*%
X49342089Y-61754104D03*
X50992089Y-61754104D03*
%TD*%
D16*
%TO.C,J6*%
X68000000Y-74000000D03*
D17*
X70540000Y-74000000D03*
X73080000Y-74000000D03*
X75620000Y-74000000D03*
%TD*%
D27*
%TO.C,D202*%
X55212500Y-69000000D03*
X56787500Y-69000000D03*
%TD*%
D13*
%TO.C,R207*%
X49353315Y-59832228D03*
X51003315Y-59832228D03*
%TD*%
D10*
%TO.C,C200*%
X60470000Y-48000000D03*
X60470000Y-46450000D03*
%TD*%
%TO.C,C202*%
X66000000Y-48000000D03*
X66000000Y-46450000D03*
%TD*%
D13*
%TO.C,R200*%
X49457161Y-55838595D03*
X51107161Y-55838595D03*
%TD*%
D28*
%TO.C,R205*%
X60989051Y-70556827D03*
X59339051Y-70556827D03*
%TD*%
D10*
%TO.C,C204*%
X71000000Y-48000000D03*
X71000000Y-46450000D03*
%TD*%
D29*
%TO.C,L200*%
X71760000Y-51970000D03*
X71760000Y-61870000D03*
%TD*%
D27*
%TO.C,D201*%
X55425000Y-65000000D03*
X57000000Y-65000000D03*
%TD*%
D30*
%TO.C,Q1*%
X82020000Y-51050000D03*
X82020000Y-51700000D03*
X82020000Y-52350000D03*
X82020000Y-53000000D03*
D31*
X85000000Y-53000000D03*
X85000000Y-52350000D03*
X85000000Y-51700000D03*
X85000000Y-51050000D03*
D32*
X83845000Y-52025000D03*
%TD*%
D27*
%TO.C,D200*%
X61000000Y-53000000D03*
X62575000Y-53000000D03*
%TD*%
M02*
